<?xml version="1.0" encoding="utf-8"?>
<!-- Generator: Adobe Illustrator 19.0.0, SVG Export Plug-In . SVG Version: 6.00 Build 0)  -->
<svg version="1.1" id="图层_1" xmlns="http://www.w3.org/2000/svg" xmlns:xlink="http://www.w3.org/1999/xlink" x="0px" y="0px"
	 viewBox="0 0 160 220" style="enable-background:new 0 0 160 220;" xml:space="preserve">
<style type="text/css">
	.st0{fill:#FFFFFF;}
	.st1{fill:#E06754;}
	.st2{fill:#82A7D2;}
	.st3{opacity:0.149;}
	.st4{fill:#040000;}
	.st5{opacity:0.102;}
	.st6{fill:#EDCD4E;}
	.st7{opacity:0.102;fill:#040000;}
	.st8{fill:#BBBBBB;}
	.st9{opacity:0.851;}
	.st10{fill:#323333;}
	.st11{fill:none;}
	.st12{fill:#C1C1C1;}
</style>
<g id="XMLID_3835_">
	<g id="XMLID_830_">
		<g id="XMLID_1420_">
			<g id="White_Base_34_">
				<g id="XMLID_1626_">
					<path id="XMLID_1629_" class="st0" d="M63.3,125.4c-20.5,0-37.2,16.6-37.2,37.2s16.6,37.2,37.2,37.2s37.2-16.6,37.2-37.2
						S83.9,125.4,63.3,125.4z M63.3,172.1c-5.2,0-9.5-4.3-9.5-9.5s4.3-9.5,9.5-9.5s9.5,4.3,9.5,9.5S68.6,172.1,63.3,172.1z
						 M63.3,156.3c-3.5,0-6.3,2.8-6.3,6.3s2.8,6.3,6.3,6.3s6.3-2.8,6.3-6.3S66.8,156.3,63.3,156.3z"/>
				</g>
			</g>
			<g id="Red_21_">
				<g id="XMLID_1060_">
					<path id="XMLID_1061_" class="st1" d="M53.9,162.6c0-1.6,0.4-3.1,1.1-4.4c-4.3,6.9-11.4,24.2-11.4,24.2s17.2-7.1,24.2-11.4
						c-1.3,0.7-2.8,1.1-4.4,1.1C58.1,172.1,53.9,167.9,53.9,162.6z"/>
				</g>
			</g>
			<g id="Blue_24_">
				<g id="XMLID_1822_">
					<path id="XMLID_1823_" class="st2" d="M83.1,142.8c0,0-17.1,7-24.1,11.3c1.3-0.7,2.7-1,4.3-1c5.2,0,9.5,4.3,9.5,9.5
						c0,1.6-0.4,3.1-1.1,4.5C76,160.2,83.1,142.8,83.1,142.8z M55.5,167.9c-0.1-0.2-0.2-0.3-0.3-0.5
						C55.3,167.6,55.4,167.7,55.5,167.9z M55.2,167.4c-0.1-0.1-0.2-0.3-0.3-0.5C55,167.1,55.1,167.2,55.2,167.4z M56.3,169
						c-0.1-0.1-0.2-0.2-0.3-0.4C56.1,168.8,56.2,168.9,56.3,169z M56,168.6c-0.2-0.2-0.4-0.5-0.5-0.7
						C55.6,168.2,55.8,168.4,56,168.6z M54.4,165.7c-0.1-0.4-0.2-0.7-0.3-1.1C54.1,165,54.3,165.3,54.4,165.7z M63.3,172.1
						c-2.8,0-5.3-1.2-7-3.1c0.1,0.1,0.2,0.2,0.3,0.3c3.7,3.7,9.7,3.7,13.4,0c0.1-0.1,0.3-0.3,0.5-0.5
						C68.8,170.8,66.2,172.1,63.3,172.1z M54.5,166c0-0.1-0.1-0.2-0.1-0.3C54.4,165.8,54.4,165.9,54.5,166z M54.9,166.9
						c-0.2-0.3-0.3-0.6-0.4-0.9C54.6,166.3,54.7,166.6,54.9,166.9z"/>
				</g>
			</g>
			<g id="Inner_Lines_21_" class="st3">
				<g id="XMLID_1760_">
					<path id="XMLID_1761_" class="st4" d="M63.3,134.9c-0.4,0-0.8,0.4-0.8,0.8v3.2c0,0.4,0.4,0.8,0.8,0.8s0.8-0.4,0.8-0.8v-3.2
						C64.1,135.3,63.8,134.9,63.3,134.9z M63.3,186.3c-0.4,0-0.8,0.4-0.8,0.8v3.2c0,0.4,0.4,0.8,0.8,0.8s0.8-0.4,0.8-0.8v-3.2
						C64.1,186.7,63.8,186.3,63.3,186.3z M63.3,128.6c-18.8,0-34,15.2-34,34s15.2,34,34,34s34-15.2,34-34S82.1,128.6,63.3,128.6z
						 M63.3,195.1c-17.9,0-32.4-14.5-32.4-32.4c0-17.9,14.5-32.4,32.4-32.4s32.4,14.5,32.4,32.4C95.8,180.5,81.3,195.1,63.3,195.1z
						 M91,162.6h-3.2c-0.4,0-0.8,0.4-0.8,0.8c0,0.4,0.4,0.8,0.8,0.8H91c0.4,0,0.8-0.4,0.8-0.8C91.8,163,91.5,162.6,91,162.6z
						 M39.6,162.6h-3.2c-0.4,0-0.8,0.4-0.8,0.8c0,0.4,0.4,0.8,0.8,0.8h3.2c0.4,0,0.8-0.4,0.8-0.8C40.4,163,40,162.6,39.6,162.6z"/>
				</g>
			</g>
			<g id="Texture_1_34_" class="st5">
				<g id="XMLID_2039_">
					<path id="XMLID_2040_" class="st4" d="M63.3,164.2h1.6v-1.6h-1.6V164.2z M69.7,162.6L69.7,162.6c0-0.5-0.1-1.1-0.2-1.6h-1.4
						v1.6H69.7z M61.8,161v1.6h1.6V161H61.8z M68.1,158.4v1h0.7C68.6,159.1,68.4,158.7,68.1,158.4z M68.8,165.8
						c0.3-0.5,0.5-1,0.6-1.6h-1.4v1.6H68.8z M64.9,168.7c0.6-0.1,1.1-0.4,1.6-0.6v-0.7h-1.6V168.7z M61.8,168.7
						c0.5,0.1,1,0.2,1.6,0.2v-1.6h-1.6V168.7z M64.9,161v-1.6h-1.6v1.6H64.9z M60.2,168.1v-0.7h-1C59.5,167.6,59.8,167.9,60.2,168.1
						z M58.6,166.8v-1h-0.7C58.1,166.1,58.3,166.5,58.6,166.8z M61.8,156.5c-0.6,0.1-1.1,0.4-1.6,0.6v0.7h1.6V156.5z M64.9,156.5
						c-0.5-0.1-1-0.2-1.6-0.2h0v1.6h1.6V156.5z M66.5,157.1v0.7h1C67.2,157.6,66.9,157.3,66.5,157.1z M57.9,159.4
						c-0.3,0.5-0.5,1-0.6,1.6h1.4v-1.6H57.9z M57,162.6c0,0.5,0.1,1.1,0.2,1.6h1.4v-1.6H57z M60.2,157.9h-1
						c-0.2,0.2-0.4,0.4-0.6,0.6v1h1.6V157.9z M58.6,164.2v1.6h1.6v-1.6H58.6z M60.2,161h-1.6v1.6h1.6V161z M60.2,165.8v1.6h1.6v-1.6
						H60.2z M66.5,162.6v1.6h1.6v-1.6H66.5z M66.5,167.4h1c0.2-0.2,0.4-0.4,0.6-0.6v-1h-1.6V167.4z M63.3,165.8v1.6h1.6v-1.6H63.3z
						 M64.9,165.8h1.6v-1.6h-1.6V165.8z M61.8,159.4h-1.6v1.6h1.6V159.4z M61.8,164.2v1.6h1.6v-1.6H61.8z M60.2,162.6v1.6h1.6v-1.6
						H60.2z M63.3,159.4v-1.6h-1.6v1.6H63.3z M66.5,159.4v-1.6h-1.6v1.6H66.5z M68.1,161v-1.6h-1.6v1.6H68.1z M64.9,161v1.6h1.6V161
						H64.9z"/>
				</g>
			</g>
			<g id="Outline_34_">
				<g id="XMLID_1715_">
					<path id="XMLID_1717_" class="st4" d="M63.3,153.1c-5.2,0-9.5,4.3-9.5,9.5s4.3,9.5,9.5,9.5s9.5-4.3,9.5-9.5
						S68.6,153.1,63.3,153.1z M63.3,168.9c-3.5,0-6.3-2.8-6.3-6.3s2.8-6.3,6.3-6.3s6.3,2.8,6.3,6.3S66.8,168.9,63.3,168.9z
						 M63.3,122.3c-22.3,0-40.4,18.1-40.4,40.4S41.1,203,63.3,203s40.4-18.1,40.4-40.4S85.6,122.3,63.3,122.3z M63.3,199.8
						c-20.5,0-37.2-16.6-37.2-37.2s16.6-37.2,37.2-37.2s37.2,16.6,37.2,37.2S83.9,199.8,63.3,199.8z"/>
				</g>
			</g>
		</g>
		<g id="XMLID_1070_">
			<g id="XMLID_1419_">
				<path id="XMLID_1023_" class="st0" d="M84.7,206.8c-2.9,0-5.6-1.7-6.9-4.4l-12-26.3c-1-2.2-0.9-4.7,0.3-6.8l24.4-44.1
					c1.3-2.4,3.9-3.9,6.6-3.9c0.8,0,1.6,0.1,2.4,0.4l22.4,7.5c0.9,0.3,1.7,0.7,2.4,1.3l18.2,15c2.8,2.3,3.6,6.3,1.8,9.5L120,199.1
					c-1.2,2.1-3.2,3.5-5.6,3.8l-28.7,3.8C85.4,206.8,85.1,206.8,84.7,206.8z"/>
				<path id="XMLID_1019_" class="st4" d="M97.2,122.8c0.6,0,1.3,0.1,1.9,0.3l22.4,7.5c0.7,0.2,1.4,0.6,1.9,1.1l18.2,15
					c2.2,1.8,2.8,5,1.4,7.6l-24.4,44.1c-0.9,1.7-2.6,2.8-4.5,3.1l-28.7,3.8c-0.3,0-0.5,0.1-0.8,0.1c-2.3,0-4.5-1.4-5.5-3.5l-12-26.3
					c-0.8-1.7-0.7-3.8,0.2-5.4l24.4-44.1C93,123.9,95.1,122.8,97.2,122.8 M97.2,119.8L97.2,119.8c-3.3,0-6.3,1.8-7.9,4.7l-24.4,44.1
					c-1.4,2.5-1.5,5.5-0.3,8.1l12,26.3c1.5,3.2,4.7,5.3,8.2,5.3c0.4,0,0.8,0,1.2-0.1l28.7-3.8c2.8-0.4,5.3-2.1,6.7-4.6l24.4-44.1
					c2.1-3.8,1.2-8.6-2.2-11.3l-18.2-15c-0.9-0.7-1.8-1.2-2.9-1.6l-22.4-7.5C99.1,119.9,98.2,119.8,97.2,119.8L97.2,119.8z"/>
			</g>
			
				<rect id="XMLID_1418_" x="81.6" y="150" transform="matrix(0.8749 0.4844 -0.4844 0.8749 90.5005 -32.0637)" class="st6" width="51.4" height="18.3"/>
			<g id="XMLID_1072_">
				<g id="XMLID_1407_">
					<g id="XMLID_1409_">
						
							<rect id="XMLID_1416_" x="81.7" y="156.2" transform="matrix(0.8749 0.4844 -0.4844 0.8749 86.5684 -20.4341)" class="st7" width="2.3" height="2.3"/>
						
							<rect id="XMLID_1415_" x="85.7" y="158.4" transform="matrix(0.8749 0.4844 -0.4844 0.8749 88.141 -22.0938)" class="st7" width="2.3" height="2.3"/>
						
							<rect id="XMLID_1413_" x="78.6" y="157.1" transform="matrix(0.8749 0.4844 -0.4844 0.8749 86.6119 -18.8179)" class="st7" width="2.3" height="2.3"/>
						
							<rect id="XMLID_1412_" x="82.6" y="159.3" transform="matrix(0.8749 0.4844 -0.4844 0.8749 88.1845 -20.4776)" class="st7" width="2.3" height="2.3"/>
					</g>
				</g>
				<g id="XMLID_1364_">
					<g id="XMLID_1366_">
						
							<rect id="XMLID_1405_" x="79.5" y="160.2" transform="matrix(0.8749 0.4844 -0.4844 0.8749 88.2281 -18.8615)" class="st7" width="2.3" height="2.3"/>
						
							<rect id="XMLID_1367_" x="83.5" y="162.4" transform="matrix(0.8749 0.4844 -0.4844 0.8749 89.8007 -20.5212)" class="st7" width="2.3" height="2.3"/>
					</g>
				</g>
				<g id="XMLID_1352_">
					<g id="XMLID_1353_">
						
							<rect id="XMLID_1363_" x="89.7" y="160.6" transform="matrix(0.8749 0.4844 -0.4844 0.8749 89.7136 -23.7536)" class="st7" width="2.3" height="2.3"/>
						
							<rect id="XMLID_1362_" x="93.7" y="162.8" transform="matrix(0.8749 0.4844 -0.4844 0.8749 91.2862 -25.4133)" class="st7" width="2.3" height="2.3"/>
						
							<rect id="XMLID_1361_" x="86.6" y="161.5" transform="matrix(0.8749 0.4844 -0.4844 0.8749 89.7572 -22.1374)" class="st7" width="2.3" height="2.3"/>
						
							<rect id="XMLID_1359_" x="90.6" y="163.7" transform="matrix(0.8749 0.4844 -0.4844 0.8749 91.3298 -23.7971)" class="st7" width="2.3" height="2.3"/>
					</g>
				</g>
				<g id="XMLID_1348_">
					<g id="XMLID_1349_">
						
							<rect id="XMLID_1351_" x="87.5" y="164.6" transform="matrix(0.8749 0.4844 -0.4844 0.8749 91.3734 -22.1809)" class="st7" width="2.3" height="2.3"/>
						
							<rect id="XMLID_1350_" x="91.5" y="166.8" transform="matrix(0.8749 0.4844 -0.4844 0.8749 92.946 -23.8407)" class="st7" width="2.3" height="2.3"/>
					</g>
				</g>
				<g id="XMLID_1336_">
					<g id="XMLID_1340_">
						
							<rect id="XMLID_1347_" x="97.7" y="165" transform="matrix(0.8749 0.4844 -0.4844 0.8749 92.8589 -27.0731)" class="st7" width="2.3" height="2.3"/>
						
							<rect id="XMLID_1346_" x="101.7" y="167.3" transform="matrix(0.8749 0.4844 -0.4844 0.8749 94.4315 -28.7328)" class="st7" width="2.3" height="2.3"/>
						
							<rect id="XMLID_1345_" x="94.6" y="165.9" transform="matrix(0.8749 0.4844 -0.4844 0.8749 92.9024 -25.4569)" class="st7" width="2.3" height="2.3"/>
						
							<rect id="XMLID_1344_" x="98.6" y="168.1" transform="matrix(0.8749 0.4844 -0.4844 0.8749 94.475 -27.1166)" class="st7" width="2.3" height="2.3"/>
					</g>
				</g>
				<g id="XMLID_1239_">
					<g id="XMLID_1331_">
						
							<rect id="XMLID_1335_" x="95.5" y="169" transform="matrix(0.8749 0.4844 -0.4844 0.8749 94.5186 -25.5004)" class="st7" width="2.3" height="2.3"/>
						
							<rect id="XMLID_1332_" x="99.5" y="171.3" transform="matrix(0.8749 0.4844 -0.4844 0.8749 96.0912 -27.1602)" class="st7" width="2.3" height="2.3"/>
					</g>
				</g>
				<g id="XMLID_1227_">
					<g id="XMLID_1228_">
						
							<rect id="XMLID_1238_" x="105.7" y="169.5" transform="matrix(0.8749 0.4844 -0.4844 0.8749 96.0041 -30.3925)" class="st7" width="2.3" height="2.3"/>
						
							<rect id="XMLID_1237_" x="109.7" y="171.7" transform="matrix(0.8749 0.4844 -0.4844 0.8749 97.5767 -32.0523)" class="st7" width="2.3" height="2.3"/>
						
							<rect id="XMLID_1230_" x="102.6" y="170.4" transform="matrix(0.8749 0.4844 -0.4844 0.8749 96.0477 -28.7764)" class="st7" width="2.3" height="2.3"/>
						
							<rect id="XMLID_1229_" x="106.6" y="172.6" transform="matrix(0.8749 0.4844 -0.4844 0.8749 97.6203 -30.4361)" class="st7" width="2.3" height="2.3"/>
					</g>
				</g>
				<g id="XMLID_1223_">
					<g id="XMLID_1224_">
						
							<rect id="XMLID_1226_" x="103.5" y="173.5" transform="matrix(0.8749 0.4844 -0.4844 0.8749 97.6638 -28.8199)" class="st7" width="2.3" height="2.3"/>
						
							<rect id="XMLID_1225_" x="107.5" y="175.7" transform="matrix(0.8749 0.4844 -0.4844 0.8749 99.2365 -30.4797)" class="st7" width="2.3" height="2.3"/>
					</g>
				</g>
				<g id="XMLID_1084_">
					<g id="XMLID_1085_">
						
							<rect id="XMLID_1222_" x="113.7" y="173.9" transform="matrix(0.8749 0.4844 -0.4844 0.8749 99.1494 -33.712)" class="st7" width="2.3" height="2.3"/>
						
							<rect id="XMLID_1221_" x="117.7" y="176.1" transform="matrix(0.8749 0.4844 -0.4844 0.8749 100.722 -35.3718)" class="st7" width="2.3" height="2.3"/>
						
							<rect id="XMLID_1220_" x="110.6" y="174.8" transform="matrix(0.8749 0.4844 -0.4844 0.8749 99.1929 -32.0959)" class="st7" width="2.3" height="2.3"/>
						
							<rect id="XMLID_1086_" x="114.6" y="177" transform="matrix(0.8749 0.4844 -0.4844 0.8749 100.7655 -33.7556)" class="st7" width="2.3" height="2.3"/>
					</g>
				</g>
				<g id="XMLID_1080_">
					<g id="XMLID_1081_">
						
							<rect id="XMLID_1083_" x="111.5" y="177.9" transform="matrix(0.8749 0.4844 -0.4844 0.8749 100.8091 -32.1394)" class="st7" width="2.3" height="2.3"/>
						
							<rect id="XMLID_1082_" x="115.5" y="180.1" transform="matrix(0.8749 0.4844 -0.4844 0.8749 102.3817 -33.7992)" class="st7" width="2.3" height="2.3"/>
					</g>
				</g>
				<g id="XMLID_1076_">
					<g id="XMLID_1077_">
						
							<rect id="XMLID_1079_" x="121.7" y="178.3" transform="matrix(0.8749 0.4844 -0.4844 0.8749 102.2946 -37.0315)" class="st7" width="2.3" height="2.3"/>
						
							<rect id="XMLID_1078_" x="118.6" y="179.2" transform="matrix(0.8749 0.4844 -0.4844 0.8749 102.3382 -35.4154)" class="st7" width="2.3" height="2.3"/>
					</g>
				</g>
				<g id="XMLID_1073_">
					<g id="XMLID_1074_">
						
							<rect id="XMLID_1075_" x="119.5" y="182.3" transform="matrix(0.8749 0.4844 -0.4844 0.8749 103.9543 -35.4589)" class="st7" width="2.3" height="2.3"/>
					</g>
				</g>
			</g>
			<g id="XMLID_1071_">
				<path id="XMLID_1029_" class="st8" d="M97.3,129.1L97.3,129.1c0.4,0,0.8,0.1,1.1,0.2l20.5,6.8c0.4,0.1,0.8,0.3,1.1,0.6
					l16.7,13.8c1.3,1.1,1.7,2.9,0.8,4.4l-22.4,40.4c-0.5,1-1.5,1.6-2.6,1.8l-26.2,3.5c-0.2,0-0.3,0-0.5,0c-1.4,0-2.6-0.8-3.2-2.1
					l-11-24.1c-0.5-1-0.4-2.2,0.1-3.2L94.2,131C94.8,129.8,96,129.1,97.3,129.1 M97.3,127.1c-2,0-3.8,1.1-4.8,2.8l-22.4,40.4
					c-0.8,1.5-0.9,3.4-0.2,5l11,24.1c0.9,2,2.9,3.2,5,3.2c0.2,0,0.5,0,0.7,0l26.2-3.5c1.7-0.2,3.3-1.3,4.1-2.8l22.4-40.4
					c1.3-2.3,0.7-5.2-1.3-6.9l-16.7-13.8c-0.5-0.4-1.1-0.8-1.8-1l-20.5-6.8C98.5,127.2,97.9,127.1,97.3,127.1L97.3,127.1z"/>
			</g>
		</g>
		<g id="XMLID_1051_">
			<g id="White_Base_2_">
				<g id="XMLID_1648_">
					<path id="XMLID_1649_" class="st0" d="M108.2,183.7c-0.7-0.2-1.4,0.1-1.7,0.8c-0.2,0.7,0.1,1.4,0.8,1.7
						c0.7,0.2,1.4-0.1,1.7-0.8C109.3,184.7,108.9,184,108.2,183.7z M120.5,152.4l3,4l-2.1,1.6l-3-4l-2.1,1.6l4.5,6l-2.1,1.6l-4.5-6
						l-2.1,1.6l3,4l-2.1,1.6l-3-4l-2.1,1.6l3,4l-2.1,1.6l-3-4l-2.1,1.6l4.5,6l-2.1,1.6l-4.5-6l-2.1,1.6l3,4l-2.1,1.6l-3-4l-2.1,1.6
						l3,4l-2.1,1.6l-3-4l-2.1,1.6l4.5,6l-2.1,1.6l-4.5-6l-2.1,1.6l3,4l-2.1,1.6l-3-4l-4.3,3.2l30.7,11.1l17-47.1L120.5,152.4z
						 M111.5,186.3c-0.7,2-3,3.1-5,2.3c-2-0.7-3.1-3-2.3-5s3-3.1,5-2.3C111.1,182,112.2,184.3,111.5,186.3z"/>
				</g>
			</g>
			<g id="Yellow_11_">
				<g id="XMLID_1485_">
					<path id="XMLID_1491_" class="st6" d="M110.9,176.4c-4.7-1.7-9.9,0.7-11.6,5.5c-0.9,2.4-0.7,4.9,0.4,7l12.1,4.4l4.4-12.1
						C115.1,179,113.3,177.3,110.9,176.4z M111.5,186.3c-0.7,2-3,3.1-5,2.3c-2-0.7-3.1-3-2.3-5s3-3.1,5-2.3
						C111.1,182,112.2,184.3,111.5,186.3z"/>
				</g>
			</g>
			<g id="Texture_1_2_" class="st5">
				<g id="XMLID_2371_">
					<path id="XMLID_2372_" class="st4" d="M110.8,180.5l0.4-1.2l-1.2-0.4l-0.4,1.2L110.8,180.5z M112.1,192l0.4-1.2l-1.2-0.4
						l-0.4,1.2L112.1,192z M101.4,178.5l0.4,0.1l0.3-0.7C101.8,178.1,101.6,178.3,101.4,178.5z M113,189.6l0.4-1.2l-1.2-0.4
						l-0.4,1.2L113,189.6z M109.3,192.4l1.2,0.4l0.4-1.2l-1.2-0.4L109.3,192.4z M108.3,179.6l-0.4,1.2l1.2,0.4l0.4-1.2L108.3,179.6z
						 M110.3,181.7l1.2,0.4l0.4-1.2l-1.2-0.4L110.3,181.7z M99.3,181.9c-0.2,0.4-0.3,0.8-0.3,1.3l1.1,0.4l0.4-1.2L99.3,181.9z
						 M105.5,180l-1.2-0.4l-0.4,1.2l1.2,0.4L105.5,180z M104,176.7l1.1,0.4l0.3-0.9C105,176.3,104.5,176.5,104,176.7z M107.1,179.2
						l-1.2-0.4l-0.4,1.2l1.2,0.4L107.1,179.2z M108.8,178.4l-1.2-0.4l-0.4,1.2l1.2,0.4L108.8,178.4z M113.9,187.2l0.4-1.2l-1.2-0.4
						l-0.4,1.2L113.9,187.2z M100.5,179.6c-0.3,0.4-0.5,0.7-0.7,1.1l1.1,0.4l0.4-1.2L100.5,179.6z M109.6,176.1
						c-0.4-0.1-0.9-0.2-1.3-0.2l-0.3,0.9l1.2,0.4L109.6,176.1z M104.4,190.6l1.2,0.4l0.4-1.2l-1.2-0.4L104.4,190.6z M98.7,184.4
						c0,0.5,0,0.9,0,1.4l0.4,0.1l0.4-1.2L98.7,184.4z M101.9,189.7l1.2,0.4l0.4-1.2l-1.2-0.4L101.9,189.7z M106.1,176l0.7,0.3
						l0.1-0.4C106.6,175.9,106.3,176,106.1,176z M112.1,177c-0.4-0.2-0.8-0.4-1.2-0.5l-0.4,1.2l1.2,0.4L112.1,177z M106.8,191.5
						l1.2,0.4l0.4-1.2l-1.2-0.4L106.8,191.5z M102.6,177.5l0.9,0.3l0.4-1.1C103.4,177,103,177.2,102.6,177.5z M99.5,188.7
						c0,0.1,0,0.1,0.1,0.2l1.1,0.4l0.4-1.2l-1.2-0.4L99.5,188.7z M110.3,182l0.1-0.2l-1.2-0.4C109.6,181.4,109.9,181.7,110.3,182z
						 M115.7,182.3l0.4-1.1c0-0.1-0.1-0.1-0.1-0.2l-1.1-0.4l-0.4,1.2L115.7,182.3z M106.3,181.4c0.5-0.2,1-0.3,1.5-0.3l0.1-0.2
						l-1.2-0.4L106.3,181.4z M114.2,178.6c-0.3-0.3-0.7-0.6-1-0.9l-0.3,0.9l1.2,0.4L114.2,178.6z M114.8,184.7l0.4-1.2l-1.2-0.4
						l-0.4,1.2L114.8,184.7z M102.1,181.5l-1.2-0.4l-0.4,1.2l1.2,0.4L102.1,181.5z M103,179.1l-1.2-0.4l-0.4,1.2l1.2,0.4L103,179.1z
						 M101.3,184l-1.2-0.4l-0.4,1.2l1.2,0.4L101.3,184z M101.6,186.8l-0.4,1.2l1.2,0.4l0.4-1.2L101.6,186.8z M99.2,186l-0.3,0.7
						c0,0.2,0.1,0.4,0.1,0.6l0.9,0.3l0.4-1.2L99.2,186z M104.7,178.3l-1.2-0.4l-0.4,1.2l1.2,0.4L104.7,178.3z M108,176.7l-1.2-0.4
						l-0.4,1.2l1.2,0.4L108,176.7z M106.3,177.5l-1.2-0.4l-0.4,1.2l1.2,0.4L106.3,177.5z M108.9,189.5l-0.4,1.2l1.2,0.4l0.4-1.2
						L108.9,189.5z M111.9,185.1l1.2,0.4l0.4-1.2l-1.2-0.4L111.9,185.1z M104,187.7l-0.4,1.2l1.2,0.4l0.4-1.2L104,187.7z
						 M113.2,181.4l-0.4,1.2l1.2,0.4l0.4-1.2L113.2,181.4z M111,187.5l1.2,0.4l0.4-1.2l-1.2-0.4L111,187.5z M106.5,188.6l-0.4,1.2
						l1.2,0.4l0.4-1.2L106.5,188.6z M110.1,189.9l1.2,0.4l0.4-1.2l-1.2-0.4L110.1,189.9z M110,178.9l0.4-1.2l-1.2-0.4l-0.4,1.2
						L110,178.9z M100.8,185.2l-0.4,1.2l1.2,0.4l0.4-1.2L100.8,185.2z M103.8,180.7l-1.2-0.4l-0.4,1.2l1.2,0.4L103.8,180.7z
						 M104.2,186.4l-1-0.3l-0.4,1.2l1.2,0.4l0.3-1C104.3,186.7,104.3,186.5,104.2,186.4z M104.8,182.5c0.3-0.4,0.7-0.7,1.2-1l-1-0.3
						l-0.4,1.2L104.8,182.5z M102.9,183.2l-1.2-0.4l-0.4,1.2l1.2,0.4L102.9,183.2z M102.9,183.2l1.2,0.4l0.4-1.2l-1.2-0.4
						L102.9,183.2z M103.9,184.9c0-0.4,0.1-0.9,0.2-1.3l-0.4,1.2L103.9,184.9z M102,185.6l1.2,0.4l0.4-1.2l-1.2-0.4L102,185.6z
						 M109.6,188.4l1,0.3l0.4-1.2l-0.2-0.1C110.5,187.8,110.1,188.1,109.6,188.4z M112.4,179.7L112,181l1.2,0.4l0.4-1.2L112.4,179.7
						z M111.2,183.1c0.1,0.1,0.1,0.2,0.2,0.4l1,0.3l0.4-1.2l-1.2-0.4L111.2,183.1z M114.9,180.6l0.3-0.9c-0.1-0.2-0.3-0.3-0.4-0.5
						l-0.7-0.3l-0.4,1.2L114.9,180.6z M107.8,188.8l-0.1,0.2l1.2,0.4l0.3-1C108.8,188.7,108.3,188.8,107.8,188.8z M105.3,188.2
						l1.2,0.4c-0.4-0.2-0.8-0.4-1.1-0.7L105.3,188.2z M111.5,186.3l0.4-1.2l-0.2-0.1C111.7,185.4,111.6,185.8,111.5,186.3z
						 M112.4,179.7l0.4-1.2l-1.2-0.4l-0.4,1.2L112.4,179.7z"/>
				</g>
			</g>
			<g id="Outline_2_" class="st9">
				<g id="XMLID_1722_">
					<path id="XMLID_1723_" class="st4" d="M109.1,181.3c-2-0.7-4.3,0.3-5,2.3s0.3,4.3,2.3,5c2,0.7,4.3-0.3,5-2.3
						C112.2,184.3,111.1,182,109.1,181.3z M109,185.4c-0.2,0.7-1,1-1.7,0.8c-0.7-0.2-1-1-0.8-1.7c0.2-0.7,1-1,1.7-0.8
						C108.9,184,109.3,184.7,109,185.4z M131.9,141.2c-0.4-0.2-0.9-0.1-1.2,0.2l0,0l-53.1,40.1l0,0c-0.2,0.1-0.4,0.3-0.5,0.6
						c-0.2,0.7,0.1,1.4,0.8,1.7l34.2,12.4c0.7,0.2,1.4-0.1,1.7-0.8l19-52.5C132.9,142.2,132.6,141.5,131.9,141.2z M111.7,193.3
						L81,182.2l4.3-3.2l3,4l2.1-1.6l-3-4l2.1-1.6l4.5,6l2.1-1.6l-4.5-6l2.1-1.6l3,4l2.1-1.6l-3-4l2.1-1.6l3,4l2.1-1.6l-3-4l2.1-1.6
						l4.5,6l2.1-1.6l-4.5-6l2.1-1.6l3,4l2.1-1.6l-3-4l2.1-1.6l3,4l2.1-1.6l-3-4l2.1-1.6l4.5,6l2.1-1.6l-4.5-6l2.1-1.6l3,4l2.1-1.6
						l-3-4l8.3-6.2L111.7,193.3z"/>
				</g>
			</g>
		</g>
		<g id="XMLID_950_">
			<g id="White_Base_24_">
				<g id="XMLID_1595_">
					<path id="XMLID_1596_" class="st0" d="M41.6,141.1l0.2,7l5-2.3L41.6,141.1z M67.1,192.3l-3.3,1.5l2.3,5l3.3-1.5L67.1,192.3z
						 M48.9,148.4l-6.5,3l17.1,37.2l6.5-3L48.9,148.4z"/>
				</g>
			</g>
			<g id="Blue_17_">
				<g id="XMLID_1063_">
					
						<rect id="XMLID_1064_" x="57.5" y="179.8" transform="matrix(0.9091 -0.4166 0.4166 0.9091 -70.9531 42.1352)" class="st2" width="7.2" height="7.7"/>
				</g>
			</g>
			<g id="Texture_1_24_" class="st3">
				<g id="XMLID_1762_">
					<path id="XMLID_1763_" class="st4" d="M47.7,156.5l-1.5,0.7l0.7,1.5l1.5-0.7L47.7,156.5z M48.3,161.7l1.5-0.7l-0.7-1.5
						l-1.5,0.7L48.3,161.7z M45.9,159.2l0.7,1.5l1.1-0.5l-0.7-1.5L45.9,159.2z M48.4,158l0.7,1.5l1.5-0.7l-0.7-1.5L48.4,158z
						 M53.1,157.7l-0.7-1.5l-1,0.5l0.7,1.5L53.1,157.7z M50.6,158.8l0.7,1.5l1.5-0.7l-0.7-1.5L50.6,158.8z M50.7,155.1l-1.5,0.7
						l0.7,1.5l1.5-0.7L50.7,155.1z"/>
				</g>
			</g>
			<g id="Inner_Lines_14_" class="st3">
				<g id="XMLID_1062_">
					
						<rect id="XMLID_1065_" x="43.5" y="152.3" transform="matrix(0.9091 -0.4166 0.4166 0.9091 -59.5182 33.5398)" class="st4" width="7.2" height="1.6"/>
				</g>
			</g>
			<g id="Outline_24_" class="st9">
				<g id="XMLID_1653_">
					<path id="XMLID_1654_" class="st4" d="M73,197.5l-3.2-6.9c0.7-0.9,0.9-2.2,0.4-3.4c0,0,0-0.1,0-0.1l-19.1-41.6
						c-0.1-0.2-0.3-0.4-0.5-0.6l0,0l-9.7-8.8c0,0,0,0-0.1-0.1l-0.1-0.1l0,0c-0.1-0.1-0.3-0.2-0.4-0.2c-0.9-0.3-1.8,0.1-2.1,1
						c-0.1,0.2-0.1,0.3-0.1,0.5l0,0l0,0.1c0,0,0,0.1,0,0.1l0.3,13.1l0,0c0,0.3,0,0.5,0.1,0.8h0l19.1,41.6c0,0,0,0.1,0,0.1
						c0.5,1.1,1.6,1.8,2.8,1.9l3.2,6.9c0.2,0.4,0.5,0.7,0.9,0.9c0.4,0.2,0.9,0.1,1.3,0l0,0l6.3-2.9c0.4-0.2,0.7-0.5,0.9-0.9
						C73.2,198.3,73.2,197.9,73,197.5z M66,198.9l-2.2-4.8l0,0l-0.1-0.2l3.4-1.5l0.1,0.2l0,0l2.2,4.8L66,198.9z M41.5,141.1l5.2,4.7
						l-5,2.3L41.5,141.1z M48.8,148.4l17.1,37.2l-6.5,3l-17.1-37.2L48.8,148.4z"/>
				</g>
			</g>
		</g>
		<g id="XMLID_949_">
			<path id="XMLID_1055_" class="st0" d="M25,218.5c-1.9,0-3.5-1.6-3.5-3.5v-30c0-1.9,1.6-3.5,3.5-3.5h110c1.9,0,3.5,1.6,3.5,3.5v30
				c0,1.9-1.6,3.5-3.5,3.5H25z"/>
			<path id="XMLID_1047_" class="st4" d="M135,183c1.1,0,2,0.9,2,2v30c0,1.1-0.9,2-2,2H25c-1.1,0-2-0.9-2-2v-30c0-1.1,0.9-2,2-2H135
				 M135,180H25c-2.8,0-5,2.2-5,5v30c0,2.8,2.2,5,5,5h110c2.8,0,5-2.2,5-5v-30C140,182.2,137.7,180,135,180L135,180z"/>
		</g>
		<g id="XMLID_894_">
			<g id="XMLID_943_">
				<g id="XMLID_944_">
					<rect id="XMLID_948_" x="23" y="182.2" class="st7" width="2" height="2"/>
					<rect id="XMLID_947_" x="27" y="182.2" class="st7" width="2" height="2"/>
					<rect id="XMLID_946_" x="21" y="184.2" class="st7" width="2" height="2"/>
					<rect id="XMLID_945_" x="25" y="184.2" class="st7" width="2" height="2"/>
				</g>
			</g>
			<g id="XMLID_937_">
				<g id="XMLID_938_">
					<rect id="XMLID_942_" x="23" y="186.2" class="st7" width="2" height="2"/>
					<rect id="XMLID_941_" x="27" y="186.2" class="st7" width="2" height="2"/>
					<rect id="XMLID_940_" x="21" y="188.2" class="st7" width="2" height="2"/>
					<rect id="XMLID_939_" x="25" y="188.2" class="st7" width="2" height="2"/>
				</g>
			</g>
			<g id="XMLID_931_">
				<g id="XMLID_932_">
					<rect id="XMLID_936_" x="23" y="190.2" class="st7" width="2" height="2"/>
					<rect id="XMLID_935_" x="27" y="190.2" class="st7" width="2" height="2"/>
					<rect id="XMLID_934_" x="21" y="192.2" class="st7" width="2" height="2"/>
					<rect id="XMLID_933_" x="25" y="192.2" class="st7" width="2" height="2"/>
				</g>
			</g>
			<g id="XMLID_925_">
				<g id="XMLID_926_">
					<rect id="XMLID_930_" x="23" y="194.2" class="st7" width="2" height="2"/>
					<rect id="XMLID_929_" x="27" y="194.2" class="st7" width="2" height="2"/>
					<rect id="XMLID_928_" x="21" y="196.2" class="st7" width="2" height="2"/>
					<rect id="XMLID_927_" x="25" y="196.2" class="st7" width="2" height="2"/>
				</g>
			</g>
			<g id="XMLID_919_">
				<g id="XMLID_920_">
					<rect id="XMLID_924_" x="23" y="198.2" class="st7" width="2" height="2"/>
					<rect id="XMLID_923_" x="27" y="198.2" class="st7" width="2" height="2"/>
					<rect id="XMLID_922_" x="21" y="200.2" class="st7" width="2" height="2"/>
					<rect id="XMLID_921_" x="25" y="200.2" class="st7" width="2" height="2"/>
				</g>
			</g>
			<g id="XMLID_913_">
				<g id="XMLID_914_">
					<rect id="XMLID_918_" x="23" y="202.2" class="st7" width="2" height="2"/>
					<rect id="XMLID_917_" x="27" y="202.2" class="st7" width="2" height="2"/>
					<rect id="XMLID_916_" x="21" y="204.2" class="st7" width="2" height="2"/>
					<rect id="XMLID_915_" x="25" y="204.2" class="st7" width="2" height="2"/>
				</g>
			</g>
			<g id="XMLID_907_">
				<g id="XMLID_908_">
					<rect id="XMLID_912_" x="23" y="206.2" class="st7" width="2" height="2"/>
					<rect id="XMLID_911_" x="27" y="206.2" class="st7" width="2" height="2"/>
					<rect id="XMLID_910_" x="21" y="208.2" class="st7" width="2" height="2"/>
					<rect id="XMLID_909_" x="25" y="208.2" class="st7" width="2" height="2"/>
				</g>
			</g>
			<g id="XMLID_901_">
				<g id="XMLID_902_">
					<rect id="XMLID_906_" x="23" y="210.2" class="st7" width="2" height="2"/>
					<rect id="XMLID_905_" x="27" y="210.2" class="st7" width="2" height="2"/>
					<rect id="XMLID_904_" x="21" y="212.2" class="st7" width="2" height="2"/>
					<rect id="XMLID_903_" x="25" y="212.2" class="st7" width="2" height="2"/>
				</g>
			</g>
			<g id="XMLID_895_">
				<g id="XMLID_896_">
					<rect id="XMLID_900_" x="23" y="214.2" class="st7" width="2" height="2"/>
					<rect id="XMLID_899_" x="27" y="214.2" class="st7" width="2" height="2"/>
					<rect id="XMLID_898_" x="21" y="216.2" class="st7" width="2" height="2"/>
					<rect id="XMLID_897_" x="25" y="216.2" class="st7" width="2" height="2"/>
				</g>
			</g>
		</g>
		<g id="XMLID_832_">
			<g id="XMLID_888_">
				<g id="XMLID_889_">
					<rect id="XMLID_893_" x="133.1" y="182.2" class="st7" width="2" height="2"/>
					<rect id="XMLID_892_" x="137.1" y="182.2" class="st7" width="2" height="2"/>
					<rect id="XMLID_891_" x="131.1" y="184.2" class="st7" width="2" height="2"/>
					<rect id="XMLID_890_" x="135.1" y="184.2" class="st7" width="2" height="2"/>
				</g>
			</g>
			<g id="XMLID_882_">
				<g id="XMLID_883_">
					<rect id="XMLID_887_" x="133.1" y="186.2" class="st7" width="2" height="2"/>
					<rect id="XMLID_886_" x="137.1" y="186.2" class="st7" width="2" height="2"/>
					<rect id="XMLID_885_" x="131.1" y="188.2" class="st7" width="2" height="2"/>
					<rect id="XMLID_884_" x="135.1" y="188.2" class="st7" width="2" height="2"/>
				</g>
			</g>
			<g id="XMLID_870_">
				<g id="XMLID_871_">
					<rect id="XMLID_881_" x="133.1" y="190.2" class="st7" width="2" height="2"/>
					<rect id="XMLID_880_" x="137.1" y="190.2" class="st7" width="2" height="2"/>
					<rect id="XMLID_879_" x="131.1" y="192.2" class="st7" width="2" height="2"/>
					<rect id="XMLID_872_" x="135.1" y="192.2" class="st7" width="2" height="2"/>
				</g>
			</g>
			<g id="XMLID_863_">
				<g id="XMLID_865_">
					<rect id="XMLID_869_" x="133.1" y="194.2" class="st7" width="2" height="2"/>
					<rect id="XMLID_868_" x="137.1" y="194.2" class="st7" width="2" height="2"/>
					<rect id="XMLID_867_" x="131.1" y="196.2" class="st7" width="2" height="2"/>
					<rect id="XMLID_866_" x="135.1" y="196.2" class="st7" width="2" height="2"/>
				</g>
			</g>
			<g id="XMLID_857_">
				<g id="XMLID_858_">
					<rect id="XMLID_862_" x="133.1" y="198.2" class="st7" width="2" height="2"/>
					<rect id="XMLID_861_" x="137.1" y="198.2" class="st7" width="2" height="2"/>
					<rect id="XMLID_860_" x="131.1" y="200.2" class="st7" width="2" height="2"/>
					<rect id="XMLID_859_" x="135.1" y="200.2" class="st7" width="2" height="2"/>
				</g>
			</g>
			<g id="XMLID_851_">
				<g id="XMLID_852_">
					<rect id="XMLID_856_" x="133.1" y="202.2" class="st7" width="2" height="2"/>
					<rect id="XMLID_855_" x="137.1" y="202.2" class="st7" width="2" height="2"/>
					<rect id="XMLID_854_" x="131.1" y="204.2" class="st7" width="2" height="2"/>
					<rect id="XMLID_853_" x="135.1" y="204.2" class="st7" width="2" height="2"/>
				</g>
			</g>
			<g id="XMLID_845_">
				<g id="XMLID_846_">
					<rect id="XMLID_850_" x="133.1" y="206.2" class="st7" width="2" height="2"/>
					<rect id="XMLID_849_" x="137.1" y="206.2" class="st7" width="2" height="2"/>
					<rect id="XMLID_848_" x="131.1" y="208.2" class="st7" width="2" height="2"/>
					<rect id="XMLID_847_" x="135.1" y="208.2" class="st7" width="2" height="2"/>
				</g>
			</g>
			<g id="XMLID_839_">
				<g id="XMLID_840_">
					<rect id="XMLID_844_" x="133.1" y="210.2" class="st7" width="2" height="2"/>
					<rect id="XMLID_843_" x="137.1" y="210.2" class="st7" width="2" height="2"/>
					<rect id="XMLID_842_" x="131.1" y="212.2" class="st7" width="2" height="2"/>
					<rect id="XMLID_841_" x="135.1" y="212.2" class="st7" width="2" height="2"/>
				</g>
			</g>
			<g id="XMLID_833_">
				<g id="XMLID_834_">
					<rect id="XMLID_838_" x="133.1" y="214.2" class="st7" width="2" height="2"/>
					<rect id="XMLID_837_" x="137.1" y="214.2" class="st7" width="2" height="2"/>
					<rect id="XMLID_836_" x="131.1" y="216.2" class="st7" width="2" height="2"/>
					<rect id="XMLID_835_" x="135.1" y="216.2" class="st7" width="2" height="2"/>
				</g>
			</g>
		</g>
		<g id="XMLID_28_">
			<path id="XMLID_29_" class="st10" d="M45.2,192.8c0-0.4,0-0.6,0.1-0.7c0.1-0.1,0.3-0.1,0.6-0.1c0.3,0,0.5,0.1,0.6,0.2
				c0.1,0.1,0.2,0.4,0.2,0.7c0,0.7,0,1.4,0.1,2.2s0.1,1.5,0.2,2.3h5.5c0.3,0,0.4,0.1,0.5,0.2s0.1,0.3,0.1,0.5c0,0.2,0,0.4-0.1,0.5
				s-0.2,0.2-0.5,0.2h-5.3c0.1,0.7,0.2,1.3,0.4,2c0.2,0.6,0.4,1.2,0.6,1.8c0.3-0.5,0.6-1,0.8-1.4s0.4-1,0.6-1.5
				c0.1-0.3,0.2-0.4,0.4-0.6c0.2-0.1,0.4-0.2,0.6-0.1c0.3,0.1,0.4,0.2,0.5,0.4c0,0.2,0,0.4-0.1,0.7c-0.3,0.8-0.6,1.5-0.9,2.1
				s-0.7,1.3-1.3,2c0.3,0.6,0.6,1.2,0.9,1.8c0.3,0.6,0.7,1,1,1.4c0.1,0.1,0.2,0.1,0.3,0.1c0.1,0,0.2-0.2,0.3-0.5
				c0-0.1,0.1-0.2,0.1-0.4s0.1-0.3,0.1-0.5c0-0.2,0.1-0.3,0.1-0.5c0-0.2,0.1-0.3,0.1-0.5c0-0.3,0.1-0.5,0.2-0.6s0.3-0.1,0.6-0.1
				c0.4,0.1,0.6,0.3,0.6,0.7c0,0.2,0,0.5-0.1,0.8s-0.1,0.7-0.2,1.1c-0.1,0.4-0.2,0.7-0.3,1c-0.1,0.3-0.2,0.5-0.3,0.6
				c-0.3,0.4-0.7,0.6-1.1,0.6c-0.3,0-0.6-0.1-0.9-0.4c-0.4-0.4-0.8-1-1.2-1.5c-0.4-0.6-0.8-1.2-1.1-2c-0.5,0.5-1.1,1-1.8,1.5
				c-0.7,0.5-1.4,0.9-2.1,1.3c-0.3,0.2-0.6,0.2-0.8,0.2c-0.2,0-0.3-0.1-0.4-0.2c-0.2-0.3-0.2-0.5-0.2-0.7c0.1-0.2,0.2-0.3,0.5-0.5
				c0.9-0.4,1.7-0.9,2.3-1.4c0.7-0.5,1.3-1,1.8-1.6c-0.3-0.9-0.6-1.7-0.8-2.6c-0.2-0.9-0.4-1.7-0.5-2.6h-3.9v2.9l2.6-0.7
				c0.2-0.1,0.3-0.1,0.5,0c0.1,0.1,0.2,0.2,0.3,0.5c0.1,0.2,0.1,0.4,0,0.6s-0.2,0.2-0.4,0.3c-0.5,0.1-1,0.3-1.5,0.4
				c-0.5,0.1-1,0.3-1.5,0.4v3.9c0,0.7-0.2,1.2-0.6,1.6c-0.4,0.4-0.9,0.5-1.6,0.5c-0.7,0-1.5-0.2-2.5-0.7c-0.3-0.1-0.4-0.3-0.5-0.5
				c-0.1-0.2,0-0.4,0.1-0.6c0.2-0.4,0.6-0.5,1.1-0.2c0.8,0.3,1.4,0.5,1.9,0.5c0.2,0,0.4-0.1,0.5-0.2c0.1-0.1,0.2-0.3,0.2-0.6v-3.4
				c-0.6,0.2-1.1,0.3-1.7,0.4c-0.6,0.1-1.1,0.3-1.7,0.4c-0.2,0.1-0.4,0-0.5,0c-0.2-0.1-0.2-0.2-0.3-0.4c-0.1-0.3-0.1-0.5,0-0.6
				c0.1-0.1,0.2-0.2,0.4-0.3c0.6-0.2,1.2-0.3,1.8-0.5c0.6-0.2,1.2-0.3,1.8-0.5v-3.3h-4c-0.3,0-0.4-0.1-0.5-0.2
				c-0.1-0.1-0.1-0.3-0.1-0.5c0-0.2,0-0.4,0.1-0.5c0.1-0.1,0.2-0.2,0.5-0.2h4v-2.4c-1.1,0.2-2.1,0.4-3.1,0.4c-0.3,0-0.5,0-0.6-0.1
				c-0.1-0.1-0.2-0.2-0.3-0.5c-0.1-0.3,0-0.5,0.2-0.6s0.4-0.2,0.7-0.2c1.3-0.1,2.5-0.2,3.5-0.5c1-0.3,2-0.6,2.9-1
				c0.3-0.1,0.6-0.2,0.7-0.1c0.2,0.1,0.3,0.2,0.4,0.4c0.1,0.2,0.1,0.4,0,0.6c-0.1,0.1-0.2,0.3-0.5,0.4c-0.4,0.2-0.8,0.3-1.2,0.5
				s-0.8,0.3-1.2,0.4v2.8h3.7c-0.1-0.7-0.1-1.5-0.2-2.2S45.2,193.6,45.2,192.8z M48.3,192.9c1.1,0.8,2.1,1.6,3,2.5
				c0.2,0.2,0.4,0.4,0.4,0.6c0,0.2,0,0.4-0.2,0.5c-0.2,0.2-0.4,0.3-0.5,0.3c-0.2,0-0.4-0.2-0.6-0.4c-0.2-0.2-0.4-0.3-0.6-0.5
				s-0.4-0.4-0.7-0.6c-0.2-0.2-0.5-0.4-0.7-0.6s-0.5-0.4-0.7-0.5c-0.3-0.2-0.4-0.4-0.5-0.5s0-0.3,0.1-0.5c0.1-0.2,0.2-0.2,0.4-0.3
				C47.8,192.7,48,192.8,48.3,192.9z"/>
			<path id="XMLID_35_" class="st10" d="M53.9,200.1c0.7-1.1,1.3-2.2,1.8-3.4s0.9-2.3,1.3-3.6c0.1-0.3,0.2-0.5,0.3-0.7
				c0.1-0.1,0.3-0.2,0.5-0.1c0.5,0.1,0.6,0.5,0.5,1.1c-0.2,0.6-0.4,1.1-0.6,1.7c-0.2,0.5-0.4,1.1-0.6,1.6v11.8
				c0,0.3-0.1,0.4-0.2,0.5c-0.1,0.1-0.3,0.1-0.5,0.1c-0.2,0-0.4,0-0.5-0.1c-0.1-0.1-0.2-0.3-0.2-0.5v-8.9c-0.1,0.3-0.3,0.5-0.4,0.7
				s-0.3,0.5-0.4,0.7c-0.2,0.2-0.4,0.4-0.6,0.4c-0.2,0.1-0.4,0-0.6-0.2c-0.2-0.2-0.2-0.3-0.2-0.5C53.5,200.6,53.7,200.4,53.9,200.1z
				 M60.4,208.5c0,0.2-0.1,0.4-0.2,0.5c-0.1,0.1-0.3,0.2-0.5,0.2c-0.2,0-0.4,0-0.5-0.1c-0.1-0.1-0.2-0.3-0.2-0.5V195
				c0-0.3,0.1-0.4,0.2-0.5c0.1-0.1,0.3-0.1,0.5-0.1s0.4,0,0.5,0.1s0.2,0.3,0.2,0.5V208.5z M63.1,195.2c-0.2,0.1-0.3,0.1-0.5,0.1
				c-0.2-0.1-0.3-0.2-0.5-0.4c-0.2-0.3-0.5-0.6-0.8-0.8s-0.7-0.6-1-0.9c-0.3-0.2-0.4-0.4-0.4-0.5c0-0.1,0-0.3,0.2-0.5
				c0.1-0.2,0.3-0.2,0.4-0.2c0.2,0,0.4,0.1,0.7,0.3c0.4,0.3,0.7,0.6,1,0.9c0.3,0.3,0.7,0.6,1,1c0.2,0.2,0.3,0.4,0.3,0.6
				C63.4,194.8,63.3,195,63.1,195.2z M70.2,206.4c0,0.7-0.2,1.3-0.6,1.7c-0.4,0.4-0.9,0.6-1.6,0.7c-0.3,0-0.6,0-1-0.1
				c-0.4-0.1-0.7-0.2-1.1-0.3c-0.4-0.2-0.7-0.3-0.8-0.4s-0.1-0.3,0-0.6c0.1-0.2,0.2-0.4,0.4-0.4c0.2,0,0.4,0,0.7,0.1
				c0.3,0.1,0.6,0.2,0.9,0.3c0.3,0.1,0.5,0.1,0.7,0.1c0.6,0,1-0.4,1-1.1v-11.6c0-0.1,0-0.2,0-0.3c0,0-0.1-0.1-0.2-0.1h-4.2
				c-0.3,0-0.4-0.1-0.5-0.2c-0.1-0.1-0.1-0.3-0.1-0.5c0-0.2,0.1-0.4,0.2-0.5s0.3-0.2,0.5-0.2h4.2c0.3,0,0.6,0,0.8,0
				c0.2,0,0.4,0.1,0.5,0.2c0.1,0.1,0.2,0.3,0.2,0.5s0.1,0.5,0.1,0.8V206.4z"/>
			<path id="XMLID_41_" class="st10" d="M78.9,206.5c0,0.6-0.1,1-0.3,1.2s-0.6,0.4-1.2,0.4h-3.7c-0.6,0-0.9-0.1-1.1-0.4
				c-0.2-0.2-0.3-0.6-0.3-1.2v-10.9c0-0.6,0.1-0.9,0.3-1.2c0.2-0.2,0.6-0.4,1.1-0.4h1c0.1-0.3,0.2-0.6,0.3-0.8
				c0.1-0.2,0.1-0.5,0.2-0.7c0.1-0.3,0.2-0.4,0.4-0.6s0.4-0.1,0.7-0.1c0.3,0.1,0.4,0.2,0.5,0.4c0,0.2,0,0.4-0.1,0.8
				c-0.1,0.2-0.1,0.3-0.2,0.5c0,0.2-0.1,0.3-0.2,0.5h1.2c0.6,0,1,0.1,1.2,0.4s0.3,0.6,0.3,1.2V206.5z M77.5,195.8
				c0-0.2-0.1-0.3-0.2-0.3h-3.3c-0.1,0-0.2,0.1-0.2,0.3v4.2h3.7V195.8z M77.5,201.5h-3.7v4.8c0,0.1,0,0.2,0.1,0.2
				c0,0.1,0.1,0.1,0.1,0.1h3.3c0.2,0,0.2-0.1,0.2-0.3V201.5z M80.6,198.6c-0.2,0.3-0.4,0.5-0.6,0.6c-0.2,0.1-0.4,0-0.6-0.1
				c-0.2-0.1-0.2-0.3-0.2-0.5c0-0.2,0.1-0.5,0.3-0.7c0.5-0.7,0.8-1.5,1.1-2.3c0.3-0.9,0.5-1.8,0.7-2.8c0-0.3,0.1-0.5,0.3-0.6
				c0.2-0.1,0.3-0.1,0.5-0.1c0.2,0,0.4,0.1,0.5,0.3c0.1,0.2,0.1,0.4,0.1,0.6c0,0.2-0.1,0.4-0.1,0.6s-0.1,0.4-0.1,0.6H86
				c0.4,0,0.7,0,1,0.1c0.3,0.1,0.5,0.2,0.6,0.4s0.3,0.5,0.3,0.8c0.1,0.4,0.1,0.8,0.1,1.4c0,0.6,0,1.4,0,2.1c0,0.8,0,1.5-0.1,2.3
				c0,0.7-0.1,1.4-0.1,2c0,0.6-0.1,1.1-0.1,1.4c-0.1,0.8-0.2,1.5-0.4,2.1s-0.4,1-0.6,1.3c-0.3,0.3-0.6,0.5-0.9,0.6
				c-0.4,0.1-0.8,0.1-1.2,0.1c-0.3,0-0.6-0.1-0.8-0.1s-0.5-0.1-0.7-0.1s-0.4-0.1-0.7-0.2c-0.2-0.1-0.4-0.1-0.7-0.2
				c-0.4-0.2-0.7-0.3-0.7-0.5c-0.1-0.2-0.1-0.4,0-0.6c0.1-0.2,0.2-0.4,0.5-0.4c0.2,0,0.4,0,0.7,0.1c0.4,0.1,0.8,0.3,1.2,0.4
				s0.8,0.2,1.2,0.3c0.3,0,0.5,0,0.7,0c0.2-0.1,0.4-0.2,0.5-0.5s0.3-0.6,0.4-1.1c0.1-0.5,0.2-1.1,0.3-1.9c0-0.5,0.1-1,0.1-1.5
				c0-0.5,0.1-1,0.1-1.6c0-0.6,0-1.2,0-1.9c0-0.7,0-1.5,0-2.3c0-0.4-0.1-0.7-0.2-0.8c-0.1-0.2-0.4-0.2-0.7-0.2H82
				c-0.2,0.6-0.4,1.1-0.6,1.6S80.9,198.1,80.6,198.6z M85.1,202.6c0.2,0.3,0.2,0.6,0.2,0.8c0,0.2-0.1,0.4-0.4,0.5
				c-0.4,0.2-0.8,0-1.1-0.7c-0.3-0.7-0.6-1.4-1-2.1c-0.4-0.7-0.8-1.4-1.2-2.1c-0.1-0.2-0.2-0.4-0.2-0.6c0-0.2,0.1-0.4,0.3-0.5
				c0.2-0.1,0.3-0.2,0.5-0.1c0.2,0,0.4,0.2,0.5,0.5C83.6,199.7,84.4,201.1,85.1,202.6z"/>
			<path id="XMLID_48_" class="st10" d="M94.5,198.1c-0.2,1.5-0.5,3-1.1,4.3c-0.6,1.4-1.3,2.7-2.3,4c-0.2,0.3-0.5,0.5-0.6,0.5
				c-0.2,0.1-0.4,0-0.6-0.2c-0.3-0.3-0.3-0.7,0.1-1.2c0.5-0.6,0.9-1.2,1.2-1.8s0.6-1.2,0.9-1.8c0.2-0.6,0.4-1.2,0.6-1.9
				s0.3-1.4,0.4-2.1c0-0.2,0-0.4,0-0.4c-0.1-0.1-0.2-0.1-0.4-0.1h-1.9c-0.5,0-0.7-0.2-0.7-0.7c0-0.5,0.2-0.7,0.7-0.7h2.4
				c0.6,0,1,0.2,1.2,0.5C94.6,197,94.6,197.5,94.5,198.1z M101,197.5c0.5,0,0.7,0.2,0.7,0.7c0,0.4-0.2,0.6-0.7,0.6h-2.3
				c0.2,0.5,0.3,1.1,0.5,1.7h2.2c0.5,0,0.7,0.2,0.7,0.7c0,0.4-0.2,0.7-0.7,0.7h-1.9c0.1,0.7,0.2,1.3,0.3,1.9h3.1
				c0.5,0,0.7,0.2,0.7,0.7c0,0.4-0.2,0.6-0.7,0.6h-3.1c-0.1,1.2-0.3,2.2-0.7,2.8c-0.4,0.7-1.1,1-2,1c-0.7,0-1.6-0.3-2.7-0.8
				c-0.3-0.2-0.5-0.3-0.5-0.5c0-0.2,0-0.4,0.2-0.6c0.1-0.2,0.2-0.3,0.4-0.3s0.4,0,0.6,0.2c0.9,0.4,1.5,0.7,2,0.7
				c0.4,0,0.7-0.2,0.9-0.6c0.2-0.4,0.4-1,0.4-1.9h-4.5c-0.5,0-0.7-0.2-0.7-0.6c0-0.5,0.2-0.7,0.7-0.7h4.5c0-0.3-0.1-0.6-0.1-0.9
				s-0.1-0.7-0.2-1H95c-0.5,0-0.8-0.2-0.8-0.7c0-0.4,0.3-0.7,0.8-0.7h2.8c-0.1-0.3-0.2-0.6-0.3-0.9c-0.1-0.3-0.2-0.6-0.3-0.8h-1.7
				c-0.5,0-0.8-0.2-0.8-0.6c0-0.5,0.3-0.7,0.8-0.7h1.2c-0.1-0.4-0.1-0.7,0.1-0.9c0.1-0.2,0.5-0.5,0.9-0.6c0.3-0.1,0.6-0.2,0.9-0.4
				c0.3-0.1,0.6-0.3,1-0.4c0.3-0.1,0.6-0.3,0.9-0.4c0.3-0.1,0.6-0.2,0.8-0.4c0.1,0,0.1-0.1,0.1-0.1s-0.1,0-0.2,0h-8.8
				c-0.3,0-0.5-0.1-0.6-0.2c-0.1-0.1-0.2-0.3-0.2-0.5c0-0.4,0.2-0.7,0.7-0.7h10.1c0.5,0,0.8,0.1,1.1,0.2c0.2,0.2,0.4,0.3,0.4,0.6
				c0,0.2,0,0.5-0.2,0.7s-0.4,0.5-0.8,0.6c-0.3,0.2-0.7,0.3-1.1,0.5c-0.4,0.2-0.8,0.3-1.2,0.5s-0.8,0.3-1.2,0.5
				c-0.4,0.2-0.8,0.3-1.1,0.4c-0.2,0.1-0.3,0.2-0.3,0.5H101z M103.1,196.8c0.1,1.1,0.2,2.1,0.4,3c0.3-0.5,0.6-1,0.9-1.5
				s0.5-1.2,0.8-1.8c0.2-0.6,0.5-0.8,0.9-0.6c0.2,0.1,0.4,0.2,0.4,0.4c0.1,0.2,0,0.4-0.1,0.7c-0.3,0.8-0.7,1.6-1.1,2.3
				c-0.4,0.7-0.9,1.4-1.4,2c0.3,1,0.7,1.9,1.2,2.8c0.5,0.9,1,1.7,1.7,2.6c0.4,0.5,0.4,0.9,0,1.2c-0.2,0.1-0.4,0.2-0.6,0.1
				c-0.2-0.1-0.4-0.2-0.6-0.5c-1.1-1.4-1.9-3-2.5-4.8c-0.6-1.8-1.1-3.7-1.3-5.8c0-0.4,0-0.6,0.1-0.8c0.1-0.1,0.2-0.2,0.5-0.3
				c0.2,0,0.4,0,0.5,0.2C103,196.2,103,196.4,103.1,196.8z"/>
			<path id="XMLID_53_" class="st10" d="M113.6,205.5c0.2,0.2,0.3,0.3,0.3,0.5c0,0.2-0.1,0.4-0.4,0.6c-0.3,0.3-0.6,0.6-0.9,0.8
				c-0.3,0.2-0.6,0.5-1,0.7c-0.2,0.2-0.5,0.3-0.7,0.3c-0.2,0-0.4,0-0.6-0.1c-0.2-0.1-0.3-0.3-0.4-0.5s-0.1-0.5-0.1-0.8l0.5-7.7
				c0-0.2-0.1-0.3-0.3-0.3l-1.5,0.2c-0.3,0-0.6,0-0.7-0.1c-0.1-0.1-0.2-0.3-0.2-0.5c0-0.2,0-0.4,0.1-0.5c0.1-0.1,0.3-0.2,0.6-0.2
				l1.7-0.2c0.6-0.1,1,0,1.3,0.3c0.3,0.2,0.4,0.7,0.4,1.3l-0.4,7.2c0,0.2,0,0.2,0.2,0.1c0.2-0.2,0.4-0.3,0.5-0.5
				c0.1-0.1,0.3-0.3,0.5-0.5C112.9,205.3,113.3,205.2,113.6,205.5z M111.9,196.2c-0.3,0.3-0.7,0.2-1.1-0.2c-0.3-0.4-0.7-0.7-1.1-1.1
				s-0.8-0.8-1.2-1.2c-0.4-0.3-0.4-0.7-0.1-1.1c0.1-0.1,0.3-0.2,0.5-0.2c0.2,0,0.4,0.1,0.6,0.3c0.5,0.5,1,0.9,1.3,1.2
				c0.3,0.4,0.7,0.7,1,1c0.2,0.2,0.3,0.4,0.4,0.6C112.2,195.9,112.1,196,111.9,196.2z M113.2,199.8c-0.3,0-0.4-0.1-0.5-0.2
				s-0.1-0.3-0.1-0.5c0-0.2,0-0.4,0.1-0.5s0.3-0.2,0.5-0.2h3.5c0.2-0.3,0.3-0.6,0.4-1c0.1-0.3,0.3-0.7,0.4-1
				c0.1-0.3,0.2-0.6,0.4-0.7c0.1-0.1,0.3-0.2,0.6-0.1c0.2,0.1,0.4,0.2,0.5,0.4c0.1,0.2,0,0.5-0.1,0.8c-0.1,0.2-0.2,0.5-0.3,0.8
				s-0.2,0.5-0.3,0.8h5.8c0.2,0,0.4,0,0.5,0.1c0.1,0.1,0.2,0.3,0.2,0.5c0,0.5-0.2,0.7-0.7,0.7h-6.5c-0.5,0.8-1,1.6-1.5,2.2
				c0,0,0.1,0,0.1,0s0.1,0,0.1,0h5.8c0.6,0,1.1,0.1,1.3,0.4s0.3,0.7,0.3,1.4v3.4c0,0.3,0,0.6-0.1,0.9c0,0.2-0.1,0.4-0.2,0.5
				c-0.1,0.1-0.3,0.2-0.5,0.3s-0.5,0.1-0.8,0.1h-6c-0.3,0-0.6,0-0.8-0.1c-0.2,0-0.4-0.1-0.5-0.3s-0.2-0.3-0.2-0.5c0-0.2,0-0.5,0-0.9
				v-3.5c-0.2,0.2-0.3,0.3-0.5,0.5c-0.2,0.2-0.4,0.3-0.5,0.5c-0.3,0.2-0.5,0.4-0.7,0.4c-0.2,0-0.4-0.1-0.5-0.3
				c-0.2-0.2-0.2-0.5-0.2-0.7c0.1-0.2,0.2-0.4,0.5-0.6c0.4-0.3,0.7-0.5,1-0.8s0.6-0.5,0.8-0.8c0.3-0.3,0.5-0.6,0.7-0.9
				c0.2-0.3,0.5-0.7,0.7-1.1H113.2z M113,195.5c-0.2,0-0.4,0-0.5-0.1c-0.1-0.1-0.2-0.3-0.2-0.5s0.1-0.4,0.2-0.5
				c0.1-0.1,0.3-0.1,0.6-0.1h2v-1.4c0-0.3,0-0.4,0.1-0.6c0.1-0.1,0.3-0.2,0.5-0.2s0.4,0.1,0.5,0.2c0.1,0.1,0.2,0.3,0.2,0.6v1.4h4.9
				v-1.5c0-0.3,0.1-0.4,0.2-0.6s0.3-0.2,0.5-0.2c0.3,0,0.4,0.1,0.5,0.2c0.1,0.1,0.2,0.3,0.2,0.6v1.5h1.7c0.3,0,0.5,0,0.6,0.1
				c0.1,0.1,0.2,0.3,0.2,0.5c0,0.3-0.1,0.4-0.2,0.5c-0.1,0.1-0.3,0.1-0.6,0.1h-1.7v1.3c0,0.3-0.1,0.5-0.2,0.6
				c-0.1,0.1-0.3,0.2-0.5,0.2c-0.2,0-0.4-0.1-0.5-0.2c-0.1-0.1-0.2-0.3-0.2-0.6v-1.3h-4.9v1.2c0,0.3-0.1,0.5-0.2,0.6
				c-0.1,0.1-0.3,0.2-0.5,0.2s-0.4-0.1-0.5-0.2c-0.1-0.1-0.1-0.3-0.1-0.6v-1.2H113z M122.3,203.6c0-0.1,0-0.2,0-0.3
				c0,0-0.1-0.1-0.2-0.1h-5.9c-0.2,0-0.2,0.1-0.2,0.3v3.5c0,0.1,0,0.2,0,0.3c0,0,0.1,0.1,0.2,0.1h5.9c0.1,0,0.2,0,0.2-0.1
				c0,0,0-0.1,0-0.3V203.6z"/>
		</g>
	</g>
	<rect id="_x3C_切片_x3E__1_" y="110" class="st11" width="160" height="110"/>
</g>
<g id="XMLID_4702_">
	<g id="White_Base_11_">
		<g id="XMLID_1643_">
			<path id="XMLID_1644_" class="st0" d="M63.3,15.4c-20.5,0-37.2,16.6-37.2,37.2s16.6,37.2,37.2,37.2s37.2-16.6,37.2-37.2
				S83.9,15.4,63.3,15.4z M63.3,62.1c-5.2,0-9.5-4.3-9.5-9.5s4.3-9.5,9.5-9.5s9.5,4.3,9.5,9.5S68.6,62.1,63.3,62.1z M63.3,46.3
				c-3.5,0-6.3,2.8-6.3,6.3s2.8,6.3,6.3,6.3s6.3-2.8,6.3-6.3S66.8,46.3,63.3,46.3z"/>
		</g>
	</g>
	<g id="Red_4_">
		<g id="XMLID_1056_">
			<path id="XMLID_1057_" class="st12" d="M53.9,52.6c0-1.6,0.4-3.1,1.1-4.4c-4.3,6.9-11.4,24.2-11.4,24.2S60.8,65.3,67.7,61
				c-1.3,0.7-2.8,1.1-4.4,1.1C58.1,62.1,53.9,57.9,53.9,52.6z"/>
		</g>
	</g>
	<g id="Blue_4_">
		<g id="XMLID_1824_">
			<path id="XMLID_1825_" class="st12" d="M83.1,32.8c0,0-17.1,7-24.1,11.3c1.3-0.7,2.7-1,4.3-1c5.2,0,9.5,4.3,9.5,9.5
				c0,1.6-0.4,3.1-1.1,4.5C76,50.2,83.1,32.8,83.1,32.8z M55.5,57.9c-0.1-0.2-0.2-0.3-0.3-0.5C55.3,57.6,55.4,57.7,55.5,57.9z
				 M55.2,57.4c-0.1-0.1-0.2-0.3-0.3-0.5C55,57.1,55.1,57.2,55.2,57.4z M56.3,59c-0.1-0.1-0.2-0.2-0.3-0.4
				C56.1,58.8,56.2,58.9,56.3,59z M56,58.6c-0.2-0.2-0.4-0.5-0.5-0.7C55.6,58.2,55.8,58.4,56,58.6z M54.9,56.9
				c-0.2-0.3-0.3-0.6-0.4-0.9C54.6,56.3,54.7,56.6,54.9,56.9z M54.4,55.7c-0.1-0.4-0.2-0.7-0.3-1.1C54.1,55,54.3,55.3,54.4,55.7z
				 M63.3,62.1c-2.8,0-5.3-1.2-7-3.1c0.1,0.1,0.2,0.2,0.3,0.3c3.7,3.7,9.7,3.7,13.4,0c0.1-0.1,0.3-0.3,0.5-0.5
				C68.8,60.8,66.2,62.1,63.3,62.1z M54.5,56c0-0.1-0.1-0.2-0.1-0.3C54.4,55.8,54.4,55.9,54.5,56z"/>
		</g>
	</g>
	<g id="Inner_Lines_3_" class="st3">
		<g id="XMLID_1795_">
			<path id="XMLID_1796_" class="st4" d="M63.3,24.9c-0.4,0-0.8,0.4-0.8,0.8v3.2c0,0.4,0.4,0.8,0.8,0.8s0.8-0.4,0.8-0.8v-3.2
				C64.1,25.3,63.8,24.9,63.3,24.9z M63.3,76.3c-0.4,0-0.8,0.4-0.8,0.8v3.2c0,0.4,0.4,0.8,0.8,0.8s0.8-0.4,0.8-0.8v-3.2
				C64.1,76.7,63.8,76.3,63.3,76.3z M63.3,18.6c-18.8,0-34,15.2-34,34s15.2,34,34,34s34-15.2,34-34S82.1,18.6,63.3,18.6z M63.3,85.1
				c-17.9,0-32.4-14.5-32.4-32.4c0-17.9,14.5-32.4,32.4-32.4s32.4,14.5,32.4,32.4C95.8,70.5,81.3,85.1,63.3,85.1z M91,52.6h-3.2
				c-0.4,0-0.8,0.4-0.8,0.8c0,0.4,0.4,0.8,0.8,0.8H91c0.4,0,0.8-0.4,0.8-0.8C91.8,53,91.5,52.6,91,52.6z M39.6,52.6h-3.2
				c-0.4,0-0.8,0.4-0.8,0.8c0,0.4,0.4,0.8,0.8,0.8h3.2c0.4,0,0.8-0.4,0.8-0.8C40.4,53,40,52.6,39.6,52.6z"/>
		</g>
	</g>
	<g id="Texture_1_12_" class="st5">
		<g id="XMLID_2041_">
			<path id="XMLID_2042_" class="st4" d="M64.9,58.7c0.6-0.1,1.1-0.4,1.6-0.6v-0.7h-1.6V58.7z M61.8,51v1.6h1.6V51H61.8z M61.8,46.5
				c-0.6,0.1-1.1,0.4-1.6,0.6v0.7h1.6V46.5z M63.3,54.2h1.6v-1.6h-1.6V54.2z M58.6,56.8v-1h-0.7C58.1,56.1,58.3,56.5,58.6,56.8z
				 M64.9,51v-1.6h-1.6V51H64.9z M68.8,55.8c0.3-0.5,0.5-1,0.6-1.6h-1.4v1.6H68.8z M64.9,46.5c-0.5-0.1-1-0.2-1.6-0.2h0v1.6h1.6
				V46.5z M66.5,47.1v0.7h1C67.2,47.6,66.9,47.3,66.5,47.1z M57,52.6c0,0.5,0.1,1.1,0.2,1.6h1.4v-1.6H57z M69.7,52.6L69.7,52.6
				c0-0.5-0.1-1.1-0.2-1.6h-1.4v1.6H69.7z M60.2,58.1v-0.7h-1C59.5,57.6,59.8,57.9,60.2,58.1z M61.8,58.7c0.5,0.1,1,0.2,1.6,0.2
				v-1.6h-1.6V58.7z M68.1,48.4v1h0.7C68.6,49.1,68.4,48.7,68.1,48.4z M57.9,49.4c-0.3,0.5-0.5,1-0.6,1.6h1.4v-1.6H57.9z M60.2,47.9
				h-1c-0.2,0.2-0.4,0.4-0.6,0.6v1h1.6V47.9z M58.6,54.2v1.6h1.6v-1.6H58.6z M60.2,51h-1.6v1.6h1.6V51z M60.2,55.8v1.6h1.6v-1.6
				H60.2z M66.5,52.6v1.6h1.6v-1.6H66.5z M63.3,55.8v1.6h1.6v-1.6H63.3z M61.8,49.4h-1.6V51h1.6V49.4z M66.5,57.4h1
				c0.2-0.2,0.4-0.4,0.6-0.6v-1h-1.6V57.4z M61.8,54.2v1.6h1.6v-1.6H61.8z M60.2,52.6v1.6h1.6v-1.6H60.2z M64.9,55.8h1.6v-1.6h-1.6
				V55.8z M64.9,51v1.6h1.6V51H64.9z M66.5,49.4v-1.6h-1.6v1.6H66.5z M63.3,49.4v-1.6h-1.6v1.6H63.3z M68.1,51v-1.6h-1.6V51H68.1z"
				/>
		</g>
	</g>
	<g id="Outline_14_">
		<g id="XMLID_1733_">
			<path id="XMLID_1734_" class="st4" d="M63.3,43.1c-5.2,0-9.5,4.3-9.5,9.5s4.3,9.5,9.5,9.5s9.5-4.3,9.5-9.5S68.6,43.1,63.3,43.1z
				 M63.3,58.9c-3.5,0-6.3-2.8-6.3-6.3s2.8-6.3,6.3-6.3s6.3,2.8,6.3,6.3S66.8,58.9,63.3,58.9z M63.3,12.3C41.1,12.3,23,30.3,23,52.6
				S41.1,93,63.3,93s40.4-18.1,40.4-40.4S85.6,12.3,63.3,12.3z M63.3,89.8c-20.5,0-37.2-16.6-37.2-37.2s16.6-37.2,37.2-37.2
				s37.2,16.6,37.2,37.2S83.9,89.8,63.3,89.8z"/>
		</g>
	</g>
	<g id="XMLID_5231_">
		<path id="XMLID_1046_" class="st0" d="M84.7,96.8c-2.9,0-5.6-1.7-6.9-4.4l-12-26.3c-1-2.2-0.9-4.7,0.3-6.8l24.4-44.1
			c1.3-2.4,3.9-3.9,6.6-3.9c0.8,0,1.6,0.1,2.4,0.4l22.4,7.5c0.9,0.3,1.7,0.7,2.4,1.3l18.2,15c2.8,2.3,3.6,6.3,1.8,9.5L120,89.1
			c-1.2,2.1-3.2,3.5-5.6,3.8l-28.7,3.8C85.4,96.8,85.1,96.8,84.7,96.8z"/>
		<path id="XMLID_1043_" class="st4" d="M97.2,12.8c0.6,0,1.3,0.1,1.9,0.3l22.4,7.5c0.7,0.2,1.4,0.6,1.9,1.1l18.2,15
			c2.2,1.8,2.8,5,1.4,7.6l-24.4,44.1c-0.9,1.7-2.6,2.8-4.5,3.1l-28.7,3.8c-0.3,0-0.5,0.1-0.8,0.1c-2.3,0-4.5-1.4-5.5-3.5l-12-26.3
			c-0.8-1.7-0.7-3.8,0.2-5.4l24.4-44.1C93,13.9,95.1,12.8,97.2,12.8 M97.2,9.8L97.2,9.8c-3.3,0-6.3,1.8-7.9,4.7L64.9,58.6
			c-1.4,2.5-1.5,5.5-0.3,8.1l12,26.3c1.5,3.2,4.7,5.3,8.2,5.3c0.4,0,0.8,0,1.2-0.1l28.7-3.8c2.8-0.4,5.3-2.1,6.7-4.6l24.4-44.1
			c2.1-3.8,1.2-8.6-2.2-11.3l-18.2-15c-0.9-0.7-1.8-1.2-2.9-1.6l-22.4-7.5C99.1,9.9,98.2,9.8,97.2,9.8L97.2,9.8z"/>
	</g>
	
		<rect id="XMLID_5230_" x="81.6" y="40" transform="matrix(0.8749 0.4844 -0.4844 0.8749 37.2206 -45.8283)" class="st12" width="51.4" height="18.3"/>
	<g id="XMLID_5172_">
		<g id="XMLID_5224_">
			<g id="XMLID_5225_">
				
					<rect id="XMLID_5229_" x="81.7" y="46.2" transform="matrix(0.8749 0.4844 -0.4844 0.8749 33.2885 -34.1986)" class="st7" width="2.3" height="2.3"/>
				
					<rect id="XMLID_5228_" x="85.7" y="48.4" transform="matrix(0.8749 0.4844 -0.4844 0.8749 34.8611 -35.8584)" class="st7" width="2.3" height="2.3"/>
				
					<rect id="XMLID_5227_" x="78.6" y="47.1" transform="matrix(0.8749 0.4844 -0.4844 0.8749 33.3321 -32.5825)" class="st7" width="2.3" height="2.3"/>
				
					<rect id="XMLID_5226_" x="82.6" y="49.3" transform="matrix(0.8749 0.4844 -0.4844 0.8749 34.9047 -34.2422)" class="st7" width="2.3" height="2.3"/>
			</g>
		</g>
		<g id="XMLID_5220_">
			<g id="XMLID_5221_">
				
					<rect id="XMLID_5223_" x="79.5" y="50.2" transform="matrix(0.8749 0.4844 -0.4844 0.8749 34.9482 -32.626)" class="st7" width="2.3" height="2.3"/>
				
					<rect id="XMLID_5222_" x="83.5" y="52.4" transform="matrix(0.8749 0.4844 -0.4844 0.8749 36.5209 -34.2858)" class="st7" width="2.3" height="2.3"/>
			</g>
		</g>
		<g id="XMLID_5214_">
			<g id="XMLID_5215_">
				
					<rect id="XMLID_5219_" x="89.7" y="50.6" transform="matrix(0.8749 0.4844 -0.4844 0.8749 36.4338 -37.5181)" class="st7" width="2.3" height="2.3"/>
				
					<rect id="XMLID_5218_" x="93.7" y="52.8" transform="matrix(0.8749 0.4844 -0.4844 0.8749 38.0064 -39.1779)" class="st7" width="2.3" height="2.3"/>
				
					<rect id="XMLID_5217_" x="86.6" y="51.5" transform="matrix(0.8749 0.4844 -0.4844 0.8749 36.4773 -35.902)" class="st7" width="2.3" height="2.3"/>
				
					<rect id="XMLID_5216_" x="90.6" y="53.7" transform="matrix(0.8749 0.4844 -0.4844 0.8749 38.0499 -37.5617)" class="st7" width="2.3" height="2.3"/>
			</g>
		</g>
		<g id="XMLID_5210_">
			<g id="XMLID_5211_">
				
					<rect id="XMLID_5213_" x="87.5" y="54.6" transform="matrix(0.8749 0.4844 -0.4844 0.8749 38.0935 -35.9455)" class="st7" width="2.3" height="2.3"/>
				
					<rect id="XMLID_5212_" x="91.5" y="56.8" transform="matrix(0.8749 0.4844 -0.4844 0.8749 39.6661 -37.6053)" class="st7" width="2.3" height="2.3"/>
			</g>
		</g>
		<g id="XMLID_5204_">
			<g id="XMLID_5205_">
				
					<rect id="XMLID_5209_" x="97.7" y="55" transform="matrix(0.8749 0.4844 -0.4844 0.8749 39.579 -40.8376)" class="st7" width="2.3" height="2.3"/>
				
					<rect id="XMLID_5208_" x="101.7" y="57.3" transform="matrix(0.8749 0.4844 -0.4844 0.8749 41.1516 -42.4974)" class="st7" width="2.3" height="2.3"/>
				
					<rect id="XMLID_5207_" x="94.6" y="55.9" transform="matrix(0.8749 0.4844 -0.4844 0.8749 39.6226 -39.2214)" class="st7" width="2.3" height="2.3"/>
				
					<rect id="XMLID_5206_" x="98.6" y="58.1" transform="matrix(0.8749 0.4844 -0.4844 0.8749 41.1952 -40.8812)" class="st7" width="2.3" height="2.3"/>
			</g>
		</g>
		<g id="XMLID_5200_">
			<g id="XMLID_5201_">
				
					<rect id="XMLID_5203_" x="95.5" y="59" transform="matrix(0.8749 0.4844 -0.4844 0.8749 41.2387 -39.265)" class="st7" width="2.3" height="2.3"/>
				
					<rect id="XMLID_5202_" x="99.5" y="61.3" transform="matrix(0.8749 0.4844 -0.4844 0.8749 42.8114 -40.9248)" class="st7" width="2.3" height="2.3"/>
			</g>
		</g>
		<g id="XMLID_5194_">
			<g id="XMLID_5195_">
				
					<rect id="XMLID_5199_" x="105.7" y="59.5" transform="matrix(0.8749 0.4844 -0.4844 0.8749 42.7243 -44.1571)" class="st7" width="2.3" height="2.3"/>
				
					<rect id="XMLID_5198_" x="109.7" y="61.7" transform="matrix(0.8749 0.4844 -0.4844 0.8749 44.2969 -45.8169)" class="st7" width="2.3" height="2.3"/>
				
					<rect id="XMLID_5197_" x="102.6" y="60.4" transform="matrix(0.8749 0.4844 -0.4844 0.8749 42.7678 -42.5409)" class="st7" width="2.3" height="2.3"/>
				
					<rect id="XMLID_5196_" x="106.6" y="62.6" transform="matrix(0.8749 0.4844 -0.4844 0.8749 44.3404 -44.2007)" class="st7" width="2.3" height="2.3"/>
			</g>
		</g>
		<g id="XMLID_5190_">
			<g id="XMLID_5191_">
				
					<rect id="XMLID_5193_" x="103.5" y="63.5" transform="matrix(0.8749 0.4844 -0.4844 0.8749 44.384 -42.5845)" class="st7" width="2.3" height="2.3"/>
				
					<rect id="XMLID_5192_" x="107.5" y="65.7" transform="matrix(0.8749 0.4844 -0.4844 0.8749 45.9566 -44.2443)" class="st7" width="2.3" height="2.3"/>
			</g>
		</g>
		<g id="XMLID_5184_">
			<g id="XMLID_5185_">
				
					<rect id="XMLID_5189_" x="113.7" y="63.9" transform="matrix(0.8749 0.4844 -0.4844 0.8749 45.8695 -47.4766)" class="st7" width="2.3" height="2.3"/>
				
					<rect id="XMLID_5188_" x="117.7" y="66.1" transform="matrix(0.8749 0.4844 -0.4844 0.8749 47.4421 -49.1364)" class="st7" width="2.3" height="2.3"/>
				
					<rect id="XMLID_5187_" x="110.6" y="64.8" transform="matrix(0.8749 0.4844 -0.4844 0.8749 45.9131 -45.8604)" class="st7" width="2.3" height="2.3"/>
				
					<rect id="XMLID_5186_" x="114.6" y="67" transform="matrix(0.8749 0.4844 -0.4844 0.8749 47.4857 -47.5202)" class="st7" width="2.3" height="2.3"/>
			</g>
		</g>
		<g id="XMLID_5180_">
			<g id="XMLID_5181_">
				
					<rect id="XMLID_5183_" x="111.5" y="67.9" transform="matrix(0.8749 0.4844 -0.4844 0.8749 47.5292 -45.904)" class="st7" width="2.3" height="2.3"/>
				
					<rect id="XMLID_5182_" x="115.5" y="70.1" transform="matrix(0.8749 0.4844 -0.4844 0.8749 49.1019 -47.5638)" class="st7" width="2.3" height="2.3"/>
			</g>
		</g>
		<g id="XMLID_5176_">
			<g id="XMLID_5177_">
				
					<rect id="XMLID_5179_" x="121.7" y="68.3" transform="matrix(0.8749 0.4844 -0.4844 0.8749 49.0147 -50.7961)" class="st7" width="2.3" height="2.3"/>
				
					<rect id="XMLID_5178_" x="118.6" y="69.2" transform="matrix(0.8749 0.4844 -0.4844 0.8749 49.0583 -49.1799)" class="st7" width="2.3" height="2.3"/>
			</g>
		</g>
		<g id="XMLID_5173_">
			<g id="XMLID_5174_">
				
					<rect id="XMLID_5175_" x="119.5" y="72.3" transform="matrix(0.8749 0.4844 -0.4844 0.8749 50.6745 -49.2235)" class="st7" width="2.3" height="2.3"/>
			</g>
		</g>
	</g>
	<path id="XMLID_5166_" class="st12" d="M97.3,19.1L97.3,19.1c0.4,0,0.8,0.1,1.1,0.2l20.5,6.8c0.4,0.1,0.8,0.3,1.1,0.6l16.7,13.8
		c1.3,1.1,1.7,2.9,0.8,4.4l-22.4,40.4c-0.5,1-1.5,1.6-2.6,1.8l-26.2,3.5c-0.2,0-0.3,0-0.5,0c-1.4,0-2.6-0.8-3.2-2.1l-11-24.1
		c-0.5-1-0.4-2.2,0.1-3.2L94.2,21C94.8,19.8,96,19.1,97.3,19.1 M97.3,17.1c-2,0-3.8,1.1-4.8,2.8L70.1,60.4c-0.8,1.5-0.9,3.4-0.2,5
		l11,24.1c0.9,2,2.9,3.2,5,3.2c0.2,0,0.5,0,0.7,0l26.2-3.5c1.7-0.2,3.3-1.3,4.1-2.8l22.4-40.4c1.3-2.3,0.7-5.2-1.3-6.9l-16.7-13.8
		c-0.5-0.4-1.1-0.8-1.8-1l-20.5-6.8C98.5,17.2,97.9,17.1,97.3,17.1L97.3,17.1z"/>
	<g id="White_Base_10_">
		<g id="XMLID_1624_">
			<path id="XMLID_1628_" class="st0" d="M108.2,73.7c-0.7-0.2-1.4,0.1-1.7,0.8c-0.2,0.7,0.1,1.4,0.8,1.7c0.7,0.2,1.4-0.1,1.7-0.8
				C109.3,74.7,108.9,74,108.2,73.7z M120.5,42.4l3,4l-2.1,1.6l-3-4l-2.1,1.6l4.5,6l-2.1,1.6l-4.5-6l-2.1,1.6l3,4l-2.1,1.6l-3-4
				l-2.1,1.6l3,4l-2.1,1.6l-3-4l-2.1,1.6l4.5,6l-2.1,1.6l-4.5-6L99.8,58l3,4l-2.1,1.6l-3-4l-2.1,1.6l3,4l-2.1,1.6l-3-4l-2.1,1.6
				l4.5,6L94,71.8l-4.5-6l-2.1,1.6l3,4l-2.1,1.6l-3-4L81,72.2l30.7,11.1l17-47.1L120.5,42.4z M111.5,76.3c-0.7,2-3,3.1-5,2.3
				c-2-0.7-3.1-3-2.3-5s3-3.1,5-2.3C111.1,72,112.2,74.3,111.5,76.3z"/>
		</g>
	</g>
	<g id="Yellow_1_">
		<g id="XMLID_1446_">
			<path id="XMLID_1447_" class="st12" d="M110.9,66.4c-4.7-1.7-9.9,0.7-11.6,5.5c-0.9,2.4-0.7,4.9,0.4,7l12.1,4.4l4.4-12.1
				C115.1,69,113.3,67.3,110.9,66.4z M111.5,76.3c-0.7,2-3,3.1-5,2.3c-2-0.7-3.1-3-2.3-5s3-3.1,5-2.3
				C111.1,72,112.2,74.3,111.5,76.3z"/>
		</g>
	</g>
	<g id="Texture_1_11_" class="st5">
		<g id="XMLID_2373_">
			<path id="XMLID_2374_" class="st4" d="M108.3,69.6l-0.4,1.2l1.2,0.4l0.4-1.2L108.3,69.6z M110.3,72l0.1-0.2l-1.2-0.4
				C109.6,71.4,109.9,71.7,110.3,72z M106.3,71.4c0.5-0.2,1-0.3,1.5-0.3l0.1-0.2l-1.2-0.4L106.3,71.4z M112.1,67
				c-0.4-0.2-0.8-0.4-1.2-0.5l-0.4,1.2l1.2,0.4L112.1,67z M115.7,72.3l0.4-1.1c0-0.1-0.1-0.1-0.1-0.2l-1.1-0.4l-0.4,1.2L115.7,72.3z
				 M109.6,66.1c-0.4-0.1-0.9-0.2-1.3-0.2l-0.3,0.9l1.2,0.4L109.6,66.1z M114.2,68.6c-0.3-0.3-0.7-0.6-1-0.9l-0.3,0.9l1.2,0.4
				L114.2,68.6z M113.2,71.4l-0.4,1.2l1.2,0.4l0.4-1.2L113.2,71.4z M101.3,74l-1.2-0.4l-0.4,1.2l1.2,0.4L101.3,74z M108.8,68.4
				l-1.2-0.4l-0.4,1.2l1.2,0.4L108.8,68.4z M110.8,70.5l0.4-1.2l-1.2-0.4l-0.4,1.2L110.8,70.5z M101.6,76.8l-0.4,1.2l1.2,0.4
				l0.4-1.2L101.6,76.8z M111.9,75.1l1.2,0.4l0.4-1.2l-1.2-0.4L111.9,75.1z M106.1,66l0.7,0.3l0.1-0.4C106.6,65.9,106.3,66,106.1,66
				z M102.1,71.5l-1.2-0.4l-0.4,1.2l1.2,0.4L102.1,71.5z M112.1,82l0.4-1.2l-1.2-0.4l-0.4,1.2L112.1,82z M109.3,82.4l1.2,0.4
				l0.4-1.2l-1.2-0.4L109.3,82.4z M106.8,81.5l1.2,0.4l0.4-1.2l-1.2-0.4L106.8,81.5z M113.9,77.2l0.4-1.2l-1.2-0.4l-0.4,1.2
				L113.9,77.2z M114.8,74.7l0.4-1.2l-1.2-0.4l-0.4,1.2L114.8,74.7z M104.4,80.6l1.2,0.4l0.4-1.2l-1.2-0.4L104.4,80.6z M113,79.6
				l0.4-1.2l-1.2-0.4l-0.4,1.2L113,79.6z M101.4,68.5l0.4,0.1l0.3-0.7C101.8,68.1,101.6,68.3,101.4,68.5z M100.5,69.6
				c-0.3,0.4-0.5,0.7-0.7,1.1l1.1,0.4l0.4-1.2L100.5,69.6z M104,66.7l1.1,0.4l0.3-0.9C105,66.3,104.5,66.5,104,66.7z M102.6,67.5
				l0.9,0.3l0.4-1.1C103.4,67,103,67.2,102.6,67.5z M99.3,71.9c-0.2,0.4-0.3,0.8-0.3,1.3l1.1,0.4l0.4-1.2L99.3,71.9z M99.5,78.7
				c0,0.1,0,0.1,0.1,0.2l1.1,0.4l0.4-1.2l-1.2-0.4L99.5,78.7z M101.9,79.7l1.2,0.4l0.4-1.2l-1.2-0.4L101.9,79.7z M98.7,74.4
				c0,0.5,0,0.9,0,1.4l0.4,0.1l0.4-1.2L98.7,74.4z M110.3,71.7l1.2,0.4L112,71l-1.2-0.4L110.3,71.7z M106.5,78.6l-0.4,1.2l1.2,0.4
				l0.4-1.2L106.5,78.6z M112.4,69.7L112,71l1.2,0.4l0.4-1.2L112.4,69.7z M107.1,69.2l-1.2-0.4l-0.4,1.2l1.2,0.4L107.1,69.2z
				 M104.7,68.3l-1.2-0.4l-0.4,1.2l1.2,0.4L104.7,68.3z M109.6,78.4l1,0.3l0.4-1.2l-0.2-0.1C110.5,77.8,110.1,78.1,109.6,78.4z
				 M108.9,79.5l-0.4,1.2l1.2,0.4l0.4-1.2L108.9,79.5z M111.5,76.3l0.4-1.2l-0.2-0.1C111.7,75.4,111.6,75.8,111.5,76.3z M110,68.9
				l0.4-1.2l-1.2-0.4l-0.4,1.2L110,68.9z M106.3,67.5l-1.2-0.4l-0.4,1.2l1.2,0.4L106.3,67.5z M108,66.7l-1.2-0.4l-0.4,1.2l1.2,0.4
				L108,66.7z M107.8,78.8l-0.1,0.2l1.2,0.4l0.3-1C108.8,78.7,108.3,78.8,107.8,78.8z M112.4,69.7l0.4-1.2l-1.2-0.4l-0.4,1.2
				L112.4,69.7z M114.9,70.6l0.3-0.9c-0.1-0.2-0.3-0.3-0.4-0.5l-0.7-0.3l-0.4,1.2L114.9,70.6z M104,77.7l-0.4,1.2l1.2,0.4l0.4-1.2
				L104,77.7z M111.2,73.1c0.1,0.1,0.1,0.2,0.2,0.4l1,0.3l0.4-1.2l-1.2-0.4L111.2,73.1z M102,75.6l1.2,0.4l0.4-1.2l-1.2-0.4
				L102,75.6z M102.9,73.2l1.2,0.4l0.4-1.2l-1.2-0.4L102.9,73.2z M111,77.5l1.2,0.4l0.4-1.2l-1.2-0.4L111,77.5z M104.8,72.5
				c0.3-0.4,0.7-0.7,1.2-1l-1-0.3l-0.4,1.2L104.8,72.5z M105.5,70l-1.2-0.4l-0.4,1.2l1.2,0.4L105.5,70z M103.9,74.9
				c0-0.4,0.1-0.9,0.2-1.3l-0.4,1.2L103.9,74.9z M103.8,70.7l-1.2-0.4l-0.4,1.2l1.2,0.4L103.8,70.7z M103,69.1l-1.2-0.4l-0.4,1.2
				l1.2,0.4L103,69.1z M99.2,76l-0.3,0.7c0,0.2,0.1,0.4,0.1,0.6l0.9,0.3l0.4-1.2L99.2,76z M100.8,75.2l-0.4,1.2l1.2,0.4l0.4-1.2
				L100.8,75.2z M104.2,76.4l-1-0.3l-0.4,1.2l1.2,0.4l0.3-1C104.3,76.7,104.3,76.5,104.2,76.4z M110.1,79.9l1.2,0.4l0.4-1.2
				l-1.2-0.4L110.1,79.9z M102.9,73.2l-1.2-0.4l-0.4,1.2l1.2,0.4L102.9,73.2z M105.3,78.2l1.2,0.4c-0.4-0.2-0.8-0.4-1.1-0.7
				L105.3,78.2z"/>
		</g>
	</g>
	<g id="Outline_12_" class="st9">
		<g id="XMLID_1726_">
			<path id="XMLID_1730_" class="st4" d="M131.9,31.2c-0.4-0.2-0.9-0.1-1.2,0.2l0,0L77.5,71.5l0,0c-0.2,0.1-0.4,0.3-0.5,0.6
				c-0.2,0.7,0.1,1.4,0.8,1.7L112,86.1c0.7,0.2,1.4-0.1,1.7-0.8l19-52.5C132.9,32.2,132.6,31.5,131.9,31.2z M111.7,83.3L81,72.2
				l4.3-3.2l3,4l2.1-1.6l-3-4l2.1-1.6l4.5,6l2.1-1.6l-4.5-6l2.1-1.6l3,4l2.1-1.6l-3-4l2.1-1.6l3,4l2.1-1.6l-3-4l2.1-1.6l4.5,6
				l2.1-1.6l-4.5-6l2.1-1.6l3,4l2.1-1.6l-3-4l2.1-1.6l3,4l2.1-1.6l-3-4l2.1-1.6l4.5,6l2.1-1.6l-4.5-6l2.1-1.6l3,4l2.1-1.6l-3-4
				l8.3-6.2L111.7,83.3z M109.1,71.3c-2-0.7-4.3,0.3-5,2.3s0.3,4.3,2.3,5c2,0.7,4.3-0.3,5-2.3C112.2,74.3,111.1,72,109.1,71.3z
				 M109,75.4c-0.2,0.7-1,1-1.7,0.8c-0.7-0.2-1-1-0.8-1.7c0.2-0.7,1-1,1.7-0.8C108.9,74,109.3,74.7,109,75.4z"/>
		</g>
	</g>
	<g id="White_Base_7_">
		<g id="XMLID_1588_">
			<path id="XMLID_1589_" class="st0" d="M67.1,82.3l-3.3,1.5l2.3,5l3.3-1.5L67.1,82.3z M41.6,31.1l0.2,7l5-2.3L41.6,31.1z
				 M48.9,38.4l-6.5,3l17.1,37.2l6.5-3L48.9,38.4z"/>
		</g>
	</g>
	<g id="Blue_3_">
		<g id="XMLID_1050_">
			
				<rect id="XMLID_1052_" x="57.5" y="69.8" transform="matrix(0.9091 -0.4166 0.4166 0.9091 -25.1248 32.134)" class="st12" width="7.2" height="7.7"/>
		</g>
	</g>
	<g id="Texture_1_10_" class="st3">
		<g id="XMLID_1754_">
			<path id="XMLID_1755_" class="st4" d="M47.7,46.5l-1.5,0.7l0.7,1.5l1.5-0.7L47.7,46.5z M45.9,49.2l0.7,1.5l1.1-0.5l-0.7-1.5
				L45.9,49.2z M48.3,51.7l1.5-0.7l-0.7-1.5l-1.5,0.7L48.3,51.7z M48.4,48l0.7,1.5l1.5-0.7l-0.7-1.5L48.4,48z M50.6,48.8l0.7,1.5
				l1.5-0.7l-0.7-1.5L50.6,48.8z M53.1,47.7l-0.7-1.5l-1,0.5l0.7,1.5L53.1,47.7z M50.7,45.1l-1.5,0.7l0.7,1.5l1.5-0.7L50.7,45.1z"/>
		</g>
	</g>
	<g id="Inner_Lines_2_" class="st3">
		<g id="XMLID_1058_">
			
				<rect id="XMLID_1059_" x="43.5" y="42.3" transform="matrix(0.9091 -0.4166 0.4166 0.9091 -13.69 23.5386)" class="st4" width="7.2" height="1.6"/>
		</g>
	</g>
	<g id="Outline_11_">
		<g id="XMLID_1618_">
			<path id="XMLID_1620_" class="st4" d="M73,87.5l-3.2-6.9c0.7-0.9,0.9-2.2,0.4-3.4c0,0,0-0.1,0-0.1L51.1,35.5
				c-0.1-0.2-0.3-0.4-0.5-0.6l0,0l-9.7-8.8c0,0,0,0-0.1-0.1L40.8,26l0,0c-0.1-0.1-0.3-0.2-0.4-0.2c-0.9-0.3-1.8,0.1-2.1,1
				c-0.1,0.2-0.1,0.3-0.1,0.5l0,0l0,0.1c0,0,0,0.1,0,0.1l0.3,13.1l0,0c0,0.3,0,0.5,0.1,0.8h0l19.1,41.6c0,0,0,0.1,0,0.1
				c0.5,1.1,1.6,1.8,2.8,1.9l3.2,6.9c0.2,0.4,0.5,0.7,0.9,0.9c0.4,0.2,0.9,0.1,1.3,0l0,0l6.3-2.9c0.4-0.2,0.7-0.5,0.9-0.9
				C73.2,88.3,73.2,87.9,73,87.5z M66,88.9l-2.2-4.8l0,0l-0.1-0.2l3.4-1.5l0.1,0.2l0,0l2.2,4.8L66,88.9z M41.5,31.1l5.2,4.7l-5,2.3
				L41.5,31.1z M48.8,38.4l17.1,37.2l-6.5,3L42.3,41.4L48.8,38.4z"/>
		</g>
	</g>
	<g id="XMLID_4814_">
		<path id="XMLID_1028_" class="st0" d="M25,108.5c-1.9,0-3.5-1.6-3.5-3.5V75c0-1.9,1.6-3.5,3.5-3.5h110c1.9,0,3.5,1.6,3.5,3.5v30
			c0,1.9-1.6,3.5-3.5,3.5H25z"/>
		<path id="XMLID_1024_" class="st4" d="M135,73c1.1,0,2,0.9,2,2v30c0,1.1-0.9,2-2,2H25c-1.1,0-2-0.9-2-2V75c0-1.1,0.9-2,2-2H135
			 M135,70H25c-2.8,0-5,2.2-5,5v30c0,2.8,2.2,5,5,5h110c2.8,0,5-2.2,5-5V75C140,72.2,137.7,70,135,70L135,70z"/>
	</g>
	<g id="XMLID_4759_">
		<g id="XMLID_4808_">
			<g id="XMLID_4809_">
				<rect id="XMLID_4813_" x="23" y="72.2" class="st7" width="2" height="2"/>
				<rect id="XMLID_4812_" x="27" y="72.2" class="st7" width="2" height="2"/>
				<rect id="XMLID_4811_" x="21" y="74.2" class="st7" width="2" height="2"/>
				<rect id="XMLID_4810_" x="25" y="74.2" class="st7" width="2" height="2"/>
			</g>
		</g>
		<g id="XMLID_4802_">
			<g id="XMLID_4803_">
				<rect id="XMLID_4807_" x="23" y="76.2" class="st7" width="2" height="2"/>
				<rect id="XMLID_4806_" x="27" y="76.2" class="st7" width="2" height="2"/>
				<rect id="XMLID_4805_" x="21" y="78.2" class="st7" width="2" height="2"/>
				<rect id="XMLID_4804_" x="25" y="78.2" class="st7" width="2" height="2"/>
			</g>
		</g>
		<g id="XMLID_4796_">
			<g id="XMLID_4797_">
				<rect id="XMLID_4801_" x="23" y="80.2" class="st7" width="2" height="2"/>
				<rect id="XMLID_4800_" x="27" y="80.2" class="st7" width="2" height="2"/>
				<rect id="XMLID_4799_" x="21" y="82.2" class="st7" width="2" height="2"/>
				<rect id="XMLID_4798_" x="25" y="82.2" class="st7" width="2" height="2"/>
			</g>
		</g>
		<g id="XMLID_4790_">
			<g id="XMLID_4791_">
				<rect id="XMLID_4795_" x="23" y="84.2" class="st7" width="2" height="2"/>
				<rect id="XMLID_4794_" x="27" y="84.2" class="st7" width="2" height="2"/>
				<rect id="XMLID_4793_" x="21" y="86.2" class="st7" width="2" height="2"/>
				<rect id="XMLID_4792_" x="25" y="86.2" class="st7" width="2" height="2"/>
			</g>
		</g>
		<g id="XMLID_4784_">
			<g id="XMLID_4785_">
				<rect id="XMLID_4789_" x="23" y="88.2" class="st7" width="2" height="2"/>
				<rect id="XMLID_4788_" x="27" y="88.2" class="st7" width="2" height="2"/>
				<rect id="XMLID_4787_" x="21" y="90.2" class="st7" width="2" height="2"/>
				<rect id="XMLID_4786_" x="25" y="90.2" class="st7" width="2" height="2"/>
			</g>
		</g>
		<g id="XMLID_4778_">
			<g id="XMLID_4779_">
				<rect id="XMLID_4783_" x="23" y="92.2" class="st7" width="2" height="2"/>
				<rect id="XMLID_4782_" x="27" y="92.2" class="st7" width="2" height="2"/>
				<rect id="XMLID_4781_" x="21" y="94.2" class="st7" width="2" height="2"/>
				<rect id="XMLID_4780_" x="25" y="94.2" class="st7" width="2" height="2"/>
			</g>
		</g>
		<g id="XMLID_4772_">
			<g id="XMLID_4773_">
				<rect id="XMLID_4777_" x="23" y="96.2" class="st7" width="2" height="2"/>
				<rect id="XMLID_4776_" x="27" y="96.2" class="st7" width="2" height="2"/>
				<rect id="XMLID_4775_" x="21" y="98.2" class="st7" width="2" height="2"/>
				<rect id="XMLID_4774_" x="25" y="98.2" class="st7" width="2" height="2"/>
			</g>
		</g>
		<g id="XMLID_4766_">
			<g id="XMLID_4767_">
				<rect id="XMLID_4771_" x="23" y="100.2" class="st7" width="2" height="2"/>
				<rect id="XMLID_4770_" x="27" y="100.2" class="st7" width="2" height="2"/>
				<rect id="XMLID_4769_" x="21" y="102.2" class="st7" width="2" height="2"/>
				<rect id="XMLID_4768_" x="25" y="102.2" class="st7" width="2" height="2"/>
			</g>
		</g>
		<g id="XMLID_4760_">
			<g id="XMLID_4761_">
				<rect id="XMLID_4765_" x="23" y="104.2" class="st7" width="2" height="2"/>
				<rect id="XMLID_4764_" x="27" y="104.2" class="st7" width="2" height="2"/>
				<rect id="XMLID_4763_" x="21" y="106.2" class="st7" width="2" height="2"/>
				<rect id="XMLID_4762_" x="25" y="106.2" class="st7" width="2" height="2"/>
			</g>
		</g>
	</g>
	<g id="XMLID_4704_">
		<g id="XMLID_4753_">
			<g id="XMLID_4754_">
				<rect id="XMLID_4758_" x="133.1" y="72.2" class="st7" width="2" height="2"/>
				<rect id="XMLID_4757_" x="137.1" y="72.2" class="st7" width="2" height="2"/>
				<rect id="XMLID_4756_" x="131.1" y="74.2" class="st7" width="2" height="2"/>
				<rect id="XMLID_4755_" x="135.1" y="74.2" class="st7" width="2" height="2"/>
			</g>
		</g>
		<g id="XMLID_4747_">
			<g id="XMLID_4748_">
				<rect id="XMLID_4752_" x="133.1" y="76.2" class="st7" width="2" height="2"/>
				<rect id="XMLID_4751_" x="137.1" y="76.2" class="st7" width="2" height="2"/>
				<rect id="XMLID_4750_" x="131.1" y="78.2" class="st7" width="2" height="2"/>
				<rect id="XMLID_4749_" x="135.1" y="78.2" class="st7" width="2" height="2"/>
			</g>
		</g>
		<g id="XMLID_4741_">
			<g id="XMLID_4742_">
				<rect id="XMLID_4746_" x="133.1" y="80.2" class="st7" width="2" height="2"/>
				<rect id="XMLID_4745_" x="137.1" y="80.2" class="st7" width="2" height="2"/>
				<rect id="XMLID_4744_" x="131.1" y="82.2" class="st7" width="2" height="2"/>
				<rect id="XMLID_4743_" x="135.1" y="82.2" class="st7" width="2" height="2"/>
			</g>
		</g>
		<g id="XMLID_4735_">
			<g id="XMLID_4736_">
				<rect id="XMLID_4740_" x="133.1" y="84.2" class="st7" width="2" height="2"/>
				<rect id="XMLID_4739_" x="137.1" y="84.2" class="st7" width="2" height="2"/>
				<rect id="XMLID_4738_" x="131.1" y="86.2" class="st7" width="2" height="2"/>
				<rect id="XMLID_4737_" x="135.1" y="86.2" class="st7" width="2" height="2"/>
			</g>
		</g>
		<g id="XMLID_4729_">
			<g id="XMLID_4730_">
				<rect id="XMLID_4734_" x="133.1" y="88.2" class="st7" width="2" height="2"/>
				<rect id="XMLID_4733_" x="137.1" y="88.2" class="st7" width="2" height="2"/>
				<rect id="XMLID_4732_" x="131.1" y="90.2" class="st7" width="2" height="2"/>
				<rect id="XMLID_4731_" x="135.1" y="90.2" class="st7" width="2" height="2"/>
			</g>
		</g>
		<g id="XMLID_4723_">
			<g id="XMLID_4724_">
				<rect id="XMLID_4728_" x="133.1" y="92.2" class="st7" width="2" height="2"/>
				<rect id="XMLID_4727_" x="137.1" y="92.2" class="st7" width="2" height="2"/>
				<rect id="XMLID_4726_" x="131.1" y="94.2" class="st7" width="2" height="2"/>
				<rect id="XMLID_4725_" x="135.1" y="94.2" class="st7" width="2" height="2"/>
			</g>
		</g>
		<g id="XMLID_4717_">
			<g id="XMLID_4718_">
				<rect id="XMLID_4722_" x="133.1" y="96.2" class="st7" width="2" height="2"/>
				<rect id="XMLID_4721_" x="137.1" y="96.2" class="st7" width="2" height="2"/>
				<rect id="XMLID_4720_" x="131.1" y="98.2" class="st7" width="2" height="2"/>
				<rect id="XMLID_4719_" x="135.1" y="98.2" class="st7" width="2" height="2"/>
			</g>
		</g>
		<g id="XMLID_4711_">
			<g id="XMLID_4712_">
				<rect id="XMLID_4716_" x="133.1" y="100.2" class="st7" width="2" height="2"/>
				<rect id="XMLID_4715_" x="137.1" y="100.2" class="st7" width="2" height="2"/>
				<rect id="XMLID_4714_" x="131.1" y="102.2" class="st7" width="2" height="2"/>
				<rect id="XMLID_4713_" x="135.1" y="102.2" class="st7" width="2" height="2"/>
			</g>
		</g>
		<g id="XMLID_4705_">
			<g id="XMLID_4706_">
				<rect id="XMLID_4710_" x="133.1" y="104.2" class="st7" width="2" height="2"/>
				<rect id="XMLID_4709_" x="137.1" y="104.2" class="st7" width="2" height="2"/>
				<rect id="XMLID_4708_" x="131.1" y="106.2" class="st7" width="2" height="2"/>
				<rect id="XMLID_4707_" x="135.1" y="106.2" class="st7" width="2" height="2"/>
			</g>
		</g>
	</g>
	<g id="XMLID_3_">
		<path id="XMLID_4_" class="st10" d="M45.2,82.8c0-0.4,0-0.6,0.1-0.7c0.1-0.1,0.3-0.1,0.6-0.1c0.3,0,0.5,0.1,0.6,0.2
			c0.1,0.1,0.2,0.4,0.2,0.7c0,0.7,0,1.4,0.1,2.2s0.1,1.5,0.2,2.3h5.5c0.3,0,0.4,0.1,0.5,0.2S53,87.8,53,88c0,0.2,0,0.4-0.1,0.5
			s-0.2,0.2-0.5,0.2h-5.3c0.1,0.7,0.2,1.3,0.4,2c0.2,0.6,0.4,1.2,0.6,1.8c0.3-0.5,0.6-1,0.8-1.4s0.4-1,0.6-1.5
			c0.1-0.3,0.2-0.4,0.4-0.6c0.2-0.1,0.4-0.2,0.6-0.1c0.3,0.1,0.4,0.2,0.5,0.4c0,0.2,0,0.4-0.1,0.7c-0.3,0.8-0.6,1.5-0.9,2.1
			s-0.7,1.3-1.3,2c0.3,0.6,0.6,1.2,0.9,1.8c0.3,0.6,0.7,1,1,1.4c0.1,0.1,0.2,0.1,0.3,0.1c0.1,0,0.2-0.2,0.3-0.5
			c0-0.1,0.1-0.2,0.1-0.4s0.1-0.3,0.1-0.5c0-0.2,0.1-0.3,0.1-0.5c0-0.2,0.1-0.3,0.1-0.5c0-0.3,0.1-0.5,0.2-0.6s0.3-0.1,0.6-0.1
			c0.4,0.1,0.6,0.3,0.6,0.7c0,0.2,0,0.5-0.1,0.8s-0.1,0.7-0.2,1.1c-0.1,0.4-0.2,0.7-0.3,1c-0.1,0.3-0.2,0.5-0.3,0.6
			c-0.3,0.4-0.7,0.6-1.1,0.6c-0.3,0-0.6-0.1-0.9-0.4c-0.4-0.4-0.8-1-1.2-1.5c-0.4-0.6-0.8-1.2-1.1-2c-0.5,0.5-1.1,1-1.8,1.5
			c-0.7,0.5-1.4,0.9-2.1,1.3c-0.3,0.2-0.6,0.2-0.8,0.2c-0.2,0-0.3-0.1-0.4-0.2c-0.2-0.3-0.2-0.5-0.2-0.7c0.1-0.2,0.2-0.3,0.5-0.5
			c0.9-0.4,1.7-0.9,2.3-1.4c0.7-0.5,1.3-1,1.8-1.6c-0.3-0.9-0.6-1.7-0.8-2.6c-0.2-0.9-0.4-1.7-0.5-2.6h-3.9v2.9l2.6-0.7
			c0.2-0.1,0.3-0.1,0.5,0c0.1,0.1,0.2,0.2,0.3,0.5c0.1,0.2,0.1,0.4,0,0.6s-0.2,0.2-0.4,0.3c-0.5,0.1-1,0.3-1.5,0.4
			c-0.5,0.1-1,0.3-1.5,0.4V97c0,0.7-0.2,1.2-0.6,1.6c-0.4,0.4-0.9,0.5-1.6,0.5c-0.7,0-1.5-0.2-2.5-0.7c-0.3-0.1-0.4-0.3-0.5-0.5
			c-0.1-0.2,0-0.4,0.1-0.6c0.2-0.4,0.6-0.5,1.1-0.2c0.8,0.3,1.4,0.5,1.9,0.5c0.2,0,0.4-0.1,0.5-0.2c0.1-0.1,0.2-0.3,0.2-0.6v-3.4
			c-0.6,0.2-1.1,0.3-1.7,0.4c-0.6,0.1-1.1,0.3-1.7,0.4c-0.2,0.1-0.4,0-0.5,0c-0.2-0.1-0.2-0.2-0.3-0.4c-0.1-0.3-0.1-0.5,0-0.6
			c0.1-0.1,0.2-0.2,0.4-0.3c0.6-0.2,1.2-0.3,1.8-0.5c0.6-0.2,1.2-0.3,1.8-0.5v-3.3h-4c-0.3,0-0.4-0.1-0.5-0.2
			c-0.1-0.1-0.1-0.3-0.1-0.5c0-0.2,0-0.4,0.1-0.5c0.1-0.1,0.2-0.2,0.5-0.2h4v-2.4c-1.1,0.2-2.1,0.4-3.1,0.4c-0.3,0-0.5,0-0.6-0.1
			c-0.1-0.1-0.2-0.2-0.3-0.5c-0.1-0.3,0-0.5,0.2-0.6s0.4-0.2,0.7-0.2c1.3-0.1,2.5-0.2,3.5-0.5c1-0.3,2-0.6,2.9-1
			c0.3-0.1,0.6-0.2,0.7-0.1c0.2,0.1,0.3,0.2,0.4,0.4c0.1,0.2,0.1,0.4,0,0.6c-0.1,0.1-0.2,0.3-0.5,0.4c-0.4,0.2-0.8,0.3-1.2,0.5
			s-0.8,0.3-1.2,0.4v2.8h3.7c-0.1-0.7-0.1-1.5-0.2-2.2S45.2,83.6,45.2,82.8z M48.3,82.9c1.1,0.8,2.1,1.6,3,2.5
			c0.2,0.2,0.4,0.4,0.4,0.6c0,0.2,0,0.4-0.2,0.5c-0.2,0.2-0.4,0.3-0.5,0.3c-0.2,0-0.4-0.2-0.6-0.4c-0.2-0.2-0.4-0.3-0.6-0.5
			s-0.4-0.4-0.7-0.6c-0.2-0.2-0.5-0.4-0.7-0.6s-0.5-0.4-0.7-0.5c-0.3-0.2-0.4-0.4-0.5-0.5s0-0.3,0.1-0.5c0.1-0.2,0.2-0.2,0.4-0.3
			C47.8,82.7,48,82.8,48.3,82.9z"/>
		<path id="XMLID_7_" class="st10" d="M53.9,90.1c0.7-1.1,1.3-2.2,1.8-3.4s0.9-2.3,1.3-3.6c0.1-0.3,0.2-0.5,0.3-0.7
			c0.1-0.1,0.3-0.2,0.5-0.1c0.5,0.1,0.6,0.5,0.5,1.1c-0.2,0.6-0.4,1.1-0.6,1.7c-0.2,0.5-0.4,1.1-0.6,1.6v11.8c0,0.3-0.1,0.4-0.2,0.5
			c-0.1,0.1-0.3,0.1-0.5,0.1c-0.2,0-0.4,0-0.5-0.1c-0.1-0.1-0.2-0.3-0.2-0.5v-8.9c-0.1,0.3-0.3,0.5-0.4,0.7S55,90.8,54.9,91
			c-0.2,0.2-0.4,0.4-0.6,0.4c-0.2,0.1-0.4,0-0.6-0.2c-0.2-0.2-0.2-0.3-0.2-0.5C53.5,90.6,53.7,90.4,53.9,90.1z M60.4,98.5
			c0,0.2-0.1,0.4-0.2,0.5c-0.1,0.1-0.3,0.2-0.5,0.2c-0.2,0-0.4,0-0.5-0.1c-0.1-0.1-0.2-0.3-0.2-0.5V85c0-0.3,0.1-0.4,0.2-0.5
			c0.1-0.1,0.3-0.1,0.5-0.1s0.4,0,0.5,0.1s0.2,0.3,0.2,0.5V98.5z M63.1,85.2c-0.2,0.1-0.3,0.1-0.5,0.1c-0.2-0.1-0.3-0.2-0.5-0.4
			c-0.2-0.3-0.5-0.6-0.8-0.8s-0.7-0.6-1-0.9c-0.3-0.2-0.4-0.4-0.4-0.5c0-0.1,0-0.3,0.2-0.5c0.1-0.2,0.3-0.2,0.4-0.2
			c0.2,0,0.4,0.1,0.7,0.3c0.4,0.3,0.7,0.6,1,0.9c0.3,0.3,0.7,0.6,1,1c0.2,0.2,0.3,0.4,0.3,0.6C63.4,84.8,63.3,85,63.1,85.2z
			 M70.2,96.4c0,0.7-0.2,1.3-0.6,1.7c-0.4,0.4-0.9,0.6-1.6,0.7c-0.3,0-0.6,0-1-0.1c-0.4-0.1-0.7-0.2-1.1-0.3
			c-0.4-0.2-0.7-0.3-0.8-0.4s-0.1-0.3,0-0.6c0.1-0.2,0.2-0.4,0.4-0.4c0.2,0,0.4,0,0.7,0.1c0.3,0.1,0.6,0.2,0.9,0.3
			c0.3,0.1,0.5,0.1,0.7,0.1c0.6,0,1-0.4,1-1.1V84.7c0-0.1,0-0.2,0-0.3c0,0-0.1-0.1-0.2-0.1h-4.2c-0.3,0-0.4-0.1-0.5-0.2
			c-0.1-0.1-0.1-0.3-0.1-0.5c0-0.2,0.1-0.4,0.2-0.5s0.3-0.2,0.5-0.2h4.2c0.3,0,0.6,0,0.8,0c0.2,0,0.4,0.1,0.5,0.2
			c0.1,0.1,0.2,0.3,0.2,0.5s0.1,0.5,0.1,0.8V96.4z"/>
		<path id="XMLID_12_" class="st10" d="M78.9,96.5c0,0.6-0.1,1-0.3,1.2s-0.6,0.4-1.2,0.4h-3.7c-0.6,0-0.9-0.1-1.1-0.4
			c-0.2-0.2-0.3-0.6-0.3-1.2V85.6c0-0.6,0.1-0.9,0.3-1.2c0.2-0.2,0.6-0.4,1.1-0.4h1c0.1-0.3,0.2-0.6,0.3-0.8
			c0.1-0.2,0.1-0.5,0.2-0.7c0.1-0.3,0.2-0.4,0.4-0.6s0.4-0.1,0.7-0.1c0.3,0.1,0.4,0.2,0.5,0.4c0,0.2,0,0.4-0.1,0.8
			c-0.1,0.2-0.1,0.3-0.2,0.5c0,0.2-0.1,0.3-0.2,0.5h1.2c0.6,0,1,0.1,1.2,0.4s0.3,0.6,0.3,1.2V96.5z M77.5,85.8
			c0-0.2-0.1-0.3-0.2-0.3h-3.3c-0.1,0-0.2,0.1-0.2,0.3v4.2h3.7V85.8z M77.5,91.5h-3.7v4.8c0,0.1,0,0.2,0.1,0.2
			c0,0.1,0.1,0.1,0.1,0.1h3.3c0.2,0,0.2-0.1,0.2-0.3V91.5z M80.6,88.6c-0.2,0.3-0.4,0.5-0.6,0.6c-0.2,0.1-0.4,0-0.6-0.1
			c-0.2-0.1-0.2-0.3-0.2-0.5c0-0.2,0.1-0.5,0.3-0.7c0.5-0.7,0.8-1.5,1.1-2.3c0.3-0.9,0.5-1.8,0.7-2.8c0-0.3,0.1-0.5,0.3-0.6
			C81.7,82,81.8,82,82,82c0.2,0,0.4,0.1,0.5,0.3c0.1,0.2,0.1,0.4,0.1,0.6c0,0.2-0.1,0.4-0.1,0.6s-0.1,0.4-0.1,0.6H86
			c0.4,0,0.7,0,1,0.1c0.3,0.1,0.5,0.2,0.6,0.4s0.3,0.5,0.3,0.8c0.1,0.4,0.1,0.8,0.1,1.4c0,0.6,0,1.4,0,2.1c0,0.8,0,1.5-0.1,2.3
			c0,0.7-0.1,1.4-0.1,2c0,0.6-0.1,1.1-0.1,1.4c-0.1,0.8-0.2,1.5-0.4,2.1s-0.4,1-0.6,1.3c-0.3,0.3-0.6,0.5-0.9,0.6
			c-0.4,0.1-0.8,0.1-1.2,0.1c-0.3,0-0.6-0.1-0.8-0.1s-0.5-0.1-0.7-0.1s-0.4-0.1-0.7-0.2c-0.2-0.1-0.4-0.1-0.7-0.2
			c-0.4-0.2-0.7-0.3-0.7-0.5c-0.1-0.2-0.1-0.4,0-0.6c0.1-0.2,0.2-0.4,0.5-0.4c0.2,0,0.4,0,0.7,0.1c0.4,0.1,0.8,0.3,1.2,0.4
			s0.8,0.2,1.2,0.3c0.3,0,0.5,0,0.7,0c0.2-0.1,0.4-0.2,0.5-0.5s0.3-0.6,0.4-1.1c0.1-0.5,0.2-1.1,0.3-1.9c0-0.5,0.1-1,0.1-1.5
			c0-0.5,0.1-1,0.1-1.6c0-0.6,0-1.2,0-1.9c0-0.7,0-1.5,0-2.3c0-0.4-0.1-0.7-0.2-0.8c-0.1-0.2-0.4-0.2-0.7-0.2H82
			c-0.2,0.6-0.4,1.1-0.6,1.6S80.9,88.1,80.6,88.6z M85.1,92.6c0.2,0.3,0.2,0.6,0.2,0.8c0,0.2-0.1,0.4-0.4,0.5
			c-0.4,0.2-0.8,0-1.1-0.7c-0.3-0.7-0.6-1.4-1-2.1c-0.4-0.7-0.8-1.4-1.2-2.1c-0.1-0.2-0.2-0.4-0.2-0.6c0-0.2,0.1-0.4,0.3-0.5
			c0.2-0.1,0.3-0.2,0.5-0.1c0.2,0,0.4,0.2,0.5,0.5C83.6,89.7,84.4,91.1,85.1,92.6z"/>
		<path id="XMLID_18_" class="st10" d="M94.5,88.1c-0.2,1.5-0.5,3-1.1,4.3c-0.6,1.4-1.3,2.7-2.3,4c-0.2,0.3-0.5,0.5-0.6,0.5
			c-0.2,0.1-0.4,0-0.6-0.2c-0.3-0.3-0.3-0.7,0.1-1.2c0.5-0.6,0.9-1.2,1.2-1.8s0.6-1.2,0.9-1.8c0.2-0.6,0.4-1.2,0.6-1.9
			s0.3-1.4,0.4-2.1c0-0.2,0-0.4,0-0.4c-0.1-0.1-0.2-0.1-0.4-0.1h-1.9c-0.5,0-0.7-0.2-0.7-0.7c0-0.5,0.2-0.7,0.7-0.7h2.4
			c0.6,0,1,0.2,1.2,0.5C94.6,87,94.6,87.5,94.5,88.1z M101,87.5c0.5,0,0.7,0.2,0.7,0.7c0,0.4-0.2,0.6-0.7,0.6h-2.3
			c0.2,0.5,0.3,1.1,0.5,1.7h2.2c0.5,0,0.7,0.2,0.7,0.7c0,0.4-0.2,0.7-0.7,0.7h-1.9c0.1,0.7,0.2,1.3,0.3,1.9h3.1
			c0.5,0,0.7,0.2,0.7,0.7c0,0.4-0.2,0.6-0.7,0.6h-3.1c-0.1,1.2-0.3,2.2-0.7,2.8c-0.4,0.7-1.1,1-2,1c-0.7,0-1.6-0.3-2.7-0.8
			c-0.3-0.2-0.5-0.3-0.5-0.5c0-0.2,0-0.4,0.2-0.6c0.1-0.2,0.2-0.3,0.4-0.3s0.4,0,0.6,0.2c0.9,0.4,1.5,0.7,2,0.7
			c0.4,0,0.7-0.2,0.9-0.6c0.2-0.4,0.4-1,0.4-1.9h-4.5c-0.5,0-0.7-0.2-0.7-0.6c0-0.5,0.2-0.7,0.7-0.7h4.5c0-0.3-0.1-0.6-0.1-0.9
			s-0.1-0.7-0.2-1H95c-0.5,0-0.8-0.2-0.8-0.7c0-0.4,0.3-0.7,0.8-0.7h2.8c-0.1-0.3-0.2-0.6-0.3-0.9c-0.1-0.3-0.2-0.6-0.3-0.8h-1.7
			c-0.5,0-0.8-0.2-0.8-0.6c0-0.5,0.3-0.7,0.8-0.7h1.2c-0.1-0.4-0.1-0.7,0.1-0.9c0.1-0.2,0.5-0.5,0.9-0.6c0.3-0.1,0.6-0.2,0.9-0.4
			c0.3-0.1,0.6-0.3,1-0.4c0.3-0.1,0.6-0.3,0.9-0.4c0.3-0.1,0.6-0.2,0.8-0.4c0.1,0,0.1-0.1,0.1-0.1s-0.1,0-0.2,0h-8.8
			c-0.3,0-0.5-0.1-0.6-0.2c-0.1-0.1-0.2-0.3-0.2-0.5c0-0.4,0.2-0.7,0.7-0.7h10.1c0.5,0,0.8,0.1,1.1,0.2c0.2,0.2,0.4,0.3,0.4,0.6
			c0,0.2,0,0.5-0.2,0.7s-0.4,0.5-0.8,0.6c-0.3,0.2-0.7,0.3-1.1,0.5c-0.4,0.2-0.8,0.3-1.2,0.5s-0.8,0.3-1.2,0.5
			c-0.4,0.2-0.8,0.3-1.1,0.4c-0.2,0.1-0.3,0.2-0.3,0.5H101z M103.1,86.8c0.1,1.1,0.2,2.1,0.4,3c0.3-0.5,0.6-1,0.9-1.5
			s0.5-1.2,0.8-1.8c0.2-0.6,0.5-0.8,0.9-0.6c0.2,0.1,0.4,0.2,0.4,0.4c0.1,0.2,0,0.4-0.1,0.7c-0.3,0.8-0.7,1.6-1.1,2.3
			c-0.4,0.7-0.9,1.4-1.4,2c0.3,1,0.7,1.9,1.2,2.8c0.5,0.9,1,1.7,1.7,2.6c0.4,0.5,0.4,0.9,0,1.2c-0.2,0.1-0.4,0.2-0.6,0.1
			c-0.2-0.1-0.4-0.2-0.6-0.5c-1.1-1.4-1.9-3-2.5-4.8c-0.6-1.8-1.1-3.7-1.3-5.8c0-0.4,0-0.6,0.1-0.8c0.1-0.1,0.2-0.2,0.5-0.3
			c0.2,0,0.4,0,0.5,0.2C103,86.2,103,86.4,103.1,86.8z"/>
		<path id="XMLID_22_" class="st10" d="M113.6,95.5c0.2,0.2,0.3,0.3,0.3,0.5c0,0.2-0.1,0.4-0.4,0.6c-0.3,0.3-0.6,0.6-0.9,0.8
			c-0.3,0.2-0.6,0.5-1,0.7c-0.2,0.2-0.5,0.3-0.7,0.3c-0.2,0-0.4,0-0.6-0.1c-0.2-0.1-0.3-0.3-0.4-0.5s-0.1-0.5-0.1-0.8l0.5-7.7
			c0-0.2-0.1-0.3-0.3-0.3l-1.5,0.2c-0.3,0-0.6,0-0.7-0.1c-0.1-0.1-0.2-0.3-0.2-0.5c0-0.2,0-0.4,0.1-0.5c0.1-0.1,0.3-0.2,0.6-0.2
			l1.7-0.2c0.6-0.1,1,0,1.3,0.3c0.3,0.2,0.4,0.7,0.4,1.3l-0.4,7.2c0,0.2,0,0.2,0.2,0.1c0.2-0.2,0.4-0.3,0.5-0.5
			c0.1-0.1,0.3-0.3,0.5-0.5C112.9,95.3,113.3,95.2,113.6,95.5z M111.9,86.2c-0.3,0.3-0.7,0.2-1.1-0.2c-0.3-0.4-0.7-0.7-1.1-1.1
			s-0.8-0.8-1.2-1.2c-0.4-0.3-0.4-0.7-0.1-1.1c0.1-0.1,0.3-0.2,0.5-0.2c0.2,0,0.4,0.1,0.6,0.3c0.5,0.5,1,0.9,1.3,1.2
			c0.3,0.4,0.7,0.7,1,1c0.2,0.2,0.3,0.4,0.4,0.6C112.2,85.9,112.1,86,111.9,86.2z M113.2,89.8c-0.3,0-0.4-0.1-0.5-0.2
			s-0.1-0.3-0.1-0.5c0-0.2,0-0.4,0.1-0.5s0.3-0.2,0.5-0.2h3.5c0.2-0.3,0.3-0.6,0.4-1c0.1-0.3,0.3-0.7,0.4-1c0.1-0.3,0.2-0.6,0.4-0.7
			c0.1-0.1,0.3-0.2,0.6-0.1c0.2,0.1,0.4,0.2,0.5,0.4c0.1,0.2,0,0.5-0.1,0.8c-0.1,0.2-0.2,0.5-0.3,0.8s-0.2,0.5-0.3,0.8h5.8
			c0.2,0,0.4,0,0.5,0.1c0.1,0.1,0.2,0.3,0.2,0.5c0,0.5-0.2,0.7-0.7,0.7h-6.5c-0.5,0.8-1,1.6-1.5,2.2c0,0,0.1,0,0.1,0s0.1,0,0.1,0
			h5.8c0.6,0,1.1,0.1,1.3,0.4s0.3,0.7,0.3,1.4v3.4c0,0.3,0,0.6-0.1,0.9c0,0.2-0.1,0.4-0.2,0.5c-0.1,0.1-0.3,0.2-0.5,0.3
			s-0.5,0.1-0.8,0.1h-6c-0.3,0-0.6,0-0.8-0.1c-0.2,0-0.4-0.1-0.5-0.3s-0.2-0.3-0.2-0.5c0-0.2,0-0.5,0-0.9v-3.5
			c-0.2,0.2-0.3,0.3-0.5,0.5c-0.2,0.2-0.4,0.3-0.5,0.5c-0.3,0.2-0.5,0.4-0.7,0.4c-0.2,0-0.4-0.1-0.5-0.3c-0.2-0.2-0.2-0.5-0.2-0.7
			c0.1-0.2,0.2-0.4,0.5-0.6c0.4-0.3,0.7-0.5,1-0.8s0.6-0.5,0.8-0.8c0.3-0.3,0.5-0.6,0.7-0.9c0.2-0.3,0.5-0.7,0.7-1.1H113.2z
			 M113,85.5c-0.2,0-0.4,0-0.5-0.1c-0.1-0.1-0.2-0.3-0.2-0.5s0.1-0.4,0.2-0.5c0.1-0.1,0.3-0.1,0.6-0.1h2v-1.4c0-0.3,0-0.4,0.1-0.6
			c0.1-0.1,0.3-0.2,0.5-0.2s0.4,0.1,0.5,0.2c0.1,0.1,0.2,0.3,0.2,0.6v1.4h4.9v-1.5c0-0.3,0.1-0.4,0.2-0.6s0.3-0.2,0.5-0.2
			c0.3,0,0.4,0.1,0.5,0.2c0.1,0.1,0.2,0.3,0.2,0.6v1.5h1.7c0.3,0,0.5,0,0.6,0.1c0.1,0.1,0.2,0.3,0.2,0.5c0,0.3-0.1,0.4-0.2,0.5
			c-0.1,0.1-0.3,0.1-0.6,0.1h-1.7v1.3c0,0.3-0.1,0.5-0.2,0.6c-0.1,0.1-0.3,0.2-0.5,0.2c-0.2,0-0.4-0.1-0.5-0.2
			c-0.1-0.1-0.2-0.3-0.2-0.6v-1.3h-4.9v1.2c0,0.3-0.1,0.5-0.2,0.6c-0.1,0.1-0.3,0.2-0.5,0.2s-0.4-0.1-0.5-0.2
			c-0.1-0.1-0.1-0.3-0.1-0.6v-1.2H113z M122.3,93.6c0-0.1,0-0.2,0-0.3c0,0-0.1-0.1-0.2-0.1h-5.9c-0.2,0-0.2,0.1-0.2,0.3v3.5
			c0,0.1,0,0.2,0,0.3c0,0,0.1,0.1,0.2,0.1h5.9c0.1,0,0.2,0,0.2-0.1c0,0,0-0.1,0-0.3V93.6z"/>
	</g>
	<rect id="_x3C_切片_x3E__6_" class="st11" width="160" height="110"/>
</g>
</svg>
