<?xml version="1.0" encoding="utf-8"?>
<!-- Generator: Adobe Illustrator 19.0.0, SVG Export Plug-In . SVG Version: 6.00 Build 0)  -->
<svg version="1.1" id="图层_1" xmlns="http://www.w3.org/2000/svg" xmlns:xlink="http://www.w3.org/1999/xlink" x="0px" y="0px"
	 viewBox="0 0 4.8 6.1" style="enable-background:new 0 0 4.8 6.1;" xml:space="preserve">
<style type="text/css">
	.st0{fill:#90C21E;}
</style>
<path class="st0" d="M2.4,0C1.1,0,0,1.1,0,2.4c0,0.3,0,0.5,0.1,0.7c0.4,1.8,2.3,3,2.3,3s2.3-1.4,2.3-3.5c0-0.1,0-0.2,0-0.3
	C4.8,1.1,3.7,0,2.4,0z M2.4,3.9c-0.9,0-1.7-0.8-1.7-1.7c0-0.9,0.8-1.7,1.7-1.7c0.9,0,1.7,0.8,1.7,1.7C4.1,3.1,3.3,3.9,2.4,3.9z"/>
</svg>
