<?xml version="1.0" encoding="utf-8"?>
<!-- Generator: Adobe Illustrator 19.0.0, SVG Export Plug-In . SVG Version: 6.00 Build 0)  -->
<svg version="1.1" id="图层_1" xmlns="http://www.w3.org/2000/svg" xmlns:xlink="http://www.w3.org/1999/xlink" x="0px" y="0px"
	 viewBox="0 0 5.4 5.4" style="enable-background:new 0 0 5.4 5.4;" xml:space="preserve">
<style type="text/css">
	.st0{fill:#ffffff;}
</style>
<g>
	<path class="st0" d="M5.1,5.4H0.3C0.1,5.4,0,5.2,0,5.1V2.6V1.9c0-0.2,0.2-0.3,0.2-0.3L2.7,0l2.5,1.7c0,0,0.2,0.1,0.2,0.3v0.6v2.5
		C5.4,5.2,5.3,5.4,5.1,5.4 M0.6,5.2h4.3c0.1,0,0.1,0,0.2-0.1L2.7,3.7L0.4,5.1C0.4,5.2,0.5,5.2,0.6,5.2z M3.3,3.7L4,3.2V1.8H1.4v1.4
		l0.7,0.5l0.6-0.3L3.3,3.7z M0.2,4.8l1.7-1L0.2,2.7V4.8z M5.2,2.2C5.2,1.9,5,1.9,5,1.9L2.7,0.4L0.4,1.9c0,0-0.2,0.1-0.2,0.3
		c0,0.1,0,0.2,0,0.2l0.2,0.1V2.2C0.4,2,0.6,2,0.6,2l2.1-1.3L4.8,2C4.8,2,5,2,5,2.2v0.4l0.2-0.1C5.2,2.4,5.2,2.2,5.2,2.2z M5.2,2.7
		L3.5,3.8l1.7,1V2.7z M1.8,2.9h1.7V3H1.8V2.9z M1.8,2.6h1.7v0.1H1.8V2.6z M1.8,2.3h1.7v0.1H1.8V2.3z"/>
</g>
</svg>
