<?xml version="1.0" encoding="utf-8"?>
<!-- Generator: Adobe Illustrator 17.0.0, SVG Export Plug-In . SVG Version: 6.00 Build 0)  -->
<!DOCTYPE svg PUBLIC "-//W3C//DTD SVG 1.1//EN" "http://www.w3.org/Graphics/SVG/1.1/DTD/svg11.dtd">
<svg version="1.1" id="图层_1" xmlns="http://www.w3.org/2000/svg" xmlns:xlink="http://www.w3.org/1999/xlink" x="0px" y="0px"
	 width="300px" height="70px" viewBox="0 0 300 70" enable-background="new 0 0 300 70" xml:space="preserve">
<g id="XMLID_592_">
	<path id="XMLID_1041_" fill="#323333" d="M203.024,60.4l-12.9-12.9c-0.4-0.4-1-0.4-1.4,0l-3.3,3.3l1.4,1.4l2.6-2.6l10.7,10.7h-0.4
		c-0.5,0-1,0.4-1,1V68h-13.3v2h14.3c0.5,0,1-0.4,1-1v-6.8h1.7l0,0c0.5,0,1-0.4,1-1C203.524,60.9,203.324,60.5,203.024,60.4z"/>
	<path id="XMLID_1040_" fill="#323333" d="M97.024,60.4l12.9-12.9c0.4-0.4,1-0.4,1.4,0l3.3,3.3l-1.4,1.4l-2.6-2.6l-10.6,10.6h0.4
		c0.5,0,1,0.4,1,1V68h13.3v2h-14.4c-0.5,0-1-0.4-1-1v-6.8h-1.7l0,0c-0.5,0-1-0.4-1-1C96.624,60.9,96.824,60.5,97.024,60.4z"/>
	<circle id="XMLID_1036_" fill="#323333" cx="114.624" cy="69" r="1"/>
	<circle id="XMLID_1035_" fill="#323333" cx="185.524" cy="69" r="1"/>
	<circle id="XMLID_1034_" fill="#323333" cx="114.024" cy="51.6" r="1"/>
	<circle id="XMLID_1033_" fill="#323333" cx="186.124" cy="51.6" r="1"/>
	<path id="XMLID_1004_" fill="#323333" d="M209.124,28.4L209.124,28.4L209.124,28.4c-0.4,0-0.8,0.1-1.1,0.2c-0.6-0.3-1.3-0.5-2-0.5
		l0,0h-0.1h-0.1c-0.9-0.7-2-1.1-3.2-1.1h-0.1c-0.5,0-1,0.1-1.5,0.2c-0.6-0.2-1.3-0.4-2-0.4h-0.1l0,0c-1.4-1.3-3.2-2.1-5.1-2.1h-0.2
		c-0.8,0-1.6,0.2-2.3,0.4c-1.5-1.5-3.6-2.3-5.8-2.3l0,0h-0.2c-2.5,0.1-4.8,1.2-6.4,3.1c-0.4-0.1-0.8-0.1-1.1-0.1h-0.1
		c-1.3,0-2.5,0.5-3.6,1.2c-0.9-0.4-1.9-0.7-2.9-0.7h-0.1c-1.1,0-2.1,0.3-3,0.8l0,0c0.1,0,0.1-0.1,0.2-0.1l-16.5-16.2
		c-0.5-0.5-1.2-0.8-1.8-0.8c-0.7,0-1.3,0.3-1.8,0.8l-34.3,34.2c-0.7,0.7-1,1.8-0.6,2.8s1.3,1.6,2.4,1.6h4.6v18
		c0,1.4,1.2,2.6,2.6,2.6h54.2c1.4,0,2.6-1.2,2.6-2.6v-18h4.6c0,0,0,0,0.1,0c1.4-0.1,2.6-1.1,2.6-2.6c0-0.9-0.5-1.8-1.2-2.2
		l-10.4-10.2h35.5h1.9l0.1-1.8c0-0.1,0-0.2,0-0.3C212.924,30.1,211.224,28.4,209.124,28.4z M184.224,46.2l0.2,0.2l0.2,0.1
		c0.1,0,0.2,0.1,0.2,0.4c0,0.2-0.3,0.4-0.5,0.4h-4.6h-2.2v2.2v18c0,0.2-0.2,0.4-0.4,0.4h-54.2c-0.2,0-0.4-0.2-0.4-0.4v-18v-2.2h-2.2
		h-4.6c-0.2,0-0.3-0.1-0.4-0.3c-0.1-0.2,0-0.3,0.1-0.4l34.3-34.3c0.1-0.1,0.2-0.1,0.3-0.1c0.1,0,0.2,0,0.3,0.1l14.2,14.2
		c0.1,0,0.2,0,0.3,0h0.1l0,0h-0.1c-3.2,0.1-5.8,2.5-6.1,5.8l-0.2,2.2h2.2h11.5L184.224,46.2z M210.924,32.4h-50.1
		c0.2-2.1,1.9-3.9,4.1-3.9h0.1c1.2,0,2.3,0.5,3.1,1.3c0.8-0.8,1.9-1.3,3.1-1.3h0.1c1.2,0,2.3,0.5,3.1,1.2c0.8-1,2-1.7,3.4-1.7h0.1
		c0.7,0,1.4,0.2,2,0.5c1-2,3.1-3.4,5.6-3.5h0.1c2.2,0,4.1,1.1,5.3,2.8c0.8-0.6,1.8-0.9,2.9-0.9h0.1c1.8,0,3.4,0.9,4.3,2.3
		c0.3-0.1,0.6-0.1,0.9-0.1h0.1c0.7,0,1.4,0.2,1.9,0.6c0.5-0.3,1-0.4,1.6-0.4c0,0,0,0,0.1,0c1,0,1.9,0.5,2.6,1.2
		c0.2-0.1,0.5-0.1,0.7-0.2l0,0c0.7,0,1.4,0.4,1.8,0.9c0.3-0.3,0.8-0.6,1.3-0.6l0,0c1,0,1.8,0.8,1.8,1.8
		C211.024,32.3,210.924,32.3,210.924,32.4z"/>
	<path id="XMLID_1000_" fill="#323333" d="M107.424,11.2c-4.5,0-8.3,3-9.6,7.1l0,0c-1.1-0.7-2.4-1.1-3.8-1.1
		c-1.4,0.1-2.6,0.6-3.7,1.5c-0.9-0.4-2-0.6-3-0.5c-2.5,0.1-4.6,1.6-5.7,3.8c-2.1,0.1-3.8,2-3.7,4.2v1h21.5c1.8,2.4,4.7,4,8,4
		c5.5,0,10-4.5,10-10C117.424,15.6,112.924,11.2,107.424,11.2z M82.024,23.9c0.1,0,0.1,0,0.3,0l0.7,0.1l0.3-0.7
		c0.6-1.8,2.3-3,4.2-3.1c0.9,0,1.8,0.2,2.6,0.6l0.7,0.4l0.5-0.6c0.8-0.8,1.8-1.3,2.9-1.4c2.2-0.1,4.1,1.5,4.4,3.7l0.1,1.2l1.1-0.3
		c0.2-0.1,0.4-0.1,0.5-0.1c0.3,0,0.6,0,1,0.1l0.6,0.2l0.4-0.5c0.4-0.5,1-0.8,1.6-0.8c0.9-0.1,1.7,0.4,2.1,1.3l0.3,0.6h0.7
		c0.5,0,1,0.2,1.2,0.6h-28.1C80.424,24.4,81.124,23.9,82.024,23.9z M107.424,29.2c-2,0-3.9-0.8-5.3-2h8.1l0.1-0.9c0-0.2,0-0.4,0-0.6
		c-0.1-1.6-1.3-2.9-2.8-3.1c-0.8-1.2-2.2-2-3.7-1.9c-0.9,0.1-1.8,0.4-2.5,1c-0.3-0.1-0.6-0.1-1-0.1c-0.2-0.6-0.5-1.2-0.8-1.7l0,0
		c0.6-3.8,3.9-6.8,7.9-6.8c4.4,0,8,3.6,8,8S111.824,29.2,107.424,29.2z"/>
</g>
</svg>
