<?xml version="1.0" encoding="utf-8"?>
<!-- Generator: Adobe Illustrator 19.0.0, SVG Export Plug-In . SVG Version: 6.00 Build 0)  -->
<svg version="1.1" id="图层_1" xmlns="http://www.w3.org/2000/svg" xmlns:xlink="http://www.w3.org/1999/xlink" x="0px" y="0px"
	 viewBox="0 0 160 220" style="enable-background:new 0 0 160 220;" xml:space="preserve">
<style type="text/css">
	.st0{fill:#FFFFFF;}
	.st1{fill:#EDCD4E;}
	.st2{fill:#82A7D2;}
	.st3{opacity:0.102;}
	.st4{fill:#040000;}
	.st5{opacity:0.149;}
	.st6{fill:#303D4A;}
	.st7{fill:#E06754;}
	.st8{fill:#81A66E;}
	.st9{opacity:0.102;fill:#040000;}
	.st10{fill:#323333;}
	.st11{fill:none;}
	.st12{fill:#C1C1C1;}
</style>
<g id="XMLID_3836_">
	<g id="XMLID_92_">
		<g id="XMLID_26_">
			<g id="White_Base_9_">
				<g id="XMLID_712_">
					<path id="XMLID_713_" class="st0" d="M119,158.1l-15.2-31.2c-0.7-1.4-2.3-1.3-2.3-1.3c-3.1,0-5.3-1.4-6.5-3.8l-2.5-5.2
						c-0.5-1.1-1.9-1.6-3-1.1L66,127c-1.1,0.5-1.6,1.9-1.1,3l21.4,44c0.5,1.1,1.9,1.6,3,1.1l28.7-13.9
						C119.1,160.6,119.6,159.2,119,158.1z M95.9,156.1c-6.2,3-13.7,0.4-16.7-5.8s-0.4-13.7,5.8-16.7c6.2-3,13.7-0.4,16.7,5.8
						C104.7,145.6,102.1,153,95.9,156.1z M105.2,141.4l-3-6.1c-0.4-0.8-0.1-1.9,0.8-2.3c0.8-0.4,1.9-0.1,2.3,0.8l3,6.1
						c0.4,0.8,0.1,1.9-0.8,2.3C106.7,142.6,105.6,142.3,105.2,141.4z M107.6,151.6c-0.4-0.8-0.1-1.9,0.8-2.3
						c0.8-0.4,1.9-0.1,2.3,0.8c0.4,0.8,0.1,1.9-0.8,2.3C109.1,152.8,108.1,152.5,107.6,151.6z M113.9,160.6
						c-1.7,0.8-3.7,0.1-4.6-1.6c-0.8-1.7-0.1-3.7,1.6-4.6c1.7-0.8,3.7-0.1,4.6,1.6C116.3,157.7,115.6,159.8,113.9,160.6z
						 M111.9,156.5c-0.6,0.3-0.8,1-0.5,1.5c0.3,0.6,1,0.8,1.5,0.5c0.6-0.3,0.8-1,0.5-1.5C113.2,156.5,112.5,156.2,111.9,156.5z
						 M88.9,141.7c-1.7,0.8-2.4,2.9-1.6,4.6c0.8,1.7,2.9,2.4,4.6,1.6c1.7-0.8,2.4-2.9,1.6-4.6C92.7,141.6,90.6,140.9,88.9,141.7z
						 M86,135.6c-5.1,2.5-7.2,8.6-4.7,13.7c2.5,5.1,8.6,7.2,13.7,4.7c5.1-2.5,7.2-8.6,4.7-13.7C97.2,135.3,91,133.1,86,135.6z
						 M92.9,149.9c-2.8,1.4-6.2,0.2-7.6-2.6c-1.4-2.8-0.2-6.2,2.6-7.6c2.8-1.4,6.2-0.2,7.6,2.6C96.9,145.2,95.7,148.6,92.9,149.9z"
						/>
				</g>
			</g>
			<g id="Yellow_2_">
				<g id="XMLID_188_">
					<path id="XMLID_191_" class="st1" d="M93.4,132.6l-7.5-15.4l-14.3,7l7.5,15.4c1.2-2.6,3.2-4.7,5.9-6.1S90.6,132,93.4,132.6z
						 M101.8,150c-1.2,2.6-3.2,4.7-5.9,6.1c-2.7,1.3-5.7,1.6-8.4,0.9l7.5,15.4l14.3-7L101.8,150z"/>
				</g>
			</g>
			<g id="Blue_7_">
				<g id="XMLID_120_">
					<circle id="XMLID_121_" class="st2" cx="90.4" cy="144.8" r="3.4"/>
				</g>
			</g>
			<g id="Texture_1_1_" class="st3">
				<g id="XMLID_1094_">
					<path id="XMLID_1154_" class="st4" d="M93.9,152l-0.5-1l-1,0.5l0.5,1L93.9,152z M84.3,147.8l-1,0.5l0.5,1l1-0.5L84.3,147.8z
						 M83.9,139.1l-1,0.5l0.5,1l1-0.5L83.9,139.1z M83.3,145.7l-1,0.5l0.5,1l1-0.5L83.3,145.7z M85.9,148.3
						c-0.1-0.1-0.2-0.3-0.3-0.5c-0.1-0.2-0.2-0.3-0.3-0.5l0.5,1L85.9,148.3z M83.3,140.7l-1,0.5l0.5,1l1-0.5L83.3,140.7z
						 M82.3,143.7l-1,0.5l0.5,1l1-0.5L82.3,143.7z M82.8,142.2l-1,0.5l0.5,1l1-0.5L82.8,142.2z M82.4,151.2c0.2,0.3,0.5,0.6,0.8,0.9
						l0.5-0.2l-0.5-1L82.4,151.2z M86.1,154.1l-0.3-0.7l-0.5,0.2C85.5,153.8,85.8,153.9,86.1,154.1z M84.3,153l-0.1-0.1l-0.1,0
						C84.2,152.9,84.2,153,84.3,153z M80.5,147.1c0,0.1,0.1,0.3,0.1,0.4c0.1,0.2,0.1,0.4,0.2,0.7l1-0.5l-0.5-1L80.5,147.1z
						 M81.2,149.3c0.1,0.3,0.3,0.5,0.4,0.8c0,0.1,0.1,0.1,0.1,0.2l1-0.5l-0.5-1L81.2,149.3z M87.6,154.6l-0.3-0.7l-0.7,0.3
						C86.9,154.4,87.3,154.5,87.6,154.6z M89,155l-0.2-0.5l-0.7,0.3C88.4,154.9,88.7,154.9,89,155z M91.6,155c0.4,0,0.8-0.1,1.2-0.2
						l-0.4-0.8l-1,0.5L91.6,155z M90.2,155c0,0,0.1,0,0.1,0l0-0.1L90.2,155C90.2,155,90.2,155,90.2,155z M85.4,142.2L85.4,142.2
						L85.4,142.2C85.4,142.2,85.4,142.2,85.4,142.2z M86.1,141.1c0.3-0.3,0.5-0.6,0.9-0.8l0-0.1l-1,0.5L86.1,141.1z M84.9,146.2
						c-0.1-0.4-0.2-0.8-0.2-1.2l-0.4,0.2l0.5,1L84.9,146.2z M87.9,139.7l-0.5-1l-1,0.5l0.5,1L87.9,139.7z M84.8,143.7
						C84.8,143.7,84.8,143.7,84.8,143.7L84.8,143.7L84.8,143.7C84.8,143.7,84.8,143.7,84.8,143.7z M83.1,137.6
						c-0.3,0.3-0.6,0.6-0.8,0.9l0,0.1l1-0.5L83.1,137.6z M80.2,144.7c0,0.4,0,0.8,0.1,1.2l0.5-0.2L80.2,144.7L80.2,144.7z M85,136.2
						c-0.3,0.2-0.6,0.4-0.9,0.7l0.4,0.8l1-0.5L85,136.2z M86.9,137.6l-0.5-1l-1,0.5l0.5,1L86.9,137.6z M81.8,145.2l-1,0.5l0.5,1
						l1-0.5L81.8,145.2z M80.8,143.2l-0.5,0.2c-0.1,0.4-0.1,0.8-0.1,1.2l0.1,0.1l1-0.5L80.8,143.2z M82.8,147.3l-1,0.5l0.5,1l1-0.5
						L82.8,147.3z M81.3,141.7l-0.7,0.3c0,0.2-0.1,0.3-0.1,0.5l0.3,0.7l1-0.5L81.3,141.7z M82.4,138.6l-0.1,0.1
						c-0.2,0.3-0.5,0.6-0.7,1l0.2,0.5l1-0.5L82.4,138.6z M84.9,138.6l-0.5-1l-1,0.5l0.5,1L84.9,138.6z M83.8,149.3l-1,0.5l0.5,1
						l1-0.5L83.8,149.3z M81.8,140.1l-0.7,0.3c-0.1,0.2-0.1,0.3-0.2,0.5l0.3,0.7l1-0.5L81.8,140.1z M91.9,153l0.5,1l1-0.5l-0.5-1
						L91.9,153z M83.7,151.9l0.5,1l1-0.5l-0.5-1L83.7,151.9z M89.8,154l0.5,1l1-0.5l-0.5-1L89.8,154z M84.3,150.3l0.5,1l1-0.5
						l-0.5-1L84.3,150.3z M85.4,139.7l1-0.5l-0.5-1l-1,0.5L85.4,139.7z M85.2,152.4l0.5,1l1-0.5l-0.5-1L85.2,152.4z M86.8,152.9
						l0.5,1l1-0.5l-0.5-1L86.8,152.9z M88.3,153.4l0.5,1l1-0.5l-0.5-1L88.3,153.4z M94.4,153l-1,0.5l0.5,1c0.4-0.1,0.7-0.3,1.1-0.4
						L94.4,153z M84.4,140.2l0.5,1l1-0.5l-0.5-1L84.4,140.2z M89.3,150.4L89.3,150.4c-0.5-0.1-1-0.3-1.5-0.5l0,0l0.5,1L89.3,150.4z
						 M90.3,152.4l0.5,1l1-0.5l-0.5-1L90.3,152.4z M90.9,150.9l-0.2-0.4c-0.2,0-0.4,0-0.6,0c0,0,0,0,0,0c-0.2,0-0.4,0-0.6-0.1l0,0
						l0.5,1L90.9,150.9z M88.8,151.9l0.5,1l1-0.5l-0.5-1L88.8,151.9z M85.8,150.9l0.5,1l1-0.5l-0.5-1L85.8,150.9z M87.3,151.4l0.5,1
						l1-0.5l-0.5-1L87.3,151.4z M92.4,151.4l-0.5-1l-1,0.5l0.5,1L92.4,151.4z M87.8,149.9L87.8,149.9c-0.2-0.1-0.4-0.2-0.5-0.3
						c0,0,0,0,0,0c-0.2-0.1-0.3-0.2-0.5-0.4l-0.4,0.2l0.5,1L87.8,149.9z M83.8,144.2l1-0.5l-0.5-1l-1,0.5L83.8,144.2z M84.3,142.7
						l1-0.5l-0.5-1l-1,0.5L84.3,142.7z M83.3,145.7l1-0.5l-0.5-1l-1,0.5L83.3,145.7z M84.3,147.8l1-0.5l-0.5-1l-1,0.5L84.3,147.8z
						 M85.3,149.8l1-0.5l-0.5-1l-1,0.5L85.3,149.8z"/>
				</g>
			</g>
			<g id="Inner_Lines_6_" class="st5">
				<g id="XMLID_383_">
					<path id="XMLID_385_" class="st6" d="M66.5,126.7l2,4.1l1-0.5l-2-4.1L66.5,126.7z M68.5,125.7l1,2l1-0.5l-1-2L68.5,125.7z
						 M103.2,165.8l1,2l1-0.5l-1-2L103.2,165.8z M105.2,162.3l-1,0.5l2,4.1l1-0.5L105.2,162.3z"/>
				</g>
			</g>
			<g id="Outline_9_">
				<g id="XMLID_768_">
					<path id="XMLID_779_" class="st4" d="M121.1,157.1l-15.2-31.2c-0.8-1.6-2.6-2.6-4.5-2.5c-1.8,0.1-3.5-0.9-4.3-2.5l-0.7-1.4
						l0.4,0.8c0.4,0.8,1.4,1.2,2.3,0.8c0.8-0.4,1.2-1.4,0.8-2.3l-1.5-3.1c-0.4-0.8-1.4-1.2-2.3-0.8c-0.8,0.4-1.2,1.4-0.8,2.3
						l-0.7-1.5c-1.1-2.3-3.8-3.2-6.1-2.1L65,124.9c-2.3,1.1-3.2,3.8-2.1,6.1l21.4,44c1.1,2.3,3.8,3.2,6.1,2.1l28.7-13.9
						C121.2,162.1,122.2,159.4,121.1,157.1z M118,161.2l-28.7,13.9c-1.1,0.5-2.5,0.1-3-1.1l-21.4-44c-0.5-1.1-0.1-2.5,1.1-3
						l23.5-11.4c1.1-0.5,2.5-0.1,3,1.1l2.5,5.2c1.2,2.5,3.4,3.8,6.5,3.8c0,0,1.6-0.2,2.3,1.3l15.2,31.2
						C119.6,159.2,119.1,160.6,118,161.2z M87.9,139.7c-2.8,1.4-4,4.8-2.6,7.6c1.4,2.8,4.8,4,7.6,2.6c2.8-1.4,4-4.8,2.6-7.6
						C94.2,139.5,90.8,138.3,87.9,139.7z M91.9,147.9c-1.7,0.8-3.7,0.1-4.6-1.6c-0.8-1.7-0.1-3.7,1.6-4.6c1.7-0.8,3.7-0.1,4.6,1.6
						C94.3,145,93.6,147.1,91.9,147.9z M108.3,139.9l-3-6.1c-0.4-0.8-1.4-1.2-2.3-0.8c-0.8,0.4-1.2,1.4-0.8,2.3l3,6.1
						c0.4,0.8,1.4,1.2,2.3,0.8C108.3,141.8,108.7,140.8,108.3,139.9z M85,133.6c-6.2,3-8.8,10.5-5.8,16.7s10.5,8.8,16.7,5.8
						c6.2-3,8.8-10.5,5.8-16.7C98.7,133.1,91.2,130.5,85,133.6z M94.9,154c-5.1,2.5-11.2,0.4-13.7-4.7c-2.5-5.1-0.4-11.2,4.7-13.7
						c5.1-2.5,11.2-0.4,13.7,4.7C102.1,145.4,100,151.5,94.9,154z M110.9,154.5c-1.7,0.8-2.4,2.9-1.6,4.6c0.8,1.7,2.9,2.4,4.6,1.6
						s2.4-2.9,1.6-4.6C114.7,154.3,112.6,153.6,110.9,154.5z M112.9,158.6c-0.6,0.3-1.2,0-1.5-0.5c-0.3-0.6,0-1.2,0.5-1.5
						c0.6-0.3,1.2,0,1.5,0.5C113.7,157.6,113.5,158.3,112.9,158.6z M109.9,152.4c0.8-0.4,1.2-1.4,0.8-2.3s-1.4-1.2-2.3-0.8
						c-0.8,0.4-1.2,1.4-0.8,2.3C108.1,152.5,109.1,152.8,109.9,152.4z"/>
				</g>
			</g>
		</g>
		<g id="XMLID_25_">
			<g id="White_Base_1_">
				<g id="XMLID_391_">
					<path id="XMLID_392_" class="st0" d="M89.8,201.1l1.9,0.9l5.2-6l-5.5-2.7L89.8,201.1z M133.6,124.8c-1.2-3.4-4.9-5.2-8.3-4
						c-1.7,0.6-3,1.8-3.7,3.3l0,0l-17.1,35.3h0c-0.7,1.5-0.9,3.3-0.3,5c1.2,3.4,4.9,5.2,8.3,4c1.7-0.6,3-1.8,3.7-3.3l17.1-35.3
						C134.1,128.2,134.2,126.5,133.6,124.8z M128.9,127.6l-10,20.8v0c-0.2,0.4-0.5,0.7-0.9,0.8c-0.9,0.3-1.8-0.2-2.1-1
						c-0.1-0.4-0.1-0.9,0.1-1.2l10-20.8v0c0.2-0.4,0.5-0.7,0.9-0.8c0.9-0.3,1.8,0.2,2.1,1C129.2,126.8,129.1,127.2,128.9,127.6z"/>
				</g>
			</g>
			<g id="Red_1_">
				<g id="XMLID_173_">
					<path id="XMLID_174_" class="st7" d="M133.6,124.8c-1.2-3.4-4.9-5.2-8.3-4c-1.7,0.6-3,1.8-3.7,3.3l0,0l-17.1,35.3h0
						c-0.7,1.5-0.9,3.3-0.3,5c1.2,3.4,4.9,5.2,8.3,4c1.7-0.6,3-1.8,3.7-3.3l17.1-35.3C134.1,128.2,134.2,126.5,133.6,124.8z
						 M128.9,127.6l-10,20.8v0c-0.2,0.4-0.5,0.7-0.9,0.8c-0.9,0.3-1.8-0.2-2.1-1c-0.1-0.4-0.1-0.9,0.1-1.2l10-20.8v0
						c0.2-0.4,0.5-0.7,0.9-0.8c0.9-0.3,1.8,0.2,2.1,1C129.2,126.8,129.1,127.2,128.9,127.6z"/>
				</g>
			</g>
			<g id="Outline_1_">
				<g id="XMLID_456_">
					<path id="XMLID_457_" class="st4" d="M126.9,125.4c-0.4,0.1-0.8,0.5-0.9,0.8h0L116,147c-0.2,0.4-0.2,0.8-0.1,1.2
						c0.3,0.9,1.2,1.3,2.1,1c0.4-0.1,0.8-0.5,0.9-0.8l10-20.8c0.2-0.4,0.2-0.8,0.1-1.2C128.7,125.5,127.8,125.1,126.9,125.4z
						 M136.7,123.7c-1.8-5.1-7.4-7.8-12.5-6c-2.6,0.9-4.5,2.7-5.6,5L101.6,158c-1.1,2.3-1.3,4.9-0.4,7.5c0.7,1.9,1.9,3.5,3.4,4.7
						L94.1,191l-3.2-1.6c-0.4-0.2-0.8-0.2-1.2-0.1c-0.6,0.2-0.9,0.7-1.1,1.2l0,0l-2.2,11.1l0,0c-0.1,0.3,0,0.6,0.1,0.8
						c0.1,0.4,0.5,0.8,0.8,0.9l4.2,2c0.4,0.2,0.8,0.2,1.2,0.1c0.3-0.1,0.5-0.3,0.7-0.5l0,0l7.4-8.6l0,0c0.4-0.4,0.5-1,0.3-1.6
						c-0.1-0.4-0.5-0.8-0.8-0.9l-3.2-1.5l10.5-20.8c1.9,0.6,4.1,0.6,6.1-0.1c2.6-0.9,4.5-2.7,5.6-5l17.1-35.3
						C137.4,128.9,137.6,126.2,136.7,123.7z M91.7,202l-1.9-0.9l1.5-7.8l5.5,2.7L91.7,202z M133.3,129.8l-17.1,35.3
						c-0.7,1.5-2,2.7-3.7,3.3c-3.4,1.2-7.1-0.6-8.3-4c-0.6-1.7-0.4-3.5,0.3-5h0l17.1-35.3l0,0c0.7-1.5,2-2.7,3.7-3.3
						c3.4-1.2,7.1,0.6,8.3,4C134.2,126.5,134.1,128.2,133.3,129.8z"/>
				</g>
			</g>
		</g>
		<g id="XMLID_20_">
			<g id="Blue_26_">
				<g id="XMLID_108_">
					<path id="XMLID_117_" class="st2" d="M153.4,165.3c-2.1,1.6-4.7,2.3-7.5,1.9c-5.5-0.8-9.3-5.9-8.6-11.4
						c0.4-2.8,1.9-5.1,3.9-6.6l2.2-1.6c-6.4-0.1-12,4.5-12.9,11c-1,7,3.9,13.5,10.9,14.5c6.5,0.9,12.5-3.2,14.2-9.4L153.4,165.3z"/>
				</g>
			</g>
			<g id="Outline_39_">
				<g id="XMLID_466_">
					<path id="XMLID_467_" class="st4" d="M82.5,213.1c-1.1,0.8-2.6,1.3-4.1,1.1c-3-0.4-5.1-3.2-4.7-6.2c0.2-1.5,1-2.8,2.1-3.6
						l30.9-21.7c-0.4-1.1-0.5-2.2-0.3-3.4c0.1-0.4,0.1-0.7,0.2-1.1l-33,23.2c-1.9,1.4-3.2,3.5-3.6,6c-0.7,5,2.8,9.6,7.8,10.3
						c2.5,0.4,4.9-0.3,6.8-1.8l29.1-23.5l-2.2-3L82.5,213.1z M158.9,155.4l-8.3,6.2c-1.1,0.8-2.6,1.3-4.1,1.1
						c-3-0.4-5.1-3.2-4.7-6.2c0.2-1.5,1-2.8,2.1-3.6l8.3-6.2c-2-1.3-4.3-2.2-6.8-2.6c-9-1.3-17.3,5-18.6,14
						c-0.3,1.9-0.2,3.8,0.2,5.6l-13,9.3c0.2,0,0.4,0,0.5,0c1.4,0.2,2.6,0.8,3.6,1.6l10.1-7.2c1,2,2.3,3.8,4,5.3l-9.5,7.6l2.2,3
						l10.5-8.3c1.6,0.8,3.4,1.4,5.3,1.7c9,1.3,17.3-5,18.6-14C159.9,160.1,159.7,157.7,158.9,155.4z M141.5,173
						c-1.6-0.2-3.2-0.8-4.5-1.5c-0.4-0.2-0.7-0.4-1-0.7c0,0-0.1-0.1-0.1-0.1c-2.1-1.5-3.7-3.7-4.6-6.1c0,0,0-0.1,0-0.1
						c-0.1-0.4-0.2-0.8-0.3-1.2c-0.4-1.5-0.5-3.1-0.2-4.8c0.9-6.5,6.5-11.1,12.9-11l-2.2,1.6c-4.4,3.3-5.3,9.7-2,14.1
						c3.3,4.4,9.7,5.3,14.1,2l2.2-1.6C154,169.8,148,173.9,141.5,173z M77.4,208.4c-0.1,1,0.6,1.9,1.6,2.1c1,0.1,1.9-0.6,2.1-1.6
						c0.1-1-0.6-1.9-1.6-2.1S77.5,207.4,77.4,208.4z"/>
				</g>
			</g>
		</g>
		<g id="XMLID_18_">
			<g id="Yellow_12_">
				<g id="XMLID_106_">
					<circle id="XMLID_107_" class="st1" cx="36.1" cy="166.3" r="5.4"/>
				</g>
			</g>
			<g id="Green_11_">
				<g id="XMLID_102_">
					<polygon id="XMLID_104_" class="st8" points="59.8,159.6 59.8,161.5 50.8,162 50.3,173.9 45.6,173.9 45.6,187.1 73.1,159.6 
											"/>
				</g>
			</g>
			<g id="Inner_Lines_16_" class="st5">
				<g id="XMLID_180_">
					<path id="XMLID_181_" class="st4" d="M52.2,133.1L19,166.3l26.5,26.5l33.2-33.2L52.2,133.1z M20.9,166.3L52.2,135l24.6,24.6
						l-31.3,31.3L20.9,166.3z"/>
				</g>
			</g>
			<g id="Outline_26_">
				<g id="XMLID_182_">
					<path id="XMLID_195_" class="st4" d="M82.5,155.8L56,129.3c-2.1-2.1-5.5-2.1-7.6,0l-33.2,33.2c-2.1,2.1-2.1,5.5,0,7.6
						l26.5,26.5c2.1,2.1,5.5,2.1,7.6,0l33.2-33.2C84.6,161.3,84.6,157.9,82.5,155.8z M80.6,161.5l-33.2,33.2c-1,1-2.7,1-3.8,0
						l-26.5-26.5c-1-1-1-2.7,0-3.8l33.2-33.2c1-1,2.7-1,3.8,0l26.5,26.5C81.7,158.8,81.7,160.5,80.6,161.5z"/>
				</g>
			</g>
			<g id="Texture_1_16_" class="st3">
				<g id="XMLID_612_">
					<path id="XMLID_613_" class="st4" d="M61.5,169.9l0.6,0.6l0.6-0.6l-0.6-0.6L61.5,169.9z M63.2,170.5l0.6-0.6l-0.6-0.6l-0.6,0.6
						L63.2,170.5z M62.6,168.8l0.6,0.6l0.6-0.6l-0.6-0.6L62.6,168.8z M64.3,169.3l0.6-0.6l-0.6-0.6l-0.6,0.6L64.3,169.3z M60.4,171
						l0.6,0.6l0.6-0.6l-0.6-0.6L60.4,171z M62,171.6l0.6-0.6l-0.6-0.6l-0.6,0.6L62,171.6z M63.7,167.7l0.6,0.6l0.6-0.6l-0.6-0.6
						L63.7,167.7z M65.4,167.1l-0.6,0.6l0.6,0.6l0.6-0.6L65.4,167.1z"/>
				</g>
			</g>
		</g>
		<g id="XMLID_84_">
			<g id="White_Base_13_">
				<g id="XMLID_408_">
					<path id="XMLID_422_" class="st0" d="M90.1,174.8c-0.8,0-1.5,0.7-1.5,1.5c0,0.8,0.7,1.5,1.5,1.5s1.5-0.7,1.5-1.5
						C91.5,175.4,90.9,174.8,90.1,174.8z M90.1,141.7c-19.1,0-34.6,15.5-34.6,34.6s15.5,34.6,34.6,34.6c19.1,0,34.6-15.5,34.6-34.6
						S109.2,141.7,90.1,141.7z M114.3,177.7H94.2c-0.6,1.7-2.2,2.9-4.2,2.9c-2.4,0-4.4-2-4.4-4.4c0-0.5,0.1-0.9,0.2-1.4L75.1,164
						c-0.6-0.6-0.6-1.5,0-2.1s1.5-0.6,2.1,0l10.6,10.6c0.7-0.4,1.5-0.7,2.4-0.7c1.9,0,3.5,1.2,4.2,2.9h20.1c0.8,0,1.5,0.7,1.5,1.5
						C115.8,177.1,115.2,177.7,114.3,177.7z"/>
				</g>
			</g>
			<g id="Green_7_">
				<g id="XMLID_543_">
					<path id="XMLID_545_" class="st8" d="M90.1,150.5c-0.8,0-1.5,0.7-1.5,1.5c0,0.8,0.7,1.5,1.5,1.5s1.5-0.7,1.5-1.5
						C91.5,151.2,90.9,150.5,90.1,150.5z M90.1,199c-0.8,0-1.5,0.7-1.5,1.5c0,0.8,0.7,1.5,1.5,1.5s1.5-0.7,1.5-1.5
						C91.5,199.7,90.9,199,90.1,199z M65.8,174.8c-0.8,0-1.5,0.7-1.5,1.5c0,0.8,0.7,1.5,1.5,1.5c0.8,0,1.5-0.7,1.5-1.5
						C67.3,175.4,66.6,174.8,65.8,174.8z M108.3,160.1c0.6-0.6,0.6-1.5,0-2.1c-0.6-0.6-1.5-0.6-2.1,0c-0.6,0.6-0.6,1.5,0,2.1
						C106.8,160.7,107.7,160.7,108.3,160.1z M71.9,192.4c-0.6,0.6-0.6,1.5,0,2.1c0.6,0.6,1.5,0.6,2.1,0c0.6-0.6,0.6-1.5,0-2.1
						C73.4,191.8,72.5,191.8,71.9,192.4z M106.2,192.4c-0.6,0.6-0.6,1.5,0,2.1c0.6,0.6,1.5,0.6,2.1,0c0.6-0.6,0.6-1.5,0-2.1
						C107.7,191.8,106.8,191.8,106.2,192.4z M71.9,158c-0.6,0.6-0.6,1.5,0,2.1c0.6,0.6,1.5,0.6,2.1,0c0.6-0.6,0.6-1.5,0-2.1
						C73.4,157.5,72.5,157.5,71.9,158z"/>
				</g>
			</g>
			<g id="Yellow_6_">
				<g id="XMLID_365_">
					<path id="XMLID_366_" class="st1" d="M88.6,176.2c0,0.8,0.7,1.5,1.5,1.5s1.5-0.7,1.5-1.5c0-0.8-0.7-1.5-1.5-1.5
						S88.6,175.4,88.6,176.2z M90.1,171.8c1.9,0,3.5,1.2,4.2,2.9h2.3c-0.7-2.9-3.3-5.1-6.4-5.1c-1.5,0-2.8,0.5-4,1.3l1.6,1.6
						C88.4,172.1,89.2,171.8,90.1,171.8z M90.1,180.7c-2.4,0-4.4-2-4.4-4.4c0-0.5,0.1-0.9,0.2-1.4l-1.7-1.7c-0.5,0.9-0.7,2-0.7,3.1
						c0,3.7,3,6.6,6.6,6.6c3.1,0,5.8-2.2,6.4-5.1h-2.3C93.6,179.4,92,180.7,90.1,180.7z"/>
				</g>
			</g>
			<g id="Red_10_">
				<g id="XMLID_358_">
					<path id="XMLID_362_" class="st7" d="M85.3,191.4c-0.1,0.4,0.1,0.8,0.5,0.9c0.4,0.1,0.8-0.1,0.9-0.5l3-11.1
						c-0.5,0-1-0.2-1.4-0.4L85.3,191.4z M91.4,175.7c-0.1-0.2-0.2-0.3-0.3-0.5c-0.3-0.3-0.6-0.5-1.1-0.5c-0.1,0-0.2,0-0.3,0
						c-0.3,0.1-0.6,0.3-0.8,0.5c0,0,0,0,0,0c-0.1,0.1-0.2,0.2-0.2,0.4c0,0,0,0,0,0.1c0,0.1-0.1,0.3-0.1,0.5c0,0.2,0,0.4,0.1,0.6
						c0,0,0,0,0,0c0.1,0.2,0.2,0.3,0.3,0.5c0.3,0.3,0.6,0.4,1,0.4c0.1,0,0.3,0,0.4-0.1c0.3-0.1,0.6-0.3,0.7-0.5c0,0,0,0,0,0
						c0.1-0.1,0.1-0.2,0.2-0.4c0,0,0,0,0-0.1c0-0.1,0.1-0.3,0.1-0.4C91.5,176,91.5,175.9,91.4,175.7
						C91.4,175.7,91.4,175.7,91.4,175.7z M92.9,166c-0.4-0.1-0.8,0.1-0.9,0.5l-1.4,5.4c0.5,0.1,1,0.2,1.4,0.4l1.4-5.4
						C93.5,166.5,93.3,166.1,92.9,166z"/>
				</g>
			</g>
			<g id="Inner_Lines_9_" class="st5">
				<g id="XMLID_331_">
					<path id="XMLID_332_" class="st4" d="M90.1,144.6c-17.5,0-31.6,14.2-31.6,31.6s14.2,31.6,31.6,31.6c17.5,0,31.6-14.2,31.6-31.6
						S107.5,144.6,90.1,144.6z M90.1,206.4c-16.6,0-30.1-13.5-30.1-30.1c0-16.6,13.5-30.1,30.1-30.1c16.6,0,30.1,13.5,30.1,30.1
						C120.2,192.9,106.7,206.4,90.1,206.4z"/>
				</g>
			</g>
			<g id="Texture_1_13_" class="st3">
				<g id="XMLID_597_">
					<path id="XMLID_598_" class="st4" d="M87.1,194.6v1.5h1.5v-1.5H87.1z M88.6,197.6h1.5v-1.5h-1.5V197.6z M90.1,194.6v1.5h1.5
						v-1.5H90.1z M91.5,197.6H93v-1.5h-1.5V197.6z M84.2,194.6v1.5h1.5v-1.5H84.2z M85.7,197.6h1.5v-1.5h-1.5V197.6z M93,194.6v1.5
						h1.5v-1.5H93z M94.5,196.1v1.5H96v-1.5H94.5z"/>
				</g>
			</g>
			<g id="Outline_13_">
				<g id="XMLID_519_">
					<path id="XMLID_520_" class="st4" d="M90.1,138.7c-20.7,0-37.5,16.8-37.5,37.5s16.8,37.5,37.5,37.5c20.7,0,37.5-16.8,37.5-37.5
						S110.8,138.7,90.1,138.7z M90.1,210.8c-19.1,0-34.6-15.5-34.6-34.6s15.5-34.6,34.6-34.6c19.1,0,34.6,15.5,34.6,34.6
						S109.2,210.8,90.1,210.8z M114.3,174.8H94.2c-0.6-1.7-2.2-2.9-4.1-2.9c-0.9,0-1.7,0.3-2.4,0.7L77.1,162c-0.6-0.6-1.5-0.6-2.1,0
						s-0.6,1.5,0,2.1l10.8,10.8c-0.1,0.4-0.2,0.9-0.2,1.4c0,2.4,2,4.4,4.4,4.4c1.9,0,3.5-1.2,4.1-2.9h20.1c0.8,0,1.5-0.7,1.5-1.5
						C115.8,175.4,115.2,174.8,114.3,174.8z M90.1,177.7c-0.8,0-1.5-0.7-1.5-1.5c0-0.8,0.7-1.5,1.5-1.5s1.5,0.7,1.5,1.5
						C91.5,177.1,90.9,177.7,90.1,177.7z"/>
				</g>
			</g>
		</g>
		<g id="XMLID_3_">
			<path id="XMLID_87_" class="st0" d="M25,218.2c-1.9,0-3.5-1.6-3.5-3.5v-30c0-1.9,1.6-3.5,3.5-3.5h110c1.9,0,3.5,1.6,3.5,3.5v30
				c0,1.9-1.6,3.5-3.5,3.5H25z"/>
			<path id="XMLID_76_" class="st4" d="M135,182.7c1.1,0,2,0.9,2,2v30c0,1.1-0.9,2-2,2H25c-1.1,0-2-0.9-2-2v-30c0-1.1,0.9-2,2-2H135
				 M135,179.7H25c-2.8,0-5,2.2-5,5v30c0,2.8,2.2,5,5,5h110c2.8,0,5-2.2,5-5v-30C140,182,137.8,179.7,135,179.7L135,179.7z"/>
		</g>
		<g id="XMLID_206_">
			<g id="XMLID_207_">
				<g id="XMLID_208_">
					<rect id="XMLID_214_" x="23" y="181.9" class="st9" width="2" height="2"/>
					<rect id="XMLID_213_" x="27" y="181.9" class="st9" width="2" height="2"/>
					<rect id="XMLID_210_" x="21" y="183.9" class="st9" width="2" height="2"/>
					<rect id="XMLID_209_" x="25" y="183.9" class="st9" width="2" height="2"/>
				</g>
			</g>
			<g id="XMLID_211_">
				<g id="XMLID_212_">
					<rect id="XMLID_218_" x="23" y="185.9" class="st9" width="2" height="2"/>
					<rect id="XMLID_217_" x="27" y="185.9" class="st9" width="2" height="2"/>
					<rect id="XMLID_216_" x="21" y="187.9" class="st9" width="2" height="2"/>
					<rect id="XMLID_215_" x="25" y="187.9" class="st9" width="2" height="2"/>
				</g>
			</g>
			<g id="XMLID_219_">
				<g id="XMLID_220_">
					<rect id="XMLID_224_" x="23" y="189.9" class="st9" width="2" height="2"/>
					<rect id="XMLID_223_" x="27" y="189.9" class="st9" width="2" height="2"/>
					<rect id="XMLID_222_" x="21" y="191.9" class="st9" width="2" height="2"/>
					<rect id="XMLID_221_" x="25" y="191.9" class="st9" width="2" height="2"/>
				</g>
			</g>
			<g id="XMLID_225_">
				<g id="XMLID_226_">
					<rect id="XMLID_230_" x="23" y="193.9" class="st9" width="2" height="2"/>
					<rect id="XMLID_229_" x="27" y="193.9" class="st9" width="2" height="2"/>
					<rect id="XMLID_228_" x="21" y="195.9" class="st9" width="2" height="2"/>
					<rect id="XMLID_227_" x="25" y="195.9" class="st9" width="2" height="2"/>
				</g>
			</g>
			<g id="XMLID_231_">
				<g id="XMLID_232_">
					<rect id="XMLID_236_" x="23" y="197.9" class="st9" width="2" height="2"/>
					<rect id="XMLID_235_" x="27" y="197.9" class="st9" width="2" height="2"/>
					<rect id="XMLID_234_" x="21" y="199.9" class="st9" width="2" height="2"/>
					<rect id="XMLID_233_" x="25" y="199.9" class="st9" width="2" height="2"/>
				</g>
			</g>
			<g id="XMLID_237_">
				<g id="XMLID_238_">
					<rect id="XMLID_242_" x="23" y="201.9" class="st9" width="2" height="2"/>
					<rect id="XMLID_241_" x="27" y="201.9" class="st9" width="2" height="2"/>
					<rect id="XMLID_240_" x="21" y="203.9" class="st9" width="2" height="2"/>
					<rect id="XMLID_239_" x="25" y="203.9" class="st9" width="2" height="2"/>
				</g>
			</g>
			<g id="XMLID_243_">
				<g id="XMLID_244_">
					<rect id="XMLID_248_" x="23" y="205.9" class="st9" width="2" height="2"/>
					<rect id="XMLID_247_" x="27" y="205.9" class="st9" width="2" height="2"/>
					<rect id="XMLID_246_" x="21" y="207.9" class="st9" width="2" height="2"/>
					<rect id="XMLID_245_" x="25" y="207.9" class="st9" width="2" height="2"/>
				</g>
			</g>
			<g id="XMLID_249_">
				<g id="XMLID_250_">
					<rect id="XMLID_254_" x="23" y="209.9" class="st9" width="2" height="2"/>
					<rect id="XMLID_253_" x="27" y="209.9" class="st9" width="2" height="2"/>
					<rect id="XMLID_252_" x="21" y="211.9" class="st9" width="2" height="2"/>
					<rect id="XMLID_251_" x="25" y="211.9" class="st9" width="2" height="2"/>
				</g>
			</g>
			<g id="XMLID_255_">
				<g id="XMLID_257_">
					<rect id="XMLID_261_" x="23" y="213.9" class="st9" width="2" height="2"/>
					<rect id="XMLID_260_" x="27" y="213.9" class="st9" width="2" height="2"/>
					<rect id="XMLID_259_" x="21" y="215.9" class="st9" width="2" height="2"/>
					<rect id="XMLID_258_" x="25" y="215.9" class="st9" width="2" height="2"/>
				</g>
			</g>
		</g>
		<g id="XMLID_263_">
			<g id="XMLID_318_">
				<g id="XMLID_319_">
					<rect id="XMLID_323_" x="133.1" y="181.9" class="st9" width="2" height="2"/>
					<rect id="XMLID_322_" x="137.1" y="181.9" class="st9" width="2" height="2"/>
					<rect id="XMLID_321_" x="131.1" y="183.9" class="st9" width="2" height="2"/>
					<rect id="XMLID_320_" x="135.1" y="183.9" class="st9" width="2" height="2"/>
				</g>
			</g>
			<g id="XMLID_312_">
				<g id="XMLID_313_">
					<rect id="XMLID_317_" x="133.1" y="185.9" class="st9" width="2" height="2"/>
					<rect id="XMLID_316_" x="137.1" y="185.9" class="st9" width="2" height="2"/>
					<rect id="XMLID_315_" x="131.1" y="187.9" class="st9" width="2" height="2"/>
					<rect id="XMLID_314_" x="135.1" y="187.9" class="st9" width="2" height="2"/>
				</g>
			</g>
			<g id="XMLID_306_">
				<g id="XMLID_307_">
					<rect id="XMLID_311_" x="133.1" y="189.9" class="st9" width="2" height="2"/>
					<rect id="XMLID_310_" x="137.1" y="189.9" class="st9" width="2" height="2"/>
					<rect id="XMLID_309_" x="131.1" y="191.9" class="st9" width="2" height="2"/>
					<rect id="XMLID_308_" x="135.1" y="191.9" class="st9" width="2" height="2"/>
				</g>
			</g>
			<g id="XMLID_300_">
				<g id="XMLID_301_">
					<rect id="XMLID_305_" x="133.1" y="193.9" class="st9" width="2" height="2"/>
					<rect id="XMLID_304_" x="137.1" y="193.9" class="st9" width="2" height="2"/>
					<rect id="XMLID_303_" x="131.1" y="195.9" class="st9" width="2" height="2"/>
					<rect id="XMLID_302_" x="135.1" y="195.9" class="st9" width="2" height="2"/>
				</g>
			</g>
			<g id="XMLID_294_">
				<g id="XMLID_295_">
					<rect id="XMLID_299_" x="133.1" y="197.9" class="st9" width="2" height="2"/>
					<rect id="XMLID_298_" x="137.1" y="197.9" class="st9" width="2" height="2"/>
					<rect id="XMLID_297_" x="131.1" y="199.9" class="st9" width="2" height="2"/>
					<rect id="XMLID_296_" x="135.1" y="199.9" class="st9" width="2" height="2"/>
				</g>
			</g>
			<g id="XMLID_288_">
				<g id="XMLID_289_">
					<rect id="XMLID_293_" x="133.1" y="201.9" class="st9" width="2" height="2"/>
					<rect id="XMLID_292_" x="137.1" y="201.9" class="st9" width="2" height="2"/>
					<rect id="XMLID_291_" x="131.1" y="203.9" class="st9" width="2" height="2"/>
					<rect id="XMLID_290_" x="135.1" y="203.9" class="st9" width="2" height="2"/>
				</g>
			</g>
			<g id="XMLID_282_">
				<g id="XMLID_283_">
					<rect id="XMLID_287_" x="133.1" y="205.9" class="st9" width="2" height="2"/>
					<rect id="XMLID_286_" x="137.1" y="205.9" class="st9" width="2" height="2"/>
					<rect id="XMLID_285_" x="131.1" y="207.9" class="st9" width="2" height="2"/>
					<rect id="XMLID_284_" x="135.1" y="207.9" class="st9" width="2" height="2"/>
				</g>
			</g>
			<g id="XMLID_276_">
				<g id="XMLID_277_">
					<rect id="XMLID_281_" x="133.1" y="209.9" class="st9" width="2" height="2"/>
					<rect id="XMLID_280_" x="137.1" y="209.9" class="st9" width="2" height="2"/>
					<rect id="XMLID_279_" x="131.1" y="211.9" class="st9" width="2" height="2"/>
					<rect id="XMLID_278_" x="135.1" y="211.9" class="st9" width="2" height="2"/>
				</g>
			</g>
			<g id="XMLID_270_">
				<g id="XMLID_271_">
					<rect id="XMLID_275_" x="133.1" y="213.9" class="st9" width="2" height="2"/>
					<rect id="XMLID_274_" x="137.1" y="213.9" class="st9" width="2" height="2"/>
					<rect id="XMLID_273_" x="131.1" y="215.9" class="st9" width="2" height="2"/>
					<rect id="XMLID_272_" x="135.1" y="215.9" class="st9" width="2" height="2"/>
				</g>
			</g>
		</g>
		<g id="XMLID_839_">
			<path id="XMLID_840_" class="st10" d="M45.2,192.6c0-0.4,0-0.6,0.1-0.7c0.1-0.1,0.3-0.1,0.6-0.1c0.3,0,0.5,0.1,0.6,0.2
				c0.1,0.1,0.2,0.4,0.2,0.7c0,0.7,0,1.4,0.1,2.2s0.1,1.5,0.2,2.3h5.5c0.3,0,0.4,0.1,0.5,0.2s0.1,0.3,0.1,0.5c0,0.2,0,0.4-0.1,0.5
				s-0.2,0.2-0.5,0.2h-5.3c0.1,0.7,0.2,1.3,0.4,2c0.2,0.6,0.4,1.2,0.6,1.8c0.3-0.5,0.6-1,0.8-1.4s0.4-1,0.6-1.5
				c0.1-0.3,0.2-0.4,0.4-0.6c0.2-0.1,0.4-0.2,0.6-0.1c0.3,0.1,0.4,0.2,0.5,0.4c0,0.2,0,0.4-0.1,0.7c-0.3,0.8-0.6,1.5-0.9,2.1
				s-0.7,1.3-1.3,2c0.3,0.6,0.6,1.2,0.9,1.8c0.3,0.6,0.7,1,1,1.4c0.1,0.1,0.2,0.1,0.3,0.1c0.1,0,0.2-0.2,0.3-0.5
				c0-0.1,0.1-0.2,0.1-0.4s0.1-0.3,0.1-0.5c0-0.2,0.1-0.3,0.1-0.5c0-0.2,0.1-0.3,0.1-0.5c0-0.3,0.1-0.5,0.2-0.6s0.3-0.1,0.6-0.1
				c0.4,0.1,0.6,0.3,0.6,0.7c0,0.2,0,0.5-0.1,0.8s-0.1,0.7-0.2,1.1c-0.1,0.4-0.2,0.7-0.3,1c-0.1,0.3-0.2,0.5-0.3,0.6
				c-0.3,0.4-0.7,0.6-1.1,0.6c-0.3,0-0.6-0.1-0.9-0.4c-0.4-0.4-0.8-1-1.2-1.5c-0.4-0.6-0.8-1.2-1.1-2c-0.5,0.5-1.1,1-1.8,1.5
				c-0.7,0.5-1.4,0.9-2.1,1.3c-0.3,0.2-0.6,0.2-0.8,0.2c-0.2,0-0.3-0.1-0.4-0.2c-0.2-0.3-0.2-0.5-0.2-0.7c0.1-0.2,0.2-0.3,0.5-0.5
				c0.9-0.4,1.7-0.9,2.3-1.4c0.7-0.5,1.3-1,1.8-1.6c-0.3-0.9-0.6-1.7-0.8-2.6c-0.2-0.9-0.4-1.7-0.5-2.6h-3.9v2.9l2.6-0.7
				c0.2-0.1,0.3-0.1,0.5,0c0.1,0.1,0.2,0.2,0.3,0.5c0.1,0.2,0.1,0.4,0,0.6S45,202,44.8,202c-0.5,0.1-1,0.3-1.5,0.4
				c-0.5,0.1-1,0.3-1.5,0.4v3.9c0,0.7-0.2,1.2-0.6,1.6c-0.4,0.4-0.9,0.5-1.6,0.5c-0.7,0-1.5-0.2-2.5-0.7c-0.3-0.1-0.4-0.3-0.5-0.5
				c-0.1-0.2,0-0.4,0.1-0.6c0.2-0.4,0.6-0.5,1.1-0.2c0.8,0.3,1.4,0.5,1.9,0.5c0.2,0,0.4-0.1,0.5-0.2c0.1-0.1,0.2-0.3,0.2-0.6v-3.4
				c-0.6,0.2-1.1,0.3-1.7,0.4c-0.6,0.1-1.1,0.3-1.7,0.4c-0.2,0.1-0.4,0-0.5,0c-0.2-0.1-0.2-0.2-0.3-0.4c-0.1-0.3-0.1-0.5,0-0.6
				c0.1-0.1,0.2-0.2,0.4-0.3c0.6-0.2,1.2-0.3,1.8-0.5c0.6-0.2,1.2-0.3,1.8-0.5v-3.3h-4c-0.3,0-0.4-0.1-0.5-0.2
				c-0.1-0.1-0.1-0.3-0.1-0.5c0-0.2,0-0.4,0.1-0.5c0.1-0.1,0.2-0.2,0.5-0.2h4v-2.4c-1.1,0.2-2.1,0.4-3.1,0.4c-0.3,0-0.5,0-0.6-0.1
				c-0.1-0.1-0.2-0.2-0.3-0.5c-0.1-0.3,0-0.5,0.2-0.6s0.4-0.2,0.7-0.2c1.3-0.1,2.5-0.2,3.5-0.5c1-0.3,2-0.6,2.9-1
				c0.3-0.1,0.6-0.2,0.7-0.1c0.2,0.1,0.3,0.2,0.4,0.4c0.1,0.2,0.1,0.4,0,0.6c-0.1,0.1-0.2,0.3-0.5,0.4c-0.4,0.2-0.8,0.3-1.2,0.5
				s-0.8,0.3-1.2,0.4v2.8h3.7c-0.1-0.7-0.1-1.5-0.2-2.2S45.2,193.4,45.2,192.6z M48.3,192.6c1.1,0.8,2.1,1.6,3,2.5
				c0.2,0.2,0.4,0.4,0.4,0.6c0,0.2,0,0.4-0.2,0.5c-0.2,0.2-0.4,0.3-0.5,0.3c-0.2,0-0.4-0.2-0.6-0.4c-0.2-0.2-0.4-0.3-0.6-0.5
				s-0.4-0.4-0.7-0.6c-0.2-0.2-0.5-0.4-0.7-0.6s-0.5-0.4-0.7-0.5c-0.3-0.2-0.4-0.4-0.5-0.5s0-0.3,0.1-0.5c0.1-0.2,0.2-0.2,0.4-0.3
				C47.8,192.4,48.1,192.5,48.3,192.6z"/>
			<path id="XMLID_843_" class="st10" d="M53.9,199.8c0.7-1.1,1.3-2.2,1.8-3.4s0.9-2.3,1.3-3.6c0.1-0.3,0.2-0.5,0.3-0.7
				c0.1-0.1,0.3-0.2,0.5-0.1c0.5,0.1,0.6,0.5,0.5,1.1c-0.2,0.6-0.4,1.1-0.6,1.7c-0.2,0.5-0.4,1.1-0.6,1.6v11.8
				c0,0.3-0.1,0.4-0.2,0.5c-0.1,0.1-0.3,0.1-0.5,0.1c-0.2,0-0.4,0-0.5-0.1c-0.1-0.1-0.2-0.3-0.2-0.5v-8.9c-0.1,0.3-0.3,0.5-0.4,0.7
				s-0.3,0.5-0.4,0.7c-0.2,0.2-0.4,0.4-0.6,0.4c-0.2,0.1-0.4,0-0.6-0.2c-0.2-0.2-0.2-0.3-0.2-0.5C53.5,200.3,53.7,200.1,53.9,199.8z
				 M60.4,208.2c0,0.2-0.1,0.4-0.2,0.5c-0.1,0.1-0.3,0.2-0.5,0.2c-0.2,0-0.4,0-0.5-0.1c-0.1-0.1-0.2-0.3-0.2-0.5v-13.5
				c0-0.3,0.1-0.4,0.2-0.5c0.1-0.1,0.3-0.1,0.5-0.1s0.4,0,0.5,0.1s0.2,0.3,0.2,0.5V208.2z M63.1,194.9c-0.2,0.1-0.3,0.1-0.5,0.1
				c-0.2-0.1-0.3-0.2-0.5-0.4c-0.2-0.3-0.5-0.6-0.8-0.8s-0.7-0.6-1-0.9c-0.3-0.2-0.4-0.4-0.4-0.5c0-0.1,0-0.3,0.2-0.5
				c0.1-0.2,0.3-0.2,0.4-0.2c0.2,0,0.4,0.1,0.7,0.3c0.4,0.3,0.7,0.6,1,0.9c0.3,0.3,0.7,0.6,1,1c0.2,0.2,0.3,0.4,0.3,0.6
				C63.4,194.6,63.3,194.8,63.1,194.9z M70.2,206.2c0,0.7-0.2,1.3-0.6,1.7c-0.4,0.4-0.9,0.6-1.6,0.7c-0.3,0-0.6,0-1-0.1
				c-0.4-0.1-0.7-0.2-1.1-0.3c-0.4-0.2-0.7-0.3-0.8-0.4s-0.1-0.3,0-0.6c0.1-0.2,0.2-0.4,0.4-0.4c0.2,0,0.4,0,0.7,0.1
				c0.3,0.1,0.6,0.2,0.9,0.3c0.3,0.1,0.5,0.1,0.7,0.1c0.6,0,1-0.4,1-1.1v-11.6c0-0.1,0-0.2,0-0.3c0,0-0.1-0.1-0.2-0.1h-4.2
				c-0.3,0-0.4-0.1-0.5-0.2c-0.1-0.1-0.1-0.3-0.1-0.5c0-0.2,0.1-0.4,0.2-0.5c0.1-0.1,0.3-0.2,0.5-0.2h4.2c0.3,0,0.6,0,0.8,0
				c0.2,0,0.4,0.1,0.5,0.2c0.1,0.1,0.2,0.3,0.2,0.5s0.1,0.5,0.1,0.8V206.2z"/>
			<path id="XMLID_848_" class="st10" d="M78.9,206.3c0,0.6-0.1,1-0.3,1.2s-0.6,0.4-1.2,0.4h-3.7c-0.6,0-0.9-0.1-1.1-0.4
				c-0.2-0.2-0.3-0.6-0.3-1.2v-10.9c0-0.6,0.1-0.9,0.3-1.2c0.2-0.2,0.6-0.4,1.1-0.4h1c0.1-0.3,0.2-0.6,0.3-0.8
				c0.1-0.2,0.1-0.5,0.2-0.7c0.1-0.3,0.2-0.4,0.4-0.6s0.4-0.1,0.7-0.1c0.3,0.1,0.4,0.2,0.5,0.4c0,0.2,0,0.4-0.1,0.8
				c-0.1,0.2-0.1,0.3-0.2,0.5c0,0.2-0.1,0.3-0.2,0.5h1.2c0.6,0,1,0.1,1.2,0.4s0.3,0.6,0.3,1.2V206.3z M77.5,195.6
				c0-0.2-0.1-0.3-0.2-0.3H74c-0.1,0-0.2,0.1-0.2,0.3v4.2h3.7V195.6z M77.5,201.3h-3.7v4.8c0,0.1,0,0.2,0.1,0.2
				c0,0.1,0.1,0.1,0.1,0.1h3.3c0.2,0,0.2-0.1,0.2-0.3V201.3z M80.6,198.3c-0.2,0.3-0.4,0.5-0.6,0.6c-0.2,0.1-0.4,0-0.6-0.1
				c-0.2-0.1-0.2-0.3-0.2-0.5c0-0.2,0.1-0.5,0.3-0.7c0.5-0.7,0.8-1.5,1.1-2.3c0.3-0.9,0.5-1.8,0.7-2.8c0-0.3,0.1-0.5,0.3-0.6
				c0.2-0.1,0.3-0.1,0.5-0.1c0.2,0,0.4,0.1,0.5,0.3c0.1,0.2,0.1,0.4,0.1,0.6c0,0.2-0.1,0.4-0.1,0.6s-0.1,0.4-0.1,0.6H86
				c0.4,0,0.7,0,1,0.1c0.3,0.1,0.5,0.2,0.6,0.4s0.3,0.5,0.3,0.8c0.1,0.4,0.1,0.8,0.1,1.4c0,0.6,0,1.4,0,2.1c0,0.8,0,1.5-0.1,2.3
				c0,0.7-0.1,1.4-0.1,2c0,0.6-0.1,1.1-0.1,1.4c-0.1,0.8-0.2,1.5-0.4,2.1s-0.4,1-0.6,1.3c-0.3,0.3-0.6,0.5-0.9,0.6
				c-0.4,0.1-0.8,0.1-1.2,0.1c-0.3,0-0.6-0.1-0.8-0.1s-0.5-0.1-0.7-0.1s-0.4-0.1-0.7-0.2c-0.2-0.1-0.4-0.1-0.7-0.2
				c-0.4-0.2-0.7-0.3-0.7-0.5c-0.1-0.2-0.1-0.4,0-0.6c0.1-0.2,0.2-0.4,0.5-0.4c0.2,0,0.4,0,0.7,0.1c0.4,0.1,0.8,0.3,1.2,0.4
				s0.8,0.2,1.2,0.3c0.3,0,0.5,0,0.7,0c0.2-0.1,0.4-0.2,0.5-0.5s0.3-0.6,0.4-1.1c0.1-0.5,0.2-1.1,0.3-1.9c0-0.5,0.1-1,0.1-1.5
				c0-0.5,0.1-1,0.1-1.6c0-0.6,0-1.2,0-1.9c0-0.7,0-1.5,0-2.3c0-0.4-0.1-0.7-0.2-0.8c-0.1-0.2-0.4-0.2-0.7-0.2H82
				c-0.2,0.6-0.4,1.1-0.6,1.6S80.9,197.8,80.6,198.3z M85.1,202.3c0.2,0.3,0.2,0.6,0.2,0.8c0,0.2-0.1,0.4-0.4,0.5
				c-0.4,0.2-0.8,0-1.1-0.7c-0.3-0.7-0.6-1.4-1-2.1c-0.4-0.7-0.8-1.4-1.2-2.1c-0.1-0.2-0.2-0.4-0.2-0.6c0-0.2,0.1-0.4,0.3-0.5
				c0.2-0.1,0.3-0.2,0.5-0.1c0.2,0,0.4,0.2,0.5,0.5C83.6,199.4,84.4,200.8,85.1,202.3z"/>
			<path id="XMLID_854_" class="st10" d="M93.7,207.2c0.3,0.1,0.5,0.2,0.7,0.2c0.2,0,0.3,0,0.4,0c0.1,0,0.2-0.1,0.2-0.2
				c0-0.1,0.1-0.2,0.1-0.4v-3.6h-2.8c0,0.5,0,1-0.1,1.4c0,0.4-0.1,0.9-0.2,1.3c-0.1,0.4-0.2,0.8-0.3,1.1c-0.1,0.4-0.2,0.7-0.4,1.1
				c-0.2,0.3-0.3,0.6-0.5,0.6s-0.4,0.1-0.6-0.1c-0.2-0.1-0.3-0.2-0.4-0.4c0-0.2,0-0.4,0.2-0.7c0.2-0.4,0.3-0.8,0.5-1.2
				c0.1-0.4,0.2-0.8,0.3-1.3c0.1-0.5,0.1-1.1,0.1-1.8s0-1.5,0-2.5V194c0-0.5,0.1-0.9,0.3-1.2c0.2-0.2,0.6-0.3,1.1-0.3H95
				c0.5,0,0.9,0.1,1.1,0.3c0.2,0.2,0.3,0.6,0.3,1.2v12.9c0,0.7-0.1,1.1-0.4,1.4c-0.3,0.3-0.7,0.4-1.3,0.4c-0.2,0-0.4,0-0.7-0.1
				c-0.2,0-0.5-0.1-0.7-0.2c-0.3-0.1-0.5-0.2-0.6-0.4s-0.1-0.3,0-0.6c0.1-0.2,0.2-0.3,0.3-0.4C93.2,207,93.4,207.1,93.7,207.2z
				 M95.1,194.2c0-0.2-0.1-0.3-0.3-0.3h-2.3c-0.2,0-0.2,0.1-0.2,0.3v3.1h2.8V194.2z M92.2,201.9h2.8v-3.3h-2.8V201.9z M99.7,208.5
				c-0.3,0.2-0.5,0.3-0.7,0.3c-0.2,0-0.4-0.1-0.5-0.3c-0.1,0.1-0.3,0.2-0.5,0.2c-0.5,0-0.7-0.2-0.7-0.7v-13.9c0-0.3,0-0.6,0.1-0.8
				c0-0.2,0.1-0.4,0.2-0.5c0.1-0.1,0.3-0.2,0.5-0.2c0.2,0,0.5-0.1,0.8-0.1h5.1c0.3,0,0.6,0,0.8,0.1s0.4,0.2,0.5,0.3
				c0.1,0.2,0.2,0.4,0.3,0.7c0,0.3,0.1,0.7,0.1,1.2c0,0.6,0,1.2-0.1,1.6c-0.1,0.4-0.2,0.8-0.4,1c-0.2,0.3-0.4,0.4-0.7,0.5
				c-0.3,0.1-0.6,0.2-1,0.2c-0.4,0-0.8-0.1-1.2-0.2c-0.5-0.1-1-0.3-1.6-0.6c-0.3-0.2-0.5-0.3-0.6-0.5c-0.1-0.2-0.1-0.4,0.1-0.6
				c0.1-0.2,0.2-0.3,0.4-0.4c0.2,0,0.4,0,0.7,0.2c0.9,0.4,1.6,0.6,2.1,0.6c0.2,0,0.3,0,0.4-0.1c0.1,0,0.2-0.1,0.3-0.3
				c0.1-0.1,0.1-0.3,0.2-0.6c0-0.3,0-0.6,0-1c0-0.5,0-0.7-0.1-0.9c0-0.1-0.1-0.2-0.3-0.2h-5c-0.1,0-0.2,0-0.3,0.1
				c0,0-0.1,0.1-0.1,0.2v4.4h5.6c0.7,0,1.1,0.2,1.4,0.5c0.2,0.4,0.2,0.8,0,1.4c-0.3,1-0.7,1.8-1.1,2.5c-0.4,0.7-0.8,1.4-1.3,2.1
				c0.8,0.9,1.8,1.6,2.9,2.3c0.3,0.2,0.5,0.4,0.6,0.6c0.1,0.2,0.1,0.4,0,0.6c-0.1,0.2-0.3,0.4-0.5,0.4c-0.2,0-0.5-0.1-0.8-0.3
				c-0.6-0.4-1.2-0.8-1.7-1.2c-0.5-0.4-1-0.9-1.5-1.3c-0.4,0.4-0.8,0.8-1.2,1.2C100.8,207.7,100.3,208.1,99.7,208.5z M101.6,205.2
				c-0.6-0.8-1.1-1.6-1.6-2.4c-0.5-0.9-0.9-1.8-1.2-2.9h-0.1v7.7C99.9,206.8,100.9,206,101.6,205.2z M100.2,199.9
				c0.6,1.6,1.4,3.1,2.3,4.3c0.4-0.6,0.8-1.1,1.1-1.8s0.6-1.3,0.9-2.1c0.1-0.3,0-0.4-0.2-0.4H100.2z"/>
			<path id="XMLID_861_" class="st10" d="M110.6,197c-0.2,0.2-0.4,0.3-0.6,0.3s-0.4,0-0.5-0.2c-0.2-0.2-0.2-0.3-0.2-0.5
				c0-0.2,0.1-0.4,0.4-0.6c0.3-0.2,0.6-0.5,0.9-0.8c0.3-0.3,0.6-0.6,0.8-1s0.5-0.7,0.7-1c0.2-0.4,0.4-0.7,0.5-1
				c0.1-0.3,0.3-0.5,0.4-0.6c0.1-0.1,0.3-0.1,0.6,0c0.3,0.1,0.4,0.2,0.5,0.4s0,0.5-0.2,0.9h8.1c0.4,0,0.7,0,0.9,0.1
				c0.2,0.1,0.4,0.2,0.4,0.4c0.1,0.2,0.1,0.4,0,0.6c-0.1,0.2-0.2,0.4-0.4,0.7c-0.5,0.6-1.2,1.2-1.9,1.7c-0.7,0.5-1.5,1-2.4,1.5
				c0.9,0.4,1.8,0.8,2.7,1.1c0.9,0.3,1.9,0.5,2.8,0.7c0.4,0.1,0.7,0.2,0.9,0.3c0.1,0.1,0.2,0.3,0.2,0.5c0,0.3-0.1,0.5-0.3,0.6
				c-0.2,0.1-0.5,0.1-0.8,0c-1.3-0.3-2.6-0.7-3.8-1.1c-1.2-0.4-2.2-0.9-3.2-1.3c-1.2,0.6-2.4,1.1-3.8,1.5c-1.4,0.4-2.8,0.8-4.3,1.1
				c-0.4,0.1-0.7,0.1-0.8,0c-0.2-0.1-0.3-0.3-0.3-0.5c0-0.5,0.3-0.8,0.8-0.8c1.2-0.2,2.3-0.4,3.5-0.8s2.3-0.8,3.4-1.2
				c-1.1-0.7-2.1-1.6-3.1-2.7c-0.3,0.4-0.6,0.7-0.9,1.1C111.2,196.3,110.9,196.7,110.6,197z M115.8,200.4c0,0.2-0.1,0.4-0.1,0.5
				c0,0.2-0.1,0.3-0.1,0.5h5.8c0.3,0,0.6,0,0.8,0.1s0.4,0.1,0.5,0.2c0.1,0.1,0.2,0.3,0.2,0.5c0,0.2,0.1,0.5,0.1,0.9
				c0,0.4,0.1,0.9,0,1.3c0,0.4-0.1,0.9-0.1,1.3c-0.1,0.6-0.2,1-0.4,1.4c-0.2,0.4-0.4,0.7-0.7,0.9c-0.3,0.2-0.6,0.4-1,0.5
				c-0.4,0.1-0.8,0.1-1.2,0.1c-0.4,0-0.9,0-1.5-0.1c-0.6-0.1-1.4-0.2-2.3-0.5c-0.3,0-0.5-0.2-0.7-0.3c-0.1-0.2-0.1-0.4,0-0.6
				c0.1-0.2,0.2-0.3,0.4-0.4c0.2-0.1,0.4-0.1,0.7,0c0.8,0.2,1.5,0.3,2.2,0.4c0.6,0.1,1.1,0.1,1.5,0.1c0.6,0,1-0.1,1.2-0.4
				c0.2-0.2,0.3-0.6,0.4-1.1c0-0.3,0-0.6,0.1-1c0-0.4,0-0.8,0-1.4c0-0.2-0.1-0.4-0.1-0.4s-0.2-0.1-0.5-0.1h-5.7
				c-0.2,0.8-0.5,1.5-0.8,2.1s-0.7,1.2-1.1,1.7s-1,0.9-1.5,1.3c-0.6,0.4-1.3,0.7-2,0.9c-0.3,0.1-0.6,0.1-0.8,0.1
				c-0.2-0.1-0.3-0.2-0.3-0.5c0-0.2,0-0.4,0.1-0.6c0.1-0.2,0.3-0.3,0.6-0.4c1.1-0.3,2-0.8,2.8-1.5c0.7-0.8,1.3-1.8,1.7-3.1h-3.8
				c-0.2,0-0.4-0.1-0.5-0.2c-0.1-0.1-0.2-0.3-0.2-0.5c0-0.2,0.1-0.4,0.2-0.5c0.1-0.1,0.3-0.2,0.5-0.2h4.1c0-0.2,0.1-0.4,0.1-0.5
				c0-0.2,0-0.4,0.1-0.6c0.1-0.5,0.3-0.8,0.7-0.8C115.6,199.5,115.9,199.8,115.8,200.4z M113.4,194.1c0.5,0.6,1.1,1.2,1.7,1.6
				c0.6,0.5,1.2,0.9,1.9,1.3c0.8-0.4,1.6-0.8,2.2-1.3c0.7-0.4,1.2-0.8,1.6-1.3c0.1-0.1,0.2-0.2,0.2-0.3c0-0.1-0.1-0.1-0.2-0.1H113.4
				z"/>
		</g>
	</g>
	<rect id="_x3C_切片_x3E__2_" y="110" class="st11" width="160" height="110"/>
</g>
<g id="XMLID_4688_">
	<g id="White_Base_15_">
		<g id="XMLID_731_">
			<path id="XMLID_732_" class="st0" d="M88.9,31.7c-1.7,0.8-2.4,2.9-1.6,4.6c0.8,1.7,2.9,2.4,4.6,1.6c1.7-0.8,2.4-2.9,1.6-4.6
				C92.7,31.6,90.6,30.9,88.9,31.7z M111.9,46.5c-0.6,0.3-0.8,1-0.5,1.5c0.3,0.6,1,0.8,1.5,0.5c0.6-0.3,0.8-1,0.5-1.5
				C113.2,46.5,112.5,46.2,111.9,46.5z M119,48.1l-15.2-31.2c-0.7-1.4-2.3-1.3-2.3-1.3c-3.1,0-5.3-1.4-6.5-3.8l-2.5-5.2
				c-0.5-1.1-1.9-1.6-3-1.1L66,17c-1.1,0.5-1.6,1.9-1.1,3l21.4,44c0.5,1.1,1.9,1.6,3,1.1L118,51.2C119.1,50.6,119.6,49.2,119,48.1z
				 M95.9,46.1c-6.2,3-13.7,0.4-16.7-5.8S78.7,26.6,85,23.6c6.2-3,13.7-0.4,16.7,5.8C104.7,35.6,102.1,43,95.9,46.1z M105.2,31.4
				l-3-6.1c-0.4-0.8-0.1-1.9,0.8-2.3c0.8-0.4,1.9-0.1,2.3,0.8l3,6.1c0.4,0.8,0.1,1.9-0.8,2.3C106.7,32.6,105.6,32.3,105.2,31.4z
				 M107.6,41.6c-0.4-0.8-0.1-1.9,0.8-2.3c0.8-0.4,1.9-0.1,2.3,0.8c0.4,0.8,0.1,1.9-0.8,2.3C109.1,42.8,108.1,42.5,107.6,41.6z
				 M113.9,50.6c-1.7,0.8-3.7,0.1-4.6-1.6c-0.8-1.7-0.1-3.7,1.6-4.6c1.7-0.8,3.7-0.1,4.6,1.6C116.3,47.7,115.6,49.8,113.9,50.6z
				 M86,25.6c-5.1,2.5-7.2,8.6-4.7,13.7c2.5,5.1,8.6,7.2,13.7,4.7c5.1-2.5,7.2-8.6,4.7-13.7C97.2,25.3,91,23.1,86,25.6z M92.9,39.9
				c-2.8,1.4-6.2,0.2-7.6-2.6c-1.4-2.8-0.2-6.2,2.6-7.6c2.8-1.4,6.2-0.2,7.6,2.6C96.9,35.2,95.7,38.6,92.9,39.9z"/>
		</g>
	</g>
	<g id="Yellow_5_">
		<g id="XMLID_423_">
			<path id="XMLID_427_" class="st12" d="M93.4,22.6L85.9,7.3l-14.3,7L79,29.6c1.2-2.6,3.2-4.7,5.9-6.1S90.6,22,93.4,22.6z
				 M101.8,40c-1.2,2.6-3.2,4.7-5.9,6.1c-2.7,1.3-5.7,1.6-8.4,0.9l7.5,15.4l14.3-7L101.8,40z"/>
		</g>
	</g>
	<g id="Blue_8_">
		<g id="XMLID_155_">
			<circle id="XMLID_158_" class="st2" cx="90.4" cy="34.8" r="3.4"/>
		</g>
	</g>
	<g id="Texture_1_17_" class="st3">
		<g id="XMLID_1240_">
			<path id="XMLID_1241_" class="st4" d="M93.9,42l-0.5-1l-1,0.5l0.5,1L93.9,42z M83.9,29.1l-1,0.5l0.5,1l1-0.5L83.9,29.1z
				 M83.3,35.7l-1,0.5l0.5,1l1-0.5L83.3,35.7z M84.3,37.8l-1,0.5l0.5,1l1-0.5L84.3,37.8z M82.3,33.7l-1,0.5l0.5,1l1-0.5L82.3,33.7z
				 M83.3,30.7l-1,0.5l0.5,1l1-0.5L83.3,30.7z M85.9,38.3c-0.1-0.1-0.2-0.3-0.3-0.5c-0.1-0.2-0.2-0.3-0.3-0.5l0.5,1L85.9,38.3z
				 M82.8,32.2l-1,0.5l0.5,1l1-0.5L82.8,32.2z M80.2,34.7c0,0.4,0,0.8,0.1,1.2l0.5-0.2L80.2,34.7L80.2,34.7z M84.3,43l-0.1-0.1
				l-0.1,0C84.2,42.9,84.2,43,84.3,43z M86.1,44.1l-0.3-0.7l-0.5,0.2C85.5,43.8,85.8,43.9,86.1,44.1z M87.6,44.6l-0.3-0.7l-0.7,0.3
				C86.9,44.4,87.3,44.5,87.6,44.6z M82.4,41.2c0.2,0.3,0.5,0.6,0.8,0.9l0.5-0.2l-0.5-1L82.4,41.2z M89,45l-0.2-0.5l-0.7,0.3
				C88.4,44.9,88.7,44.9,89,45z M81.2,39.3c0.1,0.3,0.3,0.5,0.4,0.8c0,0.1,0.1,0.1,0.1,0.2l1-0.5l-0.5-1L81.2,39.3z M91.6,45
				c0.4,0,0.8-0.1,1.2-0.2L92.4,44l-1,0.5L91.6,45z M90.2,45c0,0,0.1,0,0.1,0l0-0.1L90.2,45C90.2,45,90.2,45,90.2,45z M83.1,27.6
				c-0.3,0.3-0.6,0.6-0.8,0.9l0,0.1l1-0.5L83.1,27.6z M85.4,32.2L85.4,32.2L85.4,32.2C85.4,32.2,85.4,32.2,85.4,32.2z M87.9,29.7
				l-0.5-1l-1,0.5l0.5,1L87.9,29.7z M80.5,37.1c0,0.1,0.1,0.3,0.1,0.4c0.1,0.2,0.1,0.4,0.2,0.7l1-0.5l-0.5-1L80.5,37.1z M84.8,33.7
				C84.8,33.7,84.8,33.7,84.8,33.7L84.8,33.7L84.8,33.7C84.8,33.7,84.8,33.7,84.8,33.7z M86.1,31.1c0.3-0.3,0.5-0.6,0.9-0.8l0-0.1
				l-1,0.5L86.1,31.1z M84.9,36.2c-0.1-0.4-0.2-0.8-0.2-1.2l-0.4,0.2l0.5,1L84.9,36.2z M86.9,27.6l-0.5-1l-1,0.5l0.5,1L86.9,27.6z
				 M85,26.2c-0.3,0.2-0.6,0.4-0.9,0.7l0.4,0.8l1-0.5L85,26.2z M89.8,44l0.5,1l1-0.5l-0.5-1L89.8,44z M80.8,33.2l-0.5,0.2
				c-0.1,0.4-0.1,0.8-0.1,1.2l0.1,0.1l1-0.5L80.8,33.2z M81.8,35.2l-1,0.5l0.5,1l1-0.5L81.8,35.2z M81.3,31.7L80.6,32
				c0,0.2-0.1,0.3-0.1,0.5l0.3,0.7l1-0.5L81.3,31.7z M84.9,28.6l-0.5-1l-1,0.5l0.5,1L84.9,28.6z M81.8,30.1l-0.7,0.3
				c-0.1,0.2-0.1,0.3-0.2,0.5l0.3,0.7l1-0.5L81.8,30.1z M82.8,37.3l-1,0.5l0.5,1l1-0.5L82.8,37.3z M85.4,29.7l1-0.5l-0.5-1l-1,0.5
				L85.4,29.7z M82.4,28.6l-0.1,0.1c-0.2,0.3-0.5,0.6-0.7,1l0.2,0.5l1-0.5L82.4,28.6z M91.9,43l0.5,1l1-0.5l-0.5-1L91.9,43z
				 M94.4,43l-1,0.5l0.5,1c0.4-0.1,0.7-0.3,1.1-0.4L94.4,43z M84.3,40.3l0.5,1l1-0.5l-0.5-1L84.3,40.3z M88.3,43.4l0.5,1l1-0.5
				l-0.5-1L88.3,43.4z M83.7,41.9l0.5,1l1-0.5l-0.5-1L83.7,41.9z M86.8,42.9l0.5,1l1-0.5l-0.5-1L86.8,42.9z M85.2,42.4l0.5,1l1-0.5
				l-0.5-1L85.2,42.4z M83.8,39.3l-1,0.5l0.5,1l1-0.5L83.8,39.3z M92.4,41.4l-0.5-1l-1,0.5l0.5,1L92.4,41.4z M90.9,40.9l-0.2-0.4
				c-0.2,0-0.4,0-0.6,0c0,0,0,0,0,0c-0.2,0-0.4,0-0.6-0.1l0,0l0.5,1L90.9,40.9z M90.3,42.4l0.5,1l1-0.5l-0.5-1L90.3,42.4z
				 M85.8,40.9l0.5,1l1-0.5l-0.5-1L85.8,40.9z M84.4,30.2l0.5,1l1-0.5l-0.5-1L84.4,30.2z M87.3,41.4l0.5,1l1-0.5l-0.5-1L87.3,41.4z
				 M88.8,41.9l0.5,1l1-0.5l-0.5-1L88.8,41.9z M89.3,40.4L89.3,40.4c-0.5-0.1-1-0.3-1.5-0.5l0,0l0.5,1L89.3,40.4z M83.3,35.7l1-0.5
				l-0.5-1l-1,0.5L83.3,35.7z M83.8,34.2l1-0.5l-0.5-1l-1,0.5L83.8,34.2z M84.3,32.7l1-0.5l-0.5-1l-1,0.5L84.3,32.7z M85.3,39.8
				l1-0.5l-0.5-1l-1,0.5L85.3,39.8z M87.8,39.9L87.8,39.9c-0.2-0.1-0.4-0.2-0.5-0.3c0,0,0,0,0,0c-0.2-0.1-0.3-0.2-0.5-0.4l-0.4,0.2
				l0.5,1L87.8,39.9z M84.3,37.8l1-0.5l-0.5-1l-1,0.5L84.3,37.8z"/>
		</g>
	</g>
	<g id="Inner_Lines_8_" class="st5">
		<g id="XMLID_529_">
			<path id="XMLID_532_" class="st6" d="M68.5,15.7l1,2l1-0.5l-1-2L68.5,15.7z M66.5,16.7l2,4.1l1-0.5l-2-4.1L66.5,16.7z
				 M105.2,52.3l-1,0.5l2,4.1l1-0.5L105.2,52.3z M103.2,55.8l1,2l1-0.5l-1-2L103.2,55.8z"/>
		</g>
	</g>
	<g id="Outline_19_">
		<g id="XMLID_801_">
			<path id="XMLID_802_" class="st4" d="M87.9,29.7c-2.8,1.4-4,4.8-2.6,7.6c1.4,2.8,4.8,4,7.6,2.6c2.8-1.4,4-4.8,2.6-7.6
				C94.2,29.5,90.8,28.3,87.9,29.7z M91.9,37.9c-1.7,0.8-3.7,0.1-4.6-1.6c-0.8-1.7-0.1-3.7,1.6-4.6c1.7-0.8,3.7-0.1,4.6,1.6
				C94.3,35,93.6,37.1,91.9,37.9z M121.1,47.1l-15.2-31.2c-0.8-1.6-2.6-2.6-4.5-2.5c-1.8,0.1-3.5-0.9-4.3-2.5l-0.7-1.4l0.4,0.8
				c0.4,0.8,1.4,1.2,2.3,0.8c0.8-0.4,1.2-1.4,0.8-2.3l-1.5-3.1C98,4.8,97,4.4,96.1,4.9c-0.8,0.4-1.2,1.4-0.8,2.3l-0.7-1.5
				c-1.1-2.3-3.8-3.2-6.1-2.1L65,14.9c-2.3,1.1-3.2,3.8-2.1,6.1l21.4,44c1.1,2.3,3.8,3.2,6.1,2.1L119,53.2
				C121.2,52.1,122.2,49.4,121.1,47.1z M118,51.2L89.3,65.1c-1.1,0.5-2.5,0.1-3-1.1L64.9,20c-0.5-1.1-0.1-2.5,1.1-3L89.5,5.5
				c1.1-0.5,2.5-0.1,3,1.1l2.5,5.2c1.2,2.5,3.4,3.8,6.5,3.8c0,0,1.6-0.2,2.3,1.3L119,48.1C119.6,49.2,119.1,50.6,118,51.2z
				 M108.3,29.9l-3-6.1c-0.4-0.8-1.4-1.2-2.3-0.8c-0.8,0.4-1.2,1.4-0.8,2.3l3,6.1c0.4,0.8,1.4,1.2,2.3,0.8
				C108.3,31.8,108.7,30.8,108.3,29.9z M110.9,44.5c-1.7,0.8-2.4,2.9-1.6,4.6c0.8,1.7,2.9,2.4,4.6,1.6s2.4-2.9,1.6-4.6
				C114.7,44.3,112.6,43.6,110.9,44.5z M112.9,48.6c-0.6,0.3-1.2,0-1.5-0.5c-0.3-0.6,0-1.2,0.5-1.5c0.6-0.3,1.2,0,1.5,0.5
				C113.7,47.6,113.5,48.3,112.9,48.6z M85,23.6c-6.2,3-8.8,10.5-5.8,16.7s10.5,8.8,16.7,5.8c6.2-3,8.8-10.5,5.8-16.7
				C98.7,23.1,91.2,20.5,85,23.6z M94.9,44c-5.1,2.5-11.2,0.4-13.7-4.7c-2.5-5.1-0.4-11.2,4.7-13.7c5.1-2.5,11.2-0.4,13.7,4.7
				C102.1,35.4,100,41.5,94.9,44z M109.9,42.4c0.8-0.4,1.2-1.4,0.8-2.3s-1.4-1.2-2.3-0.8c-0.8,0.4-1.2,1.4-0.8,2.3
				C108.1,42.5,109.1,42.8,109.9,42.4z"/>
		</g>
	</g>
	<g id="White_Base_14_">
		<g id="XMLID_496_">
			<path id="XMLID_500_" class="st0" d="M89.8,91.1l1.9,0.9l5.2-6l-5.5-2.7L89.8,91.1z M133.6,14.8c-1.2-3.4-4.9-5.2-8.3-4
				c-1.7,0.6-3,1.8-3.7,3.3l0,0l-17.1,35.3h0c-0.7,1.5-0.9,3.3-0.3,5c1.2,3.4,4.9,5.2,8.3,4c1.7-0.6,3-1.8,3.7-3.3l17.1-35.3
				C134.1,18.2,134.2,16.5,133.6,14.8z M128.9,17.6l-10,20.8v0c-0.2,0.4-0.5,0.7-0.9,0.8c-0.9,0.3-1.8-0.2-2.1-1
				c-0.1-0.4-0.1-0.9,0.1-1.2l10-20.8v0c0.2-0.4,0.5-0.7,0.9-0.8c0.9-0.3,1.8,0.2,2.1,1C129.2,16.8,129.1,17.2,128.9,17.6z"/>
		</g>
	</g>
	<g id="Red_7_">
		<g id="XMLID_409_">
			<path id="XMLID_412_" class="st12" d="M133.6,14.8c-1.2-3.4-4.9-5.2-8.3-4c-1.7,0.6-3,1.8-3.7,3.3l0,0l-17.1,35.3h0
				c-0.7,1.5-0.9,3.3-0.3,5c1.2,3.4,4.9,5.2,8.3,4c1.7-0.6,3-1.8,3.7-3.3l17.1-35.3C134.1,18.2,134.2,16.5,133.6,14.8z M128.9,17.6
				l-10,20.8v0c-0.2,0.4-0.5,0.7-0.9,0.8c-0.9,0.3-1.8-0.2-2.1-1c-0.1-0.4-0.1-0.9,0.1-1.2l10-20.8v0c0.2-0.4,0.5-0.7,0.9-0.8
				c0.9-0.3,1.8,0.2,2.1,1C129.2,16.8,129.1,17.2,128.9,17.6z"/>
		</g>
	</g>
	<g id="Outline_18_">
		<g id="XMLID_539_">
			<path id="XMLID_540_" class="st4" d="M126.9,15.4c-0.4,0.1-0.8,0.5-0.9,0.8h0L116,37c-0.2,0.4-0.2,0.8-0.1,1.2
				c0.3,0.9,1.2,1.3,2.1,1c0.4-0.1,0.8-0.5,0.9-0.8l10-20.8c0.2-0.4,0.2-0.8,0.1-1.2C128.7,15.5,127.8,15.1,126.9,15.4z M136.7,13.7
				c-1.8-5.1-7.4-7.8-12.5-6c-2.6,0.9-4.5,2.7-5.6,5L101.6,48c-1.1,2.3-1.3,4.9-0.4,7.5c0.7,1.9,1.9,3.5,3.4,4.7L94.1,81l-3.2-1.6
				c-0.4-0.2-0.8-0.2-1.2-0.1c-0.6,0.2-0.9,0.7-1.1,1.2l0,0l-2.2,11.1l0,0c-0.1,0.3,0,0.6,0.1,0.8c0.1,0.4,0.5,0.8,0.8,0.9l4.2,2
				c0.4,0.2,0.8,0.2,1.2,0.1c0.3-0.1,0.5-0.3,0.7-0.5l0,0l7.4-8.6l0,0c0.4-0.4,0.5-1,0.3-1.6c-0.1-0.4-0.5-0.8-0.8-0.9L97,82.4
				l10.5-20.8c1.9,0.6,4.1,0.6,6.1-0.1c2.6-0.9,4.5-2.7,5.6-5l17.1-35.3C137.4,18.9,137.6,16.2,136.7,13.7z M91.7,92l-1.9-0.9
				l1.5-7.8l5.5,2.7L91.7,92z M133.3,19.8l-17.1,35.3c-0.7,1.5-2,2.7-3.7,3.3c-3.4,1.2-7.1-0.6-8.3-4c-0.6-1.7-0.4-3.5,0.3-5h0
				l17.1-35.3l0,0c0.7-1.5,2-2.7,3.7-3.3c3.4-1.2,7.1,0.6,8.3,4C134.2,16.5,134.1,18.2,133.3,19.8z"/>
		</g>
	</g>
	<g id="Blue_6_">
		<g id="XMLID_140_">
			<path id="XMLID_154_" class="st12" d="M153.4,55.3c-2.1,1.6-4.7,2.3-7.5,1.9c-5.5-0.8-9.3-5.9-8.6-11.4c0.4-2.8,1.9-5.1,3.9-6.6
				l2.2-1.6c-6.4-0.1-12,4.5-12.9,11c-1,7,3.9,13.5,10.9,14.5c6.5,0.9,12.5-3.2,14.2-9.4L153.4,55.3z"/>
		</g>
	</g>
	<g id="Outline_17_">
		<g id="XMLID_530_">
			<path id="XMLID_531_" class="st4" d="M158.9,45.4l-8.3,6.2c-1.1,0.8-2.6,1.3-4.1,1.1c-3-0.4-5.1-3.2-4.7-6.2
				c0.2-1.5,1-2.8,2.1-3.6l8.3-6.2c-2-1.3-4.3-2.2-6.8-2.6c-9-1.3-17.3,5-18.6,14c-0.3,1.9-0.2,3.8,0.2,5.6l-13,9.3
				c0.2,0,0.4,0,0.5,0c1.4,0.2,2.6,0.8,3.6,1.6l10.1-7.2c1,2,2.3,3.8,4,5.3l-9.5,7.6l2.2,3l10.5-8.3c1.6,0.8,3.4,1.4,5.3,1.7
				c9,1.3,17.3-5,18.6-14C159.9,50.1,159.7,47.7,158.9,45.4z M141.5,63c-1.6-0.2-3.2-0.8-4.5-1.5c-0.4-0.2-0.7-0.4-1-0.7
				c0,0-0.1-0.1-0.1-0.1c-2.1-1.5-3.7-3.7-4.6-6.1c0,0,0-0.1,0-0.1c-0.1-0.4-0.2-0.8-0.3-1.2c-0.4-1.5-0.5-3.1-0.2-4.8
				c0.9-6.5,6.5-11.1,12.9-11l-2.2,1.6c-4.4,3.3-5.3,9.7-2,14.1c3.3,4.4,9.7,5.3,14.1,2l2.2-1.6C154,59.8,148,63.9,141.5,63z
				 M82.5,103.1c-1.1,0.8-2.6,1.3-4.1,1.1c-3-0.4-5.1-3.2-4.7-6.2c0.2-1.5,1-2.8,2.1-3.6l30.9-21.7c-0.4-1.1-0.5-2.2-0.3-3.4
				c0.1-0.4,0.1-0.7,0.2-1.1l-33,23.2c-1.9,1.4-3.2,3.5-3.6,6c-0.7,5,2.8,9.6,7.8,10.3c2.5,0.4,4.9-0.3,6.8-1.8l29.1-23.5l-2.2-3
				L82.5,103.1z M77.4,98.4c-0.1,1,0.6,1.9,1.6,2.1c1,0.1,1.9-0.6,2.1-1.6c0.1-1-0.6-1.9-1.6-2.1S77.5,97.4,77.4,98.4z"/>
		</g>
	</g>
	<g id="Yellow_4_">
		<g id="XMLID_134_">
			<circle id="XMLID_135_" class="st12" cx="36.1" cy="56.3" r="5.4"/>
		</g>
	</g>
	<g id="Green_4_">
		<g id="XMLID_109_">
			<polygon id="XMLID_129_" class="st12" points="59.8,49.6 59.8,51.5 50.8,52 50.3,63.9 45.6,63.9 45.6,77.1 73.1,49.6 			"/>
		</g>
	</g>
	<g id="Inner_Lines_7_" class="st5">
		<g id="XMLID_389_">
			<path id="XMLID_390_" class="st4" d="M52.2,23.1L19,56.3l26.5,26.5l33.2-33.2L52.2,23.1z M20.9,56.3L52.2,25l24.6,24.6L45.6,80.9
				L20.9,56.3z"/>
		</g>
	</g>
	<g id="Outline_16_">
		<g id="XMLID_384_">
			<path id="XMLID_388_" class="st4" d="M82.5,45.8L56,19.3c-2.1-2.1-5.5-2.1-7.6,0L15.2,52.5c-2.1,2.1-2.1,5.5,0,7.6l26.5,26.5
				c2.1,2.1,5.5,2.1,7.6,0l33.2-33.2C84.6,51.3,84.6,47.9,82.5,45.8z M80.6,51.5L47.5,84.7c-1,1-2.7,1-3.8,0L17.1,58.2
				c-1-1-1-2.7,0-3.8l33.2-33.2c1-1,2.7-1,3.8,0l26.5,26.5C81.7,48.8,81.7,50.5,80.6,51.5z"/>
		</g>
	</g>
	<g id="Texture_1_15_" class="st3">
		<g id="XMLID_672_">
			<path id="XMLID_673_" class="st4" d="M61.5,59.9l0.6,0.6l0.6-0.6L62,59.3L61.5,59.9z M63.2,60.5l0.6-0.6l-0.6-0.6l-0.6,0.6
				L63.2,60.5z M62.6,58.8l0.6,0.6l0.6-0.6l-0.6-0.6L62.6,58.8z M64.3,59.3l0.6-0.6l-0.6-0.6l-0.6,0.6L64.3,59.3z M60.4,61l0.6,0.6
				l0.6-0.6l-0.6-0.6L60.4,61z M62,61.6l0.6-0.6L62,60.5L61.5,61L62,61.6z M63.7,57.7l0.6,0.6l0.6-0.6l-0.6-0.6L63.7,57.7z
				 M65.4,57.1l-0.6,0.6l0.6,0.6l0.6-0.6L65.4,57.1z"/>
		</g>
	</g>
	<g id="White_Base_12_">
		<g id="XMLID_481_">
			<path id="XMLID_499_" class="st0" d="M90.1,64.8c-0.8,0-1.5,0.7-1.5,1.5c0,0.8,0.7,1.5,1.5,1.5s1.5-0.7,1.5-1.5
				C91.5,65.4,90.9,64.8,90.1,64.8z M90.1,31.7c-19.1,0-34.6,15.5-34.6,34.6s15.5,34.6,34.6,34.6c19.1,0,34.6-15.5,34.6-34.6
				S109.2,31.7,90.1,31.7z M114.3,67.7H94.2c-0.6,1.7-2.2,2.9-4.2,2.9c-2.4,0-4.4-2-4.4-4.4c0-0.5,0.1-0.9,0.2-1.4L75.1,54
				c-0.6-0.6-0.6-1.5,0-2.1s1.5-0.6,2.1,0l10.6,10.6c0.7-0.4,1.5-0.7,2.4-0.7c1.9,0,3.5,1.2,4.2,2.9h20.1c0.8,0,1.5,0.7,1.5,1.5
				C115.8,67.1,115.2,67.7,114.3,67.7z"/>
		</g>
	</g>
	<g id="Green_2_">
		<g id="XMLID_647_">
			<path id="XMLID_648_" class="st12" d="M90.1,40.5c-0.8,0-1.5,0.7-1.5,1.5c0,0.8,0.7,1.5,1.5,1.5s1.5-0.7,1.5-1.5
				C91.5,41.2,90.9,40.5,90.1,40.5z M90.1,89c-0.8,0-1.5,0.7-1.5,1.5c0,0.8,0.7,1.5,1.5,1.5s1.5-0.7,1.5-1.5
				C91.5,89.7,90.9,89,90.1,89z M65.8,64.8c-0.8,0-1.5,0.7-1.5,1.5c0,0.8,0.7,1.5,1.5,1.5c0.8,0,1.5-0.7,1.5-1.5
				C67.3,65.4,66.6,64.8,65.8,64.8z M108.3,50.1c0.6-0.6,0.6-1.5,0-2.1c-0.6-0.6-1.5-0.6-2.1,0c-0.6,0.6-0.6,1.5,0,2.1
				C106.8,50.7,107.7,50.7,108.3,50.1z M71.9,82.4c-0.6,0.6-0.6,1.5,0,2.1c0.6,0.6,1.5,0.6,2.1,0c0.6-0.6,0.6-1.5,0-2.1
				C73.4,81.8,72.5,81.8,71.9,82.4z M106.2,82.4c-0.6,0.6-0.6,1.5,0,2.1c0.6,0.6,1.5,0.6,2.1,0c0.6-0.6,0.6-1.5,0-2.1
				C107.7,81.8,106.8,81.8,106.2,82.4z M71.9,48c-0.6,0.6-0.6,1.5,0,2.1c0.6,0.6,1.5,0.6,2.1,0c0.6-0.6,0.6-1.5,0-2.1
				C73.4,47.5,72.5,47.5,71.9,48z"/>
		</g>
	</g>
	<g id="Yellow_3_">
		<g id="XMLID_469_">
			<path id="XMLID_471_" class="st12" d="M90.1,61.8c1.9,0,3.5,1.2,4.2,2.9h2.3c-0.7-2.9-3.3-5.1-6.4-5.1c-1.5,0-2.8,0.5-4,1.3
				l1.6,1.6C88.4,62.1,89.2,61.8,90.1,61.8z M88.6,66.2c0,0.8,0.7,1.5,1.5,1.5s1.5-0.7,1.5-1.5c0-0.8-0.7-1.5-1.5-1.5
				S88.6,65.4,88.6,66.2z M90.1,70.7c-2.4,0-4.4-2-4.4-4.4c0-0.5,0.1-0.9,0.2-1.4l-1.7-1.7c-0.5,0.9-0.7,2-0.7,3.1
				c0,3.7,3,6.6,6.6,6.6c3.1,0,5.8-2.2,6.4-5.1h-2.3C93.6,69.4,92,70.7,90.1,70.7z"/>
		</g>
	</g>
	<g id="Red_6_">
		<g id="XMLID_493_">
			<path id="XMLID_494_" class="st12" d="M85.3,81.4c-0.1,0.4,0.1,0.8,0.5,0.9c0.4,0.1,0.8-0.1,0.9-0.5l3-11.1c-0.5,0-1-0.2-1.4-0.4
				L85.3,81.4z M92.9,56c-0.4-0.1-0.8,0.1-0.9,0.5l-1.4,5.4c0.5,0.1,1,0.2,1.4,0.4l1.4-5.4C93.5,56.5,93.3,56.1,92.9,56z M91.4,65.7
				c-0.1-0.2-0.2-0.3-0.3-0.5c-0.3-0.3-0.6-0.5-1.1-0.5c-0.1,0-0.2,0-0.3,0c-0.3,0.1-0.6,0.3-0.8,0.5c0,0,0,0,0,0
				c-0.1,0.1-0.2,0.2-0.2,0.4c0,0,0,0,0,0.1c0,0.1-0.1,0.3-0.1,0.5c0,0.2,0,0.4,0.1,0.6c0,0,0,0,0,0c0.1,0.2,0.2,0.3,0.3,0.5
				c0.3,0.3,0.6,0.4,1,0.4c0.1,0,0.3,0,0.4-0.1c0.3-0.1,0.6-0.3,0.7-0.5c0,0,0,0,0,0c0.1-0.1,0.1-0.2,0.2-0.4c0,0,0,0,0-0.1
				c0-0.1,0.1-0.3,0.1-0.4C91.5,66,91.5,65.9,91.4,65.7C91.4,65.7,91.4,65.7,91.4,65.7z"/>
		</g>
	</g>
	<g id="Inner_Lines_4_" class="st5">
		<g id="XMLID_417_">
			<path id="XMLID_426_" class="st4" d="M90.1,34.6c-17.5,0-31.6,14.2-31.6,31.6s14.2,31.6,31.6,31.6c17.5,0,31.6-14.2,31.6-31.6
				S107.5,34.6,90.1,34.6z M90.1,96.4c-16.6,0-30.1-13.5-30.1-30.1c0-16.6,13.5-30.1,30.1-30.1c16.6,0,30.1,13.5,30.1,30.1
				C120.2,82.9,106.7,96.4,90.1,96.4z"/>
		</g>
	</g>
	<g id="Texture_1_14_" class="st3">
		<g id="XMLID_685_">
			<path id="XMLID_686_" class="st4" d="M87.1,84.6v1.5h1.5v-1.5H87.1z M88.6,87.6h1.5v-1.5h-1.5V87.6z M90.1,84.6v1.5h1.5v-1.5
				H90.1z M91.5,87.6H93v-1.5h-1.5V87.6z M84.2,84.6v1.5h1.5v-1.5H84.2z M85.7,87.6h1.5v-1.5h-1.5V87.6z M93,84.6v1.5h1.5v-1.5H93z
				 M94.5,86.1v1.5H96v-1.5H94.5z"/>
		</g>
	</g>
	<g id="Outline_15_">
		<g id="XMLID_627_">
			<path id="XMLID_628_" class="st4" d="M90.1,28.7c-20.7,0-37.5,16.8-37.5,37.5s16.8,37.5,37.5,37.5c20.7,0,37.5-16.8,37.5-37.5
				S110.8,28.7,90.1,28.7z M90.1,100.8c-19.1,0-34.6-15.5-34.6-34.6S71,31.7,90.1,31.7c19.1,0,34.6,15.5,34.6,34.6
				S109.2,100.8,90.1,100.8z M114.3,64.8H94.2c-0.6-1.7-2.2-2.9-4.1-2.9c-0.9,0-1.7,0.3-2.4,0.7L77.1,52c-0.6-0.6-1.5-0.6-2.1,0
				s-0.6,1.5,0,2.1l10.8,10.8c-0.1,0.4-0.2,0.9-0.2,1.4c0,2.4,2,4.4,4.4,4.4c1.9,0,3.5-1.2,4.1-2.9h20.1c0.8,0,1.5-0.7,1.5-1.5
				C115.8,65.4,115.2,64.8,114.3,64.8z M90.1,67.7c-0.8,0-1.5-0.7-1.5-1.5c0-0.8,0.7-1.5,1.5-1.5s1.5,0.7,1.5,1.5
				C91.5,67.1,90.9,67.7,90.1,67.7z"/>
		</g>
	</g>
	<g id="XMLID_5547_">
		<path id="XMLID_93_" class="st0" d="M25,108.2c-1.9,0-3.5-1.6-3.5-3.5v-30c0-1.9,1.6-3.5,3.5-3.5h110c1.9,0,3.5,1.6,3.5,3.5v30
			c0,1.9-1.6,3.5-3.5,3.5H25z"/>
		<path id="XMLID_89_" class="st4" d="M135,72.7c1.1,0,2,0.9,2,2v30c0,1.1-0.9,2-2,2H25c-1.1,0-2-0.9-2-2v-30c0-1.1,0.9-2,2-2H135
			 M135,69.7H25c-2.8,0-5,2.2-5,5v30c0,2.8,2.2,5,5,5h110c2.8,0,5-2.2,5-5v-30C140,72,137.8,69.7,135,69.7L135,69.7z"/>
	</g>
	<g id="XMLID_5492_">
		<g id="XMLID_5541_">
			<g id="XMLID_5542_">
				<rect id="XMLID_5546_" x="23" y="71.9" class="st9" width="2" height="2"/>
				<rect id="XMLID_5545_" x="27" y="71.9" class="st9" width="2" height="2"/>
				<rect id="XMLID_5544_" x="21" y="73.9" class="st9" width="2" height="2"/>
				<rect id="XMLID_5543_" x="25" y="73.9" class="st9" width="2" height="2"/>
			</g>
		</g>
		<g id="XMLID_5535_">
			<g id="XMLID_5536_">
				<rect id="XMLID_5540_" x="23" y="75.9" class="st9" width="2" height="2"/>
				<rect id="XMLID_5539_" x="27" y="75.9" class="st9" width="2" height="2"/>
				<rect id="XMLID_5538_" x="21" y="77.9" class="st9" width="2" height="2"/>
				<rect id="XMLID_5537_" x="25" y="77.9" class="st9" width="2" height="2"/>
			</g>
		</g>
		<g id="XMLID_5529_">
			<g id="XMLID_5530_">
				<rect id="XMLID_5534_" x="23" y="79.9" class="st9" width="2" height="2"/>
				<rect id="XMLID_5533_" x="27" y="79.9" class="st9" width="2" height="2"/>
				<rect id="XMLID_5532_" x="21" y="81.9" class="st9" width="2" height="2"/>
				<rect id="XMLID_5531_" x="25" y="81.9" class="st9" width="2" height="2"/>
			</g>
		</g>
		<g id="XMLID_5523_">
			<g id="XMLID_5524_">
				<rect id="XMLID_5528_" x="23" y="83.9" class="st9" width="2" height="2"/>
				<rect id="XMLID_5527_" x="27" y="83.9" class="st9" width="2" height="2"/>
				<rect id="XMLID_5526_" x="21" y="85.9" class="st9" width="2" height="2"/>
				<rect id="XMLID_5525_" x="25" y="85.9" class="st9" width="2" height="2"/>
			</g>
		</g>
		<g id="XMLID_5517_">
			<g id="XMLID_5518_">
				<rect id="XMLID_5522_" x="23" y="87.9" class="st9" width="2" height="2"/>
				<rect id="XMLID_5521_" x="27" y="87.9" class="st9" width="2" height="2"/>
				<rect id="XMLID_5520_" x="21" y="89.9" class="st9" width="2" height="2"/>
				<rect id="XMLID_5519_" x="25" y="89.9" class="st9" width="2" height="2"/>
			</g>
		</g>
		<g id="XMLID_5511_">
			<g id="XMLID_5512_">
				<rect id="XMLID_5516_" x="23" y="91.9" class="st9" width="2" height="2"/>
				<rect id="XMLID_5515_" x="27" y="91.9" class="st9" width="2" height="2"/>
				<rect id="XMLID_5514_" x="21" y="93.9" class="st9" width="2" height="2"/>
				<rect id="XMLID_5513_" x="25" y="93.9" class="st9" width="2" height="2"/>
			</g>
		</g>
		<g id="XMLID_5505_">
			<g id="XMLID_5506_">
				<rect id="XMLID_5510_" x="23" y="95.9" class="st9" width="2" height="2"/>
				<rect id="XMLID_5509_" x="27" y="95.9" class="st9" width="2" height="2"/>
				<rect id="XMLID_5508_" x="21" y="97.9" class="st9" width="2" height="2"/>
				<rect id="XMLID_5507_" x="25" y="97.9" class="st9" width="2" height="2"/>
			</g>
		</g>
		<g id="XMLID_5499_">
			<g id="XMLID_5500_">
				<rect id="XMLID_5504_" x="23" y="99.9" class="st9" width="2" height="2"/>
				<rect id="XMLID_5503_" x="27" y="99.9" class="st9" width="2" height="2"/>
				<rect id="XMLID_5502_" x="21" y="101.9" class="st9" width="2" height="2"/>
				<rect id="XMLID_5501_" x="25" y="101.9" class="st9" width="2" height="2"/>
			</g>
		</g>
		<g id="XMLID_5493_">
			<g id="XMLID_5494_">
				<rect id="XMLID_5498_" x="23" y="103.9" class="st9" width="2" height="2"/>
				<rect id="XMLID_5497_" x="27" y="103.9" class="st9" width="2" height="2"/>
				<rect id="XMLID_5496_" x="21" y="105.9" class="st9" width="2" height="2"/>
				<rect id="XMLID_5495_" x="25" y="105.9" class="st9" width="2" height="2"/>
			</g>
		</g>
	</g>
	<g id="XMLID_5437_">
		<g id="XMLID_5486_">
			<g id="XMLID_5487_">
				<rect id="XMLID_5491_" x="133.1" y="71.9" class="st9" width="2" height="2"/>
				<rect id="XMLID_5490_" x="137.1" y="71.9" class="st9" width="2" height="2"/>
				<rect id="XMLID_5489_" x="131.1" y="73.9" class="st9" width="2" height="2"/>
				<rect id="XMLID_5488_" x="135.1" y="73.9" class="st9" width="2" height="2"/>
			</g>
		</g>
		<g id="XMLID_5480_">
			<g id="XMLID_5481_">
				<rect id="XMLID_5485_" x="133.1" y="75.9" class="st9" width="2" height="2"/>
				<rect id="XMLID_5484_" x="137.1" y="75.9" class="st9" width="2" height="2"/>
				<rect id="XMLID_5483_" x="131.1" y="77.9" class="st9" width="2" height="2"/>
				<rect id="XMLID_5482_" x="135.1" y="77.9" class="st9" width="2" height="2"/>
			</g>
		</g>
		<g id="XMLID_5474_">
			<g id="XMLID_5475_">
				<rect id="XMLID_5479_" x="133.1" y="79.9" class="st9" width="2" height="2"/>
				<rect id="XMLID_5478_" x="137.1" y="79.9" class="st9" width="2" height="2"/>
				<rect id="XMLID_5477_" x="131.1" y="81.9" class="st9" width="2" height="2"/>
				<rect id="XMLID_5476_" x="135.1" y="81.9" class="st9" width="2" height="2"/>
			</g>
		</g>
		<g id="XMLID_5468_">
			<g id="XMLID_5469_">
				<rect id="XMLID_5473_" x="133.1" y="83.9" class="st9" width="2" height="2"/>
				<rect id="XMLID_5472_" x="137.1" y="83.9" class="st9" width="2" height="2"/>
				<rect id="XMLID_5471_" x="131.1" y="85.9" class="st9" width="2" height="2"/>
				<rect id="XMLID_5470_" x="135.1" y="85.9" class="st9" width="2" height="2"/>
			</g>
		</g>
		<g id="XMLID_5462_">
			<g id="XMLID_5463_">
				<rect id="XMLID_5467_" x="133.1" y="87.9" class="st9" width="2" height="2"/>
				<rect id="XMLID_5466_" x="137.1" y="87.9" class="st9" width="2" height="2"/>
				<rect id="XMLID_5465_" x="131.1" y="89.9" class="st9" width="2" height="2"/>
				<rect id="XMLID_5464_" x="135.1" y="89.9" class="st9" width="2" height="2"/>
			</g>
		</g>
		<g id="XMLID_5456_">
			<g id="XMLID_5457_">
				<rect id="XMLID_5461_" x="133.1" y="91.9" class="st9" width="2" height="2"/>
				<rect id="XMLID_5460_" x="137.1" y="91.9" class="st9" width="2" height="2"/>
				<rect id="XMLID_5459_" x="131.1" y="93.9" class="st9" width="2" height="2"/>
				<rect id="XMLID_5458_" x="135.1" y="93.9" class="st9" width="2" height="2"/>
			</g>
		</g>
		<g id="XMLID_5450_">
			<g id="XMLID_5451_">
				<rect id="XMLID_5455_" x="133.1" y="95.9" class="st9" width="2" height="2"/>
				<rect id="XMLID_5454_" x="137.1" y="95.9" class="st9" width="2" height="2"/>
				<rect id="XMLID_5453_" x="131.1" y="97.9" class="st9" width="2" height="2"/>
				<rect id="XMLID_5452_" x="135.1" y="97.9" class="st9" width="2" height="2"/>
			</g>
		</g>
		<g id="XMLID_5444_">
			<g id="XMLID_5445_">
				<rect id="XMLID_5449_" x="133.1" y="99.9" class="st9" width="2" height="2"/>
				<rect id="XMLID_5448_" x="137.1" y="99.9" class="st9" width="2" height="2"/>
				<rect id="XMLID_5447_" x="131.1" y="101.9" class="st9" width="2" height="2"/>
				<rect id="XMLID_5446_" x="135.1" y="101.9" class="st9" width="2" height="2"/>
			</g>
		</g>
		<g id="XMLID_5438_">
			<g id="XMLID_5439_">
				<rect id="XMLID_5443_" x="133.1" y="103.9" class="st9" width="2" height="2"/>
				<rect id="XMLID_5442_" x="137.1" y="103.9" class="st9" width="2" height="2"/>
				<rect id="XMLID_5441_" x="131.1" y="105.9" class="st9" width="2" height="2"/>
				<rect id="XMLID_5440_" x="135.1" y="105.9" class="st9" width="2" height="2"/>
			</g>
		</g>
	</g>
	<g id="XMLID_354_">
		<path id="XMLID_443_" class="st10" d="M45.2,82.6c0-0.4,0-0.6,0.1-0.7c0.1-0.1,0.3-0.1,0.6-0.1c0.3,0,0.5,0.1,0.6,0.2
			c0.1,0.1,0.2,0.4,0.2,0.7c0,0.7,0,1.4,0.1,2.2s0.1,1.5,0.2,2.3h5.5c0.3,0,0.4,0.1,0.5,0.2s0.1,0.3,0.1,0.5c0,0.2,0,0.4-0.1,0.5
			s-0.2,0.2-0.5,0.2h-5.3c0.1,0.7,0.2,1.3,0.4,2c0.2,0.6,0.4,1.2,0.6,1.8c0.3-0.5,0.6-1,0.8-1.4s0.4-1,0.6-1.5
			c0.1-0.3,0.2-0.4,0.4-0.6c0.2-0.1,0.4-0.2,0.6-0.1c0.3,0.1,0.4,0.2,0.5,0.4c0,0.2,0,0.4-0.1,0.7c-0.3,0.8-0.6,1.5-0.9,2.1
			s-0.7,1.3-1.3,2c0.3,0.6,0.6,1.2,0.9,1.8c0.3,0.6,0.7,1,1,1.4c0.1,0.1,0.2,0.1,0.3,0.1c0.1,0,0.2-0.2,0.3-0.5
			c0-0.1,0.1-0.2,0.1-0.4s0.1-0.3,0.1-0.5c0-0.2,0.1-0.3,0.1-0.5c0-0.2,0.1-0.3,0.1-0.5c0-0.3,0.1-0.5,0.2-0.6s0.3-0.1,0.6-0.1
			c0.4,0.1,0.6,0.3,0.6,0.7c0,0.2,0,0.5-0.1,0.8s-0.1,0.7-0.2,1.1c-0.1,0.4-0.2,0.7-0.3,1c-0.1,0.3-0.2,0.5-0.3,0.6
			c-0.3,0.4-0.7,0.6-1.1,0.6c-0.3,0-0.6-0.1-0.9-0.4c-0.4-0.4-0.8-1-1.2-1.5c-0.4-0.6-0.8-1.2-1.1-2c-0.5,0.5-1.1,1-1.8,1.5
			c-0.7,0.5-1.4,0.9-2.1,1.3C43.3,98,43.1,98,42.9,98c-0.2,0-0.3-0.1-0.4-0.2c-0.2-0.3-0.2-0.5-0.2-0.7c0.1-0.2,0.2-0.3,0.5-0.5
			c0.9-0.4,1.7-0.9,2.3-1.4c0.7-0.5,1.3-1,1.8-1.6c-0.3-0.9-0.6-1.7-0.8-2.6c-0.2-0.9-0.4-1.7-0.5-2.6h-3.9v2.9l2.6-0.7
			c0.2-0.1,0.3-0.1,0.5,0c0.1,0.1,0.2,0.2,0.3,0.5c0.1,0.2,0.1,0.4,0,0.6S45,92,44.8,92c-0.5,0.1-1,0.3-1.5,0.4
			c-0.5,0.1-1,0.3-1.5,0.4v3.9c0,0.7-0.2,1.2-0.6,1.6c-0.4,0.4-0.9,0.5-1.6,0.5c-0.7,0-1.5-0.2-2.5-0.7c-0.3-0.1-0.4-0.3-0.5-0.5
			c-0.1-0.2,0-0.4,0.1-0.6c0.2-0.4,0.6-0.5,1.1-0.2c0.8,0.3,1.4,0.5,1.9,0.5c0.2,0,0.4-0.1,0.5-0.2c0.1-0.1,0.2-0.3,0.2-0.6v-3.4
			c-0.6,0.2-1.1,0.3-1.7,0.4c-0.6,0.1-1.1,0.3-1.7,0.4c-0.2,0.1-0.4,0-0.5,0c-0.2-0.1-0.2-0.2-0.3-0.4c-0.1-0.3-0.1-0.5,0-0.6
			c0.1-0.1,0.2-0.2,0.4-0.3c0.6-0.2,1.2-0.3,1.8-0.5c0.6-0.2,1.2-0.3,1.8-0.5v-3.3h-4c-0.3,0-0.4-0.1-0.5-0.2
			c-0.1-0.1-0.1-0.3-0.1-0.5c0-0.2,0-0.4,0.1-0.5c0.1-0.1,0.2-0.2,0.5-0.2h4v-2.4c-1.1,0.2-2.1,0.4-3.1,0.4c-0.3,0-0.5,0-0.6-0.1
			c-0.1-0.1-0.2-0.2-0.3-0.5c-0.1-0.3,0-0.5,0.2-0.6s0.4-0.2,0.7-0.2c1.3-0.1,2.5-0.2,3.5-0.5c1-0.3,2-0.6,2.9-1
			c0.3-0.1,0.6-0.2,0.7-0.1c0.2,0.1,0.3,0.2,0.4,0.4c0.1,0.2,0.1,0.4,0,0.6c-0.1,0.1-0.2,0.3-0.5,0.4c-0.4,0.2-0.8,0.3-1.2,0.5
			s-0.8,0.3-1.2,0.4v2.8h3.7c-0.1-0.7-0.1-1.5-0.2-2.2S45.2,83.4,45.2,82.6z M48.3,82.6c1.1,0.8,2.1,1.6,3,2.5
			c0.2,0.2,0.4,0.4,0.4,0.6c0,0.2,0,0.4-0.2,0.5c-0.2,0.2-0.4,0.3-0.5,0.3c-0.2,0-0.4-0.2-0.6-0.4c-0.2-0.2-0.4-0.3-0.6-0.5
			S49.3,85.2,49,85c-0.2-0.2-0.5-0.4-0.7-0.6s-0.5-0.4-0.7-0.5c-0.3-0.2-0.4-0.4-0.5-0.5s0-0.3,0.1-0.5c0.1-0.2,0.2-0.2,0.4-0.3
			C47.8,82.4,48.1,82.5,48.3,82.6z"/>
		<path id="XMLID_468_" class="st10" d="M53.9,89.8c0.7-1.1,1.3-2.2,1.8-3.4s0.9-2.3,1.3-3.6c0.1-0.3,0.2-0.5,0.3-0.7
			c0.1-0.1,0.3-0.2,0.5-0.1c0.5,0.1,0.6,0.5,0.5,1.1c-0.2,0.6-0.4,1.1-0.6,1.7c-0.2,0.5-0.4,1.1-0.6,1.6v11.8c0,0.3-0.1,0.4-0.2,0.5
			c-0.1,0.1-0.3,0.1-0.5,0.1c-0.2,0-0.4,0-0.5-0.1c-0.1-0.1-0.2-0.3-0.2-0.5v-8.9c-0.1,0.3-0.3,0.5-0.4,0.7s-0.3,0.5-0.4,0.7
			c-0.2,0.2-0.4,0.4-0.6,0.4c-0.2,0.1-0.4,0-0.6-0.2c-0.2-0.2-0.2-0.3-0.2-0.5C53.5,90.3,53.7,90.1,53.9,89.8z M60.4,98.2
			c0,0.2-0.1,0.4-0.2,0.5c-0.1,0.1-0.3,0.2-0.5,0.2c-0.2,0-0.4,0-0.5-0.1c-0.1-0.1-0.2-0.3-0.2-0.5V84.8c0-0.3,0.1-0.4,0.2-0.5
			c0.1-0.1,0.3-0.1,0.5-0.1s0.4,0,0.5,0.1s0.2,0.3,0.2,0.5V98.2z M63.1,84.9C62.9,85,62.7,85,62.6,85c-0.2-0.1-0.3-0.2-0.5-0.4
			c-0.2-0.3-0.5-0.6-0.8-0.8s-0.7-0.6-1-0.9c-0.3-0.2-0.4-0.4-0.4-0.5c0-0.1,0-0.3,0.2-0.5c0.1-0.2,0.3-0.2,0.4-0.2
			c0.2,0,0.4,0.1,0.7,0.3c0.4,0.3,0.7,0.6,1,0.9c0.3,0.3,0.7,0.6,1,1c0.2,0.2,0.3,0.4,0.3,0.6C63.4,84.6,63.3,84.8,63.1,84.9z
			 M70.2,96.2c0,0.7-0.2,1.3-0.6,1.7c-0.4,0.4-0.9,0.6-1.6,0.7c-0.3,0-0.6,0-1-0.1c-0.4-0.1-0.7-0.2-1.1-0.3
			c-0.4-0.2-0.7-0.3-0.8-0.4s-0.1-0.3,0-0.6c0.1-0.2,0.2-0.4,0.4-0.4c0.2,0,0.4,0,0.7,0.1c0.3,0.1,0.6,0.2,0.9,0.3
			c0.3,0.1,0.5,0.1,0.7,0.1c0.6,0,1-0.4,1-1.1V84.5c0-0.1,0-0.2,0-0.3c0,0-0.1-0.1-0.2-0.1h-4.2c-0.3,0-0.4-0.1-0.5-0.2
			c-0.1-0.1-0.1-0.3-0.1-0.5c0-0.2,0.1-0.4,0.2-0.5c0.1-0.1,0.3-0.2,0.5-0.2h4.2c0.3,0,0.6,0,0.8,0c0.2,0,0.4,0.1,0.5,0.2
			c0.1,0.1,0.2,0.3,0.2,0.5s0.1,0.5,0.1,0.8V96.2z"/>
		<path id="XMLID_800_" class="st10" d="M78.9,96.3c0,0.6-0.1,1-0.3,1.2s-0.6,0.4-1.2,0.4h-3.7c-0.6,0-0.9-0.1-1.1-0.4
			c-0.2-0.2-0.3-0.6-0.3-1.2V85.4c0-0.6,0.1-0.9,0.3-1.2c0.2-0.2,0.6-0.4,1.1-0.4h1c0.1-0.3,0.2-0.6,0.3-0.8
			c0.1-0.2,0.1-0.5,0.2-0.7c0.1-0.3,0.2-0.4,0.4-0.6s0.4-0.1,0.7-0.1c0.3,0.1,0.4,0.2,0.5,0.4c0,0.2,0,0.4-0.1,0.8
			c-0.1,0.2-0.1,0.3-0.2,0.5c0,0.2-0.1,0.3-0.2,0.5h1.2c0.6,0,1,0.1,1.2,0.4s0.3,0.6,0.3,1.2V96.3z M77.5,85.6
			c0-0.2-0.1-0.3-0.2-0.3H74c-0.1,0-0.2,0.1-0.2,0.3v4.2h3.7V85.6z M77.5,91.3h-3.7v4.8c0,0.1,0,0.2,0.1,0.2c0,0.1,0.1,0.1,0.1,0.1
			h3.3c0.2,0,0.2-0.1,0.2-0.3V91.3z M80.6,88.3c-0.2,0.3-0.4,0.5-0.6,0.6c-0.2,0.1-0.4,0-0.6-0.1c-0.2-0.1-0.2-0.3-0.2-0.5
			c0-0.2,0.1-0.5,0.3-0.7c0.5-0.7,0.8-1.5,1.1-2.3c0.3-0.9,0.5-1.8,0.7-2.8c0-0.3,0.1-0.5,0.3-0.6c0.2-0.1,0.3-0.1,0.5-0.1
			c0.2,0,0.4,0.1,0.5,0.3c0.1,0.2,0.1,0.4,0.1,0.6c0,0.2-0.1,0.4-0.1,0.6s-0.1,0.4-0.1,0.6H86c0.4,0,0.7,0,1,0.1
			c0.3,0.1,0.5,0.2,0.6,0.4s0.3,0.5,0.3,0.8c0.1,0.4,0.1,0.8,0.1,1.4c0,0.6,0,1.4,0,2.1c0,0.8,0,1.5-0.1,2.3c0,0.7-0.1,1.4-0.1,2
			c0,0.6-0.1,1.1-0.1,1.4c-0.1,0.8-0.2,1.5-0.4,2.1s-0.4,1-0.6,1.3c-0.3,0.3-0.6,0.5-0.9,0.6c-0.4,0.1-0.8,0.1-1.2,0.1
			c-0.3,0-0.6-0.1-0.8-0.1s-0.5-0.1-0.7-0.1s-0.4-0.1-0.7-0.2c-0.2-0.1-0.4-0.1-0.7-0.2c-0.4-0.2-0.7-0.3-0.7-0.5
			c-0.1-0.2-0.1-0.4,0-0.6c0.1-0.2,0.2-0.4,0.5-0.4c0.2,0,0.4,0,0.7,0.1c0.4,0.1,0.8,0.3,1.2,0.4s0.8,0.2,1.2,0.3c0.3,0,0.5,0,0.7,0
			c0.2-0.1,0.4-0.2,0.5-0.5s0.3-0.6,0.4-1.1c0.1-0.5,0.2-1.1,0.3-1.9c0-0.5,0.1-1,0.1-1.5c0-0.5,0.1-1,0.1-1.6c0-0.6,0-1.2,0-1.9
			c0-0.7,0-1.5,0-2.3c0-0.4-0.1-0.7-0.2-0.8c-0.1-0.2-0.4-0.2-0.7-0.2H82c-0.2,0.6-0.4,1.1-0.6,1.6S80.9,87.8,80.6,88.3z M85.1,92.3
			c0.2,0.3,0.2,0.6,0.2,0.8c0,0.2-0.1,0.4-0.4,0.5c-0.4,0.2-0.8,0-1.1-0.7c-0.3-0.7-0.6-1.4-1-2.1c-0.4-0.7-0.8-1.4-1.2-2.1
			c-0.1-0.2-0.2-0.4-0.2-0.6c0-0.2,0.1-0.4,0.3-0.5c0.2-0.1,0.3-0.2,0.5-0.1c0.2,0,0.4,0.2,0.5,0.5C83.6,89.4,84.4,90.8,85.1,92.3z"
			/>
		<path id="XMLID_828_" class="st10" d="M93.7,97.2c0.3,0.1,0.5,0.2,0.7,0.2c0.2,0,0.3,0,0.4,0c0.1,0,0.2-0.1,0.2-0.2
			c0-0.1,0.1-0.2,0.1-0.4v-3.6h-2.8c0,0.5,0,1-0.1,1.4c0,0.4-0.1,0.9-0.2,1.3c-0.1,0.4-0.2,0.8-0.3,1.1c-0.1,0.4-0.2,0.7-0.4,1.1
			c-0.2,0.3-0.3,0.6-0.5,0.6s-0.4,0.1-0.6-0.1c-0.2-0.1-0.3-0.2-0.4-0.4c0-0.2,0-0.4,0.2-0.7c0.2-0.4,0.3-0.8,0.5-1.2
			c0.1-0.4,0.2-0.8,0.3-1.3c0.1-0.5,0.1-1.1,0.1-1.8s0-1.5,0-2.5V84c0-0.5,0.1-0.9,0.3-1.2c0.2-0.2,0.6-0.3,1.1-0.3H95
			c0.5,0,0.9,0.1,1.1,0.3c0.2,0.2,0.3,0.6,0.3,1.2v12.9c0,0.7-0.1,1.1-0.4,1.4c-0.3,0.3-0.7,0.4-1.3,0.4c-0.2,0-0.4,0-0.7-0.1
			c-0.2,0-0.5-0.1-0.7-0.2c-0.3-0.1-0.5-0.2-0.6-0.4s-0.1-0.3,0-0.6c0.1-0.2,0.2-0.3,0.3-0.4C93.2,97,93.4,97.1,93.7,97.2z
			 M95.1,84.2c0-0.2-0.1-0.3-0.3-0.3h-2.3c-0.2,0-0.2,0.1-0.2,0.3v3.1h2.8V84.2z M92.2,91.9h2.8v-3.3h-2.8V91.9z M99.7,98.5
			c-0.3,0.2-0.5,0.3-0.7,0.3c-0.2,0-0.4-0.1-0.5-0.3c-0.1,0.1-0.3,0.2-0.5,0.2c-0.5,0-0.7-0.2-0.7-0.7V84.2c0-0.3,0-0.6,0.1-0.8
			c0-0.2,0.1-0.4,0.2-0.5c0.1-0.1,0.3-0.2,0.5-0.2c0.2,0,0.5-0.1,0.8-0.1h5.1c0.3,0,0.6,0,0.8,0.1s0.4,0.2,0.5,0.3
			c0.1,0.2,0.2,0.4,0.3,0.7c0,0.3,0.1,0.7,0.1,1.2c0,0.6,0,1.2-0.1,1.6c-0.1,0.4-0.2,0.8-0.4,1c-0.2,0.3-0.4,0.4-0.7,0.5
			c-0.3,0.1-0.6,0.2-1,0.2c-0.4,0-0.8-0.1-1.2-0.2c-0.5-0.1-1-0.3-1.6-0.6c-0.3-0.2-0.5-0.3-0.6-0.5c-0.1-0.2-0.1-0.4,0.1-0.6
			c0.1-0.2,0.2-0.3,0.4-0.4c0.2,0,0.4,0,0.7,0.2c0.9,0.4,1.6,0.6,2.1,0.6c0.2,0,0.3,0,0.4-0.1c0.1,0,0.2-0.1,0.3-0.3
			c0.1-0.1,0.1-0.3,0.2-0.6c0-0.3,0-0.6,0-1c0-0.5,0-0.7-0.1-0.9c0-0.1-0.1-0.2-0.3-0.2h-5c-0.1,0-0.2,0-0.3,0.1
			c0,0-0.1,0.1-0.1,0.2v4.4h5.6c0.7,0,1.1,0.2,1.4,0.5c0.2,0.4,0.2,0.8,0,1.4c-0.3,1-0.7,1.8-1.1,2.5c-0.4,0.7-0.8,1.4-1.3,2.1
			c0.8,0.9,1.8,1.6,2.9,2.3c0.3,0.2,0.5,0.4,0.6,0.6c0.1,0.2,0.1,0.4,0,0.6c-0.1,0.2-0.3,0.4-0.5,0.4c-0.2,0-0.5-0.1-0.8-0.3
			c-0.6-0.4-1.2-0.8-1.7-1.2c-0.5-0.4-1-0.9-1.5-1.3c-0.4,0.4-0.8,0.8-1.2,1.2C100.8,97.7,100.3,98.1,99.7,98.5z M101.6,95.2
			c-0.6-0.8-1.1-1.6-1.6-2.4c-0.5-0.9-0.9-1.8-1.2-2.9h-0.1v7.7C99.9,96.8,100.9,96,101.6,95.2z M100.2,89.9
			c0.6,1.6,1.4,3.1,2.3,4.3c0.4-0.6,0.8-1.1,1.1-1.8s0.6-1.3,0.9-2.1c0.1-0.3,0-0.4-0.2-0.4H100.2z"/>
		<path id="XMLID_835_" class="st10" d="M110.6,87c-0.2,0.2-0.4,0.3-0.6,0.3s-0.4,0-0.5-0.2c-0.2-0.2-0.2-0.3-0.2-0.5
			c0-0.2,0.1-0.4,0.4-0.6c0.3-0.2,0.6-0.5,0.9-0.8c0.3-0.3,0.6-0.6,0.8-1s0.5-0.7,0.7-1c0.2-0.4,0.4-0.7,0.5-1
			c0.1-0.3,0.3-0.5,0.4-0.6c0.1-0.1,0.3-0.1,0.6,0c0.3,0.1,0.4,0.2,0.5,0.4s0,0.5-0.2,0.9h8.1c0.4,0,0.7,0,0.9,0.1
			c0.2,0.1,0.4,0.2,0.4,0.4c0.1,0.2,0.1,0.4,0,0.6c-0.1,0.2-0.2,0.4-0.4,0.7c-0.5,0.6-1.2,1.2-1.9,1.7c-0.7,0.5-1.5,1-2.4,1.5
			c0.9,0.4,1.8,0.8,2.7,1.1c0.9,0.3,1.9,0.5,2.8,0.7c0.4,0.1,0.7,0.2,0.9,0.3c0.1,0.1,0.2,0.3,0.2,0.5c0,0.3-0.1,0.5-0.3,0.6
			c-0.2,0.1-0.5,0.1-0.8,0c-1.3-0.3-2.6-0.7-3.8-1.1c-1.2-0.4-2.2-0.9-3.2-1.3c-1.2,0.6-2.4,1.1-3.8,1.5c-1.4,0.4-2.8,0.8-4.3,1.1
			c-0.4,0.1-0.7,0.1-0.8,0c-0.2-0.1-0.3-0.3-0.3-0.5c0-0.5,0.3-0.8,0.8-0.8c1.2-0.2,2.3-0.4,3.5-0.8s2.3-0.8,3.4-1.2
			c-1.1-0.7-2.1-1.6-3.1-2.7c-0.3,0.4-0.6,0.7-0.9,1.1C111.2,86.3,110.9,86.7,110.6,87z M115.8,90.4c0,0.2-0.1,0.4-0.1,0.5
			c0,0.2-0.1,0.3-0.1,0.5h5.8c0.3,0,0.6,0,0.8,0.1s0.4,0.1,0.5,0.2c0.1,0.1,0.2,0.3,0.2,0.5c0,0.2,0.1,0.5,0.1,0.9
			c0,0.4,0.1,0.9,0,1.3c0,0.4-0.1,0.9-0.1,1.3c-0.1,0.6-0.2,1-0.4,1.4c-0.2,0.4-0.4,0.7-0.7,0.9c-0.3,0.2-0.6,0.4-1,0.5
			c-0.4,0.1-0.8,0.1-1.2,0.1c-0.4,0-0.9,0-1.5-0.1c-0.6-0.1-1.4-0.2-2.3-0.5c-0.3,0-0.5-0.2-0.7-0.3c-0.1-0.2-0.1-0.4,0-0.6
			c0.1-0.2,0.2-0.3,0.4-0.4c0.2-0.1,0.4-0.1,0.7,0c0.8,0.2,1.5,0.3,2.2,0.4c0.6,0.1,1.1,0.1,1.5,0.1c0.6,0,1-0.1,1.2-0.4
			c0.2-0.2,0.3-0.6,0.4-1.1c0-0.3,0-0.6,0.1-1c0-0.4,0-0.8,0-1.4c0-0.2-0.1-0.4-0.1-0.4s-0.2-0.1-0.5-0.1h-5.7
			c-0.2,0.8-0.5,1.5-0.8,2.1s-0.7,1.2-1.1,1.7s-1,0.9-1.5,1.3c-0.6,0.4-1.3,0.7-2,0.9c-0.3,0.1-0.6,0.1-0.8,0.1
			c-0.2-0.1-0.3-0.2-0.3-0.5c0-0.2,0-0.4,0.1-0.6c0.1-0.2,0.3-0.3,0.6-0.4c1.1-0.3,2-0.8,2.8-1.5c0.7-0.8,1.3-1.8,1.7-3.1h-3.8
			c-0.2,0-0.4-0.1-0.5-0.2c-0.1-0.1-0.2-0.3-0.2-0.5c0-0.2,0.1-0.4,0.2-0.5c0.1-0.1,0.3-0.2,0.5-0.2h4.1c0-0.2,0.1-0.4,0.1-0.5
			c0-0.2,0-0.4,0.1-0.6c0.1-0.5,0.3-0.8,0.7-0.8C115.6,89.5,115.9,89.8,115.8,90.4z M113.4,84.1c0.5,0.6,1.1,1.2,1.7,1.6
			c0.6,0.5,1.2,0.9,1.9,1.3c0.8-0.4,1.6-0.8,2.2-1.3c0.7-0.4,1.2-0.8,1.6-1.3c0.1-0.1,0.2-0.2,0.2-0.3c0-0.1-0.1-0.1-0.2-0.1H113.4z
			"/>
	</g>
	<rect id="_x3C_切片_x3E__5_" class="st11" width="160" height="110"/>
</g>
</svg>
