<?xml version="1.0" encoding="utf-8"?>
<!-- Generator: Adobe Illustrator 19.0.0, SVG Export Plug-In . SVG Version: 6.00 Build 0)  -->
<svg version="1.1" id="图层_1" xmlns="http://www.w3.org/2000/svg" xmlns:xlink="http://www.w3.org/1999/xlink" x="0px" y="0px"
	 viewBox="0 0 160 220" style="enable-background:new 0 0 160 220;" xml:space="preserve">
<style type="text/css">
	.st0{fill:#FFFFFF;}
	.st1{fill:#81A66E;}
	.st2{opacity:0.102;}
	.st3{fill:#040000;}
	.st4{opacity:0.149;}
	.st5{fill:#E06754;}
	.st6{fill:#EDCD4E;}
	.st7{fill:#82A7D2;}
	.st8{opacity:0.102;fill:#040000;}
	.st9{fill:#323333;}
	.st10{fill:none;}
	.st11{fill:#C1C1C1;}
</style>
<g id="XMLID_2931_">
	<g id="XMLID_2934_">
		<g id="XMLID_5944_">
			<g id="XMLID_5946_">
				<g id="White_Base_33_">
					<g id="XMLID_3635_">
						<path id="XMLID_3636_" class="st0" d="M74.1,131.7H37.7c-1.7,0-3,1.4-3,3v63.6c0,1.7,1.4,3,3,3h36.3c1.7,0,3-1.4,3-3v-63.6
							C77.1,133.1,75.7,131.7,74.1,131.7z M65,125.7c0-1.7-1.4-3-3-3H49.8c-1.7,0-3,1.4-3,3v3H65V125.7z"/>
					</g>
				</g>
				<g id="Green_13_">
					<g id="XMLID_3670_">
						<path id="XMLID_3671_" class="st1" d="M42.3,193.8h27.3v-11.4H42.3V193.8z M42.3,179.4h27.3v-11.4H42.3V179.4z M42.3,153.7
							v11.4h27.3v-11.4H42.3z"/>
					</g>
				</g>
				<g id="Texture_1_33_" class="st2">
					<g id="XMLID_6540_">
						<path id="XMLID_6541_" class="st3" d="M42.3,190.8v1.5h1.5v-1.5H42.3z M45.3,189.3h-1.5v1.5h1.5V189.3z M45.3,190.8v1.5h1.5
							v-1.5H45.3z M48.3,189.3h-1.5v1.5h1.5V189.3z M51.3,190.8v1.5h1.5v-1.5H51.3z M48.3,190.8v1.5h1.5v-1.5H48.3z M51.3,189.3
							h-1.5v1.5h1.5V189.3z M43.8,193.8h1.5v-1.5h-1.5V193.8z M46.8,193.8h1.5v-1.5h-1.5V193.8z M49.8,193.8h1.5v-1.5h-1.5V193.8z
							 M54.4,190.8v1.5h1.5v-1.5H54.4z M57.4,189.3h-1.5v1.5h1.5V189.3z M57.4,190.8v1.5h1.5v-1.5H57.4z M60.4,189.3h-1.5v1.5h1.5
							V189.3z M54.4,189.3h-1.5v1.5h1.5V189.3z M60.4,190.8v1.5h1.5v-1.5H60.4z M63.5,189.3h-1.5v1.5h1.5V189.3z M66.5,192.3H68
							v-1.5h-1.5V192.3z M63.5,190.8v1.5H65v-1.5H63.5z M66.5,189.3H65v1.5h1.5V189.3z M55.9,193.8h1.5v-1.5h-1.5V193.8z
							 M58.9,193.8h1.5v-1.5h-1.5V193.8z M52.9,193.8h1.5v-1.5h-1.5V193.8z M61.9,193.8h1.5v-1.5h-1.5V193.8z M65,193.8h1.5v-1.5H65
							V193.8z M68,190.8h1.5v-1.5H68V190.8z M69.5,193.8v-1.5H68v1.5H69.5z M42.3,162v1.5h1.5V162H42.3z M45.3,160.5h-1.5v1.5h1.5
							V160.5z M45.3,162v1.5h1.5V162H45.3z M48.3,160.5h-1.5v1.5h1.5V160.5z M51.3,162v1.5h1.5V162H51.3z M48.3,162v1.5h1.5V162
							H48.3z M51.3,160.5h-1.5v1.5h1.5V160.5z M43.8,165.1h1.5v-1.5h-1.5V165.1z M46.8,165.1h1.5v-1.5h-1.5V165.1z M49.8,165.1h1.5
							v-1.5h-1.5V165.1z M54.4,162v1.5h1.5V162H54.4z M57.4,160.5h-1.5v1.5h1.5V160.5z M57.4,162v1.5h1.5V162H57.4z M60.4,160.5
							h-1.5v1.5h1.5V160.5z M54.4,160.5h-1.5v1.5h1.5V160.5z M60.4,162v1.5h1.5V162H60.4z M63.5,160.5h-1.5v1.5h1.5V160.5z
							 M66.5,162v1.5H68V162H66.5z M63.5,162v1.5H65V162H63.5z M66.5,160.5H65v1.5h1.5V160.5z M55.9,165.1h1.5v-1.5h-1.5V165.1z
							 M58.9,165.1h1.5v-1.5h-1.5V165.1z M52.9,165.1h1.5v-1.5h-1.5V165.1z M61.9,165.1h1.5v-1.5h-1.5V165.1z M65,165.1h1.5v-1.5H65
							V165.1z M69.5,160.5H68v1.5h1.5V160.5z M69.5,165.1v-1.5H68v1.5H69.5z"/>
					</g>
				</g>
				<g id="Inner_Lines_20_" class="st4">
					<g id="XMLID_3648_">
						<path id="XMLID_3649_" class="st3" d="M37.7,134.8v63.6h36.3v-63.6H37.7z M72.5,196.9H39.2v-60.6h33.3V196.9z"/>
					</g>
				</g>
				<g id="Outline_33_">
					<g id="XMLID_3697_">
						<path id="XMLID_3842_" class="st3" d="M74.1,128.7H68v-3c0-3.3-2.7-6.1-6.1-6.1H49.8c-3.3,0-6.1,2.7-6.1,6.1v3h-6.1
							c-3.3,0-6.1,2.7-6.1,6.1v63.6c0,3.3,2.7,6.1,6.1,6.1h36.3c3.3,0,6.1-2.7,6.1-6.1v-63.6C80.1,131.4,77.4,128.7,74.1,128.7z
							 M46.8,125.7c0-1.7,1.4-3,3-3h12.1c1.7,0,3,1.4,3,3v3H46.8V125.7z M77.1,198.4c0,1.7-1.4,3-3,3H37.7c-1.7,0-3-1.4-3-3v-63.6
							c0-1.7,1.4-3,3-3h36.3c1.7,0,3,1.4,3,3V198.4z"/>
					</g>
				</g>
			</g>
			
				<rect id="XMLID_5945_" x="42.3" y="139.4" transform="matrix(1 -4.821858e-03 4.821858e-03 1 -0.6986 0.2712)" class="st1" width="27.3" height="11.3"/>
		</g>
		<g id="XMLID_5114_">
			<g id="White_Base_8_">
				<g id="XMLID_4281_">
					<path id="XMLID_4282_" class="st0" d="M76.8,149.1h-9.4c-0.7,1.2-2,2.1-3.5,2.1c-1.5,0-2.8-0.8-3.5-2.1h-9.4l-2.5,4.1h30.8
						L76.8,149.1z M54.1,199.8h19.5l1.3-13.7H52.8L54.1,199.8z M51.4,172.4h25.1l1-11H50.3L51.4,172.4z M47.4,155.9v2.7h32.9v-2.7
						H47.4z"/>
				</g>
			</g>
			<g id="Green_3_">
				<g id="XMLID_3478_">
					<polygon id="XMLID_3482_" class="st1" points="51.6,175.1 52.5,183.3 75.2,183.3 76.1,175.1 					"/>
				</g>
			</g>
			<g id="Texture_1_8_" class="st2">
				<g id="XMLID_6722_">
					<path id="XMLID_6723_" class="st3" d="M61.1,178.5v1.4h1.4v-1.4H61.1z M61.1,177.2h-1.4v1.4h1.4V177.2z M66.6,178.5v1.4H68
						v-1.4H66.6z M72.1,177.2h-1.4v1.4h1.4V177.2z M69.4,177.2H68v1.4h1.4V177.2z M63.9,178.5v1.4h1.4v-1.4H63.9z M69.4,178.5v1.4
						h1.4v-1.4H69.4z M63.9,177.2h-1.4v1.4h1.4V177.2z M65.3,181.3h1.4v-1.4h-1.4V181.3z M72.1,178.5v1.4h1.4v-1.4H72.1z
						 M62.5,181.3h1.4v-1.4h-1.4V181.3z M59.8,181.3h1.4v-1.4h-1.4V181.3z M57,181.3h1.4v-1.4H57V181.3z M73.5,181.3h1.4v-1.4h-1.4
						V181.3z M58.4,178.5v1.4h1.4v-1.4H58.4z M70.7,181.3h1.4v-1.4h-1.4V181.3z M68,181.3h1.4v-1.4H68V181.3z M55.7,178.5v1.4H57
						v-1.4H55.7z M54.3,181.3h1.4v-1.4h-1.4V181.3z M58.4,177.2H57v1.4h1.4V177.2z M55.7,177.2h-1.4v1.4h1.4V177.2z M52.9,178.5v1.4
						h1.4v-1.4H52.9z M52.3,181.3h0.6v-1.4h-0.8L52.3,181.3z M51.9,177.2l0.1,1.4h0.9v-1.4H51.9z M66.6,177.2h-1.4v1.4h1.4V177.2z
						 M63.9,162.8v1.4h1.4v-1.4H63.9z M66.6,162.8v1.4H68v-1.4H66.6z M61.1,162.8v1.4h1.4v-1.4H61.1z M66.6,161.4h-1.4v1.4h1.4
						V161.4z M63.9,161.4h-1.4v1.4h1.4V161.4z M58.4,161.4H57v1.4h1.4V161.4z M61.1,161.4h-1.4v1.4h1.4V161.4z M58.4,162.8v1.4h1.4
						v-1.4H58.4z M72.1,162.8v1.4h1.4v-1.4H72.1z M74.8,162.8v1.4h1.4v-1.4H74.8z M77.4,161.4h-1.2v1.4h1.1L77.4,161.4z M74.8,161.4
						h-1.4v1.4h1.4V161.4z M74.8,177.2h-1.4v1.4h1.4V177.2z M69.4,162.8v1.4h1.4v-1.4H69.4z M72.1,161.4h-1.4v1.4h1.4V161.4z
						 M55.7,162.8v1.4H57v-1.4H55.7z M69.4,161.4H68v1.4h1.4V161.4z M62.5,165.5h1.4v-1.4h-1.4V165.5z M65.3,165.5h1.4v-1.4h-1.4
						V165.5z M70.7,165.5h1.4v-1.4h-1.4V165.5z M68,165.5h1.4v-1.4H68V165.5z M73.5,165.5h1.4v-1.4h-1.4V165.5z M74.8,179.9h0.8
						l0.1-1.4h-0.9V179.9z M77,165.5l0.1-1.4h-0.9v1.4H77z M52.9,162.8v1.4h1.4v-1.4H52.9z M52.9,161.4h-1.4v1.4h1.4V161.4z
						 M59.8,165.5h1.4v-1.4h-1.4V165.5z M50.5,162.8l0.1,1.4h0.9v-1.4H50.5z M55.7,161.4h-1.4v1.4h1.4V161.4z M57,165.5h1.4v-1.4H57
						V165.5z M54.3,165.5h1.4v-1.4h-1.4V165.5z M51.5,165.5h1.4v-1.4h-1.4V165.5z"/>
				</g>
			</g>
			<g id="Outline_8_">
				<g id="XMLID_4665_">
					<path id="XMLID_4666_" class="st3" d="M83.1,154.6c0-0.3-0.1-0.6-0.3-0.8l0,0l-4-6.7c0,0-0.1-0.1-0.1-0.1l0,0l0,0
						c-0.3-0.3-0.6-0.6-1.1-0.6H50.2c-0.4,0-0.8,0.2-1.1,0.6l0,0l0,0c0,0-0.1,0.1-0.1,0.1l-4,6.7l0,0c-0.2,0.2-0.3,0.5-0.3,0.8h0
						v5.5h0v0c0,0.8,0.6,1.4,1.4,1.4h1.5l4,39.9l0,0c0.1,0.7,0.6,1.2,1.4,1.2l0,0h21.9c0.7,0,1.3-0.5,1.4-1.2l0,0l4-39.9h1.5l0,0h0
						c0.8,0,1.4-0.6,1.4-1.4v0l0,0V154.6z M73.6,199.8H54.2l-1.4-13.7H75L73.6,199.8z M50.9,149.1h9.4c0.7,1.2,2,2.1,3.5,2.1
						c1.5,0,2.8-0.8,3.5-2.1h9.4l2.5,4.1H48.5L50.9,149.1z M52.5,183.3l-0.8-8.2h24.4l-0.8,8.2H52.5z M51.4,172.4l-1.1-11h27.1
						l-1.1,11H51.4z M47.4,158.7v-2.7h32.9v2.7H47.4z"/>
				</g>
			</g>
		</g>
		<g id="XMLID_4604_">
			<g id="White_Base_20_">
				<g id="XMLID_4054_">
					<path id="XMLID_4055_" class="st0" d="M88.5,173.8c-0.9-1.3-0.6-3.1,0.7-3.9l11.6-8.1c1.3-0.9,3.1-0.6,3.9,0.7l0.8,1.2
						l22.1-15.4l-8.1-11.6c-0.9-1.3-2.7-1.6-3.9-0.7l-55.9,38.9c-1.3,0.9-1.6,2.7-0.7,3.9l8.1,11.6L89.3,175L88.5,173.8z
						 M103.3,165.2l-0.8-1.2l-11.6,8.1l2.3,3.3l0.1,0.1l0.8,1.2l11.6-8.1l-0.8-1.2L103.3,165.2z M141.5,168l-12.2-17.5l-22.1,15.4
						l0.8,1.2c0.9,1.3,0.6,3.1-0.7,3.9l-11.6,8.1c-1.3,0.9-3.1,0.6-3.9-0.7l-0.8-1.2l-22.1,15.4L81,210.1c0.9,1.3,2.7,1.6,3.9,0.7
						l55.9-38.9C142.1,171.1,142.4,169.3,141.5,168z"/>
				</g>
			</g>
			<g id="Red_14_">
				<g id="XMLID_3487_">
					<path id="XMLID_3488_" class="st5" d="M76.8,159.5l-4.9-7l18.6-13l4.9,7l2.3-1.6l-4.9-7c-0.9-1.3-2.7-1.6-3.9-0.7l-18.6,13
						c-1.3,0.9-1.6,2.7-0.7,3.9l4.9,7l11.6-8.1L76.8,159.5z"/>
				</g>
			</g>
			<g id="Blue_14_">
				<g id="XMLID_3498_">
					
						<rect id="XMLID_3499_" x="91.2" y="167.6" transform="matrix(0.8208 -0.5712 0.5712 0.8208 -79.7503 86.6896)" class="st6" width="14.2" height="5.7"/>
				</g>
			</g>
			<g id="Texture_1_20_" class="st2">
				<g id="XMLID_6908_">
					<path id="XMLID_6909_" class="st3" d="M71.3,196.2l1.2-0.8l-0.8-1.2l-1.2,0.8L71.3,196.2z M68.8,192.7l0.8,1.2l1.2-0.8
						l-0.8-1.2L68.8,192.7z M70.8,193l0.8,1.2l1.2-0.8l-0.8-1.2L70.8,193z M73.6,194.6l1.2-0.8l-0.8-1.2l-1.2,0.8L73.6,194.6z
						 M72.3,190.2l-1.2,0.8l0.8,1.2l1.2-0.8L72.3,190.2z M73.1,191.4l0.8,1.2l1.2-0.8l-0.8-1.2L73.1,191.4z M75.9,192.9l1.2-0.8
						l-0.8-1.2l-1.2,0.8L75.9,192.9z M74.7,188.6l-1.2,0.8l0.8,1.2l1.2-0.8L74.7,188.6z M75.5,189.8l0.8,1.2l1.2-0.8l-0.8-1.2
						L75.5,189.8z M78.2,191.3l1.2-0.8l-0.8-1.2l-1.2,0.8L78.2,191.3z M77,187l-1.2,0.8l0.8,1.2l1.2-0.8L77,187z M77.8,188.2
						l0.8,1.2l1.2-0.8l-0.8-1.2L77.8,188.2z M80.6,189.7l1.2-0.8l-0.8-1.2l-1.2,0.8L80.6,189.7z M79.3,185.4l-1.2,0.8l0.8,1.2
						l1.2-0.8L79.3,185.4z M80.1,186.6l0.8,1.2l1.2-0.8l-0.8-1.2L80.1,186.6z M82.9,188.1l1.2-0.8l-0.8-1.2l-1.2,0.8L82.9,188.1z
						 M81.6,183.8l-1.2,0.8l0.8,1.2l1.2-0.8L81.6,183.8z M82.4,184.9l0.8,1.2l1.2-0.8l-0.8-1.2L82.4,184.9z M85.2,186.4l1.2-0.8
						l-0.8-1.2l-1.2,0.8L85.2,186.4z M84,182.1l-1.2,0.8l0.8,1.2l1.2-0.8L84,182.1z M84.8,183.3l0.8,1.2l1.2-0.8l-0.8-1.2
						L84.8,183.3z M87.6,184.8l1.2-0.8l-0.8-1.2l-1.2,0.8L87.6,184.8z M86.3,180.5l-1.2,0.8l0.8,1.2l1.2-0.8L86.3,180.5z
						 M87.1,181.7l0.8,1.2l1.2-0.8l-0.8-1.2L87.1,181.7z M89.9,183.2l1.2-0.8l-0.8-1.2l-1.2,0.8L89.9,183.2z M88.6,178.9l-1.2,0.8
						l0.8,1.2l1.2-0.8L88.6,178.9z M89.4,180.1l0.8,1.2l1.2-0.8l-0.8-1.2L89.4,180.1z M91.4,180.4l0.8,1.2l1.2-0.8l-0.8-1.2
						L91.4,180.4z M90.9,177.3l-1.2,0.8l0.8,1.2l1.2-0.8L90.9,177.3z M108.1,167.1l0.8,1.2l1.2-0.8l-0.8-1.2L108.1,167.1z
						 M110.8,168.6l1.2-0.8l-0.8-1.2l-1.2,0.8L110.8,168.6z M109.6,164.3l-1.2,0.8l0.8,1.2l1.2-0.8L109.6,164.3z M110.4,165.5
						l0.8,1.2l1.2-0.8l-0.8-1.2L110.4,165.5z M113.2,167l1.2-0.8l-0.8-1.2l-1.2,0.8L113.2,167z M111.9,162.7l-1.2,0.8l0.8,1.2
						l1.2-0.8L111.9,162.7z M112.7,163.9l0.8,1.2l1.2-0.8l-0.8-1.2L112.7,163.9z M115.5,165.4l1.2-0.8l-0.8-1.2l-1.2,0.8
						L115.5,165.4z M114.2,161.1l-1.2,0.8l0.8,1.2l1.2-0.8L114.2,161.1z M115,162.2l0.8,1.2l1.2-0.8l-0.8-1.2L115,162.2z
						 M117.8,163.8l1.2-0.8l-0.8-1.2l-1.2,0.8L117.8,163.8z M116.6,159.5l-1.2,0.8l0.8,1.2l1.2-0.8L116.6,159.5z M117.4,160.6
						l0.8,1.2l1.2-0.8l-0.8-1.2L117.4,160.6z M120.2,162.1l1.2-0.8l-0.8-1.2l-1.2,0.8L120.2,162.1z M118.9,157.8l-1.2,0.8l0.8,1.2
						l1.2-0.8L118.9,157.8z M119.7,159l0.8,1.2l1.2-0.8l-0.8-1.2L119.7,159z M122.5,160.5l1.2-0.8l-0.8-1.2l-1.2,0.8L122.5,160.5z
						 M121.2,156.2l-1.2,0.8l0.8,1.2l1.2-0.8L121.2,156.2z M122,157.4l0.8,1.2l1.2-0.8l-0.8-1.2L122,157.4z M124.8,158.9l1.2-0.8
						l-0.8-1.2l-1.2,0.8L124.8,158.9z M123.5,154.6l-1.2,0.8l0.8,1.2l1.2-0.8L123.5,154.6z M124.4,155.8l0.8,1.2l1.2-0.8l-0.8-1.2
						L124.4,155.8z M127.1,157.3l1.2-0.8l-0.8-1.2l-1.2,0.8L127.1,157.3z M125.9,153l-1.2,0.8l0.8,1.2l1.2-0.8L125.9,153z
						 M126.7,154.1l0.8,1.2l1.2-0.8l-0.8-1.2L126.7,154.1z M128.7,154.5l0.8,1.2l1.2-0.8l-0.8-1.2L128.7,154.5z M128.2,151.4
						l-1.2,0.8l0.8,1.2l1.2-0.8L128.2,151.4z M131,152.9l-0.8-1.2l-1.2,0.8l0.8,1.2L131,152.9z"/>
				</g>
			</g>
			<g id="Outline_20_">
				<g id="XMLID_4657_">
					<path id="XMLID_4658_" class="st3" d="M143.8,166.4L122,135c-1.8-2.6-5.3-3.2-7.9-1.4l-14,9.7l-4.9-7c-1.8-2.6-5.3-3.2-7.9-1.4
						l-18.6,13c-2.6,1.8-3.2,5.3-1.4,7.9l4.9,7l-14,9.7c-2.6,1.8-3.2,5.3-1.4,7.9l21.9,31.4c1.8,2.6,5.3,3.2,7.9,1.4l55.9-38.9
						C145,172.5,145.6,169,143.8,166.4z M69.6,154.1c-0.9-1.3-0.6-3.1,0.7-3.9l18.6-13c1.3-0.9,3.1-0.6,3.9,0.7l4.9,7l-2.3,1.6
						l-4.9-7l-18.6,13l4.9,7l-2.3,1.6L69.6,154.1z M93.1,148.1l-14,9.7l-3.2-4.7l14-9.7L93.1,148.1z M59.1,178.7
						c-0.9-1.3-0.6-3.1,0.7-3.9l55.9-38.9c1.3-0.9,3.1-0.6,3.9,0.7l8.1,11.6l-22.1,15.4l-0.8-1.2c-0.9-1.3-2.7-1.6-3.9-0.7
						l-11.6,8.1c-1.3,0.9-1.6,2.7-0.7,3.9l0.8,1.2l-22.1,15.4L59.1,178.7z M105.7,168.7l-11.6,8.1l-3.2-4.7l11.6-8.1L105.7,168.7z
						 M140.8,172l-55.9,38.9c-1.3,0.9-3.1,0.6-3.9-0.7l-12.2-17.5l22.1-15.4l0.8,1.2c0.9,1.3,2.7,1.6,3.9,0.7l11.6-8.1
						c1.3-0.9,1.6-2.7,0.7-3.9l-0.8-1.2l22.1-15.4l12.2,17.5C142.4,169.3,142.1,171.1,140.8,172z"/>
				</g>
			</g>
			<g id="Inner_Lines_13_" class="st4">
				<g id="XMLID_4623_">
					<path id="XMLID_4624_" class="st3" d="M80.2,209l0.8,1.2l4.7-3.2l-0.8-1.2L80.2,209z M80.9,205l-2.3,1.6l0.8,1.2l2.3-1.6
						L80.9,205z M119.6,136.6l-4.7,3.2l0.8,1.2l4.7-3.2L119.6,136.6z M121.3,138.9l-2.3,1.6l0.8,1.2l2.3-1.6L121.3,138.9z"/>
				</g>
			</g>
		</g>
		<g id="XMLID_3702_">
			<g id="White_Base_6_">
				<g id="XMLID_3905_">
					<path id="XMLID_3942_" class="st0" d="M84.1,176.3c-0.4-0.2-0.8-0.4-1.1-0.5c-0.3,0-0.6,0.1-0.8,0.5c-0.7,1.4-1.3,3.8-0.9,6.3
						c0.4,2.8,2,4.9,4.7,6.1c5.3,2.5,7.5-0.8,10.4-6.6L84.1,176.3z M74.7,171.8L62.5,166c-2.8,5.9-3.9,9.7,1.4,12.2
						c2.7,1.3,5.3,1.2,7.7-0.3c2.1-1.3,3.6-3.2,4.3-4.7c0.2-0.4,0.1-0.7-0.1-0.9C75.5,172.2,75.1,172,74.7,171.8z"/>
				</g>
			</g>
			<g id="Blue_5_">
				<g id="XMLID_4289_">
					<path id="XMLID_4290_" class="st7" d="M66.5,171.8c-0.1-0.1-0.2-0.1-0.3,0l-3.5,1.2c-0.1,0-0.2,0.1-0.2,0.2
						c-0.1,0.2,0,0.5,0.2,0.6c0.1,0.1,0.2,0.1,0.3,0l3.5-1.2c0.1,0,0.2-0.1,0.2-0.2C66.8,172.1,66.7,171.9,66.5,171.8z M63.2,171.7
						c0.1,0.1,0.2,0.1,0.3,0l1.2-0.4c0.1,0,0.2-0.1,0.2-0.2c0.1-0.2,0-0.5-0.2-0.6c-0.1-0.1-0.2-0.1-0.3,0l-1.2,0.4
						c-0.1,0-0.2,0.1-0.2,0.2C62.9,171.3,63,171.6,63.2,171.7z M87,181.5c-0.1-0.1-0.2-0.1-0.3,0l-3.5,1.2c-0.1,0-0.2,0.1-0.2,0.2
						c-0.1,0.2,0,0.5,0.2,0.6c0.1,0.1,0.2,0.1,0.3,0l3.5-1.2c0.1,0,0.2-0.1,0.2-0.2C87.3,181.8,87.2,181.6,87,181.5z M83.7,181.4
						c0.1,0.1,0.2,0.1,0.3,0l1.2-0.4c0.1,0,0.2-0.1,0.2-0.2c0.1-0.2,0-0.5-0.2-0.6c-0.1-0.1-0.2-0.1-0.3,0l-1.2,0.4
						c-0.1,0-0.2,0.1-0.2,0.2C83.4,181,83.4,181.3,83.7,181.4z"/>
				</g>
			</g>
			<g id="Texture_1_6_" class="st2">
				<g id="XMLID_6735_">
					<path id="XMLID_6736_" class="st3" d="M71.2,170.1l-0.8-0.4l-0.4,0.8l0.8,0.4L71.2,170.1z M72.4,173.6l0.8,0.4l0.4-0.8
						l-0.8-0.4L72.4,173.6z M70.8,170.9l-0.4,0.8l0.8,0.4l0.4-0.8L70.8,170.9z M69.2,170.2l-0.4,0.8l0.8,0.4l0.4-0.8L69.2,170.2z
						 M61.5,168.4l0.7,0.3l0.4-0.8l-0.8-0.4C61.7,167.9,61.6,168.2,61.5,168.4z M62.5,166c-0.1,0.3-0.2,0.5-0.4,0.8l0.8,0.4l0.4-0.8
						L62.5,166z M74.3,171.6l-0.8-0.4l-0.4,0.8l0.8,0.4L74.3,171.6z M72.4,171.7l-0.4,0.8l0.8,0.4l0.4-0.8L72.4,171.7z M74,174.4
						l0.8,0.4l0.4-0.8l-0.8-0.4L74,174.4z M72.7,170.9l-0.8-0.4l-0.4,0.8l0.8,0.4L72.7,170.9z M69.6,169.4l-0.8-0.4l-0.4,0.8
						l0.8,0.4L69.6,169.4z M66.1,168.7l-0.4,0.8l0.8,0.4l0.4-0.8L66.1,168.7z M66.1,170.6l0.8,0.4l0.4-0.8l-0.8-0.4L66.1,170.6z
						 M64.5,167.9l-0.4,0.8l0.8,0.4l0.4-0.8L64.5,167.9z M62.9,167.2l-0.4,0.8l0.8,0.4l0.4-0.8L62.9,167.2z M67.6,169.4l-0.4,0.8
						l0.8,0.4l0.4-0.8L67.6,169.4z M66.4,167.9l-0.8-0.4l-0.4,0.8l0.8,0.4L66.4,167.9z M64.5,169.9l0.8,0.4l0.4-0.8l-0.8-0.4
						L64.5,169.9z M68,168.6l-0.8-0.4l-0.4,0.8l0.8,0.4L68,168.6z M67.7,171.4l0.8,0.4l0.4-0.8l-0.8-0.4L67.7,171.4z M70.8,172.9
						l0.8,0.4l0.4-0.8l-0.8-0.4L70.8,172.9z M64.9,167.1l-0.8-0.4l-0.4,0.8l0.8,0.4L64.9,167.1z M63,169.1l0.8,0.4l0.4-0.8l-0.8-0.4
						L63,169.1z M69.3,172.1l0.8,0.4l0.4-0.8l-0.8-0.4L69.3,172.1z M88.1,179.1l-0.4,0.8l0.8,0.4l0.4-0.8L88.1,179.1z M88.5,178.3
						l-0.8-0.4l-0.4,0.8l0.8,0.4L88.5,178.3z M90,179.1l-0.8-0.4l-0.4,0.8l0.8,0.4L90,179.1z M89.7,179.9l-0.4,0.8l0.8,0.4l0.4-0.8
						L89.7,179.9z M84.9,177.6l-0.4,0.8l0.8,0.4l0.4-0.8L84.9,177.6z M86.5,178.4l-0.4,0.8l0.8,0.4l0.4-0.8L86.5,178.4z M86.9,177.6
						l-0.8-0.4l-0.4,0.8l0.8,0.4L86.9,177.6z M91.2,180.6l-0.4,0.8l0.8,0.4L92,181L91.2,180.6z M91.6,179.8l-0.8-0.4l-0.4,0.8
						l0.8,0.4L91.6,179.8z M73.9,172.4l-0.4,0.8l0.8,0.4l0.4-0.8L73.9,172.4z M96.3,182.1l-0.8-0.4l-0.4,0.8l0.8,0.4
						C96.1,182.6,96.2,182.3,96.3,182.1z M94.4,182.1l-0.4,0.8l0.8,0.4l0.4-0.8L94.4,182.1z M85.3,176.8l-0.8-0.4l-0.4,0.8l0.8,0.4
						L85.3,176.8z M93.2,180.6l-0.8-0.4L92,181l0.8,0.4L93.2,180.6z M92.8,181.4l-0.4,0.8l0.8,0.4l0.4-0.8L92.8,181.4z M94.8,181.3
						l-0.8-0.4l-0.4,0.8l0.8,0.4L94.8,181.3z M91.3,182.6l0.8,0.4l0.4-0.8l-0.8-0.4L91.3,182.6z M92.9,183.3l0.8,0.4l0.4-0.8
						l-0.8-0.4L92.9,183.3z M88.1,181.1l0.8,0.4l0.4-0.8l-0.8-0.4L88.1,181.1z M89.7,181.8l0.8,0.4l0.4-0.8l-0.8-0.4L89.7,181.8z
						 M75.8,172.5C75.8,172.4,75.8,172.4,75.8,172.5c-0.2-0.2-0.5-0.3-0.8-0.4l-0.4,0.8l0.8,0.4L75.8,172.5z M95.1,184.4
						c0.1-0.3,0.3-0.5,0.4-0.8l-0.8-0.4l-0.4,0.8L95.1,184.4z M75.1,173.9l0.4,0.2c0.2-0.3,0.3-0.5,0.4-0.8l-0.4-0.2L75.1,173.9z
						 M83.4,178.8l0.8,0.4l0.4-0.8l-0.8-0.4L83.4,178.8z M82.2,176.3c-0.1,0.2-0.2,0.5-0.3,0.8l0.4,0.2l0.4-0.8L82.2,176.3z
						 M81.8,178.1l0.8,0.4l0.4-0.8l-0.8-0.4L81.8,178.1z M83.7,176.1c-0.3-0.1-0.5-0.2-0.7-0.3c0,0-0.1,0-0.1,0l-0.3,0.7l0.8,0.4
						L83.7,176.1z M86.6,180.3l0.8,0.4l0.4-0.8l-0.8-0.4L86.6,180.3z M85,179.6l0.8,0.4l0.4-0.8l-0.8-0.4L85,179.6z M83.4,176.9
						l-0.4,0.8l0.8,0.4l0.4-0.8L83.4,176.9z"/>
				</g>
			</g>
			<g id="Outline_6_">
				<g id="XMLID_4069_">
					<path id="XMLID_4070_" class="st3" d="M98.7,181.2l-13.8-6.5l0,0l0,0l-0.8-0.4c-0.2-0.1-0.4-0.1-0.6-0.2
						c-0.8-0.3-1.4-0.3-1.9-0.4c-0.6-0.1-1-0.1-1.8-0.5s-1.1-0.7-1.5-1.1c-0.4-0.4-0.8-0.8-1.5-1.2c-0.2-0.1-0.4-0.3-0.5-0.3
						l-14.6-6.9l0,0c-0.9-0.4-1.9,0-2.3,0.8c-0.4,0.9,0,1.9,0.8,2.3c0,0,0,0,0,0c-2.2,4.9-3.4,9.9,3,13c6.9,3.3,12.4-1.8,14.3-5.8
						c0-0.1,0-0.1,0.1-0.2c0.4,0.3,0.8,0.6,1.5,1s1.2,0.5,1.7,0.5c0,0.1-0.1,0.1-0.1,0.2c-1.9,4-2.3,11.4,4.6,14.7
						c6.4,3,9.5-1.2,11.9-5.9c0,0,0,0,0,0c0.9,0.4,1.9,0,2.3-0.8C99.9,182.7,99.5,181.6,98.7,181.2z M75.9,173.3
						c-0.7,1.4-2.2,3.4-4.3,4.7c-2.4,1.4-5,1.5-7.7,0.3c-5.3-2.5-4.2-6.3-1.4-12.2l12.2,5.8l0,0c0.4,0.2,0.8,0.4,1.1,0.6
						C76,172.6,76.1,172.9,75.9,173.3z M86,188.7c-2.7-1.3-4.2-3.3-4.7-6.1c-0.4-2.4,0.2-4.8,0.9-6.3c0.2-0.4,0.5-0.5,0.8-0.5
						c0.3,0.1,0.7,0.3,1.1,0.5l12.2,5.8C93.5,187.9,91.2,191.2,86,188.7z"/>
				</g>
			</g>
		</g>
		<g id="XMLID_3359_">
			<g id="White_Base_21_">
				<g id="XMLID_4853_">
					<path id="XMLID_4854_" class="st0" d="M39.5,169l-7.1-8l-9.6,8.6l7.1,8L39.5,169z M33.6,165.7l2.1,2.4l-2.4,2.1l-2.1-2.4
						L33.6,165.7z M27.2,171.4l2.4-2.1l2.1,2.4l-2.4,2.1L27.2,171.4z M43.3,168.5l-14.4,12.9l7.1,8l14.4-12.9L43.3,168.5z
						 M65.5,193.3l-13.6-15.2L37.5,191l13.6,15.2c3.6,4,9.7,4.3,13.6,0.8C68.7,203.4,69,197.3,65.5,193.3z M61.1,203
						c-1.8,1.6-4.5,1.4-6.1-0.3c-1.6-1.8-1.4-4.5,0.3-6.1c1.8-1.6,4.5-1.4,6.1,0.3S62.9,201.4,61.1,203z M56.8,198.2
						c-0.9,0.8-1,2.1-0.2,3c0.8,0.9,2.1,1,3,0.2s1-2.1,0.2-3S57.7,197.4,56.8,198.2z"/>
				</g>
			</g>
			<g id="Yellow_10_">
				<g id="XMLID_3613_">
					<circle id="XMLID_3617_" class="st6" cx="58.3" cy="199.8" r="2.1"/>
				</g>
			</g>
			<g id="Blue_15_">
				<g id="XMLID_3505_">
					
						<rect id="XMLID_3534_" x="30" y="173.6" transform="matrix(0.7463 -0.6656 0.6656 0.7463 -109.0288 71.8125)" class="st7" width="19.3" height="10.7"/>
				</g>
			</g>
			<g id="Texture_1_21_" class="st2">
				<g id="XMLID_6352_">
					<path id="XMLID_6353_" class="st3" d="M38.8,168.2l-0.7-0.8l-0.8,0.7L38,169L38.8,168.2z M36.6,167.4l-0.8,0.7l0.7,0.8l0.8-0.7
						L36.6,167.4z M37.9,170.5l0.8-0.7L38,169l-0.8,0.7L37.9,170.5z M37.2,169.7l-0.7-0.8l-0.8,0.7l0.7,0.8L37.2,169.7z M35,168.8
						l-0.8,0.7l0.7,0.8l0.8-0.7L35,168.8z M36.3,171.9l0.8-0.7l-0.7-0.8l-0.8,0.7L36.3,171.9z M35.6,171.1l-0.7-0.8l-0.8,0.7
						l0.7,0.8L35.6,171.1z M33.4,170.2l-0.8,0.7l0.7,0.8l0.8-0.7L33.4,170.2z M34.7,173.3l0.8-0.7l-0.7-0.8l-0.8,0.7L34.7,173.3z
						 M34,172.5l-0.7-0.8l-0.8,0.7l0.7,0.8L34,172.5z M31.7,171.6l-0.8,0.7l0.7,0.8l0.8-0.7L31.7,171.6z M32.4,174l0.7,0.8l0.8-0.7
						l-0.7-0.8L32.4,174z M30.9,173.9l0.7,0.8l0.8-0.7l-0.7-0.8L30.9,173.9z M30.1,173.1l-0.8,0.7l0.7,0.8l0.8-0.7L30.1,173.1z
						 M31.5,176.2l0.8-0.7l-0.7-0.8l-0.8,0.7L31.5,176.2z M29.3,175.3l0.7,0.8l0.8-0.7l-0.7-0.8L29.3,175.3z M27.7,175.2l0.7,0.8
						l0.8-0.7l-0.7-0.8L27.7,175.2z M29.9,177.6l0.8-0.7l-0.7-0.8l-0.8,0.7L29.9,177.6z M42.7,179.1l-0.8,0.7l0.7,0.8l0.8-0.7
						L42.7,179.1z M44.1,182.2l0.8-0.7l-0.7-0.8l-0.8,0.7L44.1,182.2z M41.8,181.3l0.7,0.8l0.8-0.7l-0.7-0.8L41.8,181.3z
						 M41.1,180.5l-0.8,0.7l0.7,0.8l0.8-0.7L41.1,180.5z M42.5,183.7l0.8-0.7l-0.7-0.8l-0.8,0.7L42.5,183.7z M40.2,182.8l0.7,0.8
						l0.8-0.7l-0.7-0.8L40.2,182.8z M39.5,182l-0.8,0.7l0.7,0.8l0.8-0.7L39.5,182z M40.9,185.1l0.8-0.7l-0.7-0.8l-0.8,0.7
						L40.9,185.1z M38.6,184.2l0.7,0.8l0.8-0.7l-0.7-0.8L38.6,184.2z M37.9,183.4l-0.8,0.7l0.7,0.8l0.8-0.7L37.9,183.4z M39.3,186.5
						l0.8-0.7l-0.7-0.8l-0.8,0.7L39.3,186.5z M37,185.6l0.7,0.8l0.8-0.7l-0.7-0.8L37,185.6z M36.3,184.8l-0.8,0.7l0.7,0.8l0.8-0.7
						L36.3,184.8z M37.7,187.9l0.8-0.7l-0.7-0.8l-0.8,0.7L37.7,187.9z M35.4,187.1l0.7,0.8l0.8-0.7l-0.7-0.8L35.4,187.1z M33.9,187
						l0.7,0.8l0.8-0.7l-0.7-0.8L33.9,187z M36.1,189.4l0.8-0.7l-0.7-0.8l-0.8,0.7L36.1,189.4z M49.8,175.7l-0.7-0.8l-0.8,0.7
						l0.7,0.8L49.8,175.7z M47.5,174.8l-0.8,0.7l0.7,0.8l0.8-0.7L47.5,174.8z M48.2,177.1l0.7,0.8l0.8-0.7l-0.7-0.8L48.2,177.1z
						 M46.6,177.1l0.7,0.8l0.8-0.7l-0.7-0.8L46.6,177.1z M45.9,176.3l-0.8,0.7l0.7,0.8l0.8-0.7L45.9,176.3z M47.3,179.4l0.8-0.7
						l-0.7-0.8l-0.8,0.7L47.3,179.4z M45,178.5l0.7,0.8l0.8-0.7l-0.7-0.8L45,178.5z M45,178.5l-0.7-0.8l-0.8,0.7l0.7,0.8l-0.8,0.7
						l0.7,0.8L45,180l-0.7-0.8L45,178.5z M45.7,180.8l0.8-0.7l-0.7-0.8L45,180L45.7,180.8z"/>
				</g>
			</g>
			<g id="Outline_21_">
				<g id="XMLID_4701_">
					<path id="XMLID_4815_" class="st3" d="M29.6,169.2l-2.4,2.1l2.1,2.4l2.4-2.1L29.6,169.2z M35.8,168.1l-2.1-2.4l-2.4,2.1
						l2.1,2.4L35.8,168.1z M67.1,191.9l-22.2-24.8c-0.8-0.9-2.1-1-3-0.2l-0.8,0.7l-7.1-8c-0.8-0.9-2.1-1-3-0.2l-9.6,8.6
						c-0.9,0.8-1,2.1-0.2,3l7.1,8l-0.8,0.7c-0.9,0.8-1,2.1-0.2,3l22.2,24.8c4.3,4.9,11.8,5.3,16.7,1C71,204.2,71.4,196.8,67.1,191.9
						z M22.7,169.6l9.6-8.6l7.1,8l-9.6,8.6L22.7,169.6z M64.7,207c-4,3.6-10.1,3.2-13.6-0.8l-22.2-24.8l7.2-6.4l4.8-4.3v0l2.4-2.1
						l7.1,8l-14.4,12.9l1.4,1.6l14.4-12.9l13.6,15.2C69,197.3,68.7,203.4,64.7,207z M55.4,196.6c-1.8,1.6-1.9,4.3-0.3,6.1
						c1.6,1.8,4.3,1.9,6.1,0.3c1.8-1.6,1.9-4.3,0.3-6.1S57.2,195,55.4,196.6z M59.7,201.4c-0.9,0.8-2.2,0.7-3-0.2
						c-0.8-0.9-0.7-2.2,0.2-3s2.2-0.7,3,0.2S60.6,200.6,59.7,201.4z"/>
				</g>
			</g>
		</g>
		<g id="XMLID_3358_">
			<path id="XMLID_3643_" class="st0" d="M25,218.5c-1.9,0-3.5-1.6-3.5-3.5v-30c0-1.9,1.6-3.5,3.5-3.5h110c1.9,0,3.5,1.6,3.5,3.5v30
				c0,1.9-1.6,3.5-3.5,3.5H25z"/>
			<path id="XMLID_3562_" class="st3" d="M135,183c1.1,0,2,0.9,2,2v30c0,1.1-0.9,2-2,2H25c-1.1,0-2-0.9-2-2v-30c0-1.1,0.9-2,2-2H135
				 M135,180H25c-2.8,0-5,2.2-5,5v30c0,2.8,2.2,5,5,5h110c2.8,0,5-2.2,5-5v-30C140,182.2,137.8,180,135,180L135,180z"/>
		</g>
		<g id="XMLID_3287_">
			<g id="XMLID_3344_">
				<g id="XMLID_3349_">
					<rect id="XMLID_3357_" x="23" y="182.2" class="st8" width="2" height="2"/>
					<rect id="XMLID_3356_" x="27" y="182.2" class="st8" width="2" height="2"/>
					<rect id="XMLID_3355_" x="21" y="184.2" class="st8" width="2" height="2"/>
					<rect id="XMLID_3350_" x="25" y="184.2" class="st8" width="2" height="2"/>
				</g>
			</g>
			<g id="XMLID_3338_">
				<g id="XMLID_3339_">
					<rect id="XMLID_3343_" x="23" y="186.2" class="st8" width="2" height="2"/>
					<rect id="XMLID_3342_" x="27" y="186.2" class="st8" width="2" height="2"/>
					<rect id="XMLID_3341_" x="21" y="188.2" class="st8" width="2" height="2"/>
					<rect id="XMLID_3340_" x="25" y="188.2" class="st8" width="2" height="2"/>
				</g>
			</g>
			<g id="XMLID_3332_">
				<g id="XMLID_3333_">
					<rect id="XMLID_3337_" x="23" y="190.2" class="st8" width="2" height="2"/>
					<rect id="XMLID_3336_" x="27" y="190.2" class="st8" width="2" height="2"/>
					<rect id="XMLID_3335_" x="21" y="192.2" class="st8" width="2" height="2"/>
					<rect id="XMLID_3334_" x="25" y="192.2" class="st8" width="2" height="2"/>
				</g>
			</g>
			<g id="XMLID_3320_">
				<g id="XMLID_3321_">
					<rect id="XMLID_3331_" x="23" y="194.2" class="st8" width="2" height="2"/>
					<rect id="XMLID_3330_" x="27" y="194.2" class="st8" width="2" height="2"/>
					<rect id="XMLID_3329_" x="21" y="196.2" class="st8" width="2" height="2"/>
					<rect id="XMLID_3328_" x="25" y="196.2" class="st8" width="2" height="2"/>
				</g>
			</g>
			<g id="XMLID_3314_">
				<g id="XMLID_3315_">
					<rect id="XMLID_3319_" x="23" y="198.2" class="st8" width="2" height="2"/>
					<rect id="XMLID_3318_" x="27" y="198.2" class="st8" width="2" height="2"/>
					<rect id="XMLID_3317_" x="21" y="200.2" class="st8" width="2" height="2"/>
					<rect id="XMLID_3316_" x="25" y="200.2" class="st8" width="2" height="2"/>
				</g>
			</g>
			<g id="XMLID_3308_">
				<g id="XMLID_3309_">
					<rect id="XMLID_3313_" x="23" y="202.2" class="st8" width="2" height="2"/>
					<rect id="XMLID_3312_" x="27" y="202.2" class="st8" width="2" height="2"/>
					<rect id="XMLID_3311_" x="21" y="204.2" class="st8" width="2" height="2"/>
					<rect id="XMLID_3310_" x="25" y="204.2" class="st8" width="2" height="2"/>
				</g>
			</g>
			<g id="XMLID_3302_">
				<g id="XMLID_3303_">
					<rect id="XMLID_3307_" x="23" y="206.2" class="st8" width="2" height="2"/>
					<rect id="XMLID_3306_" x="27" y="206.2" class="st8" width="2" height="2"/>
					<rect id="XMLID_3305_" x="21" y="208.2" class="st8" width="2" height="2"/>
					<rect id="XMLID_3304_" x="25" y="208.2" class="st8" width="2" height="2"/>
				</g>
			</g>
			<g id="XMLID_3296_">
				<g id="XMLID_3297_">
					<rect id="XMLID_3301_" x="23" y="210.2" class="st8" width="2" height="2"/>
					<rect id="XMLID_3300_" x="27" y="210.2" class="st8" width="2" height="2"/>
					<rect id="XMLID_3299_" x="21" y="212.2" class="st8" width="2" height="2"/>
					<rect id="XMLID_3298_" x="25" y="212.2" class="st8" width="2" height="2"/>
				</g>
			</g>
			<g id="XMLID_3288_">
				<g id="XMLID_3289_">
					<rect id="XMLID_3293_" x="23" y="214.2" class="st8" width="2" height="2"/>
					<rect id="XMLID_3292_" x="27" y="214.2" class="st8" width="2" height="2"/>
					<rect id="XMLID_3291_" x="21" y="216.2" class="st8" width="2" height="2"/>
					<rect id="XMLID_3290_" x="25" y="216.2" class="st8" width="2" height="2"/>
				</g>
			</g>
		</g>
		<g id="XMLID_2936_">
			<g id="XMLID_3278_">
				<g id="XMLID_3279_">
					<rect id="XMLID_3286_" x="133.1" y="182.2" class="st8" width="2" height="2"/>
					<rect id="XMLID_3285_" x="137.1" y="182.2" class="st8" width="2" height="2"/>
					<rect id="XMLID_3284_" x="131.1" y="184.2" class="st8" width="2" height="2"/>
					<rect id="XMLID_3283_" x="135.1" y="184.2" class="st8" width="2" height="2"/>
				</g>
			</g>
			<g id="XMLID_3171_">
				<g id="XMLID_3172_">
					<rect id="XMLID_3277_" x="133.1" y="186.2" class="st8" width="2" height="2"/>
					<rect id="XMLID_3276_" x="137.1" y="186.2" class="st8" width="2" height="2"/>
					<rect id="XMLID_3179_" x="131.1" y="188.2" class="st8" width="2" height="2"/>
					<rect id="XMLID_3173_" x="135.1" y="188.2" class="st8" width="2" height="2"/>
				</g>
			</g>
			<g id="XMLID_3165_">
				<g id="XMLID_3166_">
					<rect id="XMLID_3170_" x="133.1" y="190.2" class="st8" width="2" height="2"/>
					<rect id="XMLID_3169_" x="137.1" y="190.2" class="st8" width="2" height="2"/>
					<rect id="XMLID_3168_" x="131.1" y="192.2" class="st8" width="2" height="2"/>
					<rect id="XMLID_3167_" x="135.1" y="192.2" class="st8" width="2" height="2"/>
				</g>
			</g>
			<g id="XMLID_3157_">
				<g id="XMLID_3158_">
					<rect id="XMLID_3164_" x="133.1" y="194.2" class="st8" width="2" height="2"/>
					<rect id="XMLID_3163_" x="137.1" y="194.2" class="st8" width="2" height="2"/>
					<rect id="XMLID_3162_" x="131.1" y="196.2" class="st8" width="2" height="2"/>
					<rect id="XMLID_3159_" x="135.1" y="196.2" class="st8" width="2" height="2"/>
				</g>
			</g>
			<g id="XMLID_3151_">
				<g id="XMLID_3152_">
					<rect id="XMLID_3156_" x="133.1" y="198.2" class="st8" width="2" height="2"/>
					<rect id="XMLID_3155_" x="137.1" y="198.2" class="st8" width="2" height="2"/>
					<rect id="XMLID_3154_" x="131.1" y="200.2" class="st8" width="2" height="2"/>
					<rect id="XMLID_3153_" x="135.1" y="200.2" class="st8" width="2" height="2"/>
				</g>
			</g>
			<g id="XMLID_2987_">
				<g id="XMLID_2988_">
					<rect id="XMLID_3150_" x="133.1" y="202.2" class="st8" width="2" height="2"/>
					<rect id="XMLID_2996_" x="137.1" y="202.2" class="st8" width="2" height="2"/>
					<rect id="XMLID_2990_" x="131.1" y="204.2" class="st8" width="2" height="2"/>
					<rect id="XMLID_2989_" x="135.1" y="204.2" class="st8" width="2" height="2"/>
				</g>
			</g>
			<g id="XMLID_2968_">
				<g id="XMLID_2969_">
					<rect id="XMLID_2986_" x="133.1" y="206.2" class="st8" width="2" height="2"/>
					<rect id="XMLID_2985_" x="137.1" y="206.2" class="st8" width="2" height="2"/>
					<rect id="XMLID_2984_" x="131.1" y="208.2" class="st8" width="2" height="2"/>
					<rect id="XMLID_2970_" x="135.1" y="208.2" class="st8" width="2" height="2"/>
				</g>
			</g>
			<g id="XMLID_2953_">
				<g id="XMLID_2954_">
					<rect id="XMLID_2967_" x="133.1" y="210.2" class="st8" width="2" height="2"/>
					<rect id="XMLID_2962_" x="137.1" y="210.2" class="st8" width="2" height="2"/>
					<rect id="XMLID_2960_" x="131.1" y="212.2" class="st8" width="2" height="2"/>
					<rect id="XMLID_2955_" x="135.1" y="212.2" class="st8" width="2" height="2"/>
				</g>
			</g>
			<g id="XMLID_2947_">
				<g id="XMLID_2948_">
					<rect id="XMLID_2952_" x="133.1" y="214.2" class="st8" width="2" height="2"/>
					<rect id="XMLID_2951_" x="137.1" y="214.2" class="st8" width="2" height="2"/>
					<rect id="XMLID_2950_" x="131.1" y="216.2" class="st8" width="2" height="2"/>
					<rect id="XMLID_2949_" x="135.1" y="216.2" class="st8" width="2" height="2"/>
				</g>
			</g>
		</g>
		<g id="XMLID_14_">
			<path id="XMLID_15_" class="st9" d="M45.5,207.5c0.8-0.4,1.6-0.8,2.2-1.2c0.7-0.4,1.2-0.8,1.7-1.3s0.9-1,1.3-1.5
				c0.4-0.5,0.7-1.1,0.9-1.8h-6.1c-0.3,0-0.5-0.1-0.6-0.2c-0.1-0.1-0.2-0.3-0.2-0.5s0.1-0.4,0.2-0.5c0.1-0.1,0.3-0.2,0.6-0.2h6.5
				c0.2-1,0.4-2.3,0.4-3.7h-6c-0.3,0-0.5-0.1-0.6-0.2c-0.1-0.1-0.2-0.3-0.2-0.5s0.1-0.4,0.2-0.5c0.1-0.1,0.3-0.2,0.6-0.2h2.7
				c-0.3-0.8-0.7-1.5-1.1-2.2c-0.2-0.3-0.3-0.5-0.3-0.7c0-0.2,0.1-0.4,0.3-0.5c0.4-0.3,0.8-0.2,1.1,0.3c0.3,0.4,0.5,0.9,0.8,1.3
				c0.2,0.5,0.5,1,0.7,1.7h5c0.3-0.6,0.6-1.1,0.8-1.6c0.2-0.5,0.4-0.9,0.5-1.4c0.1-0.2,0.2-0.4,0.4-0.5c0.2-0.1,0.4-0.1,0.6,0
				c0.3,0.1,0.4,0.2,0.5,0.4c0.1,0.2,0,0.4-0.1,0.7c-0.1,0.3-0.2,0.7-0.5,1.1c-0.2,0.4-0.4,0.9-0.7,1.3h3.1c0.3,0,0.5,0.1,0.6,0.2
				c0.1,0.1,0.2,0.3,0.2,0.5s-0.1,0.4-0.2,0.5c-0.1,0.1-0.3,0.2-0.6,0.2H54c0,1.4-0.1,2.6-0.3,3.7H61c0.3,0,0.5,0.1,0.6,0.2
				c0.1,0.1,0.2,0.3,0.2,0.5s-0.1,0.4-0.2,0.5c-0.1,0.1-0.3,0.2-0.6,0.2h-6.6c0.8,1.4,1.8,2.5,2.9,3.5c1.1,0.9,2.3,1.6,3.6,2.1
				c0.4,0.1,0.7,0.3,0.7,0.5s0.1,0.4,0,0.6c-0.1,0.3-0.2,0.4-0.4,0.5c-0.2,0-0.4,0-0.8-0.2c-1.5-0.6-2.8-1.4-4-2.5
				c-1.2-1.1-2.3-2.4-3.2-4c-0.3,0.7-0.6,1.4-1,2c-0.4,0.6-0.9,1.2-1.4,1.7c-0.6,0.5-1.2,1-2,1.5c-0.8,0.5-1.6,0.9-2.6,1.4
				c-0.3,0.1-0.6,0.2-0.8,0.2c-0.2,0-0.4-0.2-0.5-0.5c-0.1-0.3-0.1-0.5,0-0.6C45,207.8,45.2,207.6,45.5,207.5z"/>
			<path id="XMLID_17_" class="st9" d="M64.5,194.5c-0.3,0-0.4-0.1-0.5-0.2c-0.1-0.1-0.1-0.3-0.1-0.5c0-0.2,0-0.4,0.1-0.5
				c0.1-0.1,0.2-0.2,0.5-0.2h13.7c0.3,0,0.5,0.1,0.5,0.2s0.1,0.3,0.1,0.5c0,0.2,0,0.4-0.1,0.5c-0.1,0.1-0.3,0.2-0.5,0.2h-5.7v5.1
				h6.7c0.3,0,0.5,0.1,0.5,0.2c0.1,0.1,0.1,0.3,0.1,0.5s0,0.4-0.1,0.5c-0.1,0.1-0.3,0.2-0.5,0.2h-6.7v5.7c0,0.6-0.2,1.1-0.5,1.5
				c-0.4,0.3-0.9,0.5-1.7,0.5c-0.4,0-0.9-0.1-1.5-0.2c-0.6-0.1-1.3-0.3-2.1-0.5c-0.4-0.1-0.6-0.3-0.7-0.4c-0.1-0.2-0.1-0.3-0.1-0.5
				c0.1-0.2,0.2-0.4,0.4-0.5c0.2-0.1,0.4-0.1,0.8,0c0.7,0.2,1.4,0.4,1.9,0.5s0.9,0.2,1.3,0.2c0.3,0,0.6-0.1,0.7-0.2s0.2-0.3,0.2-0.6
				v-5.5h-7.7c-0.3,0-0.4-0.1-0.5-0.2c-0.1-0.1-0.1-0.3-0.1-0.5s0-0.4,0.1-0.5c0.1-0.1,0.2-0.2,0.5-0.2h7.7v-5.1H64.5z"/>
			<path id="XMLID_19_" class="st9" d="M90.3,192.7c0-0.4,0-0.6,0.1-0.7c0.1-0.1,0.3-0.1,0.6-0.1c0.3,0,0.5,0.1,0.6,0.2
				s0.2,0.4,0.2,0.7c0,0.7,0,1.4,0.1,2.2s0.1,1.5,0.2,2.3h5.5c0.3,0,0.4,0.1,0.5,0.2s0.1,0.3,0.1,0.5c0,0.2,0,0.4-0.1,0.5
				s-0.2,0.2-0.5,0.2h-5.3c0.1,0.7,0.2,1.3,0.4,2c0.2,0.6,0.4,1.2,0.6,1.8c0.3-0.5,0.6-1,0.8-1.4c0.2-0.5,0.4-1,0.6-1.5
				c0.1-0.3,0.2-0.4,0.4-0.6s0.4-0.2,0.6-0.1c0.3,0.1,0.4,0.2,0.5,0.4c0,0.2,0,0.4-0.1,0.7c-0.3,0.8-0.6,1.5-0.9,2.1
				c-0.3,0.6-0.7,1.3-1.3,2c0.3,0.6,0.6,1.2,0.9,1.8c0.3,0.6,0.7,1,1,1.4c0.1,0.1,0.2,0.1,0.3,0.1c0.1,0,0.2-0.2,0.3-0.5
				c0-0.1,0.1-0.2,0.1-0.4s0.1-0.3,0.1-0.5s0.1-0.3,0.1-0.5c0-0.2,0.1-0.3,0.1-0.5c0-0.3,0.1-0.5,0.2-0.6c0.1-0.1,0.3-0.1,0.6-0.1
				c0.4,0.1,0.6,0.3,0.6,0.7c0,0.2,0,0.5-0.1,0.8s-0.1,0.7-0.2,1.1c-0.1,0.4-0.2,0.7-0.3,1c-0.1,0.3-0.2,0.5-0.3,0.6
				c-0.3,0.4-0.7,0.6-1.1,0.6c-0.3,0-0.6-0.1-0.9-0.4c-0.4-0.4-0.8-1-1.2-1.5c-0.4-0.6-0.8-1.2-1.1-2c-0.5,0.5-1.1,1-1.8,1.5
				c-0.7,0.5-1.4,0.9-2.1,1.3c-0.3,0.2-0.6,0.2-0.8,0.2c-0.2,0-0.3-0.1-0.4-0.2c-0.2-0.3-0.2-0.5-0.2-0.7c0.1-0.2,0.2-0.3,0.5-0.5
				c0.9-0.4,1.7-0.9,2.3-1.4c0.7-0.5,1.3-1,1.8-1.6c-0.3-0.9-0.6-1.7-0.8-2.6c-0.2-0.9-0.4-1.7-0.5-2.6h-3.9v2.9l2.6-0.7
				c0.2-0.1,0.3-0.1,0.5,0c0.1,0.1,0.2,0.2,0.3,0.5c0.1,0.2,0.1,0.4,0,0.6s-0.2,0.2-0.4,0.3c-0.5,0.1-1,0.3-1.5,0.4s-1,0.3-1.5,0.4
				v3.9c0,0.7-0.2,1.2-0.6,1.6c-0.4,0.4-0.9,0.5-1.6,0.5c-0.7,0-1.5-0.2-2.5-0.7c-0.3-0.1-0.4-0.3-0.5-0.5c-0.1-0.2,0-0.4,0.1-0.6
				c0.2-0.4,0.6-0.5,1.1-0.2c0.8,0.3,1.4,0.5,1.9,0.5c0.2,0,0.4-0.1,0.5-0.2s0.2-0.3,0.2-0.6v-3.4c-0.6,0.2-1.1,0.3-1.7,0.4
				c-0.6,0.1-1.1,0.3-1.7,0.4c-0.2,0.1-0.4,0-0.5,0c-0.2-0.1-0.2-0.2-0.3-0.4c-0.1-0.3-0.1-0.5,0-0.6c0.1-0.1,0.2-0.2,0.4-0.3
				c0.6-0.2,1.2-0.3,1.8-0.5c0.6-0.2,1.2-0.3,1.8-0.5v-3.3h-4c-0.3,0-0.4-0.1-0.5-0.2c-0.1-0.1-0.1-0.3-0.1-0.5c0-0.2,0-0.4,0.1-0.5
				c0.1-0.1,0.2-0.2,0.5-0.2h4v-2.4c-1.1,0.2-2.1,0.4-3.1,0.4c-0.3,0-0.5,0-0.6-0.1c-0.1-0.1-0.2-0.2-0.3-0.5
				c-0.1-0.3,0-0.5,0.2-0.6c0.2-0.1,0.4-0.2,0.7-0.2c1.3-0.1,2.5-0.2,3.5-0.5c1-0.3,2-0.6,2.9-1c0.3-0.1,0.6-0.2,0.7-0.1
				c0.2,0.1,0.3,0.2,0.4,0.4c0.1,0.2,0.1,0.4,0,0.6c-0.1,0.1-0.2,0.3-0.5,0.4c-0.4,0.2-0.8,0.3-1.2,0.5c-0.4,0.1-0.8,0.3-1.2,0.4
				v2.8h3.7c-0.1-0.7-0.1-1.5-0.2-2.2S90.3,193.5,90.3,192.7z M93.3,192.7c1.1,0.8,2.1,1.6,3,2.5c0.2,0.2,0.4,0.4,0.4,0.6
				c0,0.2,0,0.4-0.2,0.5c-0.2,0.2-0.4,0.3-0.5,0.3c-0.2,0-0.4-0.2-0.6-0.4c-0.2-0.2-0.4-0.3-0.6-0.5s-0.4-0.4-0.7-0.6
				s-0.5-0.4-0.7-0.6s-0.5-0.4-0.7-0.5c-0.3-0.2-0.4-0.4-0.5-0.5s0-0.3,0.1-0.5c0.1-0.2,0.2-0.2,0.4-0.3
				C92.9,192.6,93.1,192.6,93.3,192.7z"/>
			<path id="XMLID_22_" class="st9" d="M98.9,199.9c0.7-1.1,1.3-2.2,1.8-3.4c0.5-1.2,0.9-2.3,1.3-3.6c0.1-0.3,0.2-0.5,0.3-0.7
				c0.1-0.1,0.3-0.2,0.5-0.1c0.5,0.1,0.6,0.5,0.5,1.1c-0.2,0.6-0.4,1.1-0.6,1.7c-0.2,0.5-0.4,1.1-0.6,1.6v11.8
				c0,0.3-0.1,0.4-0.2,0.5c-0.1,0.1-0.3,0.1-0.5,0.1c-0.2,0-0.4,0-0.5-0.1c-0.1-0.1-0.2-0.3-0.2-0.5v-8.9c-0.1,0.3-0.3,0.5-0.4,0.7
				c-0.1,0.2-0.3,0.5-0.4,0.7c-0.2,0.2-0.4,0.4-0.6,0.4c-0.2,0.1-0.4,0-0.6-0.2c-0.2-0.2-0.2-0.3-0.2-0.5
				C98.5,200.4,98.7,200.2,98.9,199.9z M105.4,208.3c0,0.2-0.1,0.4-0.2,0.5c-0.1,0.1-0.3,0.2-0.5,0.2c-0.2,0-0.4,0-0.5-0.1
				c-0.1-0.1-0.2-0.3-0.2-0.5v-13.5c0-0.3,0.1-0.4,0.2-0.5s0.3-0.1,0.5-0.1s0.4,0,0.5,0.1s0.2,0.3,0.2,0.5V208.3z M108.1,195
				c-0.2,0.1-0.3,0.1-0.5,0.1c-0.2-0.1-0.3-0.2-0.5-0.4c-0.2-0.3-0.5-0.6-0.8-0.8c-0.3-0.3-0.7-0.6-1-0.9c-0.3-0.2-0.4-0.4-0.4-0.5
				c0-0.1,0-0.3,0.2-0.5c0.1-0.2,0.3-0.2,0.4-0.2c0.2,0,0.4,0.1,0.7,0.3c0.4,0.3,0.7,0.6,1,0.9c0.3,0.3,0.7,0.6,1,1
				c0.2,0.2,0.3,0.4,0.3,0.6S108.3,194.9,108.1,195z M115.2,206.3c0,0.7-0.2,1.3-0.6,1.7c-0.4,0.4-0.9,0.6-1.6,0.7
				c-0.3,0-0.6,0-1-0.1c-0.4-0.1-0.7-0.2-1.1-0.3c-0.4-0.2-0.7-0.3-0.8-0.4c-0.1-0.1-0.1-0.3,0-0.6c0.1-0.2,0.2-0.4,0.4-0.4
				c0.2,0,0.4,0,0.7,0.1c0.3,0.1,0.6,0.2,0.9,0.3c0.3,0.1,0.5,0.1,0.7,0.1c0.6,0,1-0.4,1-1.1v-11.6c0-0.1,0-0.2,0-0.3
				c0,0-0.1-0.1-0.2-0.1h-4.2c-0.3,0-0.4-0.1-0.5-0.2c-0.1-0.1-0.1-0.3-0.1-0.5c0-0.2,0.1-0.4,0.2-0.5c0.1-0.1,0.3-0.2,0.5-0.2h4.2
				c0.3,0,0.6,0,0.8,0c0.2,0,0.4,0.1,0.5,0.2c0.1,0.1,0.2,0.3,0.2,0.5s0.1,0.5,0.1,0.8V206.3z"/>
		</g>
	</g>
	<rect id="_x3C_切片_x3E_" x="0" y="110" class="st10" width="160" height="110"/>
</g>
<g id="XMLID_6167_">
	<g id="White_Base_22_">
		<g id="XMLID_3674_">
			<path id="XMLID_3676_" class="st0" d="M74.1,21.7H37.7c-1.7,0-3,1.4-3,3v63.6c0,1.7,1.4,3,3,3h36.3c1.7,0,3-1.4,3-3V24.8
				C77.1,23.1,75.7,21.7,74.1,21.7z M65,15.7c0-1.7-1.4-3-3-3H49.8c-1.7,0-3,1.4-3,3v3H65V15.7z"/>
		</g>
	</g>
	<g id="Green_6_">
		<g id="XMLID_3914_">
			<path id="XMLID_3915_" class="st11" d="M42.3,83.8h27.3V72.5H42.3V83.8z M42.3,69.4h27.3V58.1H42.3V69.4z M42.3,43.7v11.4h27.3
				V43.7H42.3z"/>
		</g>
	</g>
	<g id="Texture_1_26_" class="st2">
		<g id="XMLID_6717_">
			<path id="XMLID_6718_" class="st3" d="M42.3,80.8v1.5h1.5v-1.5H42.3z M45.3,79.3h-1.5v1.5h1.5V79.3z M45.3,80.8v1.5h1.5v-1.5
				H45.3z M48.3,79.3h-1.5v1.5h1.5V79.3z M51.3,80.8v1.5h1.5v-1.5H51.3z M48.3,80.8v1.5h1.5v-1.5H48.3z M51.3,79.3h-1.5v1.5h1.5
				V79.3z M43.8,83.8h1.5v-1.5h-1.5V83.8z M46.8,83.8h1.5v-1.5h-1.5V83.8z M49.8,83.8h1.5v-1.5h-1.5V83.8z M54.4,80.8v1.5h1.5v-1.5
				H54.4z M57.4,79.3h-1.5v1.5h1.5V79.3z M57.4,80.8v1.5h1.5v-1.5H57.4z M60.4,79.3h-1.5v1.5h1.5V79.3z M54.4,79.3h-1.5v1.5h1.5
				V79.3z M60.4,80.8v1.5h1.5v-1.5H60.4z M63.5,79.3h-1.5v1.5h1.5V79.3z M66.5,82.3H68v-1.5h-1.5V82.3z M63.5,80.8v1.5H65v-1.5H63.5
				z M66.5,79.3H65v1.5h1.5V79.3z M55.9,83.8h1.5v-1.5h-1.5V83.8z M58.9,83.8h1.5v-1.5h-1.5V83.8z M52.9,83.8h1.5v-1.5h-1.5V83.8z
				 M61.9,83.8h1.5v-1.5h-1.5V83.8z M65,83.8h1.5v-1.5H65V83.8z M68,80.8h1.5v-1.5H68V80.8z M69.5,83.8v-1.5H68v1.5H69.5z M42.3,52
				v1.5h1.5V52H42.3z M45.3,50.5h-1.5V52h1.5V50.5z M45.3,52v1.5h1.5V52H45.3z M48.3,50.5h-1.5V52h1.5V50.5z M51.3,52v1.5h1.5V52
				H51.3z M48.3,52v1.5h1.5V52H48.3z M51.3,50.5h-1.5V52h1.5V50.5z M43.8,55.1h1.5v-1.5h-1.5V55.1z M46.8,55.1h1.5v-1.5h-1.5V55.1z
				 M49.8,55.1h1.5v-1.5h-1.5V55.1z M54.4,52v1.5h1.5V52H54.4z M57.4,50.5h-1.5V52h1.5V50.5z M57.4,52v1.5h1.5V52H57.4z M60.4,50.5
				h-1.5V52h1.5V50.5z M54.4,50.5h-1.5V52h1.5V50.5z M60.4,52v1.5h1.5V52H60.4z M63.5,50.5h-1.5V52h1.5V50.5z M66.5,52v1.5H68V52
				H66.5z M63.5,52v1.5H65V52H63.5z M66.5,50.5H65V52h1.5V50.5z M55.9,55.1h1.5v-1.5h-1.5V55.1z M58.9,55.1h1.5v-1.5h-1.5V55.1z
				 M52.9,55.1h1.5v-1.5h-1.5V55.1z M61.9,55.1h1.5v-1.5h-1.5V55.1z M65,55.1h1.5v-1.5H65V55.1z M69.5,50.5H68V52h1.5V50.5z
				 M69.5,55.1v-1.5H68v1.5H69.5z"/>
		</g>
	</g>
	<g id="Inner_Lines_11_" class="st4">
		<g id="XMLID_3663_">
			<path id="XMLID_3664_" class="st3" d="M37.7,24.8v63.6h36.3V24.8H37.7z M72.5,86.9H39.2V26.3h33.3V86.9z"/>
		</g>
	</g>
	<g id="Outline_29_">
		<g id="XMLID_3898_">
			<path id="XMLID_3899_" class="st3" d="M74.1,18.7H68v-3c0-3.3-2.7-6.1-6.1-6.1H49.8c-3.3,0-6.1,2.7-6.1,6.1v3h-6.1
				c-3.3,0-6.1,2.7-6.1,6.1v63.6c0,3.3,2.7,6.1,6.1,6.1h36.3c3.3,0,6.1-2.7,6.1-6.1V24.8C80.1,21.4,77.4,18.7,74.1,18.7z M46.8,15.7
				c0-1.7,1.4-3,3-3h12.1c1.7,0,3,1.4,3,3v3H46.8V15.7z M77.1,88.4c0,1.7-1.4,3-3,3H37.7c-1.7,0-3-1.4-3-3V24.8c0-1.7,1.4-3,3-3
				h36.3c1.7,0,3,1.4,3,3V88.4z"/>
		</g>
	</g>
	
		<rect id="XMLID_7235_" x="42.3" y="29.4" transform="matrix(1 -4.821858e-03 4.821858e-03 1 -0.1682 0.2699)" class="st11" width="27.3" height="11.3"/>
	<g id="White_Base_19_">
		<g id="XMLID_4053_">
			<path id="XMLID_4056_" class="st0" d="M54.1,89.8h19.5l1.3-13.7H52.8L54.1,89.8z M76.8,39.1h-9.4c-0.7,1.2-2,2.1-3.5,2.1
				c-1.5,0-2.8-0.8-3.5-2.1h-9.4l-2.5,4.1h30.8L76.8,39.1z M47.4,45.9v2.7h32.9v-2.7H47.4z M51.4,62.4h25.1l1-11H50.3L51.4,62.4z"/>
		</g>
	</g>
	<g id="Green_5_">
		<g id="XMLID_3500_">
			<polygon id="XMLID_3501_" class="st11" points="51.6,65.1 52.5,73.3 75.2,73.3 76.1,65.1 			"/>
		</g>
	</g>
	<g id="Texture_1_25_" class="st2">
		<g id="XMLID_7087_">
			<path id="XMLID_7088_" class="st3" d="M69.4,67.2H68v1.4h1.4V67.2z M61.1,68.5v1.4h1.4v-1.4H61.1z M66.6,68.5v1.4H68v-1.4H66.6z
				 M72.1,67.2h-1.4v1.4h1.4V67.2z M63.9,68.5v1.4h1.4v-1.4H63.9z M69.4,68.5v1.4h1.4v-1.4H69.4z M63.9,67.2h-1.4v1.4h1.4V67.2z
				 M66.6,67.2h-1.4v1.4h1.4V67.2z M61.1,67.2h-1.4v1.4h1.4V67.2z M62.5,71.3h1.4v-1.4h-1.4V71.3z M57,71.3h1.4v-1.4H57V71.3z
				 M65.3,71.3h1.4v-1.4h-1.4V71.3z M59.8,71.3h1.4v-1.4h-1.4V71.3z M73.5,71.3h1.4v-1.4h-1.4V71.3z M68,71.3h1.4v-1.4H68V71.3z
				 M70.7,71.3h1.4v-1.4h-1.4V71.3z M58.4,68.5v1.4h1.4v-1.4H58.4z M58.4,67.2H57v1.4h1.4V67.2z M55.7,68.5v1.4H57v-1.4H55.7z
				 M72.1,68.5v1.4h1.4v-1.4H72.1z M55.7,67.2h-1.4v1.4h1.4V67.2z M51.9,67.2l0.1,1.4h0.9v-1.4H51.9z M54.3,71.3h1.4v-1.4h-1.4V71.3
				z M52.9,68.5v1.4h1.4v-1.4H52.9z M52.3,71.3h0.6v-1.4h-0.8L52.3,71.3z M61.1,52.8v1.4h1.4v-1.4H61.1z M63.9,51.4h-1.4v1.4h1.4
				V51.4z M63.9,52.8v1.4h1.4v-1.4H63.9z M66.6,51.4h-1.4v1.4h1.4V51.4z M55.7,52.8v1.4H57v-1.4H55.7z M58.4,51.4H57v1.4h1.4V51.4z
				 M58.4,52.8v1.4h1.4v-1.4H58.4z M74.8,67.2h-1.4v1.4h1.4V67.2z M61.1,51.4h-1.4v1.4h1.4V51.4z M74.8,52.8v1.4h1.4v-1.4H74.8z
				 M69.4,51.4H68v1.4h1.4V51.4z M74.8,51.4h-1.4v1.4h1.4V51.4z M77.4,51.4h-1.2v1.4h1.1L77.4,51.4z M72.1,52.8v1.4h1.4v-1.4H72.1z
				 M69.4,52.8v1.4h1.4v-1.4H69.4z M72.1,51.4h-1.4v1.4h1.4V51.4z M66.6,52.8v1.4H68v-1.4H66.6z M70.7,55.5h1.4v-1.4h-1.4V55.5z
				 M68,55.5h1.4v-1.4H68V55.5z M65.3,55.5h1.4v-1.4h-1.4V55.5z M77,55.5l0.1-1.4h-0.9v1.4H77z M74.8,69.9h0.8l0.1-1.4h-0.9V69.9z
				 M62.5,55.5h1.4v-1.4h-1.4V55.5z M73.5,55.5h1.4v-1.4h-1.4V55.5z M52.9,52.8v1.4h1.4v-1.4H52.9z M59.8,55.5h1.4v-1.4h-1.4V55.5z
				 M55.7,51.4h-1.4v1.4h1.4V51.4z M50.5,52.8l0.1,1.4h0.9v-1.4H50.5z M52.9,51.4h-1.4v1.4h1.4V51.4z M51.5,55.5h1.4v-1.4h-1.4V55.5
				z M57,55.5h1.4v-1.4H57V55.5z M54.3,55.5h1.4v-1.4h-1.4V55.5z"/>
		</g>
	</g>
	<g id="Outline_28_">
		<g id="XMLID_4610_">
			<path id="XMLID_4611_" class="st3" d="M83.1,44.6c0-0.3-0.1-0.6-0.3-0.8l0,0l-4-6.7c0,0-0.1-0.1-0.1-0.1l0,0l0,0
				c-0.3-0.3-0.6-0.6-1.1-0.6H50.2c-0.4,0-0.8,0.2-1.1,0.6l0,0l0,0c0,0-0.1,0.1-0.1,0.1l-4,6.7l0,0c-0.2,0.2-0.3,0.5-0.3,0.8h0V50h0
				v0c0,0.8,0.6,1.4,1.4,1.4h1.5l4,39.9l0,0c0.1,0.7,0.6,1.2,1.4,1.2l0,0h21.9l0,0c0.7,0,1.3-0.5,1.4-1.2l0,0l4-39.9h1.5l0,0h0
				c0.8,0,1.4-0.6,1.4-1.4v0l0,0V44.6z M73.6,89.8H54.2l-1.4-13.7H75L73.6,89.8z M50.9,39.1h9.4c0.7,1.2,2,2.1,3.5,2.1
				c1.5,0,2.8-0.8,3.5-2.1h9.4l2.5,4.1H48.5L50.9,39.1z M52.5,73.3l-0.8-8.2h24.4l-0.8,8.2H52.5z M51.4,62.4l-1.1-11h27.1l-1.1,11
				H51.4z M47.4,48.7v-2.7h32.9v2.7H47.4z"/>
		</g>
	</g>
	<g id="White_Base_18_">
		<g id="XMLID_3848_">
			<path id="XMLID_3883_" class="st0" d="M88.5,63.8c-0.9-1.3-0.6-3.1,0.7-3.9l11.6-8.1c1.3-0.9,3.1-0.6,3.9,0.7l0.8,1.2l22.1-15.4
				l-8.1-11.6c-0.9-1.3-2.7-1.6-3.9-0.7L59.8,64.8c-1.3,0.9-1.6,2.7-0.7,3.9l8.1,11.6L89.3,65L88.5,63.8z M141.5,58l-12.2-17.5
				l-22.1,15.4l0.8,1.2c0.9,1.3,0.6,3.1-0.7,3.9l-11.6,8.1c-1.3,0.9-3.1,0.6-3.9-0.7l-0.8-1.2L68.8,82.7L81,100.1
				c0.9,1.3,2.7,1.6,3.9,0.7L140.8,62C142.1,61.1,142.4,59.3,141.5,58z M103.3,55.2l-0.8-1.2l-11.6,8.1l2.3,3.3l0.1,0.1l0.8,1.2
				l11.6-8.1l-0.8-1.2L103.3,55.2z"/>
		</g>
	</g>
	<g id="Red_8_">
		<g id="XMLID_3496_">
			<path id="XMLID_3497_" class="st11" d="M76.8,49.5l-4.9-7l18.6-13l4.9,7l2.3-1.6l-4.9-7c-0.9-1.3-2.7-1.6-3.9-0.7l-18.6,13
				c-1.3,0.9-1.6,2.7-0.7,3.9l4.9,7L86.1,43L76.8,49.5z"/>
		</g>
	</g>
	<g id="Blue_11_">
		<g id="XMLID_3493_">
			
				<rect id="XMLID_3495_" x="91.2" y="57.6" transform="matrix(0.8208 -0.5712 0.5712 0.8208 -16.916 66.9772)" class="st11" width="14.2" height="5.7"/>
		</g>
	</g>
	<g id="Texture_1_22_" class="st2">
		<g id="XMLID_7034_">
			<path id="XMLID_7035_" class="st3" d="M71.3,86.2l1.2-0.8l-0.8-1.2L70.5,85L71.3,86.2z M68.8,82.7l0.8,1.2l1.2-0.8L70,81.9
				L68.8,82.7z M70.8,83l0.8,1.2l1.2-0.8L72,82.2L70.8,83z M73.6,84.6l1.2-0.8l-0.8-1.2l-1.2,0.8L73.6,84.6z M72.3,80.2l-1.2,0.8
				l0.8,1.2l1.2-0.8L72.3,80.2z M73.1,81.4l0.8,1.2l1.2-0.8l-0.8-1.2L73.1,81.4z M75.9,82.9l1.2-0.8L76.3,81l-1.2,0.8L75.9,82.9z
				 M74.7,78.6l-1.2,0.8l0.8,1.2l1.2-0.8L74.7,78.6z M75.5,79.8l0.8,1.2l1.2-0.8L76.6,79L75.5,79.8z M78.2,81.3l1.2-0.8l-0.8-1.2
				l-1.2,0.8L78.2,81.3z M77,77l-1.2,0.8l0.8,1.2l1.2-0.8L77,77z M77.8,78.2l0.8,1.2l1.2-0.8L79,77.4L77.8,78.2z M80.6,79.7l1.2-0.8
				l-0.8-1.2l-1.2,0.8L80.6,79.7z M79.3,75.4l-1.2,0.8l0.8,1.2l1.2-0.8L79.3,75.4z M80.1,76.6l0.8,1.2l1.2-0.8l-0.8-1.2L80.1,76.6z
				 M82.9,78.1l1.2-0.8l-0.8-1.2l-1.2,0.8L82.9,78.1z M81.6,73.8l-1.2,0.8l0.8,1.2l1.2-0.8L81.6,73.8z M82.4,74.9l0.8,1.2l1.2-0.8
				l-0.8-1.2L82.4,74.9z M85.2,76.4l1.2-0.8l-0.8-1.2l-1.2,0.8L85.2,76.4z M84,72.1L82.8,73l0.8,1.2l1.2-0.8L84,72.1z M84.8,73.3
				l0.8,1.2l1.2-0.8l-0.8-1.2L84.8,73.3z M87.6,74.8l1.2-0.8l-0.8-1.2l-1.2,0.8L87.6,74.8z M86.3,70.5l-1.2,0.8l0.8,1.2l1.2-0.8
				L86.3,70.5z M87.1,71.7l0.8,1.2l1.2-0.8l-0.8-1.2L87.1,71.7z M89.9,73.2l1.2-0.8l-0.8-1.2L89.1,72L89.9,73.2z M88.6,68.9
				l-1.2,0.8l0.8,1.2l1.2-0.8L88.6,68.9z M89.4,70.1l0.8,1.2l1.2-0.8l-0.8-1.2L89.4,70.1z M91.4,70.4l0.8,1.2l1.2-0.8l-0.8-1.2
				L91.4,70.4z M90.9,67.3l-1.2,0.8l0.8,1.2l1.2-0.8L90.9,67.3z M108.1,57.1l0.8,1.2l1.2-0.8l-0.8-1.2L108.1,57.1z M110.8,58.6
				l1.2-0.8l-0.8-1.2l-1.2,0.8L110.8,58.6z M109.6,54.3l-1.2,0.8l0.8,1.2l1.2-0.8L109.6,54.3z M110.4,55.5l0.8,1.2l1.2-0.8l-0.8-1.2
				L110.4,55.5z M113.2,57l1.2-0.8l-0.8-1.2l-1.2,0.8L113.2,57z M111.9,52.7l-1.2,0.8l0.8,1.2l1.2-0.8L111.9,52.7z M112.7,53.9
				l0.8,1.2l1.2-0.8l-0.8-1.2L112.7,53.9z M115.5,55.4l1.2-0.8l-0.8-1.2l-1.2,0.8L115.5,55.4z M114.2,51.1l-1.2,0.8l0.8,1.2l1.2-0.8
				L114.2,51.1z M115,52.2l0.8,1.2l1.2-0.8l-0.8-1.2L115,52.2z M117.8,53.8L119,53l-0.8-1.2l-1.2,0.8L117.8,53.8z M116.6,49.5
				l-1.2,0.8l0.8,1.2l1.2-0.8L116.6,49.5z M117.4,50.6l0.8,1.2l1.2-0.8l-0.8-1.2L117.4,50.6z M120.2,52.1l1.2-0.8l-0.8-1.2l-1.2,0.8
				L120.2,52.1z M118.9,47.8l-1.2,0.8l0.8,1.2l1.2-0.8L118.9,47.8z M119.7,49l0.8,1.2l1.2-0.8l-0.8-1.2L119.7,49z M122.5,50.5
				l1.2-0.8l-0.8-1.2l-1.2,0.8L122.5,50.5z M121.2,46.2l-1.2,0.8l0.8,1.2l1.2-0.8L121.2,46.2z M122,47.4l0.8,1.2l1.2-0.8l-0.8-1.2
				L122,47.4z M124.8,48.9l1.2-0.8l-0.8-1.2l-1.2,0.8L124.8,48.9z M123.5,44.6l-1.2,0.8l0.8,1.2l1.2-0.8L123.5,44.6z M124.4,45.8
				l0.8,1.2l1.2-0.8l-0.8-1.2L124.4,45.8z M127.1,47.3l1.2-0.8l-0.8-1.2l-1.2,0.8L127.1,47.3z M125.9,43l-1.2,0.8l0.8,1.2l1.2-0.8
				L125.9,43z M126.7,44.1l0.8,1.2l1.2-0.8l-0.8-1.2L126.7,44.1z M128.7,44.5l0.8,1.2l1.2-0.8l-0.8-1.2L128.7,44.5z M128.2,41.4
				l-1.2,0.8l0.8,1.2l1.2-0.8L128.2,41.4z M131,42.9l-0.8-1.2l-1.2,0.8l0.8,1.2L131,42.9z"/>
		</g>
	</g>
	<g id="Outline_27_">
		<g id="XMLID_4648_">
			<path id="XMLID_4649_" class="st3" d="M143.8,56.4L122,25c-1.8-2.6-5.3-3.2-7.9-1.4l-14,9.7l-4.9-7c-1.8-2.6-5.3-3.2-7.9-1.4
				l-18.6,13c-2.6,1.8-3.2,5.3-1.4,7.9l4.9,7l-14,9.7c-2.6,1.8-3.2,5.3-1.4,7.9l21.9,31.4c1.8,2.6,5.3,3.2,7.9,1.4l55.9-38.9
				C145,62.5,145.6,59,143.8,56.4z M69.6,44.1c-0.9-1.3-0.6-3.1,0.7-3.9l18.6-13c1.3-0.9,3.1-0.6,3.9,0.7l4.9,7l-2.3,1.6l-4.9-7
				L72,42.5l4.9,7l-2.3,1.6L69.6,44.1z M93.1,38.1l-14,9.7l-3.2-4.7l14-9.7L93.1,38.1z M59.1,68.7c-0.9-1.3-0.6-3.1,0.7-3.9
				l55.9-38.9c1.3-0.9,3.1-0.6,3.9,0.7l8.1,11.6l-22.1,15.4l-0.8-1.2c-0.9-1.3-2.7-1.6-3.9-0.7l-11.6,8.1c-1.3,0.9-1.6,2.7-0.7,3.9
				l0.8,1.2L67.2,80.3L59.1,68.7z M105.7,58.7l-11.6,8.1l-3.2-4.7l11.6-8.1L105.7,58.7z M140.8,62l-55.9,38.9
				c-1.3,0.9-3.1,0.6-3.9-0.7L68.8,82.7l22.1-15.4l0.8,1.2c0.9,1.3,2.7,1.6,3.9,0.7l11.6-8.1c1.3-0.9,1.6-2.7,0.7-3.9l-0.8-1.2
				l22.1-15.4L141.5,58C142.4,59.3,142.1,61.1,140.8,62z"/>
		</g>
	</g>
	<g id="Inner_Lines_10_" class="st4">
		<g id="XMLID_4044_">
			<path id="XMLID_4045_" class="st3" d="M80.2,99l0.8,1.2l4.7-3.2l-0.8-1.2L80.2,99z M80.9,95l-2.3,1.6l0.8,1.2l2.3-1.6L80.9,95z
				 M119.6,26.6l-4.7,3.2l0.8,1.2l4.7-3.2L119.6,26.6z M121.3,28.9l-2.3,1.6l0.8,1.2l2.3-1.6L121.3,28.9z"/>
		</g>
	</g>
	<g id="White_Base_17_">
		<g id="XMLID_3644_">
			<path id="XMLID_3652_" class="st0" d="M74.7,61.8L62.5,56c-2.8,5.9-3.9,9.7,1.4,12.2c2.7,1.3,5.3,1.2,7.7-0.3
				c2.1-1.3,3.6-3.2,4.3-4.7c0.2-0.4,0.1-0.7-0.1-0.9C75.5,62.2,75.1,62,74.7,61.8z M84.1,66.3c-0.4-0.2-0.8-0.4-1.1-0.5
				c-0.3,0-0.6,0.1-0.8,0.5c-0.7,1.4-1.3,3.8-0.9,6.3c0.4,2.8,2,4.9,4.7,6.1c5.3,2.5,7.5-0.8,10.4-6.6L84.1,66.3z"/>
		</g>
	</g>
	<g id="Blue_10_">
		<g id="XMLID_4057_">
			<path id="XMLID_4058_" class="st11" d="M66.5,61.8c-0.1-0.1-0.2-0.1-0.3,0L62.7,63c-0.1,0-0.2,0.1-0.2,0.2
				c-0.1,0.2,0,0.5,0.2,0.6c0.1,0.1,0.2,0.1,0.3,0l3.5-1.2c0.1,0,0.2-0.1,0.2-0.2C66.8,62.1,66.7,61.9,66.5,61.8z M63.2,61.7
				c0.1,0.1,0.2,0.1,0.3,0l1.2-0.4c0.1,0,0.2-0.1,0.2-0.2c0.1-0.2,0-0.5-0.2-0.6c-0.1-0.1-0.2-0.1-0.3,0l-1.2,0.4
				c-0.1,0-0.2,0.1-0.2,0.2C62.9,61.3,63,61.6,63.2,61.7z M87,71.5c-0.1-0.1-0.2-0.1-0.3,0l-3.5,1.2c-0.1,0-0.2,0.1-0.2,0.2
				c-0.1,0.2,0,0.5,0.2,0.6c0.1,0.1,0.2,0.1,0.3,0l3.5-1.2c0.1,0,0.2-0.1,0.2-0.2C87.3,71.8,87.2,71.6,87,71.5z M83.7,71.4
				c0.1,0.1,0.2,0.1,0.3,0l1.2-0.4c0.1,0,0.2-0.1,0.2-0.2c0.1-0.2,0-0.5-0.2-0.6c-0.1-0.1-0.2-0.1-0.3,0l-1.2,0.4
				c-0.1,0-0.2,0.1-0.2,0.2C83.4,71,83.4,71.3,83.7,71.4z"/>
		</g>
	</g>
	<g id="Texture_1_19_" class="st2">
		<g id="XMLID_6534_">
			<path id="XMLID_6535_" class="st3" d="M66.1,58.7l-0.4,0.8l0.8,0.4l0.4-0.8L66.1,58.7z M70.8,60.9l-0.4,0.8l0.8,0.4l0.4-0.8
				L70.8,60.9z M72.4,61.7L72,62.4l0.8,0.4l0.4-0.8L72.4,61.7z M68,58.6l-0.8-0.4l-0.4,0.8l0.8,0.4L68,58.6z M69.2,60.2L68.8,61
				l0.8,0.4l0.4-0.8L69.2,60.2z M74.3,61.6l-0.8-0.4L73.1,62l0.8,0.4L74.3,61.6z M69.6,59.4L68.8,59l-0.4,0.8l0.8,0.4L69.6,59.4z
				 M72.7,60.9l-0.8-0.4l-0.4,0.8l0.8,0.4L72.7,60.9z M67.6,59.4l-0.4,0.8l0.8,0.4l0.4-0.8L67.6,59.4z M71.2,60.1l-0.8-0.4L70,60.5
				l0.8,0.4L71.2,60.1z M69.3,62.1l0.8,0.4l0.4-0.8l-0.8-0.4L69.3,62.1z M67.7,61.4l0.8,0.4l0.4-0.8l-0.8-0.4L67.7,61.4z M66.1,60.6
				l0.8,0.4l0.4-0.8l-0.8-0.4L66.1,60.6z M64.5,59.9l0.8,0.4l0.4-0.8l-0.8-0.4L64.5,59.9z M70.8,62.9l0.8,0.4l0.4-0.8l-0.8-0.4
				L70.8,62.9z M74,64.4l0.8,0.4l0.4-0.8l-0.8-0.4L74,64.4z M72.4,63.6l0.8,0.4l0.4-0.8l-0.8-0.4L72.4,63.6z M62.9,57.2L62.5,58
				l0.8,0.4l0.4-0.8L62.9,57.2z M66.4,57.9l-0.8-0.4l-0.4,0.8l0.8,0.4L66.4,57.9z M64.9,57.1l-0.8-0.4l-0.4,0.8l0.8,0.4L64.9,57.1z
				 M64.5,57.9l-0.4,0.8l0.8,0.4l0.4-0.8L64.5,57.9z M63,59.1l0.8,0.4l0.4-0.8l-0.8-0.4L63,59.1z M62.5,56c-0.1,0.3-0.2,0.5-0.4,0.8
				l0.8,0.4l0.4-0.8L62.5,56z M61.5,58.4l0.7,0.3l0.4-0.8l-0.8-0.4C61.7,57.9,61.6,58.2,61.5,58.4z M94.8,71.3L94,70.9l-0.4,0.8
				l0.8,0.4L94.8,71.3z M88.5,68.3L87.7,68l-0.4,0.8l0.8,0.4L88.5,68.3z M88.1,69.1l-0.4,0.8l0.8,0.4l0.4-0.8L88.1,69.1z M90,69.1
				l-0.8-0.4l-0.4,0.8l0.8,0.4L90,69.1z M89.7,69.9l-0.4,0.8l0.8,0.4l0.4-0.8L89.7,69.9z M84.9,67.6l-0.4,0.8l0.8,0.4l0.4-0.8
				L84.9,67.6z M86.9,67.6l-0.8-0.4L85.7,68l0.8,0.4L86.9,67.6z M86.5,68.4l-0.4,0.8l0.8,0.4l0.4-0.8L86.5,68.4z M96.3,72.1
				l-0.8-0.4l-0.4,0.8l0.8,0.4C96.1,72.6,96.2,72.3,96.3,72.1z M94.4,72.1L94,72.9l0.8,0.4l0.4-0.8L94.4,72.1z M85.3,66.8l-0.8-0.4
				l-0.4,0.8l0.8,0.4L85.3,66.8z M92.8,71.4l-0.4,0.8l0.8,0.4l0.4-0.8L92.8,71.4z M93.2,70.6l-0.8-0.4L92,71l0.8,0.4L93.2,70.6z
				 M91.6,69.8l-0.8-0.4l-0.4,0.8l0.8,0.4L91.6,69.8z M73.9,62.4l-0.4,0.8l0.8,0.4l0.4-0.8L73.9,62.4z M91.2,70.6l-0.4,0.8l0.8,0.4
				L92,71L91.2,70.6z M91.3,72.6l0.8,0.4l0.4-0.8l-0.8-0.4L91.3,72.6z M92.9,73.3l0.8,0.4l0.4-0.8l-0.8-0.4L92.9,73.3z M89.7,71.8
				l0.8,0.4l0.4-0.8L90.1,71L89.7,71.8z M75.8,62.5C75.8,62.4,75.8,62.4,75.8,62.5c-0.2-0.2-0.5-0.3-0.8-0.4l-0.4,0.8l0.8,0.4
				L75.8,62.5z M88.1,71.1l0.8,0.4l0.4-0.8l-0.8-0.4L88.1,71.1z M95.1,74.4c0.1-0.3,0.3-0.5,0.4-0.8l-0.8-0.4l-0.4,0.8L95.1,74.4z
				 M83.4,66.9L83,67.7l0.8,0.4l0.4-0.8L83.4,66.9z M75.1,63.9l0.4,0.2c0.2-0.3,0.3-0.5,0.4-0.8l-0.4-0.2L75.1,63.9z M86.6,70.3
				l0.8,0.4l0.4-0.8l-0.8-0.4L86.6,70.3z M82.2,66.3c-0.1,0.2-0.2,0.5-0.3,0.8l0.4,0.2l0.4-0.8L82.2,66.3z M83.7,66.1
				c-0.3-0.1-0.5-0.2-0.7-0.3c0,0-0.1,0-0.1,0l-0.3,0.7l0.8,0.4L83.7,66.1z M81.8,68.1l0.8,0.4l0.4-0.8l-0.8-0.4L81.8,68.1z
				 M83.4,68.8l0.8,0.4l0.4-0.8L83.8,68L83.4,68.8z M85,69.6l0.8,0.4l0.4-0.8l-0.8-0.4L85,69.6z"/>
		</g>
	</g>
	<g id="Outline_25_">
		<g id="XMLID_3701_">
			<path id="XMLID_3849_" class="st3" d="M98.7,71.2l-13.8-6.5l0,0l0,0l-0.8-0.4c-0.2-0.1-0.4-0.1-0.6-0.2c-0.8-0.3-1.4-0.3-1.9-0.4
				c-0.6-0.1-1-0.1-1.8-0.5s-1.1-0.7-1.5-1.1c-0.4-0.4-0.8-0.8-1.5-1.2c-0.2-0.1-0.4-0.3-0.5-0.3l-14.6-6.9l0,0h0
				c-0.9-0.4-1.9,0-2.3,0.8c-0.4,0.9,0,1.9,0.8,2.3c0,0,0,0,0,0c-2.2,4.9-3.4,9.9,3,13c6.9,3.3,12.4-1.8,14.3-5.8
				c0-0.1,0-0.1,0.1-0.2c0.4,0.3,0.8,0.6,1.5,1c0.7,0.3,1.2,0.5,1.7,0.5c0,0.1-0.1,0.1-0.1,0.2c-1.9,4-2.3,11.4,4.6,14.7
				c6.4,3,9.5-1.2,11.9-5.9c0,0,0,0,0,0c0.9,0.4,1.9,0,2.3-0.8C99.9,72.7,99.5,71.6,98.7,71.2z M75.9,63.3c-0.7,1.4-2.2,3.4-4.3,4.7
				c-2.4,1.4-5,1.5-7.7,0.3c-5.3-2.5-4.2-6.3-1.4-12.2l12.2,5.8l0,0c0.4,0.2,0.8,0.4,1.1,0.6C76,62.6,76.1,62.9,75.9,63.3z M86,78.7
				c-2.7-1.3-4.2-3.3-4.7-6.1c-0.4-2.4,0.2-4.8,0.9-6.3c0.2-0.4,0.5-0.5,0.8-0.5c0.3,0.1,0.7,0.3,1.1,0.5l0,0l12.2,5.8
				C93.5,77.9,91.2,81.2,86,78.7z"/>
		</g>
	</g>
	<g id="White_Base_16_">
		<g id="XMLID_4696_">
			<path id="XMLID_4697_" class="st0" d="M65.5,83.3L51.9,68.1L37.5,81l13.6,15.2c3.6,4,9.7,4.3,13.6,0.8
				C68.7,93.4,69,87.3,65.5,83.3z M61.1,93c-1.8,1.6-4.5,1.4-6.1-0.3c-1.6-1.8-1.4-4.5,0.3-6.1c1.8-1.6,4.5-1.4,6.1,0.3
				S62.9,91.4,61.1,93z M43.3,58.5L28.9,71.4l7.1,8l14.4-12.9L43.3,58.5z M39.5,59l-7.1-8l-9.6,8.6l7.1,8L39.5,59z M33.6,55.7
				l2.1,2.4l-2.4,2.1l-2.1-2.4L33.6,55.7z M27.2,61.4l2.4-2.1l2.1,2.4l-2.4,2.1L27.2,61.4z M56.8,88.2c-0.9,0.8-1,2.1-0.2,3
				s2.1,1,3,0.2s1-2.1,0.2-3C59.1,87.5,57.7,87.4,56.8,88.2z"/>
		</g>
	</g>
	<g id="Yellow_7_">
		<g id="XMLID_3489_">
			<circle id="XMLID_3491_" class="st6" cx="58.3" cy="89.8" r="2.1"/>
		</g>
	</g>
	<g id="Blue_9_">
		<g id="XMLID_3483_">
			
				<rect id="XMLID_3484_" x="30" y="63.6" transform="matrix(0.7463 -0.6656 0.6656 0.7463 -35.8155 43.9088)" class="st11" width="19.3" height="10.7"/>
		</g>
	</g>
	<g id="Texture_1_18_" class="st2">
		<g id="XMLID_6088_">
			<path id="XMLID_6089_" class="st3" d="M38.8,58.2l-0.7-0.8l-0.8,0.7L38,59L38.8,58.2z M36.6,57.4l-0.8,0.7l0.7,0.8l0.8-0.7
				L36.6,57.4z M37.9,60.5l0.8-0.7L38,59l-0.8,0.7L37.9,60.5z M37.2,59.7l-0.7-0.8l-0.8,0.7l0.7,0.8L37.2,59.7z M35,58.8l-0.8,0.7
				l0.7,0.8l0.8-0.7L35,58.8z M36.3,61.9l0.8-0.7l-0.7-0.8l-0.8,0.7L36.3,61.9z M35.6,61.1l-0.7-0.8L34.1,61l0.7,0.8L35.6,61.1z
				 M33.4,60.2l-0.8,0.7l0.7,0.8l0.8-0.7L33.4,60.2z M34.7,63.3l0.8-0.7l-0.7-0.8L34,62.5L34.7,63.3z M34,62.5l-0.7-0.8l-0.8,0.7
				l0.7,0.8L34,62.5z M31.7,61.6l-0.8,0.7l0.7,0.8l0.8-0.7L31.7,61.6z M32.4,64l0.7,0.8l0.8-0.7l-0.7-0.8L32.4,64z M30.9,63.9
				l0.7,0.8l0.8-0.7l-0.7-0.8L30.9,63.9z M30.1,63.1l-0.8,0.7l0.7,0.8l0.8-0.7L30.1,63.1z M31.5,66.2l0.8-0.7l-0.7-0.8l-0.8,0.7
				L31.5,66.2z M29.3,65.3l0.7,0.8l0.8-0.7l-0.7-0.8L29.3,65.3z M27.7,65.2l0.7,0.8l0.8-0.7l-0.7-0.8L27.7,65.2z M29.9,67.6l0.8-0.7
				L30,66.1l-0.8,0.7L29.9,67.6z M42.7,69.1l-0.8,0.7l0.7,0.8l0.8-0.7L42.7,69.1z M44.1,72.2l0.8-0.7l-0.7-0.8l-0.8,0.7L44.1,72.2z
				 M41.8,71.3l0.7,0.8l0.8-0.7l-0.7-0.8L41.8,71.3z M41.1,70.5l-0.8,0.7l0.7,0.8l0.8-0.7L41.1,70.5z M42.5,73.7l0.8-0.7l-0.7-0.8
				l-0.8,0.7L42.5,73.7z M40.2,72.8l0.7,0.8l0.8-0.7L41,72.1L40.2,72.8z M39.5,72l-0.8,0.7l0.7,0.8l0.8-0.7L39.5,72z M40.9,75.1
				l0.8-0.7L41,73.6l-0.8,0.7L40.9,75.1z M38.6,74.2l0.7,0.8l0.8-0.7l-0.7-0.8L38.6,74.2z M37.9,73.4l-0.8,0.7l0.7,0.8l0.8-0.7
				L37.9,73.4z M39.3,76.5l0.8-0.7L39.3,75l-0.8,0.7L39.3,76.5z M37,75.6l0.7,0.8l0.8-0.7l-0.7-0.8L37,75.6z M36.3,74.8l-0.8,0.7
				l0.7,0.8l0.8-0.7L36.3,74.8z M37.7,77.9l0.8-0.7l-0.7-0.8l-0.8,0.7L37.7,77.9z M35.4,77.1l0.7,0.8l0.8-0.7l-0.7-0.8L35.4,77.1z
				 M33.9,77l0.7,0.8l0.8-0.7l-0.7-0.8L33.9,77z M36.1,79.4l0.8-0.7l-0.7-0.8l-0.8,0.7L36.1,79.4z M49.8,65.7l-0.7-0.8l-0.8,0.7
				l0.7,0.8L49.8,65.7z M47.5,64.8l-0.8,0.7l0.7,0.8l0.8-0.7L47.5,64.8z M48.2,67.1l0.7,0.8l0.8-0.7L49,66.4L48.2,67.1z M46.6,67.1
				l0.7,0.8l0.8-0.7l-0.7-0.8L46.6,67.1z M45.9,66.3L45.1,67l0.7,0.8l0.8-0.7L45.9,66.3z M47.3,69.4l0.8-0.7l-0.7-0.8l-0.8,0.7
				L47.3,69.4z M45,68.5l0.7,0.8l0.8-0.7l-0.7-0.8L45,68.5z M43.5,68.4l0.7,0.8l-0.8,0.7l0.7,0.8L45,70l-0.7-0.8l0.8-0.7l-0.7-0.8
				L43.5,68.4z M45.7,70.8l0.8-0.7l-0.7-0.8L45,70L45.7,70.8z"/>
		</g>
	</g>
	<g id="Outline_22_">
		<g id="XMLID_4971_">
			<path id="XMLID_4972_" class="st3" d="M29.6,59.2l-2.4,2.1l2.1,2.4l2.4-2.1L29.6,59.2z M35.8,58.1l-2.1-2.4l-2.4,2.1l2.1,2.4
				L35.8,58.1z M55.4,86.6c-1.8,1.6-1.9,4.3-0.3,6.1c1.6,1.8,4.3,1.9,6.1,0.3c1.8-1.6,1.9-4.3,0.3-6.1S57.2,85,55.4,86.6z
				 M59.7,91.4c-0.9,0.8-2.2,0.7-3-0.2s-0.7-2.2,0.2-3s2.2-0.7,3,0.2C60.7,89.2,60.6,90.6,59.7,91.4z M67.1,81.9L44.9,57.1
				c-0.8-0.9-2.1-1-3-0.2l-0.8,0.7l-7.1-8c-0.8-0.9-2.1-1-3-0.2L21.3,58c-0.9,0.8-1,2.1-0.2,3l7.1,8l-0.8,0.7c-0.9,0.8-1,2.1-0.2,3
				l22.2,24.8c4.3,4.9,11.8,5.3,16.7,1C71,94.2,71.4,86.8,67.1,81.9z M22.7,59.6l9.6-8.6l7.1,8l-9.6,8.6L22.7,59.6z M64.7,97
				c-4,3.6-10.1,3.2-13.6-0.8L28.9,71.4l7.2-6.4l4.8-4.3v0l2.4-2.1l7.1,8L36.1,79.4l1.4,1.6l14.4-12.9l13.6,15.2
				C69,87.3,68.7,93.4,64.7,97z"/>
		</g>
	</g>
	<g id="XMLID_6279_">
		<path id="XMLID_3480_" class="st0" d="M25,108.5c-1.9,0-3.5-1.6-3.5-3.5V75c0-1.9,1.6-3.5,3.5-3.5h110c1.9,0,3.5,1.6,3.5,3.5v30
			c0,1.9-1.6,3.5-3.5,3.5H25z"/>
		<path id="XMLID_3474_" class="st3" d="M135,73c1.1,0,2,0.9,2,2v30c0,1.1-0.9,2-2,2H25c-1.1,0-2-0.9-2-2V75c0-1.1,0.9-2,2-2H135
			 M135,70H25c-2.8,0-5,2.2-5,5v30c0,2.8,2.2,5,5,5h110c2.8,0,5-2.2,5-5V75C140,72.2,137.8,70,135,70L135,70z"/>
	</g>
	<g id="XMLID_6224_">
		<g id="XMLID_6273_">
			<g id="XMLID_6274_">
				<rect id="XMLID_6278_" x="23" y="72.2" class="st8" width="2" height="2"/>
				<rect id="XMLID_6277_" x="27" y="72.2" class="st8" width="2" height="2"/>
				<rect id="XMLID_6276_" x="21" y="74.2" class="st8" width="2" height="2"/>
				<rect id="XMLID_6275_" x="25" y="74.2" class="st8" width="2" height="2"/>
			</g>
		</g>
		<g id="XMLID_6267_">
			<g id="XMLID_6268_">
				<rect id="XMLID_6272_" x="23" y="76.2" class="st8" width="2" height="2"/>
				<rect id="XMLID_6271_" x="27" y="76.2" class="st8" width="2" height="2"/>
				<rect id="XMLID_6270_" x="21" y="78.2" class="st8" width="2" height="2"/>
				<rect id="XMLID_6269_" x="25" y="78.2" class="st8" width="2" height="2"/>
			</g>
		</g>
		<g id="XMLID_6261_">
			<g id="XMLID_6262_">
				<rect id="XMLID_6266_" x="23" y="80.2" class="st8" width="2" height="2"/>
				<rect id="XMLID_6265_" x="27" y="80.2" class="st8" width="2" height="2"/>
				<rect id="XMLID_6264_" x="21" y="82.2" class="st8" width="2" height="2"/>
				<rect id="XMLID_6263_" x="25" y="82.2" class="st8" width="2" height="2"/>
			</g>
		</g>
		<g id="XMLID_6255_">
			<g id="XMLID_6256_">
				<rect id="XMLID_6260_" x="23" y="84.2" class="st8" width="2" height="2"/>
				<rect id="XMLID_6259_" x="27" y="84.2" class="st8" width="2" height="2"/>
				<rect id="XMLID_6258_" x="21" y="86.2" class="st8" width="2" height="2"/>
				<rect id="XMLID_6257_" x="25" y="86.2" class="st8" width="2" height="2"/>
			</g>
		</g>
		<g id="XMLID_6249_">
			<g id="XMLID_6250_">
				<rect id="XMLID_6254_" x="23" y="88.2" class="st8" width="2" height="2"/>
				<rect id="XMLID_6253_" x="27" y="88.2" class="st8" width="2" height="2"/>
				<rect id="XMLID_6252_" x="21" y="90.2" class="st8" width="2" height="2"/>
				<rect id="XMLID_6251_" x="25" y="90.2" class="st8" width="2" height="2"/>
			</g>
		</g>
		<g id="XMLID_6243_">
			<g id="XMLID_6244_">
				<rect id="XMLID_6248_" x="23" y="92.2" class="st8" width="2" height="2"/>
				<rect id="XMLID_6247_" x="27" y="92.2" class="st8" width="2" height="2"/>
				<rect id="XMLID_6246_" x="21" y="94.2" class="st8" width="2" height="2"/>
				<rect id="XMLID_6245_" x="25" y="94.2" class="st8" width="2" height="2"/>
			</g>
		</g>
		<g id="XMLID_6237_">
			<g id="XMLID_6238_">
				<rect id="XMLID_6242_" x="23" y="96.2" class="st8" width="2" height="2"/>
				<rect id="XMLID_6241_" x="27" y="96.2" class="st8" width="2" height="2"/>
				<rect id="XMLID_6240_" x="21" y="98.2" class="st8" width="2" height="2"/>
				<rect id="XMLID_6239_" x="25" y="98.2" class="st8" width="2" height="2"/>
			</g>
		</g>
		<g id="XMLID_6231_">
			<g id="XMLID_6232_">
				<rect id="XMLID_6236_" x="23" y="100.2" class="st8" width="2" height="2"/>
				<rect id="XMLID_6235_" x="27" y="100.2" class="st8" width="2" height="2"/>
				<rect id="XMLID_6234_" x="21" y="102.2" class="st8" width="2" height="2"/>
				<rect id="XMLID_6233_" x="25" y="102.2" class="st8" width="2" height="2"/>
			</g>
		</g>
		<g id="XMLID_6225_">
			<g id="XMLID_6226_">
				<rect id="XMLID_6230_" x="23" y="104.2" class="st8" width="2" height="2"/>
				<rect id="XMLID_6229_" x="27" y="104.2" class="st8" width="2" height="2"/>
				<rect id="XMLID_6228_" x="21" y="106.2" class="st8" width="2" height="2"/>
				<rect id="XMLID_6227_" x="25" y="106.2" class="st8" width="2" height="2"/>
			</g>
		</g>
	</g>
	<g id="XMLID_6169_">
		<g id="XMLID_6218_">
			<g id="XMLID_6219_">
				<rect id="XMLID_6223_" x="133.1" y="72.2" class="st8" width="2" height="2"/>
				<rect id="XMLID_6222_" x="137.1" y="72.2" class="st8" width="2" height="2"/>
				<rect id="XMLID_6221_" x="131.1" y="74.2" class="st8" width="2" height="2"/>
				<rect id="XMLID_6220_" x="135.1" y="74.2" class="st8" width="2" height="2"/>
			</g>
		</g>
		<g id="XMLID_6212_">
			<g id="XMLID_6213_">
				<rect id="XMLID_6217_" x="133.1" y="76.2" class="st8" width="2" height="2"/>
				<rect id="XMLID_6216_" x="137.1" y="76.2" class="st8" width="2" height="2"/>
				<rect id="XMLID_6215_" x="131.1" y="78.2" class="st8" width="2" height="2"/>
				<rect id="XMLID_6214_" x="135.1" y="78.2" class="st8" width="2" height="2"/>
			</g>
		</g>
		<g id="XMLID_6206_">
			<g id="XMLID_6207_">
				<rect id="XMLID_6211_" x="133.1" y="80.2" class="st8" width="2" height="2"/>
				<rect id="XMLID_6210_" x="137.1" y="80.2" class="st8" width="2" height="2"/>
				<rect id="XMLID_6209_" x="131.1" y="82.2" class="st8" width="2" height="2"/>
				<rect id="XMLID_6208_" x="135.1" y="82.2" class="st8" width="2" height="2"/>
			</g>
		</g>
		<g id="XMLID_6200_">
			<g id="XMLID_6201_">
				<rect id="XMLID_6205_" x="133.1" y="84.2" class="st8" width="2" height="2"/>
				<rect id="XMLID_6204_" x="137.1" y="84.2" class="st8" width="2" height="2"/>
				<rect id="XMLID_6203_" x="131.1" y="86.2" class="st8" width="2" height="2"/>
				<rect id="XMLID_6202_" x="135.1" y="86.2" class="st8" width="2" height="2"/>
			</g>
		</g>
		<g id="XMLID_6194_">
			<g id="XMLID_6195_">
				<rect id="XMLID_6199_" x="133.1" y="88.2" class="st8" width="2" height="2"/>
				<rect id="XMLID_6198_" x="137.1" y="88.2" class="st8" width="2" height="2"/>
				<rect id="XMLID_6197_" x="131.1" y="90.2" class="st8" width="2" height="2"/>
				<rect id="XMLID_6196_" x="135.1" y="90.2" class="st8" width="2" height="2"/>
			</g>
		</g>
		<g id="XMLID_6188_">
			<g id="XMLID_6189_">
				<rect id="XMLID_6193_" x="133.1" y="92.2" class="st8" width="2" height="2"/>
				<rect id="XMLID_6192_" x="137.1" y="92.2" class="st8" width="2" height="2"/>
				<rect id="XMLID_6191_" x="131.1" y="94.2" class="st8" width="2" height="2"/>
				<rect id="XMLID_6190_" x="135.1" y="94.2" class="st8" width="2" height="2"/>
			</g>
		</g>
		<g id="XMLID_6182_">
			<g id="XMLID_6183_">
				<rect id="XMLID_6187_" x="133.1" y="96.2" class="st8" width="2" height="2"/>
				<rect id="XMLID_6186_" x="137.1" y="96.2" class="st8" width="2" height="2"/>
				<rect id="XMLID_6185_" x="131.1" y="98.2" class="st8" width="2" height="2"/>
				<rect id="XMLID_6184_" x="135.1" y="98.2" class="st8" width="2" height="2"/>
			</g>
		</g>
		<g id="XMLID_6176_">
			<g id="XMLID_6177_">
				<rect id="XMLID_6181_" x="133.1" y="100.2" class="st8" width="2" height="2"/>
				<rect id="XMLID_6180_" x="137.1" y="100.2" class="st8" width="2" height="2"/>
				<rect id="XMLID_6179_" x="131.1" y="102.2" class="st8" width="2" height="2"/>
				<rect id="XMLID_6178_" x="135.1" y="102.2" class="st8" width="2" height="2"/>
			</g>
		</g>
		<g id="XMLID_6170_">
			<g id="XMLID_6171_">
				<rect id="XMLID_6175_" x="133.1" y="104.2" class="st8" width="2" height="2"/>
				<rect id="XMLID_6174_" x="137.1" y="104.2" class="st8" width="2" height="2"/>
				<rect id="XMLID_6173_" x="131.1" y="106.2" class="st8" width="2" height="2"/>
				<rect id="XMLID_6172_" x="135.1" y="106.2" class="st8" width="2" height="2"/>
			</g>
		</g>
	</g>
	<g id="XMLID_1_">
		<path id="XMLID_2_" class="st9" d="M45.5,97.5c0.8-0.4,1.6-0.8,2.2-1.2c0.7-0.4,1.2-0.8,1.7-1.3s0.9-1,1.3-1.5
			c0.4-0.5,0.7-1.1,0.9-1.8h-6.1c-0.3,0-0.5-0.1-0.6-0.2c-0.1-0.1-0.2-0.3-0.2-0.5s0.1-0.4,0.2-0.5c0.1-0.1,0.3-0.2,0.6-0.2h6.5
			c0.2-1,0.4-2.3,0.4-3.7h-6c-0.3,0-0.5-0.1-0.6-0.2c-0.1-0.1-0.2-0.3-0.2-0.5s0.1-0.4,0.2-0.5c0.1-0.1,0.3-0.2,0.6-0.2h2.7
			c-0.3-0.8-0.7-1.5-1.1-2.2c-0.2-0.3-0.3-0.5-0.3-0.7c0-0.2,0.1-0.4,0.3-0.5c0.4-0.3,0.8-0.2,1.1,0.3c0.3,0.4,0.5,0.9,0.8,1.3
			c0.2,0.5,0.5,1,0.7,1.7h5c0.3-0.6,0.6-1.1,0.8-1.6c0.2-0.5,0.4-0.9,0.5-1.4c0.1-0.2,0.2-0.4,0.4-0.5c0.2-0.1,0.4-0.1,0.6,0
			c0.3,0.1,0.4,0.2,0.5,0.4c0.1,0.2,0,0.4-0.1,0.7c-0.1,0.3-0.2,0.7-0.5,1.1c-0.2,0.4-0.4,0.9-0.7,1.3h3.1c0.3,0,0.5,0.1,0.6,0.2
			c0.1,0.1,0.2,0.3,0.2,0.5s-0.1,0.4-0.2,0.5c-0.1,0.1-0.3,0.2-0.6,0.2H54c0,1.4-0.1,2.6-0.3,3.7H61c0.3,0,0.5,0.1,0.6,0.2
			c0.1,0.1,0.2,0.3,0.2,0.5s-0.1,0.4-0.2,0.5c-0.1,0.1-0.3,0.2-0.6,0.2h-6.6c0.8,1.4,1.8,2.5,2.9,3.5c1.1,0.9,2.3,1.6,3.6,2.1
			c0.4,0.1,0.7,0.3,0.7,0.5s0.1,0.4,0,0.6c-0.1,0.3-0.2,0.4-0.4,0.5c-0.2,0-0.4,0-0.8-0.2c-1.5-0.6-2.8-1.4-4-2.5
			c-1.2-1.1-2.3-2.4-3.2-4c-0.3,0.7-0.6,1.4-1,2c-0.4,0.6-0.9,1.2-1.4,1.7c-0.6,0.5-1.2,1-2,1.5c-0.8,0.5-1.6,0.9-2.6,1.4
			C45.8,99,45.6,99,45.4,99c-0.2,0-0.4-0.2-0.5-0.5c-0.1-0.3-0.1-0.5,0-0.6C45,97.8,45.2,97.6,45.5,97.5z"/>
		<path id="XMLID_4_" class="st9" d="M64.5,84.5c-0.3,0-0.4-0.1-0.5-0.2c-0.1-0.1-0.1-0.3-0.1-0.5c0-0.2,0-0.4,0.1-0.5
			c0.1-0.1,0.2-0.2,0.5-0.2h13.7c0.3,0,0.5,0.1,0.5,0.2s0.1,0.3,0.1,0.5c0,0.2,0,0.4-0.1,0.5c-0.1,0.1-0.3,0.2-0.5,0.2h-5.7v5.1h6.7
			c0.3,0,0.5,0.1,0.5,0.2c0.1,0.1,0.1,0.3,0.1,0.5s0,0.4-0.1,0.5c-0.1,0.1-0.3,0.2-0.5,0.2h-6.7v5.7c0,0.6-0.2,1.1-0.5,1.5
			c-0.4,0.3-0.9,0.5-1.7,0.5c-0.4,0-0.9-0.1-1.5-0.2c-0.6-0.1-1.3-0.3-2.1-0.5c-0.4-0.1-0.6-0.3-0.7-0.4c-0.1-0.2-0.1-0.3-0.1-0.5
			c0.1-0.2,0.2-0.4,0.4-0.5c0.2-0.1,0.4-0.1,0.8,0c0.7,0.2,1.4,0.4,1.9,0.5s0.9,0.2,1.3,0.2c0.3,0,0.6-0.1,0.7-0.2s0.2-0.3,0.2-0.6
			v-5.5h-7.7c-0.3,0-0.4-0.1-0.5-0.2c-0.1-0.1-0.1-0.3-0.1-0.5s0-0.4,0.1-0.5c0.1-0.1,0.2-0.2,0.5-0.2h7.7v-5.1H64.5z"/>
		<path id="XMLID_6_" class="st9" d="M90.3,82.7c0-0.4,0-0.6,0.1-0.7c0.1-0.1,0.3-0.1,0.6-0.1c0.3,0,0.5,0.1,0.6,0.2
			s0.2,0.4,0.2,0.7c0,0.7,0,1.4,0.1,2.2s0.1,1.5,0.2,2.3h5.5c0.3,0,0.4,0.1,0.5,0.2s0.1,0.3,0.1,0.5c0,0.2,0,0.4-0.1,0.5
			s-0.2,0.2-0.5,0.2h-5.3c0.1,0.7,0.2,1.3,0.4,2c0.2,0.6,0.4,1.2,0.6,1.8c0.3-0.5,0.6-1,0.8-1.4c0.2-0.5,0.4-1,0.6-1.5
			c0.1-0.3,0.2-0.4,0.4-0.6s0.4-0.2,0.6-0.1c0.3,0.1,0.4,0.2,0.5,0.4c0,0.2,0,0.4-0.1,0.7c-0.3,0.8-0.6,1.5-0.9,2.1
			c-0.3,0.6-0.7,1.3-1.3,2c0.3,0.6,0.6,1.2,0.9,1.8c0.3,0.6,0.7,1,1,1.4c0.1,0.1,0.2,0.1,0.3,0.1c0.1,0,0.2-0.2,0.3-0.5
			c0-0.1,0.1-0.2,0.1-0.4s0.1-0.3,0.1-0.5s0.1-0.3,0.1-0.5c0-0.2,0.1-0.3,0.1-0.5c0-0.3,0.1-0.5,0.2-0.6c0.1-0.1,0.3-0.1,0.6-0.1
			c0.4,0.1,0.6,0.3,0.6,0.7c0,0.2,0,0.5-0.1,0.8s-0.1,0.7-0.2,1.1c-0.1,0.4-0.2,0.7-0.3,1c-0.1,0.3-0.2,0.5-0.3,0.6
			c-0.3,0.4-0.7,0.6-1.1,0.6c-0.3,0-0.6-0.1-0.9-0.4c-0.4-0.4-0.8-1-1.2-1.5c-0.4-0.6-0.8-1.2-1.1-2c-0.5,0.5-1.1,1-1.8,1.5
			c-0.7,0.5-1.4,0.9-2.1,1.3c-0.3,0.2-0.6,0.2-0.8,0.2c-0.2,0-0.3-0.1-0.4-0.2c-0.2-0.3-0.2-0.5-0.2-0.7c0.1-0.2,0.2-0.3,0.5-0.5
			c0.9-0.4,1.7-0.9,2.3-1.4c0.7-0.5,1.3-1,1.8-1.6c-0.3-0.9-0.6-1.7-0.8-2.6c-0.2-0.9-0.4-1.7-0.5-2.6h-3.9v2.9l2.6-0.7
			c0.2-0.1,0.3-0.1,0.5,0c0.1,0.1,0.2,0.2,0.3,0.5c0.1,0.2,0.1,0.4,0,0.6s-0.2,0.2-0.4,0.3c-0.5,0.1-1,0.3-1.5,0.4s-1,0.3-1.5,0.4
			v3.9c0,0.7-0.2,1.2-0.6,1.6c-0.4,0.4-0.9,0.5-1.6,0.5c-0.7,0-1.5-0.2-2.5-0.7c-0.3-0.1-0.4-0.3-0.5-0.5c-0.1-0.2,0-0.4,0.1-0.6
			c0.2-0.4,0.6-0.5,1.1-0.2c0.8,0.3,1.4,0.5,1.9,0.5c0.2,0,0.4-0.1,0.5-0.2s0.2-0.3,0.2-0.6v-3.4c-0.6,0.2-1.1,0.3-1.7,0.4
			c-0.6,0.1-1.1,0.3-1.7,0.4c-0.2,0.1-0.4,0-0.5,0c-0.2-0.1-0.2-0.2-0.3-0.4c-0.1-0.3-0.1-0.5,0-0.6c0.1-0.1,0.2-0.2,0.4-0.3
			c0.6-0.2,1.2-0.3,1.8-0.5c0.6-0.2,1.2-0.3,1.8-0.5v-3.3h-4c-0.3,0-0.4-0.1-0.5-0.2c-0.1-0.1-0.1-0.3-0.1-0.5c0-0.2,0-0.4,0.1-0.5
			c0.1-0.1,0.2-0.2,0.5-0.2h4v-2.4c-1.1,0.2-2.1,0.4-3.1,0.4c-0.3,0-0.5,0-0.6-0.1c-0.1-0.1-0.2-0.2-0.3-0.5c-0.1-0.3,0-0.5,0.2-0.6
			c0.2-0.1,0.4-0.2,0.7-0.2c1.3-0.1,2.5-0.2,3.5-0.5c1-0.3,2-0.6,2.9-1c0.3-0.1,0.6-0.2,0.7-0.1c0.2,0.1,0.3,0.2,0.4,0.4
			c0.1,0.2,0.1,0.4,0,0.6c-0.1,0.1-0.2,0.3-0.5,0.4c-0.4,0.2-0.8,0.3-1.2,0.5c-0.4,0.1-0.8,0.3-1.2,0.4v2.8h3.7
			c-0.1-0.7-0.1-1.5-0.2-2.2S90.3,83.5,90.3,82.7z M93.3,82.7c1.1,0.8,2.1,1.6,3,2.5c0.2,0.2,0.4,0.4,0.4,0.6c0,0.2,0,0.4-0.2,0.5
			c-0.2,0.2-0.4,0.3-0.5,0.3c-0.2,0-0.4-0.2-0.6-0.4c-0.2-0.2-0.4-0.3-0.6-0.5s-0.4-0.4-0.7-0.6s-0.5-0.4-0.7-0.6s-0.5-0.4-0.7-0.5
			c-0.3-0.2-0.4-0.4-0.5-0.5s0-0.3,0.1-0.5c0.1-0.2,0.2-0.2,0.4-0.3C92.9,82.6,93.1,82.6,93.3,82.7z"/>
		<path id="XMLID_9_" class="st9" d="M98.9,89.9c0.7-1.1,1.3-2.2,1.8-3.4c0.5-1.2,0.9-2.3,1.3-3.6c0.1-0.3,0.2-0.5,0.3-0.7
			c0.1-0.1,0.3-0.2,0.5-0.1c0.5,0.1,0.6,0.5,0.5,1.1c-0.2,0.6-0.4,1.1-0.6,1.7c-0.2,0.5-0.4,1.1-0.6,1.6v11.8c0,0.3-0.1,0.4-0.2,0.5
			c-0.1,0.1-0.3,0.1-0.5,0.1c-0.2,0-0.4,0-0.5-0.1c-0.1-0.1-0.2-0.3-0.2-0.5v-8.9c-0.1,0.3-0.3,0.5-0.4,0.7
			c-0.1,0.2-0.3,0.5-0.4,0.7c-0.2,0.2-0.4,0.4-0.6,0.4c-0.2,0.1-0.4,0-0.6-0.2c-0.2-0.2-0.2-0.3-0.2-0.5
			C98.5,90.4,98.7,90.2,98.9,89.9z M105.4,98.3c0,0.2-0.1,0.4-0.2,0.5c-0.1,0.1-0.3,0.2-0.5,0.2c-0.2,0-0.4,0-0.5-0.1
			c-0.1-0.1-0.2-0.3-0.2-0.5V84.9c0-0.3,0.1-0.4,0.2-0.5s0.3-0.1,0.5-0.1s0.4,0,0.5,0.1s0.2,0.3,0.2,0.5V98.3z M108.1,85
			c-0.2,0.1-0.3,0.1-0.5,0.1c-0.2-0.1-0.3-0.2-0.5-0.4c-0.2-0.3-0.5-0.6-0.8-0.8c-0.3-0.3-0.7-0.6-1-0.9c-0.3-0.2-0.4-0.4-0.4-0.5
			c0-0.1,0-0.3,0.2-0.5c0.1-0.2,0.3-0.2,0.4-0.2c0.2,0,0.4,0.1,0.7,0.3c0.4,0.3,0.7,0.6,1,0.9c0.3,0.3,0.7,0.6,1,1
			c0.2,0.2,0.3,0.4,0.3,0.6S108.3,84.9,108.1,85z M115.2,96.3c0,0.7-0.2,1.3-0.6,1.7c-0.4,0.4-0.9,0.6-1.6,0.7c-0.3,0-0.6,0-1-0.1
			c-0.4-0.1-0.7-0.2-1.1-0.3c-0.4-0.2-0.7-0.3-0.8-0.4c-0.1-0.1-0.1-0.3,0-0.6c0.1-0.2,0.2-0.4,0.4-0.4c0.2,0,0.4,0,0.7,0.1
			c0.3,0.1,0.6,0.2,0.9,0.3c0.3,0.1,0.5,0.1,0.7,0.1c0.6,0,1-0.4,1-1.1V84.6c0-0.1,0-0.2,0-0.3c0,0-0.1-0.1-0.2-0.1h-4.2
			c-0.3,0-0.4-0.1-0.5-0.2c-0.1-0.1-0.1-0.3-0.1-0.5c0-0.2,0.1-0.4,0.2-0.5c0.1-0.1,0.3-0.2,0.5-0.2h4.2c0.3,0,0.6,0,0.8,0
			c0.2,0,0.4,0.1,0.5,0.2c0.1,0.1,0.2,0.3,0.2,0.5s0.1,0.5,0.1,0.8V96.3z"/>
	</g>
	<rect id="_x3C_切片_x3E__7_" class="st10" width="160" height="110"/>
</g>
</svg>
