<svg id="图层_1" data-name="图层 1" xmlns="http://www.w3.org/2000/svg" viewBox="0 0 570 500"><defs><style>.cls-1{fill:#7fcc83;}.cls-2{opacity:0.45;}</style></defs><title>画板 4 副本</title><path class="cls-1" d="M204.18,283.83a16.18,16.18,0,0,1-.82,7.34,51.48,51.48,0,0,1,4.89,1.63,25.86,25.86,0,0,1,4.89,1.63q-1.22,8.16-2.45,13.05-2.86,10.6-16.31,10.2H169.92q-16.73.4-16.72-16.31V281.79H137.7q.4,23.25-9.79,37.52a161,161,0,0,0-15.09-8.16q9.38-13,8.56-38.34v-46.9h82.79Zm-66.07-43.64v6.93H153.2v-6.93Zm0,20.8v6.93H153.2V261Zm43.64,26.1q6.12.41,5.71-4.49v-.82H169.92v16.72q-.41,6.53,6.53,6.12H189.9q5.71.41,6.53-4.89v-.82a3.18,3.18,0,0,0,.41-1.22,18.93,18.93,0,0,1-6.53,1.63H175.63a56.41,56.41,0,0,0-3.26-12.24Zm5.71-46.9H169.92v6.93h17.54ZM169.92,261v6.93h17.54V261Z"/><path class="cls-1" d="M309,251.61V266.7h-31.4v10.2h38.75v15.5H277.59v7.34q.4,17.53-15.91,17.94a85.54,85.54,0,0,1-10.2.41q-6.94.4-10.2.41a114.27,114.27,0,0,0-3.67-15.91q4.48.41,13.87.41,9,.41,8.56-8.16V292.4H218V276.9h42V266.7H225.39V251.61h34.67v-9.79q-16.32.41-33.44,1.22-1.22-9.38-2.45-15.91,46.9-.81,83.2-2.85l3.26,15.5q-15.91.41-33,1.22v10.6Z"/><path class="cls-1" d="M329.79,284.24h35.89V281q-6.94.41-15.5.41H329a36.79,36.79,0,0,0-1.63-9.79q33.44,0,85.24-.82l1.22,9.79H399.13q-11,.41-17.13.41v3.26h31v8.56H382v3.26h37.93v10.6H382q-.41,11.82-12.24,12.24-5.72.4-20.39.41a11.35,11.35,0,0,0-.41-2.45q-.82-2.45-2.45-8.56,5.71.4,13.46.41c2.71,0,4.49-.68,5.3-2H322.45v-10.6h43.23V292.8H329.79Zm20.8-61.18,7.34,9h5.3v-10.6h16.31V232h5.3l7.34-9,17.54,1.63L403.21,232h15.5v20.39H407.28v15.5H335.5v-15.5H324.08V232h15.5l-6.53-7.34Zm-10.2,19.17v3.67h62v-3.67ZM351.82,259H391v-4.08H351.82Z"/><path class="cls-1" d="M519.85,251.2v40.38H480.29v10.6h44v13.87h-60V277.31l-6.12,6.93-6.12-5.71v40.78H437.06V283.83a122.48,122.48,0,0,1-8.16,15.91q-2-14.68-3.26-22.84a120.43,120.43,0,0,0,11-23.25h-9V239.38h9.38V221.43h15.09v17.95h9.38v14.27h-9.38v11.42l2.85-2.85,4.89,3.67a45.53,45.53,0,0,0,4.49,4.08V226.33h59.14V240.6H480.29v10.6Zm-15.91,13.87H480.29v12.64h23.66Z"/><path class="cls-1" d="M183.34,201.26l-.48-1.69a5.15,5.15,0,0,0,1-.12q3.49-.6,5.78-1v-6.26h-6.75v-1.45h6.75V185.6q-.72.12-2.17.24-2.53.24-3.25.36c-.08-.32-.2-.72-.36-1.21a.91.91,0,0,1-.12-.36q6-.6,12-1.57l.48,1.45a7.48,7.48,0,0,1-1.2.24q-1,.12-3.74.6v5.42h8.55q-.24-4.34-.24-9.16h1.69q0,4.82.24,9.16h10.72v1.45H201.53q.12.84.24,2.53a10.21,10.21,0,0,1,.24,1.81,36.49,36.49,0,0,0,.84,4.58,38,38,0,0,0,5.78-6.51l1.45,1a38,38,0,0,1-6.75,7.23,12.47,12.47,0,0,0,1.21,2.77q1.45,2.89,3.37,2.89,1.32,0,1.81-1.69a17.35,17.35,0,0,0,.84-4,1.28,1.28,0,0,0,.48.24l1.08.36a30.59,30.59,0,0,1-1,4.1,3.15,3.15,0,0,1-3.25,2.65q-2.89.12-4.94-4a8.82,8.82,0,0,1-1-2.17,39.48,39.48,0,0,1-7.59,4.46,5.42,5.42,0,0,0-1.08-1.32,31.11,31.11,0,0,0,8.07-4.82,35.62,35.62,0,0,1-1.08-5.54c0-.32,0-.84-.12-1.57a25.48,25.48,0,0,1-.24-3h-8.67v5.9q1.45-.24,4.22-.84l1.81-.36v1.57a26.44,26.44,0,0,0-2.65.6q-2.17.36-3.37.6v7q.12,3-3,3.13a31.69,31.69,0,0,1-3.49.12,8.89,8.89,0,0,0-.36-1.69h3.25q2,.12,1.93-1.57v-6.63a13,13,0,0,1-1.57.24Q186.71,200.54,183.34,201.26Zm20.24-16.75,1.21-1.08q2.29,1.81,4.94,4.34l-1.21,1.08q-.24-.24-1.2-1.08Z"/><path class="cls-1" d="M216.26,186.68h3.13q1-2.89,1.45-4.94l1.69.36q-.72,2.41-1.45,4.58h6.14v23.13h-1.69V207.4h-7.71v2.65h-1.57Zm1.57,1.45v8.19h7.71v-8.19Zm0,9.64v8.31h7.71v-8.31Zm12-4.58a5.14,5.14,0,0,1-.72-.48l-.72-.36a46.73,46.73,0,0,0,4.58-10.6l1.69.36q-.72,2.17-1.69,4.46h10v1.93q-.24,10.72-.6,16.51.12,4.7-5.18,4.82h-4.7a.94.94,0,0,0-.12-.36,3.35,3.35,0,0,0-.36-1.32q1.69.12,4.94.12,3.85.12,3.85-3.49.24-3,.36-12.65.12-2.77.12-4H232.4A48.09,48.09,0,0,1,229.87,193.19Zm1.32,1.45,1.2-1q.24.36.72,1,2.65,3.25,4.1,5.42l-1.32,1Q233.61,197.65,231.2,194.63Z"/><path class="cls-1" d="M248.21,194.87a6.25,6.25,0,0,0-1.2-1.32,16.53,16.53,0,0,0,7.11-6.75h-5.9v-1.32h6.14v-3.86h1.45v3.86h4.82v1.32H255.8v3l.72-1.08q2.29,1.2,4.46,2.29l-1,1.32q-2-1.2-4.22-2.41v4.46h-1.45v-5.78A18.19,18.19,0,0,1,248.21,194.87Zm9.52-.6,1.57.6q-.72,1-1.57,2h13.73v1.45q-5.9,9.64-22.29,12.29a1.27,1.27,0,0,1-.24-.48l-.6-1.21q15.18-2.05,21.2-10.6h-13l-1.21,1.2,1.57,1.21q1.93,1.45,3.13,2.41l-1.08,1.2q-2.77-2.29-4.7-3.73l-.24.24q-1.57,1.21-3.86,2.77a8.45,8.45,0,0,1-1.08-1.32A27.34,27.34,0,0,0,257.73,194.27Zm9.52-12.65h1.45v3.86h6.63v1.32h-6.51a17.31,17.31,0,0,0,7.47,6,8.37,8.37,0,0,0-1.08,1.45,15.47,15.47,0,0,1-6.51-5.78v5.9h-1.45v-5.78a17,17,0,0,1-6,5.9,7.16,7.16,0,0,0-1.08-1.32,17.32,17.32,0,0,0,7-6.39h-4.7v-1.32h4.82Z"/><path class="cls-1" d="M280.17,197.76a6.55,6.55,0,0,0-.72-1.08,1.52,1.52,0,0,0-.24-.36,27.46,27.46,0,0,0,5.54-8.43h-4.94v-1.45h5.06v-4.7h1.45v4.7h4.58v1.45h-4.58v3.25l.84-.72q1.81,1.45,3.61,3l-1.08,1.08c-.24-.24-.6-.56-1.08-1q-1.45-1.32-2.29-2v8.19h-1.45v-9.4A26.93,26.93,0,0,1,280.17,197.76Zm2.17,3.85,1.57.48q-1.69,4.1-2.89,6.39a9.74,9.74,0,0,0-1.57-.84A23.4,23.4,0,0,0,282.34,201.62Zm4.58-.24h1.69v4.7q-.12,2,2.77,2h5.3q2.65,0,3.13-2,.24-1.45.48-2.53a6.78,6.78,0,0,0,1.57.48,25.17,25.17,0,0,1-.72,2.89q-.72,2.77-4.1,2.77h-6q-4.1,0-4.1-3.37Zm4.94-.12,1.21-1q1.81,1.81,3.61,3.73l-1.32,1.08-2.29-2.65A8.3,8.3,0,0,1,291.86,201.26Zm14.1-2.17H292.46v-16H306ZM294,184.39V188h10.36v-3.61Zm0,4.94v3.49h10.36v-3.49Zm0,4.82v3.49h10.36v-3.49Zm9.16,8.31,1.32-.84q.6.84,1.81,2.29,1.32,1.81,2,2.77l-1.33.72a23.93,23.93,0,0,1-2.17-2.65Q303.78,203.19,303.18,202.46Z"/><path class="cls-1" d="M314.53,200.41l1.45.6a48.66,48.66,0,0,1-3.13,5.9,2.06,2.06,0,0,1-1-.36,1.26,1.26,0,0,1-.48-.24A36.72,36.72,0,0,0,314.53,200.41Zm4.34-14.7h7.47v1.45H311.52v-1.45h7.35a1,1,0,0,0-.12-.36,22.66,22.66,0,0,0-1-3.49l1.57-.36q.24.84.72,2.41l.36,1.45Zm-5.42,4.7h11.32v7.83h-4.94v8.67q.24,3-3,3h-2.17a3.45,3.45,0,0,0-.36-1.57,12.71,12.71,0,0,1,1.33.12h1q1.81,0,1.69-1.57v-8.67h-4.82Zm1.57,1.45v5.06h8.19v-5.06Zm6.39,8.92,1.21-.72a4.76,4.76,0,0,1,.6.84q1.32,1.81,1.93,2.77l-1.21.84a12.37,12.37,0,0,0-1.2-1.69A18.89,18.89,0,0,0,321.4,200.78Zm8.31-19.16h1.57q0,5.66-.12,8.67h8.43v1.45h-5.3v14.7q-.12,1.81,1.69,1.69h.6q1.81.12,2-1.93a22.84,22.84,0,0,0,.36-4,2.79,2.79,0,0,1,.84.24,3.93,3.93,0,0,1,.72.24,28.52,28.52,0,0,1-.48,4q-.36,3.13-3.37,3h-1.08q-2.89,0-2.89-2.77V191.74H331q-.36,12.17-6.75,18.67a7.14,7.14,0,0,1-1.32-1.08q6.51-6.38,6.51-17.59h-3.25v-1.45h3.37Q329.71,187.52,329.71,181.62Zm3.49,3.13,1.08-1.08q2.29,1.69,4.1,3.13L337.3,188Q336.34,187.16,333.21,184.75Z"/><path class="cls-1" d="M349.26,199.45l1.57.24a7.28,7.28,0,0,0-.24,1.08l-.36,1.45a8.92,8.92,0,0,0,7.47,5.18v-9.16H343.84V196.8h28.31v1.45H359.26v3.85H370.1v1.32H359.26v4.1h.48q4.34.12,12.77.12a4.18,4.18,0,0,0-.48,1.69q-5.3,0-12.29-.24-7.11.12-10.12-5.06a14.29,14.29,0,0,1-5.3,6.51l-.48-.48a7,7,0,0,0-.6-.72A13.51,13.51,0,0,0,349.26,199.45Zm-1.2-16.38h19.76v10.6H348.06Zm1.57,1.32v3.25h16.51v-3.25Zm0,4.58v3.25h16.51V189Z"/><path class="cls-1" d="M376,197.4a8.51,8.51,0,0,1-.36-1c-.24-.4-.4-.68-.48-.84a54.44,54.44,0,0,0,5.9-13.86l1.57.36a14.84,14.84,0,0,1-.48,1.45,40.43,40.43,0,0,1-1.69,4.7v22.17h-1.57V191.86Q377.48,194.87,376,197.4Zm11.08-15.54h1.57V188h4.82v1.45h-4.82v6.39h3.49v10.48h-7v1.81h-1.57V195.84h3.49v-6.39H382.3V188h4.82Zm-1.93,15.42v7.59h5.42v-7.59Zm18.31,12.65a33.27,33.27,0,0,1-4.82-5.3,32.39,32.39,0,0,1-5.42,5.9l-.48-.48c-.32-.4-.56-.68-.72-.84a27.67,27.67,0,0,0,5.78-6.26,30,30,0,0,1-2.77-10.24,4.34,4.34,0,0,0-.24.6q-.84,1.57-1.33,2.29a8.3,8.3,0,0,0-1.08-1.21,39.13,39.13,0,0,0,4.82-12.65l1.57.12q-.72,3-1.57,5.54h7.23v1.45H402.9q-.6,9.16-3.25,14.22a18.26,18.26,0,0,0,5.06,5.42A9.52,9.52,0,0,0,403.5,209.93Zm-4.82-8.67q2.17-4.09,2.65-12.41h-4.58a.35.35,0,0,1-.12.24,2.06,2.06,0,0,1-.36,1A38.56,38.56,0,0,0,398.69,201.26Z"/><path class="cls-1" d="M407.51,194.39h29.16v1.81H407.51Z"/><path class="cls-1" d="M467.41,195.72q-8.67-4.58-13-11.08a38.84,38.84,0,0,1-13.61,11.69,18.38,18.38,0,0,0-1.2-1.45q10.12-5.42,14.7-13.13l1.69.36-.72,1.21a34.81,34.81,0,0,0,13.37,11,3.46,3.46,0,0,1-.6.72A3.41,3.41,0,0,0,467.41,195.72Zm-14.1-3.13H455v17.83h-1.69Z"/><path class="cls-1" d="M129.48,272.65c-10.49-4.12-21.29-8.43-31-14.29a15.19,15.19,0,0,1-7.65-11c-.32-1.81-.21-3.67-.57-5.46-.26-1.33-1-4.66-3.48-3.52-1.78.81-.46,1.52-.2,2.93a5.07,5.07,0,0,1-5,6.15c-3.12,0-6.08-2.63-8.65-4.17-3.2-1.91-6.59-4-10.2-5-1.53-.43-3.05-1.23-1.82.57s3.78,2.78,5.55,3.71c2.24,1.17,6,2.32,7.18,4.81,1.37,2.87-1.31,5-3.57,6.17a24.32,24.32,0,0,1-4.43,1.94c-.28.08-3.9,2.27-2.42-1,0,0,2.21-.16,2.4-.18,3.13-.37,7.13-1.93,10.26-.82,2.2.78,3.35,3,2.2,5.1-1.43,2.66-5.62,3.66-8.15,4.74-.38.16-4.15,2.2-4.23,2.15-3.59-2,1.35-2,1.3-1.95a12.49,12.49,0,0,1,2.76-.26c2.21-.21,5.83-1.13,7.42,1,1,1.31.53,2.56-.1,3.91a25.91,25.91,0,0,1-1.55,2.49,13.27,13.27,0,0,0-1.21,2.14q-1.29.33.09,0c1.79,0,4.51-2.44,6-3.35a41.9,41.9,0,0,1,6.45-3.57c4.22-1.68,7.91-.26,11.85,1.6,6.44,3,12.5,6.84,19,9.83,2.77,1.28,1.24,5.82-1.56,4.53-6.15-2.85-12-6.35-18-9.36-2-1-4.91-2.73-7.31-2.72-2.21,0-4.57,1.72-6.4,2.82-3,1.83-7.15,5.52-11,5.16-3.59-.33-4.56-4-3.41-6.94a15.88,15.88,0,0,1,1.27-2.34c.26-.44.69-1.56,1.13-1.74l.27-.42,1.15,1.43c-.44.57-4.85.44-5.73.5-2.44.17-6.18.3-6.85-2.79s2.72-4.67,4.95-5.7c1.91-.88,3.94-1.53,5.83-2.47a14.86,14.86,0,0,1,1.9-1.07c.62.21.15,1.81.14,1.82a9,9,0,0,1-2.08.12c-3.16.33-7.33,2.05-10.47.86-2.67-1-3.11-3.92-1.16-5.91,1.18-1.21,3-1.81,4.55-2.46a13.91,13.91,0,0,1,3.1-1.37c.74-.06,2.15.35.79-.07a32.23,32.23,0,0,1-10.24-6c-2.22-2-4.13-5.4-2.15-8.24,1.72-2.46,5-2,7.54-1.28a49.22,49.22,0,0,1,11,5.26c1.21.71,2.38,1.6,3.64,2.23.72.36,2.51,2,3.28.82.12-.19-.73-2.3-.75-2.68-.22-4,4.88-6.71,8.48-5.86,4.6,1.08,5.39,6.82,5.75,10.73.4,4.38,1.71,7.57,5.51,10a80.32,80.32,0,0,0,7.28,3.93c7.46,3.75,15.18,7,22.95,10,2.86,1.13,1.32,5.66-1.56,4.53Z"/><g class="cls-2"><path class="cls-1" d="M121.94,294c-10.95,3.31-22.37,6.82-33.8,8a14.5,14.5,0,0,1-11.3-3.59c-1.23-1-2.24-2.26-3.37-3.39A13.94,13.94,0,0,0,72,293.66c-1.17-.9-5-2.19-4.47.6.28,1.49,2.94,2.25,3.44,4.13a5.43,5.43,0,0,1-1.45,5c-2.16,2.21-5.91,2-8.8,2.38a56.15,56.15,0,0,0-11.36,2.21c-1.17.4-3.63.93-2.45,1.69,1.37.89,4.16.16,5.62-.08,4-.65,13.73-3.77,12,3.93a20,20,0,0,1-2.29,5c-.37.67-.86,2.25-1.42,2.71-.72.6.66,1.3-1.16.11s-.6-.28-.17-1.15c.63-1.27,2.63-2.71,3.62-3.79a20.37,20.37,0,0,1,3.86-3.66c2-1.24,4.66-1.58,5.87.88s-1,5.89-2.18,8.07c-.75,1.36-1.54,3.79-2.59,4.86-.1.1-.24.94-.34,1-.7.15-1.33-1.23-1.32-1.28,0-.32,1.79-1.49,2.09-1.77,1.73-1.6,4-4.88,6.65-4.9,4.72,0,2.41,8.64,3.7,8.83,1,.14,4.75-11.67,5.41-12.91,2.24-4.18,5.85-5.5,10.31-6.57,7.13-1.72,14.47-2.47,21.61-4.18,3-.72,3.88,4,.88,4.71-6.94,1.66-14,2.43-21,4-2.27.52-5,1-6.62,2.71s-2.5,5.06-3.34,7.38c-1.07,3-2.15,7.78-5.27,9.31-3.67,1.8-6.19-1.77-6.76-5-.16-.87-.62-2.79-.37-3.6s-1.13-1.29.93-.45c2.32.95.79.06.58.82-.31,1.11-3.23,3.14-4.16,4-1.88,1.66-5,4-7.26,1.49s.11-6.05,1.31-8.28c.78-1.45,1.68-4.22,2.86-5.29.14-.13.22-.93.38-1l1.27,1.11-.57.47c-.26.72-1.91,1.91-2.44,2.47-1.85,2-4.38,5.91-7.5,5.85-3.54-.07-3.65-3.69-2.63-6.2a33.57,33.57,0,0,1,2.86-5.45c.3-.46.32-1.11.6-1.57-.22.35,1.46.56.56.73s-1.87.24-2.8.41c-3.57.66-7.47,1.84-11.11,1.06-2.69-.58-5.5-2.69-5.08-5.78s4-4.53,6.61-5.38a63,63,0,0,1,12-2.35c1.15-.14,3.7,0,4.65-.57,2.22-1.24-1.6-2.38-2.28-4.27-1.44-4,2.77-9.17,6.87-8.86,4.55.34,7.15,4.64,10.25,7.3,5,4.26,11.27,2.22,17.07,1,8.18-1.7,16.24-3.92,24.24-6.34,2.94-.89,3.81,3.82.88,4.71Z"/></g><g class="cls-2"><path class="cls-1" d="M47.13,274.65a23,23,0,0,0-2.64,12.25c.2,3-4.5,4-4.71.88A28.92,28.92,0,0,1,43.14,272c1.45-2.73,5.42,0,4,2.65Z"/></g><g class="cls-2"><path class="cls-1" d="M58.05,280.32a24.71,24.71,0,0,0-1.25,11.19c.37,3-4.34,4-4.71.88a30.08,30.08,0,0,1,1.43-13.63c1-2.91,5.54-1.36,4.53,1.56Z"/></g><path class="cls-1" d="M66.9,222.15a69.52,69.52,0,0,1,15.71-22.67c2.22-2.14,5.38,1.46,3.17,3.59A63.37,63.37,0,0,0,71.42,223.7c-1.22,2.81-5.75,1.28-4.53-1.56Z"/><path class="cls-1" d="M81.84,216.91a79.85,79.85,0,0,1,16.83-16.19c2.49-1.77,5.68,1.81,3.17,3.59a75.56,75.56,0,0,0-16,15.25c-1.89,2.42-5.88-.22-4-2.65Z"/></svg>