<?xml version="1.0" encoding="utf-8"?>
<!-- Generator: Adobe Illustrator 17.0.0, SVG Export Plug-In . SVG Version: 6.00 Build 0)  -->
<!DOCTYPE svg PUBLIC "-//W3C//DTD SVG 1.1//EN" "http://www.w3.org/Graphics/SVG/1.1/DTD/svg11.dtd">
<svg version="1.1" id="图层_1" xmlns="http://www.w3.org/2000/svg" xmlns:xlink="http://www.w3.org/1999/xlink" x="0px" y="0px"
	 width="300px" height="70px" viewBox="0 0 300 70" enable-background="new 0 0 300 70" xml:space="preserve">
<g id="XMLID_939_">
	<path id="XMLID_967_" fill="#323333" d="M183.295,21.2h-34l-0.1-0.9c0-0.2,0-0.3,0-0.4c0-2.6,2.3-4.8,4.9-4.5
		c1.1-2.7,3.7-4.5,6.7-4.5c2.5,0,4.7,1.3,6.1,3.3c1.7-0.7,3.8-0.4,5.3,0.6c0.7-0.3,1.5-0.5,2.2-0.5c1.5,0,2.8,0.6,3.8,1.6
		c0.5-0.2,0.9-0.3,1.4-0.3c2.2,0,3.9,1.8,3.9,3.9c0,0.3,0,0.6-0.1,0.9L183.295,21.2z M151.195,19.2h30.3c-0.2-0.9-0.9-1.6-1.9-1.6
		c-0.4,0-0.8,0.1-1.1,0.4l-0.8,0.6l-0.6-0.9c-0.6-0.9-1.6-1.5-2.7-1.5c-0.6,0-1.2,0.2-1.8,0.5l-0.6,0.4l-0.6-0.5
		c-0.5-0.4-1.3-1-2.5-1c-0.7,0-1.3,0.2-1.9,0.6l-1,0.6l-0.5-1c-0.9-1.8-2.7-3-4.7-3c-2.4,0-4.5,1.6-5.1,3.9l-0.3,1l-1-0.3
		c-0.3-0.1-0.5-0.1-0.8-0.1C152.495,17.3,151.495,18.1,151.195,19.2z"/>
	<path id="XMLID_961_" fill="#323333" d="M240.095,45.3h-1.2c-0.8,0-1.5-0.7-1.5-1.5v-9.7c0-0.8-0.7-1.5-1.5-1.5h-4.7
		c-0.8,0-1.4,0.6-1.4,1.4s-0.6,1.4-1.4,1.4h-4.7c-0.8,0-1.5,0.7-1.5,1.5v4.6c0,0.8-0.7,1.5-1.5,1.5h-0.3c-0.8,0-1.5-0.7-1.5-1.5
		V31.3c0-0.8-0.7-1.5-1.5-1.5h-3.7c-0.8,0-1.5,0.7-1.5,1.5v5.3c0,0.8-0.6,1.4-1.4,1.4l0,0c-0.8,0-1.4,0.6-1.4,1.4v1.1
		c0,0.8-0.7,1.5-1.5,1.5s-1.5,0.7-1.5,1.5v6.4c0,0.8-0.7,1.5-1.5,1.5h-1.4c-0.8,0-1.5-0.7-1.5-1.5V33.5c0-0.6-0.3-1.1-0.8-1.4
		l-0.1-0.1c-0.5-0.3-0.8-0.8-0.8-1.4v-2.5c0-0.6-0.3-1.1-0.9-1.4l-1.2-0.6c-0.5-0.2-0.8-0.7-0.9-1.3l-0.3-5.9l-0.1,5.9
		c0,0.5-0.3,1-0.8,1.3l-1.2,0.7c-0.5,0.3-0.8,0.8-0.8,1.3v2.6c0,0.5-0.3,1-0.7,1.3l-0.5,0.3c-0.4,0.3-0.7,0.8-0.7,1.3v12.3
		c0,0.8-0.7,1.5-1.5,1.5h-1.8c-0.8,0-1.5,0.7-1.5,1.5v3.7c0,0.8-0.7,1.5-1.5,1.5h-1.8c-0.8,0-1.5-0.7-1.5-1.5v-10
		c0-0.8-0.7-1.5-1.5-1.5h-3.7c-0.8,0-1.5,0.7-1.5,1.5v0.9c0,0.8-0.7,1.5-1.5,1.5h-1.5c-0.8,0-1.5,0.7-1.5,1.5v6.1
		c0,0.8-0.7,1.5-1.5,1.5h-0.3c-0.8,0-1.5-0.7-1.5-1.5V39.1c0-0.6-0.4-1.2-1-1.4l-7.6-2.6c-0.2-0.1-0.3-0.1-0.5-0.1
		c-0.8,0-1.5,0.7-1.5,1.5v19.9c0,0.8-0.6,1.4-1.4,1.4l0,0c-0.8,0-1.4-0.6-1.4-1.4V44.1c0-0.8-0.7-1.5-1.5-1.5h-3.9
		c-0.8,0-1.5,0.7-1.5,1.5v12.5c0,0.7-0.5,1.2-1.2,1.2s-1.2-0.5-1.2-1.2v-1.5c0-0.8-0.7-1.5-1.5-1.5h-0.1c-0.4,0-0.8-0.3-0.8-0.8
		v-0.6c0-0.4-0.3-0.8-0.8-0.8h-4.9c-0.4,0-0.8,0.3-0.8,0.8v0.6c0,0.4-0.3,0.8-0.8,0.8h-0.6c-0.4,0-0.8,0.3-0.8,0.8v2.3
		c0,0.8-0.7,1.5-1.5,1.5h-0.6c-0.8,0-1.5-0.7-1.5-1.5v-3c0-0.8-0.7-1.5-1.5-1.5h-0.8c-0.4,0-0.8-0.3-0.8-0.8v-0.6
		c0-0.4-0.3-0.8-0.8-0.8h-1.7c-0.8,0-1.5-0.7-1.5-1.5v-3.7c0-0.8-0.7-1.5-1.5-1.5h-3.7c-0.8,0-1.5,0.7-1.5,1.5v5
		c0,0.4-0.3,0.8-0.8,0.8s-0.8-0.3-0.8-0.8V30h24.1h2.8l-0.9-2.6c-0.5-1.4-1.7-2.4-3.2-2.5c-0.9-1-2.2-1.6-3.6-1.6
		c-0.1,0-0.1,0-0.2,0c-0.1,0-0.2,0-0.4,0c-0.6-0.4-1.4-0.6-2.1-0.6c-0.1,0-0.1,0-0.2,0c-0.4,0-0.8,0.1-1.2,0.2
		c-0.1,0-0.3-0.1-0.4-0.1c-1.1-1.7-3-2.7-5.1-2.7l0,0c-0.1,0-0.2,0-0.2,0c-1.6,0.1-3.1,0.7-4.1,1.9c-1,0.1-2,0.4-2.8,1
		c-0.5-0.1-0.9-0.2-1.4-0.2c-0.1,0-0.1,0-0.2,0c-0.3,0-0.6,0.1-0.9,0.1l0,0V11.5c0-0.8-0.7-1.5-1.5-1.5h-8.2c-0.8,0-1.5,0.7-1.5,1.5
		v41.3c0,0.4-0.3,0.8-0.8,0.8l0,0c-0.4,0-0.8-0.3-0.8-0.8V11.5c0-0.8-0.7-1.5-1.5-1.5h-9.2c-0.8,0-1.5,0.7-1.5,1.5v36.9
		c0,0.8-0.7,1.5-1.5,1.5h-1.1c-0.8,0-1.4-0.6-1.4-1.4c0-0.8-0.6-1.4-1.4-1.4h-4.7c-0.8,0-1.5,0.7-1.5,1.5v5.5c0,0.8-0.7,1.5-1.5,1.5
		h-0.9c-0.8,0-1.5-0.7-1.5-1.5v-8.5c0-0.8-0.7-1.5-1.5-1.5h-0.3c-0.8,0-1.5-0.7-1.5-1.5v-1.8c0-0.8-0.7-1.5-1.5-1.5h-6
		c-0.8,0-1.5,0.7-1.5,1.5v4.9c0,0.8-0.7,1.5-1.5,1.5h-0.5c-1.1,0-2,0.9-2,2l0,0v19.3c0,0.8,0.7,1.5,1.5,1.5h180
		c0.8,0,1.5-0.7,1.5-1.5V46.8C241.595,46,240.895,45.3,240.095,45.3z M116.095,24.7h0.1c0.7,0,1.3,0.2,1.8,0.6
		c0.6-0.8,1.5-1.4,2.6-1.4h0.1c0.2,0,0.4,0,0.6,0.1c0.7-1.1,1.9-1.9,3.3-1.9c0.1,0,0.1,0,0.2,0c1.7,0,3.2,1.1,3.8,2.7
		c0.1,0,0.1,0,0.2,0h0.1c0.5,0,1,0.2,1.3,0.4c0.4-0.3,0.8-0.4,1.2-0.4h0.1c0.7,0,1.2,0.3,1.7,0.7c0.3-0.1,0.6-0.2,0.9-0.2h0.1
		c1.2,0,2.2,0.7,2.6,1.7c0.2-0.1,0.4-0.1,0.5-0.1c0,0,0,0,0.1,0c0.8,0,1.4,0.5,1.7,1.2h-30.1c0.4-1,1.4-1.8,2.6-1.8h0.1
		c0.7,0,1.2,0.2,1.7,0.6C113.795,25.6,114.795,24.8,116.095,24.7z M113.595,23.5L113.595,23.5L113.595,23.5z M114.795,22.9
		c-0.1,0-0.3,0.1-0.4,0.1C114.595,23,114.695,23,114.795,22.9z M239.595,68h-179.1V49.2h0.4c1.9,0,3.5-1.6,3.5-3.5v-4.4h4.8v1.4
		c0,1.9,1.5,3.4,3.4,3.5v8.1c0,1.9,1.6,3.5,3.5,3.5h0.9c1.9,0,3.5-1.6,3.5-3.5v-5h3.7c0.3,1.6,1.7,2.7,3.3,2.7h1.1
		c1.9,0,3.5-1.6,3.5-3.5V12h8.2v40.8c0,1.5,1.2,2.8,2.8,2.8s2.8-1.2,2.8-2.8V12h7.3v11.8c-0.2,0.1-0.3,0.3-0.5,0.4
		c-0.3-0.1-0.6-0.1-1-0.1c-0.1,0-0.1,0-0.2,0c-1.9,0.1-3.6,1.3-4.3,3.1l-1.1,2.8h3h4.1v19.8c0,1.5,1.2,2.8,2.8,2.8
		c1.5,0,2.8-1.2,2.8-2.8v-4.6h2.7v3.2c0,1.9,1.6,3.5,3.5,3.5h0.5c0.3,1.2,1.4,2.1,2.7,2.1h0.3v2.6c0,1.9,1.6,3.5,3.5,3.5h0.5
		c1.9,0,3.5-1.6,3.5-3.5v-1.1c1-0.2,1.8-1,2.1-2.1h2.5c0.3,1.1,1.2,2,2.4,2.1v1c0,1.8,1.4,3.2,3.2,3.2s3.2-1.4,3.2-3.2v-12h3v11.8
		c0,1.9,1.5,3.4,3.4,3.4c1.9,0,3.4-1.5,3.4-3.4V37.2l6.6,2.3v13.2c0,1.9,1.6,3.5,3.5,3.5h0.3c1.9,0,3.5-1.6,3.5-3.5V47h1
		c1.9,0,3.5-1.6,3.5-3.5v-0.4h2.7v9.5c0,1.9,1.6,3.5,3.5,3.5h1.8c1.9,0,3.5-1.6,3.5-3.5v-3.2h1.4c1.9,0,3.5-1.6,3.5-3.5v-12l0.3-0.2
		c1-0.7,1.6-1.7,1.6-2.9v-2.3l1-0.5c0,0,0,0,0.1,0c0,0,0.1,0,0.1,0.1l1,0.5v2.2c0,1.3,0.7,2.4,1.8,3.1V50c0,1.9,1.6,3.5,3.5,3.5h1.2
		c1.9,0,3.5-1.6,3.5-3.5v-6c1.7-0.2,3-1.7,3-3.5V40c1.6-0.3,2.7-1.7,2.7-3.3v-4.8h2.7v9.6c0,1.9,1.6,3.5,3.5,3.5h0.3
		c1.9,0,3.5-1.6,3.5-3.5v-4.1h4.2c1.6,0,3-1.2,3.3-2.7h3.7V44c0,1.9,1.6,3.5,3.5,3.5h0.7V68H239.595z"/>
</g>
</svg>
