<?xml version="1.0" encoding="utf-8"?>
<!-- Generator: Adobe Illustrator 17.0.0, SVG Export Plug-In . SVG Version: 6.00 Build 0)  -->
<!DOCTYPE svg PUBLIC "-//W3C//DTD SVG 1.1//EN" "http://www.w3.org/Graphics/SVG/1.1/DTD/svg11.dtd">
<svg version="1.1" id="图层_1" xmlns="http://www.w3.org/2000/svg" xmlns:xlink="http://www.w3.org/1999/xlink" x="0px" y="0px"
	 width="300px" height="70px" viewBox="0 0 300 70" enable-background="new 0 0 300 70" xml:space="preserve">
<g id="XMLID_685_">
	<path id="XMLID_686_" fill="#323333" d="M112.4,5.7c3.6,0,6.6,2.3,7.7,5.5c0.8-0.6,1.8-1,2.9-1c2,0,3.7,1.2,4.4,2.9
		c0.6-0.8,1.5-1.3,2.5-1.3c1.7,0,3,1.3,3.1,2.9H80.8c0.2-2,1.8-3.6,3.8-3.6c0.8,0,1.5,0.2,2.1,0.6c1-1.3,2.6-2.2,4.4-2.2
		c1.2,0,2.2,0.4,3.1,1c1.2-2.5,3.9-4.3,6.9-4.3c2.1,0,3.9,0.8,5.3,2.1C107.9,6.7,110,5.7,112.4,5.7 M112.4,3.7c-2.2,0-4.3,0.7-6.1,2
		c-1.5-1-3.3-1.5-5.2-1.5c-3,0-5.8,1.4-7.6,3.7c-0.8-0.3-1.6-0.4-2.4-0.4c-1.8,0-3.5,0.7-4.9,1.8c-0.5-0.1-1.1-0.2-1.6-0.2
		c-3,0-5.6,2.4-5.8,5.4l-0.2,2.2h2.2h52.3h2.2l-0.2-2.2c-0.2-2.7-2.5-4.7-5.1-4.7c-0.7,0-1.4,0.2-2.1,0.4c-1.3-1.3-3-2-4.8-2
		c-0.7,0-1.3,0.1-2,0.3C119.2,5.5,115.9,3.7,112.4,3.7L112.4,3.7z"/>
	<path id="XMLID_1081_" fill="#313333" d="M153.8,15.2l11-6.8c0.3-0.2,0.6-0.2,0.9,0l10.9,6.8c0.9,0.5,2,0,2-1
		c0-0.5-0.2-0.9-0.6-1.1l-12.1-7.7c-0.4-0.3-1-0.3-1.4,0l-12,7.5c-0.4,0.2-0.7,0.7-0.7,1.1C151.8,15.1,152.9,15.7,153.8,15.2z"/>
	<path id="XMLID_1078_" fill="#313333" d="M170.8,23.4h-10.7c-0.7,0-1.3,0.6-1.3,1.3v10.7c0,0.7,0.6,1.3,1.3,1.3h10.7
		c0.7,0,1.3-0.6,1.3-1.3V24.7C172.1,24,171.5,23.4,170.8,23.4z M169.5,34.6h-8c-0.3,0-0.5-0.2-0.5-0.5v-8c0-0.3,0.2-0.5,0.5-0.5h8
		c0.3,0,0.5,0.2,0.5,0.5v8C170,34.4,169.8,34.6,169.5,34.6z"/>
	<path id="XMLID_1075_" fill="#313333" d="M130.9,35.7h-8c-0.7,0-1.3,0.6-1.3,1.3v8c0,0.7,0.6,1.3,1.3,1.3h8c0.7,0,1.3-0.6,1.3-1.3
		v-8C132.3,36.3,131.7,35.7,130.9,35.7z M129.6,44.3h-5.3c-0.3,0-0.5-0.2-0.5-0.5v-5.3c0-0.3,0.2-0.5,0.5-0.5h5.3
		c0.3,0,0.5,0.2,0.5,0.5v5.3C130.1,44,129.9,44.3,129.6,44.3z"/>
	<path id="XMLID_1072_" fill="#313333" d="M147,35.7h-8c-0.7,0-1.3,0.6-1.3,1.3v8c0,0.7,0.6,1.3,1.3,1.3h8c0.7,0,1.3-0.6,1.3-1.3v-8
		C148.3,36.3,147.7,35.7,147,35.7z M145.7,44.3h-5.3c-0.3,0-0.5-0.2-0.5-0.5v-5.3c0-0.3,0.2-0.5,0.5-0.5h5.3c0.3,0,0.5,0.2,0.5,0.5
		v5.3C146.2,44,145.9,44.3,145.7,44.3z"/>
	<path id="XMLID_1069_" fill="#313333" d="M130.9,51.7h-8c-0.7,0-1.3,0.6-1.3,1.3v8c0,0.7,0.6,1.3,1.3,1.3h8c0.7,0,1.3-0.6,1.3-1.3
		v-8C132.3,52.3,131.7,51.7,130.9,51.7z M129.6,60.3h-5.3c-0.3,0-0.5-0.2-0.5-0.5v-5.3c0-0.3,0.2-0.5,0.5-0.5h5.3
		c0.3,0,0.5,0.2,0.5,0.5v5.3C130.1,60.1,129.9,60.3,129.6,60.3z"/>
	<path id="XMLID_1066_" fill="#313333" d="M147,51.7h-8c-0.7,0-1.3,0.6-1.3,1.3v8c0,0.7,0.6,1.3,1.3,1.3h8c0.7,0,1.3-0.6,1.3-1.3v-8
		C148.3,52.3,147.7,51.7,147,51.7z M145.7,60.3h-5.3c-0.3,0-0.5-0.2-0.5-0.5v-5.3c0-0.3,0.2-0.5,0.5-0.5h5.3c0.3,0,0.5,0.2,0.5,0.5
		v5.3C146.2,60.1,145.9,60.3,145.7,60.3z"/>
	<path id="XMLID_1056_" fill="#313333" d="M181,23.9v-3.7c0-0.7-0.6-1.3-1.3-1.3H176v-1.6c0-0.5-0.2-0.9-0.6-1.1l-9.4-5.7
		c-0.4-0.3-1-0.3-1.4,0l-9.4,5.7c-0.4,0.2-0.6,0.7-0.6,1.1v1.6h-39.2c-0.7,0-1.3,0.6-1.3,1.3v3.7c0,0.7,0.6,1.3,1.3,1.3h39.1v2.1
		h-39.1c-0.7,0-1.3,0.6-1.3,1.3v40.1c0,0.7,0.6,1.3,1.3,1.3h37.7h24.1h2.4c0.7,0,1.3-0.6,1.3-1.3v-40c0-0.7-0.6-1.3-1.3-1.3h-3.7
		v-2.1h3.7C180.4,25.3,181,24.7,181,23.9z M154.5,62.4L154.5,62.4c-0.7,0-1.3,0.6-1.3,1.3V68h-36.4c-0.3,0-0.5-0.2-0.5-0.5V30.1
		c0-0.3,0.2-0.5,0.5-0.5h37.7V62.4z M154.5,23.1h-37.7c-0.3,0-0.5-0.2-0.5-0.5v-1.1c0-0.3,0.2-0.5,0.5-0.5h37.7V23.1z M157,17.5
		l7.8-4.7c0.3-0.2,0.6-0.2,0.8,0l7.8,4.7c0.2,0.1,0.4,0.4,0.4,0.7v44.3h-1.6V51.7v-2c0-3.7-3.1-6.9-6.8-6.8c-3.6,0.1-6.6,3-6.6,6.7
		v2.1v10.7h-2.2V18.2C156.6,17.9,156.8,17.6,157,17.5z M160.9,49.6c0-2.5,2-4.5,4.5-4.5s4.5,2,4.5,4.5H160.9z M170,51.7v10.7h-9.1
		V51.7H170z M175.1,68.1h-19.8v-2.9c0-0.3,0.2-0.5,0.5-0.5h2.9h13.4h2.4c0.3,0,0.5,0.2,0.5,0.5v2.9H175.1z M178.8,30.1v37.4
		c0,0.3-0.2,0.5-0.5,0.5h-1.1v-4.3c0-0.7-0.6-1.3-1.3-1.3l0,0V29.5h2.4C178.6,29.5,178.8,29.8,178.8,30.1z M175.9,21h2.4
		c0.3,0,0.5,0.2,0.5,0.5v1.1c0,0.3-0.2,0.5-0.5,0.5h-2.4V21z"/>
	<path id="XMLID_852_" fill="#323333" d="M207.5,34.5c-0.5,0-1,0.1-1.4,0.3c-1-1-2.4-1.6-3.8-1.6c-0.8,0-1.5,0.2-2.2,0.5
		c-1.5-1.1-3.5-1.3-5.3-0.6c-1.3-2-3.6-3.3-6.1-3.3c-3,0-5.6,1.8-6.7,4.5c-0.3,0-0.7,0-1,0v2c0.2,0,0.4-0.1,0.6-0.1
		c0.2,0,0.5,0,0.8,0.1l1,0.3l0.3-1c0.6-2.3,2.7-3.9,5.1-3.9c2,0,3.9,1.2,4.7,3l0.5,1l1-0.6c0.6-0.4,1.3-0.6,1.9-0.6
		c1.2,0,2,0.5,2.5,1L200,36l0.6-0.4c0.5-0.4,1.2-0.5,1.8-0.5c1.1,0,2.1,0.6,2.7,1.5l0.6,0.9l0.8-0.6c0.3-0.2,0.7-0.4,1.1-0.4
		c0.9,0,1.7,0.7,1.9,1.6H181v2h30.2l0.2-0.8c0.1-0.3,0.1-0.6,0.1-0.9C211.5,36.2,209.7,34.5,207.5,34.5z"/>
</g>
</svg>
