<?xml version="1.0" encoding="utf-8"?>
<!-- Generator: Adobe Illustrator 17.0.0, SVG Export Plug-In . SVG Version: 6.00 Build 0)  -->
<!DOCTYPE svg PUBLIC "-//W3C//DTD SVG 1.1//EN" "http://www.w3.org/Graphics/SVG/1.1/DTD/svg11.dtd">
<svg version="1.1" id="图层_1" xmlns="http://www.w3.org/2000/svg" xmlns:xlink="http://www.w3.org/1999/xlink" x="0px" y="0px"
	 width="133.446px" height="61.322px" viewBox="0 0 133.446 61.322" enable-background="new 0 0 133.446 61.322"
	 xml:space="preserve">
<g>
	<g>
		<g>
			<g>
				<path fill="#FFFFFF" d="M41.714,5.429h-1.049c-1.863,0-2.033,1.552-2.012,2.853v1.134h2.411v1.259h-2.411v8.541h-1.406v-8.541
					h-1.91V9.415h1.91V8.282c0-2.349,0.837-4.176,3.418-4.176h1.049V5.429z"/>
				<path fill="#FFFFFF" d="M53.845,19.215h-1.407v-1.681c-0.734,1.238-2.265,1.89-3.692,1.89c-2.789,0-5.016-2.035-5.016-5.143
					c0-3.104,2.227-5.078,5.016-5.078c1.428,0,2.958,0.59,3.692,1.827V9.415h1.407V19.215z M48.745,18.019
					c1.992,0,3.692-1.323,3.692-3.737c0-2.412-1.932-3.671-3.692-3.671c-2.033,0-3.609,1.427-3.609,3.671
					C45.136,16.466,46.712,18.019,48.745,18.019z"/>
				<path fill="#FFFFFF" d="M59.909,19.215h-1.408v-9.8h1.408v1.615c0.605-1.28,2.118-1.827,3.25-1.827
					c2.391,0,3.799,1.639,3.776,4.304v5.708H65.53v-5.708c0-1.805-0.859-2.916-2.371-2.916c-1.553,0-3.25,0.882-3.25,3.272V19.215z"
					/>
				<path fill="#FFFFFF" d="M72.643,20.977c0.713,1.196,1.866,1.742,3.021,1.742c2.267,0,3.86-1.281,3.843-5.289
					c-0.652,1.281-2.269,1.994-3.696,1.994c-2.79,0-5.013-1.973-5.013-5.078c0-3.105,2.223-5.142,5.013-5.142
					c1.427,0,2.962,0.652,3.696,1.89V9.415h1.404v8.246c0,4.806-2.163,6.441-5.247,6.441c-1.615,0-3.23-0.755-4.218-2.434
					L72.643,20.977z M75.81,18.019c1.764,0,3.696-1.259,3.696-3.673c0-2.412-1.7-3.735-3.696-3.735
					c-2.034,0-3.607,1.553-3.607,3.735C72.202,16.591,73.775,18.019,75.81,18.019z"/>
				<path fill="#FFFFFF" d="M82.479,22.635h1.051c1.869,0,2.036-1.553,2.014-2.854V9.415h1.408v10.365
					c0,2.351-0.84,4.176-3.422,4.176h-1.051V22.635z M86.259,4.756c0.587,0,1.07,0.42,1.07,1.008s-0.483,1.008-1.07,1.008
					c-0.586,0-1.072-0.42-1.072-1.008S85.673,4.756,86.259,4.756z"/>
				<path fill="#FFFFFF" d="M92.323,4.756c0.586,0,1.068,0.42,1.068,1.008s-0.482,1.008-1.068,1.008c-0.589,0-1.07-0.42-1.07-1.008
					S91.734,4.756,92.323,4.756z M92.994,9.415h-1.387v9.8h1.387V9.415z"/>
				<path fill="#FFFFFF" d="M107.097,19.215h-1.41v-1.681c-0.734,1.238-2.265,1.89-3.689,1.89c-2.793,0-5.019-2.035-5.019-5.143
					c0-3.104,2.226-5.078,5.019-5.078c1.425,0,2.955,0.59,3.689,1.827V9.415h1.41V19.215z M101.997,18.019
					c1.992,0,3.689-1.323,3.689-3.737c0-2.412-1.929-3.671-3.689-3.671c-2.039,0-3.61,1.427-3.61,3.671
					C98.387,16.466,99.958,18.019,101.997,18.019z"/>
				<path fill="#FFFFFF" d="M108.688,22.635h1.049c1.868,0,2.036-1.553,2.015-2.854V9.415h1.406v10.365
					c0,2.351-0.842,4.176-3.421,4.176h-1.049V22.635z M112.466,4.756c0.587,0,1.068,0.42,1.068,1.008s-0.481,1.008-1.068,1.008
					c-0.591,0-1.073-0.42-1.073-1.008S111.875,4.756,112.466,4.756z"/>
				<path fill="#FFFFFF" d="M118.528,4.756c0.586,0,1.07,0.42,1.07,1.008s-0.484,1.008-1.07,1.008c-0.588,0-1.071-0.42-1.071-1.008
					S117.94,4.756,118.528,4.756z M119.201,9.415h-1.387v9.8h1.387V9.415z"/>
				<path fill="#FFFFFF" d="M133.299,19.215h-1.406v-1.681c-0.733,1.238-2.267,1.89-3.692,1.89c-2.791,0-5.016-2.035-5.016-5.143
					c0-3.104,2.225-5.078,5.016-5.078c1.426,0,2.959,0.59,3.692,1.827V9.415h1.406V19.215z M128.2,18.019
					c1.992,0,3.692-1.323,3.692-3.737c0-2.412-1.929-3.671-3.692-3.671c-2.034,0-3.609,1.427-3.609,3.671
					C124.591,16.466,126.166,18.019,128.2,18.019z"/>
			</g>
		</g>
		<g>
			<g>
				<path fill="#FFFFFF" d="M66.716,60.163l6.559-30.53h3.707l9.371,24.102l9.285-24.102h3.793l5.759,26.602
					c0.044,0.268,0.358,0.357,0.581,0.357c0.268,0,0.582-0.134,0.939-1.025l3.705,1.427c-0.448,1.117-1.209,2.01-1.832,2.501
					c-0.847,0.669-1.873,0.937-2.857,0.937c-0.713,0-1.205-0.133-1.608-0.268c-1.559-0.536-2.63-1.831-2.944-3.303l-4.197-19.773
					l-8.748,23.076h-3.703l-8.793-23.167l-4.908,23.167H66.716z"/>
			</g>
		</g>
		<g>
			<g>
				<path fill="#FFFFFF" d="M116.175,33.516v8.615v3.881v10.223h17.271v3.929h-21.554V33.516c-0.446,0.09-0.761,0.269-0.938,0.803
					c-0.135,0.403-0.225,0.938-0.178,1.249h-4.063c0-1.604,0.488-2.987,1.473-4.149c0.982-1.204,2.273-1.785,3.883-1.785h21.377
					v3.883H116.175z"/>
				<path fill="#FFFFFF" d="M127.496,44.787c0,1.611-1.31,2.919-2.92,2.919c-1.611,0-2.922-1.308-2.922-2.919
					c0-1.613,1.31-2.92,2.922-2.92C126.187,41.867,127.496,43.174,127.496,44.787z"/>
			</g>
		</g>
		<g>
			<g>
				<path fill="#FFFFFF" d="M34.861,44.586c0-2.097,0.4-4.196,1.339-6.292c0.894-2.01,2.054-3.572,3.527-5.002
					c1.605-1.559,3.213-2.633,5.22-3.436c2.011-0.803,4.107-1.205,6.293-1.205c2.189,0,4.286,0.402,6.295,1.25
					c1.831,0.759,3.57,1.875,5.179,3.392c1.516,1.43,2.768,3.126,3.613,5.044c0.849,1.919,1.291,4.018,1.291,6.25v0.847
					c0,1.787-0.082,3.705-1.247,6.249c-0.89,1.919-2.231,3.661-3.657,5.044c-1.52,1.474-3.127,2.544-5.088,3.348
					c-2.053,0.849-4.197,1.248-6.386,1.248c-2.456,0-4.371-0.489-6.201-1.248c-1.787-0.759-3.573-1.83-5.222-3.394
					c-1.385-1.337-2.637-2.9-3.617-5.043c-0.894-1.919-1.339-4.018-1.339-6.204V44.586z M63.561,44.586
					c0-1.651-0.312-3.259-0.983-4.732c-0.531-1.206-1.472-2.633-2.678-3.839c-2.185-2.186-5.221-3.525-8.705-3.525
					c-1.647,0-3.166,0.313-4.683,0.938c-1.296,0.535-2.632,1.338-3.927,2.588c-2.458,2.409-3.661,5.267-3.661,8.57v0.847
					c0,3.304,1.203,6.16,3.661,8.569c1.116,1.115,2.41,1.965,3.927,2.59c1.517,0.626,3.035,0.936,4.683,0.936
					c3.484,0,6.653-1.426,8.751-3.479c2.407-2.367,3.615-5.535,3.615-8.616V44.586z"/>
				<circle fill="#FFFFFF" cx="51.242" cy="44.787" r="2.918"/>
			</g>
		</g>
		<path fill="#FFFFFF" d="M28.926,37.127c-0.2-0.269-0.405-0.518-0.61-0.758c-0.001-0.003-0.001-0.004-0.002-0.007
			c-0.233-0.838-0.172-1.494,0.957-3.16c1.129-1.667,1.92-1.575,1.92-1.575c1.803,0.462,3.35-2.148,2.987-2.391l-0.127-0.063
			c-2.854-1.091-3.522,1.347-3.562,1.66c-0.04,0.313-0.33,0.479-0.996,1.056c-0.668,0.577-1.399,1.566-1.824,2.345
			c-0.367,0.671-0.952,0.558-0.952,0.558l-0.001,0.004c-1.867-1.539-3.843-2.276-5.648-2.944c-2.258-0.84-4.4-1.634-5.703-3.825
			c-2.504-4.202-3.72-15.536-3.726-16.764c-0.008-1.276-0.377-2.638-0.683-3.433c0.498-0.669,1.291-1.82,1.457-2.579
			c0.245-1.124,1.091-1.076,0.548-1.381c-0.197-0.109-2.795-0.96-3.554,2.255C9.172,5.981,8.941,5.863,8.745,5.799
			C8.603,5.334,9.194,3.635,9.272,3.331c0.173-0.677,0.788-0.329,0.999-0.537c0.705-0.696,0.693-1.286,0.328-1.949
			c-0.302-0.55-0.996-1.249-2.252-0.555C7.96,0.504,7.731,0.764,7.61,1.041c-0.378-0.429-1.074-0.834-2.045-0.09
			c-1.318,1.01-0.137,2.361,0.111,2.69c0.249,0.329,0.633-0.576,0.445-1.1C6.011,2.236,6.171,1.869,6.426,1.674
			c0.196-0.15,0.423,0.017,0.48,0.392C6.94,2.301,6.994,2.297,6.569,2.412C6.145,2.528,6.296,3.275,6.173,4.326
			C6.114,4.838,6.038,5.156,5.976,5.348C5.117,5.5,3.896,6.134,3.189,6.713C2.784,7.044,1.556,8.317,0.546,9.676
			c-0.389,0.521-0.68,1.537-0.482,2.167c0.085,0.265,0.239,0.426,0.488,0.511c0.41,0.14,0.773,0.22,0.99,0.22
			c0.065,0,0.094-0.01,0.104-0.013c0.411-0.112,0.724-0.247,0.995-0.368c0.222-0.098,0.416-0.183,0.613-0.234
			c0.988-0.254,1.342-0.29,1.571-0.29c0.066,0,0.128,0.005,0.184,0.01c0.753,0.066,1.102,0.533,1.215,0.729
			c0.183,0.313,0.349,0.691,0.221,1.561c-0.07,0.503-1.809,14.716-2.391,22.764c-0.65,8.827,0.277,20.654,0.476,22.979h6.38
			c0.27-2.413,1.893-14.282,7.806-14.282s8.886,11.992,9.402,14.282h6.295C34.228,56.939,33.067,42.67,28.926,37.127z
			 M32.945,29.754c0,0-0.578,0.954-0.739,0.941c-0.161-0.013-0.39-0.215-0.377-0.43C31.843,30.05,32.945,29.754,32.945,29.754z
			 M13.03,28.112c0,1.196-0.968,2.164-2.164,2.164c-1.195,0-2.164-0.968-2.164-2.164c0-1.195,0.969-2.166,2.164-2.166
			C12.063,25.946,13.03,26.916,13.03,28.112z M11.68,4.783c0,0,0,0.955-1.222,2.156l-0.211-0.191
			C10.247,6.748,10.779,5.079,11.68,4.783z M9.804,17.572c0.879,0,1.59,0.713,1.59,1.589c0,0.877-0.711,1.587-1.59,1.587
			c-0.877,0-1.588-0.71-1.588-1.587C8.216,18.284,8.927,17.572,9.804,17.572z M6.942,3.732c0.064-0.642,0.56-0.54,0.725-0.758
			C7.72,2.902,7.764,2.833,7.806,2.765c0.091,0.188,0.18,0.338,0.227,0.425c0.213,0.392,0.771-0.516,0.654-1.107
			c-0.069-0.347,0.161-0.712,0.465-0.88C9.386,1.073,9.603,1.288,9.603,1.7c0,0.258,0.057,0.262-0.417,0.317
			c-0.474,0.054-0.619,1.234-0.92,2.341C7.984,5.395,7.647,5.42,7.605,5.418c-0.196-0.042-0.433-0.073-0.737-0.09
			C6.834,4.756,6.922,3.945,6.942,3.732z M4.867,9.355c-0.368,0-0.669-0.301-0.669-0.672c0-0.368,0.301-0.669,0.669-0.669
			c0.37,0,0.672,0.301,0.672,0.669C5.539,9.054,5.237,9.355,4.867,9.355z M10.758,41.987c-1.614,0-2.921-1.309-2.921-2.918
			c0-1.614,1.307-2.922,2.921-2.922c1.609,0,2.916,1.308,2.916,2.922C13.674,40.678,12.367,41.987,10.758,41.987z M19.862,39.273
			c-1.102,0-1.996-0.894-1.996-1.995c0-1.103,0.895-1.997,1.996-1.997c1.101,0,1.996,0.895,1.996,1.997
			C21.858,38.379,20.963,39.273,19.862,39.273z M27.816,46.377c-1.212,0-2.198-0.982-2.198-2.194c0-1.214,0.986-2.196,2.198-2.196
			c1.21,0,2.196,0.982,2.196,2.196C30.013,45.395,29.026,46.377,27.816,46.377z"/>
	</g>
</g>
</svg>
