<?xml version="1.0" encoding="utf-8"?>
<!-- Generator: Adobe Illustrator 19.0.0, SVG Export Plug-In . SVG Version: 6.00 Build 0)  -->
<svg version="1.1" id="图层_1" xmlns="http://www.w3.org/2000/svg" xmlns:xlink="http://www.w3.org/1999/xlink" x="0px" y="0px"
	 viewBox="0 0 5.7 5.7" style="enable-background:new 0 0 5.7 5.7;" xml:space="preserve">
<style type="text/css">
	.st0{fill:#ffffff;}
</style>
<g>
	<path class="st0" d="M4.7,5v0.4c0,0.2-0.2,0.3-0.4,0.3H1.4c-0.2,0-0.4-0.1-0.4-0.3V5C0.5,5,0,4.5,0,3.9V2.9c0-0.6,0.5-1.1,1.1-1.1
		V0.4C1.1,0.2,1.2,0,1.4,0h2.9c0.2,0,0.4,0.2,0.4,0.4v1.4c0.6,0,1.1,0.5,1.1,1.1v1.1C5.7,4.5,5.3,5,4.7,5 M1.4,5.4h2.9V3.9H1.4V5.4z
		 M4.3,0.4H1.4v1.4h0.3V0.7H4v1.1h0.3V0.4z M2.1,1.8h1.5V1.1H2.1V1.8z M4.3,2.6H4.1v0.2h0.2V2.6z M4.3,3.2H1.4
		C1,3.2,0.7,3.5,0.7,3.9v0.4h0.4V3.9c0-0.2,0.2-0.4,0.4-0.4h2.9c0.2,0,0.4,0.2,0.4,0.4v0.4H5V3.9C5,3.5,4.7,3.2,4.3,3.2z M4.9,2.6
		H4.7v0.2h0.2V2.6z"/>
</g>
</svg>
