<?xml version="1.0" encoding="utf-8"?>
<!-- Generator: Adobe Illustrator 19.0.0, SVG Export Plug-In . SVG Version: 6.00 Build 0)  -->
<svg version="1.1" id="图层_1" xmlns="http://www.w3.org/2000/svg" xmlns:xlink="http://www.w3.org/1999/xlink" x="0px" y="0px"
	 viewBox="0 0 3035 1358.9" style="enable-background:new 0 0 3035 1358.9;" xml:space="preserve">
<style type="text/css">
	.st0{fill:#FFFFFF;}
</style>
<g>
	<g>
		<path class="st0" d="M463.4,0v66.9h366.5v67.9H585.2v104.9H739c48.9,0,89.9,39.9,89.9,88.9v64.9c0,48.9-40.9,89.9-89.9,89.9H79.9
			l-13,429.4l-67.9-2l22-719.1c3-68.9,55.9-124.8,125.8-124.8h247.7V0H463.4z M81.9,415.5h185.8V307.6H84.9L81.9,415.5z M86.9,239.7
			h180.8V134.8H146.8c-31,0-55.9,28-57.9,58.9L86.9,239.7z M209.7,519.3v67.9h264.7v67.9H209.7v148.8c0,22,17,38.9,37.9,38.9h226.7
			v67.9H247.7c-59.9,0-105.9-47.9-105.9-106.9V519.3H209.7z M335.6,239.7h181.8V134.8H335.6V239.7z M335.6,415.5h181.8V307.6H335.6
			V415.5z M581.2,519.3v67.9h265.7v67.9H581.2v148.8c0,22,18,38.9,39.9,38.9h225.7v67.9H621.2c-58.9,0-107.9-47.9-107.9-106.9V519.3
			H581.2z M585.2,307.6v107.9H739c12,0,22-10,22-22v-64.9c0-12-10-21-22-21H585.2z"/>
		<path class="st0" d="M1052.6,326.6l104.9-221.7c27-54.9,61.9-80.9,126.8-80.9h165.8c67.9,0,102.9,24,128.8,80.9l103.9,221.7
			l-61.9,29L1517,133.8c-14-27-33-41.9-66.9-41.9h-165.8c-33,0-52.9,15-65.9,41.9l-104.9,221.7L1052.6,326.6z M1325.3,627.2H1496
			c22,0,38.9-17,38.9-38.9V439.4c0-22-17-39.9-38.9-39.9h-276.6c-22,0-39.9,18-39.9,39.9V790c0,32,26,57.9,57.9,57.9h405.5v67.9
			h-405.5c-68.9,0-125.8-56.9-125.8-125.8V439.4c0-58.9,48.9-107.9,107.9-107.9H1496c57.9,0,106.9,48.9,106.9,107.9v148.8
			c0,58.9-48.9,107.9-106.9,107.9h-170.8V627.2z M1714.7,847.9h113.9c32,0,53.9-26,53.9-57.9V5h67.9v785
			c0,68.9-51.9,125.8-121.8,125.8h-113.9V847.9z M1787.6,92.9V753h-67.9V92.9H1787.6z"/>
		<path class="st0" d="M2848.2,0v52.9H3034v67.9h-185.8v52.9h-67.9v-52.9h-400.5v52.9h-67.9v-52.9h-185.8V52.9h185.8V0h67.9v52.9
			h400.5V0H2848.2z M2140.2,385.5v-75.9c0-58.9,48.9-107.9,107.9-107.9h664.1c58.9,0,107.9,48.9,107.9,107.9v75.9h-67.9v-75.9
			c0-22-18-39.9-39.9-39.9H2248c-22,0-39.9,18-39.9,39.9v75.9H2140.2z M2296,912.8c-58.9,0-107.9-48.9-107.9-106.9V741
			c0-58.9,48.9-107.9,107.9-107.9h568.3c58.9,0,107.9,48.9,107.9,107.9v64.9c0,57.9-48.9,106.9-107.9,106.9H2296z M2355.9,580.2
			c-57.9,0-106.9-48.9-106.9-106.9v-46.9c0-58.9,48.9-107.9,106.9-107.9h448.4c57.9,0,106.9,48.9,106.9,107.9v46.9
			c0,57.9-48.9,106.9-106.9,106.9H2355.9z M2864.2,844.9c22,0,39.9-17,39.9-38.9V741c0-22-18-38.9-39.9-38.9H2296
			c-22,0-39.9,17-39.9,38.9v64.9c0,22,18,38.9,39.9,38.9H2864.2z M2804.3,512.3c22,0,38.9-17,38.9-38.9v-46.9
			c0-22-17-39.9-38.9-39.9h-448.4c-22,0-38.9,18-38.9,39.9v46.9c0,22,17,38.9,38.9,38.9H2804.3z"/>
	</g>
	<g>
		<path class="st0" d="M5.4,1013.9h60.9v273.4c0,9.3,2.1,15.6,6.3,19c4.2,3.4,12,5.5,23.6,6.5v46.1c-13.9,0-26.6-0.9-37.9-2.6
			c-11.4-1.8-20.9-5.1-28.7-10.1c-7.8-5-13.7-11.9-17.9-20.9c-4.2-9-6.3-20.5-6.3-34.6V1013.9z"/>
		<path class="st0" d="M302.3,1356h-60.9v-23.5h-1.2c-6.4,7.7-14,14-23,19c-9,5-20.4,7.4-34.4,7.4c-7.6,0-15.1-1-22.7-3.1
			c-7.6-2.1-14.3-5.5-20.3-10.3c-6-4.8-10.8-11-14.3-18.5c-3.6-7.5-5.4-16.7-5.4-27.6v-186.9H181v168.6c0,9,2.6,16,7.8,21.1
			c5.2,5.1,12.5,7.7,22.1,7.7c11.5,0,19.5-2.9,23.9-8.6c4.4-5.8,6.6-14.1,6.6-25v-163.8h60.9V1356z"/>
		<path class="st0" d="M463,1180.7c-0.4-8.3-3.7-14.6-9.9-18.7c-6.2-4.2-13.2-6.2-21.2-6.2c-9.6,0-16.9,2.5-22.1,7.4
			c-5.2,5-7.8,10.7-7.8,17.1c0,4.5,1.4,8.9,4.2,13.2c2.8,4.3,10,8.2,21.5,11.8l35.8,11.5c22.7,7,38.3,16.7,46.9,28.8
			c8.6,12.2,12.8,25.5,12.8,39.9c0,10.3-2.3,19.8-6.9,28.6c-4.6,8.8-10.9,16.6-18.8,23.3c-8,6.7-17.5,12-28.7,15.9
			c-11.2,3.8-23.3,5.8-36.4,5.8c-12,0-23.3-1.6-34.1-4.8c-10.8-3.2-20.2-7.8-28.4-13.9c-8.2-6.1-14.8-13.7-20-22.8
			c-5.2-9.1-8-19.8-8.4-31.9h57.4c1.2,6.7,4.1,13,8.7,18.7c4.6,5.8,12.6,8.6,24.2,8.6c8.8,0,16.6-2.3,23.6-7
			c7-4.6,10.5-11.1,10.5-19.5c0-6.7-2.2-12.5-6.6-17.3c-4.4-4.8-12.4-9-23.9-12.5l-29.3-8.6c-19.1-5.8-34.2-14.3-45.1-25.7
			c-11-11.4-16.4-25.2-16.4-41.6c0-10.2,2.4-19.8,7.2-28.6c4.8-8.8,11.2-16.3,19.4-22.6c8.2-6.2,17.6-11.1,28.4-14.7
			c10.8-3.5,22.3-5.3,34.7-5.3c12.3,0,23.8,1.8,34.4,5.5c10.6,3.7,19.6,8.6,27.2,14.9c7.6,6.2,13.5,13.8,17.9,22.6
			c4.4,8.8,6.6,18.2,6.6,28.1H463z"/>
		<path class="st0" d="M562.8,1013.9h60.9v122h1.2c6.4-7.7,14-14,23-19c9-5,20.4-7.4,34.4-7.4c7.6,0,15.1,1,22.7,3.1
			c7.6,2.1,14.3,5.5,20.3,10.3c6,4.8,10.8,11,14.3,18.5c3.6,7.5,5.4,16.7,5.4,27.6V1356h-60.9v-168.6c0-9-2.6-16-7.8-21.1
			c-5.2-5.1-12.5-7.7-22.1-7.7c-11.6,0-19.5,2.9-23.9,8.6c-4.4,5.8-6.6,14.1-6.6,25V1356h-60.9V1013.9z"/>
		<path class="st0" d="M789.9,1194.1c0-9.9,0.8-19.1,2.4-27.4c1.6-8.3,4.6-15.7,9-22.1c7.2-10.6,17.5-19.1,31.1-25.5
			c13.5-6.4,29.7-9.6,48.4-9.6c18.7,0,34.8,3.2,48.4,9.6c13.5,6.4,23.9,14.9,31.1,25.5c4.4,6.4,7.4,13.8,9,22.1
			c1.6,8.3,2.4,17.5,2.4,27.4v80.2c0,9.9-0.8,19.1-2.4,27.4c-1.6,8.3-4.6,15.7-9,22.1c-7.2,10.6-17.5,19.1-31.1,25.5
			c-13.5,6.4-29.7,9.6-48.4,9.6c-18.7,0-34.9-3.2-48.4-9.6c-13.5-6.4-23.9-14.9-31.1-25.5c-4.4-6.4-7.4-13.8-9-22.1
			c-1.6-8.3-2.4-17.5-2.4-27.4V1194.1z M850.8,1282c0,9.3,2.7,16.3,8.1,20.9c5.4,4.6,12.6,7,21.8,7c9.2,0,16.4-2.3,21.8-7
			c5.4-4.6,8.1-11.6,8.1-20.9v-95.6c0-9.3-2.7-16.3-8.1-20.9c-5.4-4.6-12.7-7-21.8-7c-9.2,0-16.4,2.3-21.8,7
			c-5.4,4.6-8.1,11.6-8.1,20.9V1282z"/>
		<path class="st0" d="M1235.6,1356h-53.8l-33.5-144.6h-1.2l-33.5,144.6h-53.8l-71.7-243.6h64.5l37,151.3h1.2l34.1-151.3h47.8
			l32.3,151.3h1.2l36.4-151.3h64.5L1235.6,1356z"/>
		<path class="st0" d="M1508.6,1285.9c0,7.7,2.7,13.6,8.1,17.8c5.4,4.2,12.6,6.2,21.8,6.2c11.5,0,19.2-2.7,23-8.2
			c3.8-5.4,6.1-10.9,6.9-16.3h60.9c0,10.3-2.1,19.9-6.3,28.8c-4.2,9-10.3,16.7-18.2,23.1c-8,6.7-17.5,12-28.7,15.9
			c-11.2,3.8-23.7,5.8-37.6,5.8c-18.7,0-34.9-3.2-48.4-9.6c-13.5-6.4-23.9-14.9-31.1-25.5c-4.4-6.4-7.4-13.8-9-22.1
			c-1.6-8.3-2.4-17.5-2.4-27.4v-80.2c0-9.9,0.8-19.1,2.4-27.4c1.6-8.3,4.6-15.7,9-22.1c7.2-10.6,17.5-19.1,31.1-25.5
			c13.5-6.4,29.7-9.6,48.4-9.6c13.9,0,26.6,1.9,37.9,5.8c11.4,3.8,20.9,9.2,28.7,16.1c7.8,6.9,13.7,15.1,17.9,24.7
			c4.2,9.6,6.3,20,6.3,31.2h-60.9c0-9.9-2.7-17.2-8.1-21.9c-5.4-4.6-12.7-7-21.8-7c-9.2,0-16.4,2.3-21.8,7
			c-5.4,4.6-8.1,11.6-8.1,20.9V1285.9z"/>
		<path class="st0" d="M1659.8,1194.1c0-9.9,0.8-19.1,2.4-27.4c1.6-8.3,4.6-15.7,9-22.1c7.2-10.6,17.5-19.1,31.1-25.5
			c13.5-6.4,29.7-9.6,48.4-9.6c18.7,0,34.8,3.2,48.4,9.6c13.5,6.4,23.9,14.9,31.1,25.5c4.4,6.4,7.4,13.8,9,22.1
			c1.6,8.3,2.4,17.5,2.4,27.4v80.2c0,9.9-0.8,19.1-2.4,27.4c-1.6,8.3-4.6,15.7-9,22.1c-7.2,10.6-17.5,19.1-31.1,25.5
			c-13.5,6.4-29.7,9.6-48.4,9.6c-18.7,0-34.9-3.2-48.4-9.6c-13.5-6.4-23.9-14.9-31.1-25.5c-4.4-6.4-7.4-13.8-9-22.1
			c-1.6-8.3-2.4-17.5-2.4-27.4V1194.1z M1720.7,1282c0,9.3,2.7,16.3,8.1,20.9c5.4,4.6,12.6,7,21.8,7c9.2,0,16.4-2.3,21.8-7
			c5.4-4.6,8.1-11.6,8.1-20.9v-95.6c0-9.3-2.7-16.3-8.1-20.9c-5.4-4.6-12.7-7-21.8-7c-9.2,0-16.4,2.3-21.8,7
			c-5.4,4.6-8.1,11.6-8.1,20.9V1282z"/>
		<path class="st0" d="M1887.4,1198.4h179.8v49h-179.8V1198.4z"/>
		<path class="st0" d="M2341.5,1356h-53.8l-33.5-144.6h-1.2l-33.5,144.6h-53.8l-71.7-243.6h64.5l37,151.3h1.2l34.1-151.3h47.8
			l32.3,151.3h1.2l36.4-151.3h64.5L2341.5,1356z"/>
		<path class="st0" d="M2429.9,1194.1c0-9.9,0.8-19.1,2.4-27.4c1.6-8.3,4.6-15.7,9-22.1c7.2-10.6,17.5-19.1,31.1-25.5
			c13.5-6.4,29.7-9.6,48.4-9.6c18.7,0,34.8,3.2,48.4,9.6c13.5,6.4,23.9,14.9,31.1,25.5c4.4,6.4,7.4,13.8,9,22.1
			c1.6,8.3,2.4,17.5,2.4,27.4v80.2c0,9.9-0.8,19.1-2.4,27.4c-1.6,8.3-4.6,15.7-9,22.1c-7.2,10.6-17.5,19.1-31.1,25.5
			c-13.5,6.4-29.7,9.6-48.4,9.6c-18.7,0-34.9-3.2-48.4-9.6c-13.5-6.4-23.9-14.9-31.1-25.5c-4.4-6.4-7.4-13.8-9-22.1
			c-1.6-8.3-2.4-17.5-2.4-27.4V1194.1z M2490.9,1282c0,9.3,2.7,16.3,8.1,20.9c5.4,4.6,12.6,7,21.8,7c9.2,0,16.4-2.3,21.8-7
			c5.4-4.6,8.1-11.6,8.1-20.9v-95.6c0-9.3-2.7-16.3-8.1-20.9c-5.4-4.6-12.7-7-21.8-7c-9.2,0-16.4,2.3-21.8,7
			c-5.4,4.6-8.1,11.6-8.1,20.9V1282z"/>
		<path class="st0" d="M2656.4,1112.4h60.9v25.9c12.3-9,24.5-16,36.4-21.1c12-5.1,26.7-7.7,44.2-7.7v51.9c-6-1.9-12.2-2.9-18.5-2.9
			c-6.4,0-13.2,0.9-20.6,2.6c-7.4,1.8-14.1,4.7-20.3,8.9c-6.2,4.2-11.3,9.6-15.2,16.3c-4,6.7-6,15.1-6,25V1356h-60.9V1112.4z"/>
		<path class="st0" d="M2822.5,1013.9h60.9v204.7h1.2l73.5-106.2h60.9l-72.3,99L3034,1356h-66.3l-55-105.2l-29.3,37v68.2h-60.9
			V1013.9z"/>
	</g>
</g>
</svg>
