<?xml version="1.0" encoding="utf-8"?>
<!-- Generator: Adobe Illustrator 19.0.0, SVG Export Plug-In . SVG Version: 6.00 Build 0)  -->
<svg version="1.1" id="图层_1" xmlns="http://www.w3.org/2000/svg" xmlns:xlink="http://www.w3.org/1999/xlink" x="0px" y="0px"
	 viewBox="0 0 3035 915.8" style="enable-background:new 0 0 3035 915.8;" xml:space="preserve">
<style type="text/css">
	.st0{fill:#FFFFFF;}
</style>
<g>
	<path class="st0" d="M463.4,0v66.9h366.5v67.9H585.2v104.9H739c48.9,0,89.9,39.9,89.9,88.9v64.9c0,48.9-40.9,89.9-89.9,89.9H79.9
		l-13,429.4l-67.9-2l22-719.1c3-68.9,55.9-124.8,125.8-124.8h247.7V0H463.4z M81.9,415.5h185.8V307.6H84.9L81.9,415.5z M86.9,239.7
		h180.8V134.8H146.8c-31,0-55.9,28-57.9,58.9L86.9,239.7z M209.7,519.3v67.9h264.7v67.9H209.7v148.8c0,22,17,38.9,37.9,38.9h226.7
		v67.9H247.7c-59.9,0-105.9-47.9-105.9-106.9V519.3H209.7z M335.6,239.7h181.8V134.8H335.6V239.7z M335.6,415.5h181.8V307.6H335.6
		V415.5z M581.2,519.3v67.9h265.7v67.9H581.2v148.8c0,22,18,38.9,39.9,38.9h225.7v67.9H621.2c-58.9,0-107.9-47.9-107.9-106.9V519.3
		H581.2z M585.2,307.6v107.9H739c12,0,22-10,22-22v-64.9c0-12-10-21-22-21H585.2z"/>
	<path class="st0" d="M1052.6,326.6l104.9-221.7c27-54.9,61.9-80.9,126.8-80.9h165.8c67.9,0,102.9,24,128.8,80.9l103.9,221.7
		l-61.9,29L1517,133.8c-14-27-33-41.9-66.9-41.9h-165.8c-33,0-52.9,15-65.9,41.9l-104.9,221.7L1052.6,326.6z M1325.3,627.2H1496
		c22,0,38.9-17,38.9-38.9V439.4c0-22-17-39.9-38.9-39.9h-276.6c-22,0-39.9,18-39.9,39.9V790c0,32,26,57.9,57.9,57.9h405.5v67.9
		h-405.5c-68.9,0-125.8-56.9-125.8-125.8V439.4c0-58.9,48.9-107.9,107.9-107.9H1496c57.9,0,106.9,48.9,106.9,107.9v148.8
		c0,58.9-48.9,107.9-106.9,107.9h-170.8V627.2z M1714.7,847.9h113.9c32,0,53.9-26,53.9-57.9V5h67.9v785
		c0,68.9-51.9,125.8-121.8,125.8h-113.9V847.9z M1787.6,92.9V753h-67.9V92.9H1787.6z"/>
	<path class="st0" d="M2848.2,0v52.9H3034v67.9h-185.8v52.9h-67.9v-52.9h-400.5v52.9h-67.9v-52.9h-185.8V52.9h185.8V0h67.9v52.9
		h400.5V0H2848.2z M2140.2,385.5v-75.9c0-58.9,48.9-107.9,107.9-107.9h664.1c58.9,0,107.9,48.9,107.9,107.9v75.9h-67.9v-75.9
		c0-22-18-39.9-39.9-39.9H2248c-22,0-39.9,18-39.9,39.9v75.9H2140.2z M2296,912.8c-58.9,0-107.9-48.9-107.9-106.9V741
		c0-58.9,48.9-107.9,107.9-107.9h568.3c58.9,0,107.9,48.9,107.9,107.9v64.9c0,57.9-48.9,106.9-107.9,106.9H2296z M2355.9,580.2
		c-57.9,0-106.9-48.9-106.9-106.9v-46.9c0-58.9,48.9-107.9,106.9-107.9h448.4c57.9,0,106.9,48.9,106.9,107.9v46.9
		c0,57.9-48.9,106.9-106.9,106.9H2355.9z M2864.2,844.9c22,0,39.9-17,39.9-38.9V741c0-22-18-38.9-39.9-38.9H2296
		c-22,0-39.9,17-39.9,38.9v64.9c0,22,18,38.9,39.9,38.9H2864.2z M2804.3,512.3c22,0,38.9-17,38.9-38.9v-46.9c0-22-17-39.9-38.9-39.9
		h-448.4c-22,0-38.9,18-38.9,39.9v46.9c0,22,17,38.9,38.9,38.9H2804.3z"/>
</g>
</svg>
