<?xml version="1.0" encoding="utf-8"?>
<!-- Generator: Adobe Illustrator 17.0.0, SVG Export Plug-In . SVG Version: 6.00 Build 0)  -->
<!DOCTYPE svg PUBLIC "-//W3C//DTD SVG 1.1//EN" "http://www.w3.org/Graphics/SVG/1.1/DTD/svg11.dtd">
<svg version="1.1" id="图层_1" xmlns="http://www.w3.org/2000/svg" xmlns:xlink="http://www.w3.org/1999/xlink" x="0px" y="0px"
	 width="300px" height="70px" viewBox="0 0 300 70" enable-background="new 0 0 300 70" xml:space="preserve">
<g id="XMLID_940_">
	<path id="XMLID_682_" fill="#323333" d="M190.6,18.1c3.6,0,6.6,2.3,7.7,5.5c0.8-0.6,1.8-1,2.9-1c2,0,3.7,1.2,4.4,2.9
		c0.6-0.8,1.5-1.3,2.5-1.3c1.7,0,3,1.3,3.1,2.9h-52.3c0.2-2,1.8-3.6,3.8-3.6c0.8,0,1.5,0.2,2.1,0.6c1-1.3,2.6-2.2,4.4-2.2
		c1.2,0,2.2,0.4,3.1,1c1.3-2.5,3.9-4.3,6.9-4.3c2.1,0,3.9,0.8,5.3,2.1C186.1,19.2,188.2,18.1,190.6,18.1 M190.6,16.1
		c-2.2,0-4.3,0.7-6.1,2c-1.5-1-3.3-1.5-5.2-1.5c-3,0-5.8,1.4-7.6,3.7c-0.8-0.3-1.6-0.4-2.4-0.4c-1.8,0-3.5,0.7-4.9,1.8
		c-0.5-0.2-1.1-0.2-1.7-0.2c-3,0-5.6,2.4-5.8,5.4l-0.2,2.2h2.2h52.3h2.2l-0.2-2.2c-0.2-2.7-2.5-4.7-5.1-4.7c-0.7,0-1.4,0.2-2.1,0.4
		c-1.3-1.3-3-2-4.8-2c-0.7,0-1.3,0.1-2,0.3C197.4,18,194.1,16.1,190.6,16.1L190.6,16.1z"/>
	<path id="XMLID_593_" fill="#323333" d="M180.4,60.9c-0.2-0.4-0.5-0.6-1-0.6h-16.6c0,0,0,0-0.1-0.1l-3.6-2.9
		c-0.2-0.2-0.4-0.2-0.7-0.2h-13.6v-1.4h25.4c0.4,0,0.7-0.2,0.9-0.5c0.2-0.3,0.2-0.7,0-1.1c-0.1-0.2-11-16.9-26.3-35.4v-1.5v-0.1
		v-5.8c0-0.3-0.2-0.6-0.4-0.8c-0.1-0.1-0.3-0.1-0.4-0.2l0,0c0,0,0,0-0.1,0c0,0,0,0-0.1,0c0,0,0,0-0.1,0l0,0l0,0l0,0h-0.1l0,0
		c-0.1,0-0.1,0-0.2,0l-9.7,2.9c-0.4,0.1-0.7,0.5-0.7,1s0.3,0.9,0.7,1l9,2.7v2.7L134,37c0,0,0,0,0.1,0c-0.2,0-0.4,0.1-0.6,0.2
		c-1-1-2.4-1.6-3.8-1.6c-0.8,0-1.5,0.2-2.2,0.5c-1.5-1.1-3.5-1.3-5.3-0.6c-1.3-2-3.6-3.3-6.1-3.3c-3,0-5.6,1.8-6.7,4.5
		c-2.7-0.4-5,1.8-5,4.4c0,0.1,0,0.2,0,0.4l0.1,0.9h26.6L125,54c-0.2,0.3-0.2,0.7,0,1c0.2,0.3,0.5,0.5,0.9,0.5h16.7v1.4h-13.9
		c-0.3,0-0.6,0.1-0.8,0.3l-2.2,2.4c-0.1,0.1-0.2,0.3-0.2,0.5h-7.8c-0.4,0-0.7,0.2-0.9,0.5c-0.2,0.3-0.2,0.7,0,1l4.8,7.9
		c0.2,0.3,0.5,0.5,0.9,0.5h49.1c0.3,0,0.5-0.1,0.7-0.3l7.8-7.9C180.5,61.7,180.6,61.3,180.4,60.9z M168.2,53.5h-22
		c0.7-1.2,1.3-2.6,1.8-4.1h0.1h17.3C166.6,51.1,167.6,52.5,168.2,53.5z M164,47.3h-15.5c0.8-4,0.7-8.9-0.1-14.6
		c-0.5-3.4-1.2-6.4-1.9-8.8C153.8,33.1,159.9,41.5,164,47.3z M144.8,25.8c1.8,7.2,3.8,18.8,0,26V25.8z M137.7,14.1l5-1.5v3
		L137.7,14.1z M134.9,36.9L134.9,36.9c-0.2,0-0.4,0-0.6,0.1C134.5,36.9,134.7,36.9,134.9,36.9z M106.5,40.4c0.3-1.1,1.3-1.8,2.4-1.8
		c0.2,0,0.5,0,0.8,0.1l1,0.3l0.3-1c0.6-2.3,2.7-3.9,5.1-3.9c2,0,3.9,1.2,4.7,3l0.5,1l1-0.6c0.6-0.4,1.3-0.6,1.9-0.6
		c1.2,0,2,0.5,2.5,1l0.6,0.5l0.6-0.4c0.5-0.4,1.2-0.5,1.8-0.5c1.1,0,2.1,0.6,2.7,1.5l0.6,0.9l0.8-0.6c0.3-0.2,0.7-0.4,1.1-0.4
		c0.9,0,1.7,0.7,1.9,1.6h-30.3V40.4z M127.7,53.5l5.8-11.1h5l0.2-0.8c0.1-0.3,0.1-0.6,0.1-0.9c0-1.7-1-3.1-2.5-3.6l6.4-12.1v28.5
		C142.7,53.5,127.7,53.5,127.7,53.5z M129.2,59.1h29l1.4,1.1h-31.4L129.2,59.1z M171.2,68.1h-48.1l-3.5-5.8H177L171.2,68.1z"/>
</g>
</svg>
