<?xml version="1.0" encoding="utf-8"?>
<!-- Generator: Adobe Illustrator 19.0.0, SVG Export Plug-In . SVG Version: 6.00 Build 0)  -->
<svg version="1.1" id="图层_1" xmlns="http://www.w3.org/2000/svg" xmlns:xlink="http://www.w3.org/1999/xlink" x="0px" y="0px"
	 viewBox="0 0 6.1 4.4" style="enable-background:new 0 0 6.1 4.4;" xml:space="preserve">
<style type="text/css">
	.st0{fill:#ffffff;}
</style>
<path class="st0" d="M5.3,0.4C4.8,0.1,4.1,0,3,0C2,0,1.2,0.2,0.7,0.5C0.3,0.7,0,1.1,0,1.5c0,0.2,0,0.3,0.1,0.4C0.2,2,0.2,2,0.4,2
	C0.7,2,1,1.9,1.2,1.8c0.2-0.1,0.4-0.2,0.3-0.4c0,0,0-0.1,0-0.1c0,0,0-0.1,0-0.1c0,0,0-0.1,0-0.1c0,0,0-0.1,0-0.1
	c0-0.1,0.1-0.2,0.1-0.2c0.1-0.1,0.2-0.1,0.2-0.1l0,0.4c0,0.3-0.1,0.6-0.2,0.9C1.5,2.1,1.4,2.3,1.1,2.5L1,2.6
	C0.9,2.8,0.8,2.9,0.7,3.1c0,0.1-0.3,0.9-0.3,1c0,0.1,0.1,0.2,0.2,0.2h4.4c0.2,0,0.3,0,0.4-0.1C5.6,4.1,5.6,4,5.5,3.9
	c-0.3-0.6-0.7-1.4-1.1-2C4.3,1.6,4.2,1.3,4.2,1l0-0.2c0.1,0,0.2,0,0.3,0c0.1,0,0.1,0.1,0.2,0.2c0,0,0,0.1,0,0.1c0,0,0,0.1,0,0.1
	c0,0,0,0.1,0,0.1c0,0,0,0.1,0,0.1c0,0.1,0.2,0.3,0.4,0.4C5.2,1.9,5.5,1.9,5.7,2C5.9,2,6,1.9,6,1.9c0.1-0.1,0.1-0.2,0.1-0.4
	C6.1,1,5.8,0.6,5.3,0.4z M2.2,0.6c0.2,0,0.5,0.1,0.7,0.1c0.3,0,0.6,0,0.9-0.1h0.1v0.5c0,0.1,0,0.2-0.1,0.2c-0.1,0-0.2,0.1-0.3,0.1
	H2.6c-0.1,0-0.2,0-0.3-0.1c-0.1,0-0.1-0.1-0.1-0.2V0.6z M4.3,2.8c0,0.3-0.1,0.6-0.3,0.9C3.8,4,3.4,4.1,3,4.1C2.6,4.1,2.3,4,2,3.7
	C1.8,3.5,1.7,3.2,1.7,2.8c0-0.4,0.1-0.7,0.3-0.9c0.2-0.3,0.6-0.4,1-0.4c0.4,0,0.7,0.1,1,0.4C4.2,2.2,4.3,2.5,4.3,2.8z"/>
</svg>
