<?xml version="1.0" encoding="utf-8"?>
<!-- Generator: Adobe Illustrator 19.0.0, SVG Export Plug-In . SVG Version: 6.00 Build 0)  -->
<svg version="1.1" id="图层_1" xmlns="http://www.w3.org/2000/svg" xmlns:xlink="http://www.w3.org/1999/xlink" x="0px" y="0px"
	 viewBox="0 0 160 220" style="enable-background:new 0 0 160 220;" xml:space="preserve">
<style type="text/css">
	.st0{fill:#FFFFFF;}
	.st1{fill:#E06754;}
	.st2{opacity:0.102;}
	.st3{fill:#040000;}
	.st4{opacity:0.851;}
	.st5{opacity:0.149;}
	.st6{fill:#81A66E;}
	.st7{fill:#82A7D2;}
	.st8{fill:#E61F19;}
	.st9{fill:#231815;}
	.st10{opacity:0.102;fill:#040000;}
	.st11{fill:#323333;}
	.st12{fill:none;}
	.st13{fill:#C1C1C1;}
</style>
<g id="XMLID_3837_">
	<g id="XMLID_2137_">
		<g id="XMLID_3117_">
			<g id="White_Base_23_">
				<g id="XMLID_2181_">
					<polygon id="XMLID_2342_" class="st0" points="88.3,120.9 88,123 93.6,123.8 93.2,126.5 87.7,125.8 87.3,128.6 95.6,129.7 
						95.3,132.5 86.9,131.4 86.5,134.1 92.1,134.9 91.7,137.7 86.2,136.9 85.8,139.7 91.4,140.4 91,143.2 85.4,142.5 85,145.2 
						93.4,146.4 93,149.1 84.7,148 84.3,150.8 89.9,151.5 89.5,154.3 83.9,153.6 83.5,156.4 89.1,157.1 88.7,159.9 83.2,159.1 
						82.8,161.9 91.1,163 90.8,165.8 82.4,164.7 82,167.5 87.6,168.2 87.2,171 81.7,170.2 81.3,173 86.9,173.8 86.5,176.5 
						80.9,175.8 80.6,177.9 97.3,180.1 105,123.2 					"/>
				</g>
			</g>
			<g id="Red_15_">
				<g id="XMLID_2179_">
					
						<rect id="XMLID_2180_" x="70.3" y="149.3" transform="matrix(0.1338 -0.991 0.991 0.1338 -64.2051 229.2931)" class="st1" width="57.5" height="4.2"/>
				</g>
			</g>
			<g id="Texture_1_23_" class="st2">
				<g id="XMLID_3704_">
					<path id="XMLID_3706_" class="st3" d="M100.8,122.6l-0.2,1.4l1.4,0.2l0.2-1.4L100.8,122.6z M102,124.2l-0.2,1.4l1.4,0.2
						l0.2-1.4L102,124.2z M104.4,127.4l0.2-1.4l-1.4-0.2l-0.2,1.4L104.4,127.4z M100.5,125.4l-0.2,1.4l1.4,0.2l0.2-1.4L100.5,125.4z
						 M101.5,128.4l1.4,0.2l0.2-1.4l-1.4-0.2L101.5,128.4z M104.1,130.1l0.2-1.4l-1.4-0.2l-0.2,1.4L104.1,130.1z M100.1,128.2
						l-0.2,1.4l1.4,0.2l0.2-1.4L100.1,128.2z M101.1,131.1l1.4,0.2l0.2-1.4l-1.4-0.2L101.1,131.1z M105,123.2l-1.4-0.2l-0.2,1.4
						l1.4,0.2L105,123.2z M99.7,131l-0.2,1.4l1.4,0.2l0.2-1.4L99.7,131z M100.7,133.9l1.4,0.2l0.2-1.4l-1.4-0.2L100.7,133.9z
						 M103.3,135.7l0.2-1.4l-1.4-0.2l-0.2,1.4L103.3,135.7z M99.3,133.7l-0.2,1.4l1.4,0.2l0.2-1.4L99.3,133.7z M100.3,136.7l1.4,0.2
						l0.2-1.4l-1.4-0.2L100.3,136.7z M102.9,138.5l0.2-1.4l-1.4-0.2l-0.2,1.4L102.9,138.5z M99,136.5l-0.2,1.4l1.4,0.2l0.2-1.4
						L99,136.5z M100,139.5l1.4,0.2l0.2-1.4l-1.4-0.2L100,139.5z M103.7,132.9l0.2-1.4l-1.4-0.2l-0.2,1.4L103.7,132.9z M98.6,139.3
						l-0.2,1.4l1.4,0.2l0.2-1.4L98.6,139.3z M99.6,142.3l1.4,0.2l0.2-1.4l-1.4-0.2L99.6,142.3z M102.2,144l0.2-1.4l-1.4-0.2
						l-0.2,1.4L102.2,144z M98.2,142.1l-0.2,1.4l1.4,0.2l0.2-1.4L98.2,142.1z M99.2,145l1.4,0.2l0.2-1.4l-1.4-0.2L99.2,145z
						 M101.8,146.8l0.2-1.4l-1.4-0.2l-0.2,1.4L101.8,146.8z M97.8,144.8l-0.2,1.4l1.4,0.2l0.2-1.4L97.8,144.8z M98.8,147.8l1.4,0.2
						l0.2-1.4l-1.4-0.2L98.8,147.8z M102.6,141.2l0.2-1.4l-1.4-0.2l-0.2,1.4L102.6,141.2z M97.5,147.6l-0.2,1.4l1.4,0.2l0.2-1.4
						L97.5,147.6z M98.5,150.6l1.4,0.2l0.2-1.4l-1.4-0.2L98.5,150.6z M101.1,152.4l0.2-1.4l-1.4-0.2l-0.2,1.4L101.1,152.4z
						 M97.1,150.4l-0.2,1.4l1.4,0.2l0.2-1.4L97.1,150.4z M98.1,153.4l1.4,0.2l0.2-1.4l-1.4-0.2L98.1,153.4z M100.7,155.1l0.2-1.4
						l-1.4-0.2l-0.2,1.4L100.7,155.1z M96.7,153.2l-0.2,1.4l1.4,0.2l0.2-1.4L96.7,153.2z M97.7,156.1l1.4,0.2l0.2-1.4l-1.4-0.2
						L97.7,156.1z M101.4,149.6l0.2-1.4l-1.4-0.2l-0.2,1.4L101.4,149.6z M96.3,156l-0.2,1.4l1.4,0.2l0.2-1.4L96.3,156z M97.3,158.9
						l1.4,0.2l0.2-1.4l-1.4-0.2L97.3,158.9z M99.9,160.7l0.2-1.4l-1.4-0.2l-0.2,1.4L99.9,160.7z M96,158.7l-0.2,1.4l1.4,0.2l0.2-1.4
						L96,158.7z M97,161.7l1.4,0.2l0.2-1.4l-1.4-0.2L97,161.7z M99.6,163.5l0.2-1.4l-1.4-0.2l-0.2,1.4L99.6,163.5z M95.6,161.5
						l-0.2,1.4l1.4,0.2l0.2-1.4L95.6,161.5z M96.6,164.5l1.4,0.2l0.2-1.4l-1.4-0.2L96.6,164.5z M100.3,157.9l0.2-1.4l-1.4-0.2
						l-0.2,1.4L100.3,157.9z M95.2,164.3l-0.2,1.4l1.4,0.2l0.2-1.4L95.2,164.3z M96.2,167.3l1.4,0.2l0.2-1.4l-1.4-0.2L96.2,167.3z
						 M98.8,169l0.2-1.4l-1.4-0.2l-0.2,1.4L98.8,169z M94.8,167.1l-0.2,1.4l1.4,0.2l0.2-1.4L94.8,167.1z M95.8,170l1.4,0.2l0.2-1.4
						l-1.4-0.2L95.8,170z M98.4,171.8l0.2-1.4l-1.4-0.2l-0.2,1.4L98.4,171.8z M94.5,169.8l-0.2,1.4l1.4,0.2l0.2-1.4L94.5,169.8z
						 M95.5,172.8l1.4,0.2l0.2-1.4l-1.4-0.2L95.5,172.8z M99.2,166.2l0.2-1.4l-1.4-0.2l-0.2,1.4L99.2,166.2z M94.1,172.6l-0.2,1.4
						l1.4,0.2l0.2-1.4L94.1,172.6z M95.1,175.6l1.4,0.2l0.2-1.4l-1.4-0.2L95.1,175.6z M97.7,177.4l0.2-1.4l-1.4-0.2l-0.2,1.4
						L97.7,177.4z M93.7,175.4l-0.2,1.4l1.4,0.2l0.2-1.4L93.7,175.4z M94.7,178.4l1.4,0.2l0.2-1.4l-1.4-0.2L94.7,178.4z M97.3,180.1
						l0.2-1.4l-1.4-0.2l-0.2,1.4L97.3,180.1z M93.1,179.6l1.4,0.2l0.2-1.4l-1.4-0.2L93.1,179.6z M98.1,174.6l0.2-1.4l-1.4-0.2
						l-0.2,1.4L98.1,174.6z"/>
				</g>
			</g>
			<g id="Outline_23_" class="st4">
				<g id="XMLID_2606_">
					<path id="XMLID_2608_" class="st3" d="M105.4,120.4l-16.7-2.3c-1.5-0.2-2.9,0.9-3.2,2.4l-0.4,3.2l-0.2,1.6l-0.6,4.3l-0.2,1.3
						l-0.7,5.5l0,0.1l-0.6,4.8l-0.1,0.8l-0.7,5.1l-0.1,0.4l-0.7,5.2l0,0.3l-2.9,21.3l-0.1,0.9l-0.3,2.1c-0.2,1.5,0.9,2.9,2.4,3.2
						l16.7,2.3c1.5,0.2,2.9-0.9,3.2-2.4l7.7-56.9C108,122,106.9,120.6,105.4,120.4z M97.3,180.1l-16.7-2.3l0.3-2.1l5.6,0.8l0.4-2.8
						l-5.6-0.8l0.4-2.8l5.6,0.8l0.4-2.8l-5.6-0.8l0.4-2.8l8.3,1.1l0.4-2.8l-8.3-1.1l0.4-2.8l5.6,0.8l0.4-2.8l-5.6-0.8l0.4-2.8
						l5.6,0.8l0.4-2.8l-5.6-0.8l0.4-2.8l8.3,1.1l0.4-2.8l-8.3-1.1l0.4-2.8l5.6,0.8l0.4-2.8l-5.6-0.8l0.4-2.8l5.6,0.8l0.4-2.8
						l-5.6-0.8l0.4-2.8l8.3,1.1l0.4-2.8l-8.3-1.1l0.4-2.8l5.6,0.8l0.4-2.8L88,123l0.3-2.1l16.7,2.3L97.3,180.1z"/>
				</g>
			</g>
		</g>
		<g id="XMLID_2965_">
			<g id="Texture_1_5_" class="st2">
				<g id="XMLID_4318_">
					<path id="XMLID_4430_" class="st3" d="M40.9,197.4l1.5-0.4l-0.4-1.5l-1.5,0.4L40.9,197.4z M68.6,186.7l0.4,1.5l1.5-0.4
						l-0.4-1.5L68.6,186.7z M65.6,187.5L66,189l1.5-0.4l-0.4-1.5L65.6,187.5z M43.9,196.6l1.5-0.4l-0.4-1.5l-1.5,0.4L43.9,196.6z
						 M46.9,195.8l1.5-0.4l-0.4-1.5l-1.5,0.4L46.9,195.8z M36.7,193.7l0.4,1.5l1.5-0.4l-0.4-1.5L36.7,193.7z M37.9,198.2l1.5-0.4
						l-0.4-1.5l-1.5,0.4L37.9,198.2z M68.2,185.2l-1.5,0.4l0.4,1.5l1.5-0.4L68.2,185.2z M68.2,149.7l0.4,1.5l1.5-0.4l-0.4-1.5
						L68.2,149.7z M69,152.7l0.4,1.5l1.5-0.4l-0.4-1.5L69,152.7z M69.8,155.7l0.4,1.5l1.5-0.4l-0.4-1.5L69.8,155.7z M67.4,146.7
						l0.4,1.5l1.5-0.4l-0.4-1.5L67.4,146.7z M65.7,140.7l0.4,1.5l1.5-0.4l-0.4-1.5L65.7,140.7z M66.6,143.7l0.4,1.5l1.5-0.4
						l-0.4-1.5L66.6,143.7z M64.9,190.9l1.5-0.4L66,189l-1.5,0.4L64.9,190.9z M71.2,184.4l-1.5,0.4l0.4,1.5l1.5-0.4L71.2,184.4z
						 M71.6,185.9l0.4,1.5l1.5-0.4l-0.4-1.5L71.6,185.9z M73.5,186.9l0.4,1.5l1.5-0.4l-0.4-1.5L73.5,186.9z M74.2,183.5l-1.5,0.4
						l0.4,1.5l1.5-0.4L74.2,183.5z M73.8,164.3l1.5-0.4l-0.4-1.5l-1.5,0.4L73.8,164.3z M71.5,161.7l0.4,1.5l1.5-0.4l-0.4-1.5
						L71.5,161.7z M70.6,158.7l0.4,1.5l1.5-0.4l-0.4-1.5L70.6,158.7z M70.9,189.3l1.5-0.4l-0.4-1.5l-1.5,0.4L70.9,189.3z
						 M51.7,189.6l0.1,0.5l0.9,0.9l0.9-0.2l-0.4-1.5L51.7,189.6z M53.6,190.7l0.4,1.5l1.5-0.4l-0.4-1.5L53.6,190.7z M47.7,192.9
						l0.3,0.9l0.5-0.1L47.7,192.9z M46,191.2l-0.3,0.1l0.4,1.5l1.2-0.3L46,191.2z M54,192.3L54,192.3L54,192.3L54,192.3z
						 M61.9,191.7l1.5-0.4l-0.4-1.5l-1.5,0.4L61.9,191.7z M58.9,192.5l1.5-0.4l-0.4-1.5l-1.5,0.4L58.9,192.5z M56.2,188.4l-1.5,0.4
						l0.4,1.5l1.5-0.4L56.2,188.4z M67.9,190.1l1.5-0.4l-0.4-1.5l-1.5,0.4L67.9,190.1z M55.9,193.3l1.5-0.4l-0.4-1.5l-1.5,0.4
						L55.9,193.3z M38.6,194.8l0.4,1.5l1.5-0.4l-0.4-1.5L38.6,194.8z M62.2,186.8l-1.5,0.4l0.4,1.5l1.5-0.4L62.2,186.8z M62.6,188.3
						l0.4,1.5l1.5-0.4l-0.4-1.5L62.6,188.3z M41.2,192.5l-1.5,0.4l0.4,1.5l1.5-0.4L41.2,192.5z M65.2,186l-1.5,0.4l0.4,1.5l1.5-0.4
						L65.2,186z M64.9,137.7l0.4,1.5l1.5-0.4l-0.4-1.5L64.9,137.7z M56.6,189.9l0.4,1.5l1.5-0.4l-0.4-1.5L56.6,189.9z M41.6,194
						l0.4,1.5l1.5-0.4l-0.4-1.5L41.6,194z M59.2,187.6l-1.5,0.4l0.4,1.5l1.5-0.4L59.2,187.6z M44.6,193.2l0.4,1.5l1.5-0.4l-0.4-1.5
						L44.6,193.2z M44.2,191.7l-1.5,0.4l0.4,1.5l1.5-0.4L44.2,191.7z M59.6,189.1l0.4,1.5l1.5-0.4l-0.4-1.5L59.6,189.1z M71.1,142.5
						l1.5-0.4l-0.4-1.5l-1.5,0.4L71.1,142.5z M69.2,141.4l-1.5,0.4l0.4,1.5l1.5-0.4L69.2,141.4z M68.3,138.4l-1.5,0.4l0.4,1.5
						l1.5-0.4L68.3,138.4z M66.7,132.4l-1.5,0.4l0.4,1.5l1.5-0.4L66.7,132.4z M67.5,135.4l-1.5,0.4l0.4,1.5l1.5-0.4L67.5,135.4z
						 M70,144.4l-1.5,0.4l0.4,1.5l1.5-0.4L70,144.4z M70.8,147.4l-1.5,0.4l0.4,1.5l1.5-0.4L70.8,147.4z M73.5,151.5l1.5-0.4
						l-0.4-1.5l-1.5,0.4L73.5,151.5z M68.2,132l-0.4-1.5l-1.5,0.4l0.4,1.5L68.2,132z M71.9,145.5l1.5-0.4l-0.4-1.5l-1.5,0.4
						L71.9,145.5z M72.7,148.5l1.5-0.4l-0.4-1.5l-1.5,0.4L72.7,148.5z M70.2,139.5l1.5-0.4l-0.4-1.5l-1.5,0.4L70.2,139.5z
						 M71.6,150.4l-1.5,0.4l0.4,1.5l1.5-0.4L71.6,150.4z M68.6,133.5l1.5-0.4l-0.4-1.5l-1.5,0.4L68.6,133.5z M69.4,136.5l1.5-0.4
						l-0.4-1.5L69,135L69.4,136.5z M83.2,181.1l-1.5,0.4l0.4,1.5l1.5-0.4L83.2,181.1z M80.6,183.4l0.4,1.5l1.5-0.4l-0.4-1.5
						L80.6,183.4z M80.2,181.9l-1.5,0.4l0.4,1.5l1.5-0.4L80.2,181.9z M64.1,134.7l0.4,1.5l1.5-0.4l-0.4-1.5L64.1,134.7z M85.5,183.7
						l-0.4-1.5l-1.5,0.4l0.4,1.5L85.5,183.7z M82.5,184.5l0.4,1.5l1.5-0.4l-0.4-1.5L82.5,184.5z M77.6,184.2l0.4,1.5l1.5-0.4
						l-0.4-1.5L77.6,184.2z M74,159.4l-1.5,0.4l0.4,1.5l1.5-0.4L74,159.4z M73.2,156.4l-1.5,0.4l0.4,1.5l1.5-0.4L73.2,156.4z
						 M79.9,186.8l1.5-0.4l-0.4-1.5l-1.5,0.4L79.9,186.8z M77.9,161.6l-1.5,0.4l0.4,1.5l1.5-0.4L77.9,161.6z M74.4,160.9l0.4,1.5
						l1.5-0.4l-0.4-1.5L74.4,160.9z M72.4,153.4l-1.5,0.4l0.4,1.5l1.5-0.4L72.4,153.4z M75.3,146.2l-0.4-1.5l-1.5,0.4l0.4,1.5
						L75.3,146.2z M78.5,158.2l-0.4-1.5l-1.5,0.4l0.4,1.5L78.5,158.2z M74.5,143.2l-0.4-1.5l-1.5,0.4l0.4,1.5L74.5,143.2z
						 M73.7,140.2l-0.4-1.5l-1.5,0.4l0.4,1.5L73.7,140.2z M76.9,152.2l-0.4-1.5l-1.5,0.4l0.4,1.5L76.9,152.2z M77.7,155.2l-0.4-1.5
						l-1.5,0.4l0.4,1.5L77.7,155.2z M76.1,149.2l-0.4-1.5l-1.5,0.4l0.4,1.5L76.1,149.2z M69,129c-0.5-0.1-1.1-0.2-1.6,0l0.4,1.5
						l1.5-0.4L69,129z M65.9,129.4l-1.5,0.4l0.4,1.5l1.5-0.4L65.9,129.4z M63.3,131.7l0.4,1.5l1.5-0.4l-0.4-1.5L63.3,131.7z
						 M72.8,137.2l-0.4-1.5l-1.5,0.4l0.4,1.5L72.8,137.2z M72,134.2l-0.4-1.5l-1.5,0.4l0.4,1.5L72,134.2z M71.2,131.2
						c-0.1-0.5-0.4-1-0.8-1.4l-1.1,0.3l0.4,1.5L71.2,131.2z M69.4,136.5l-1.5,0.4l0.4,1.5l1.5-0.4L69.4,136.5z M74.3,154.5l-1.5,0.4
						l0.4,1.5l1.5-0.4L74.3,154.5z M73.5,151.5l-1.5,0.4l0.4,1.5l1.5-0.4L73.5,151.5z M75.1,157.5l-1.5,0.4l0.4,1.5l1.5-0.4
						L75.1,157.5z M75.9,160.5l1.5-0.4l-0.4-1.5l-1.5,0.4L75.9,160.5z M72.7,148.5l-1.5,0.4l0.4,1.5l1.5-0.4L72.7,148.5z
						 M75.1,157.5l1.5-0.4l-0.4-1.5l-1.5,0.4L75.1,157.5z M74.3,154.5l1.5-0.4l-0.4-1.5l-1.5,0.4L74.3,154.5z M79.4,161.2l-0.4-1.5
						l-1.5,0.4l0.4,1.5L79.4,161.2z M68.6,133.5l-1.5,0.4l0.4,1.5L69,135L68.6,133.5z M71.1,142.5l-1.5,0.4l0.4,1.5l1.5-0.4
						L71.1,142.5z M71.9,145.5l-1.5,0.4l0.4,1.5l1.5-0.4L71.9,145.5z M70.2,139.5l-1.5,0.4l0.4,1.5l1.5-0.4L70.2,139.5z"/>
				</g>
			</g>
			<g id="Red_5_">
				<g id="XMLID_2174_">
					
						<rect id="XMLID_2176_" x="33.4" y="172" transform="matrix(0.965 -0.2621 0.2621 0.965 -44.6755 21.4899)" class="st1" width="49.7" height="12.4"/>
				</g>
			</g>
			<g id="Inner_Lines_5_" class="st5">
				<g id="XMLID_2687_">
					<path id="XMLID_2688_" class="st3" d="M47.1,149l-13.5,3.7l0.4,1.5l13.5-3.7L47.1,149z M56.9,149.6l-22.5,6.1l0.4,1.5l22.5-6.1
						L56.9,149.6z M35.2,158.7l0.4,1.5l19.5-5.3l-0.4-1.5L35.2,158.7z"/>
				</g>
			</g>
			<g id="Outline_5_">
				<g id="XMLID_2907_">
					<path id="XMLID_2908_" class="st3" d="M91.7,194.9l-17.5-64.5c-0.9-3.3-4.3-5.3-7.6-4.4l-4.5,1.2l0,0l-3,0.8l0,0l-39,10.6
						c-0.8,0.2-1.3,1.1-1.1,1.9L39,214c0.2,0.8,1.1,1.3,1.9,1.1l46.5-12.6C90.7,201.6,92.6,198.2,91.7,194.9z M67.4,129
						c1.7-0.4,3.4,0.5,3.8,2.2l12.6,46.5l-7.5,2l-3.3-12l7.5-2l-0.8-3l-7.5,2l-9.4-34.5L67.4,129z M22.4,141.2l37.5-10.2l9.4,34.5
						l-37.5,10.2l0.8,3l37.5-10.2l3.3,12l-37.5,10.2l0.4,1.4L22.4,141.2z M36.7,193.7l37.5-10.2l4.9,18l-37.5,10.2L36.7,193.7z
						 M86.5,199.5l-4.5,1.2l-4.9-18l7.5-2l4.1,15C89.2,197.3,88.2,199,86.5,199.5z"/>
				</g>
			</g>
		</g>
		<g id="XMLID_2731_">
			<g id="White_Base_31_">
				<g id="XMLID_2601_">
					<path id="XMLID_2602_" class="st0" d="M96,154.7c-10.6-5.6-23.8-1.6-29.4,9l-11.8,22.3l11.1-3.4c1.9,4.3,5.2,8.1,9.7,10.5
						c10.6,5.6,23.8,1.6,29.4-9C110.6,173.5,106.6,160.4,96,154.7z M121,151.1c-7.6-4-16.5-3.1-23.1,1.6c11.4,6.5,15.7,21,9.5,32.7
						c-1,2-2.3,3.7-3.8,5.3c3.7,1.3,7.5,1.6,11.2,0.9l3.4,11.1l11.8-22.3C135.7,169.8,131.6,156.7,121,151.1z"/>
				</g>
			</g>
			<g id="Green_12_">
				<g id="XMLID_2665_">
					<path id="XMLID_2666_" class="st6" d="M83.2,167.2l-0.6,1.2l15.6,8.3l0.6-1.2L83.2,167.2z M80.7,172l15.6,8.3l0.6-1.2
						l-15.6-8.3L80.7,172z M78.7,175.6l10.8,5.7l0.6-1.2l-10.8-5.7L78.7,175.6z"/>
				</g>
			</g>
			<g id="Blue_22_">
				<g id="XMLID_2635_">
					<path id="XMLID_2678_" class="st7" d="M112.8,176.7l4.2,2.2l0.6-1.2l-4.7-2.5C112.9,175.8,112.9,176.3,112.8,176.7z
						 M111.6,165.3c0.2,0.6,0.4,1.2,0.5,1.8l11.1,5.9l0.6-1.2L111.6,165.3z M112.9,172.2l8.4,4.4l0.6-1.2l-9.2-4.9
						C112.8,171.1,112.9,171.6,112.9,172.2z"/>
				</g>
			</g>
			<g id="Texture_1_31_" class="st2">
				<g id="XMLID_3137_">
					<path id="XMLID_3138_" class="st3" d="M80.8,165.9l-1.2-0.6l-0.6,1.2l1.2,0.6L80.8,165.9z M77.8,165.8l-0.6,1.2l1.2,0.6
						l0.6-1.2L77.8,165.8z M78.9,169.5l0.6-1.2l-1.2-0.6l-0.6,1.2L78.9,169.5z M74.6,171.8l1.2,0.6l0.6-1.2l-1.2-0.6L74.6,171.8z
						 M75.8,169.4l1.2,0.6l0.6-1.2l-1.2-0.6L75.8,169.4z M77.6,171.9l0.6-1.2l-1.2-0.6l-0.6,1.2L77.6,171.9z M77.2,164l-0.6,1.2
						l1.2,0.6l0.6-1.2L77.2,164z M75.9,166.4l-0.6,1.2l1.2,0.6l0.6-1.2L75.9,166.4z M74.6,168.8L74,170l1.2,0.6l0.6-1.2L74.6,168.8z
						 M76.3,174.3l0.6-1.2l-1.2-0.6l-0.6,1.2L76.3,174.3z M72.7,172.4l1.2,0.6l0.6-1.2l-1.2-0.6L72.7,172.4z"/>
				</g>
			</g>
			<g id="Outline_31_">
				<g id="XMLID_2677_">
					<path id="XMLID_2679_" class="st3" d="M122.3,148.7c-9-4.8-19.6-3.4-27,2.7c-11.6-4.9-25.1-0.2-31.1,11.1l-13.4,25.2
						c-0.4,0.7-0.1,1.5,0.6,1.8c0.3,0.2,0.7,0.2,1,0.1l12.1-3.7c2.2,4,5.5,7.4,9.9,9.6c9,4.8,19.6,3.4,27-2.7
						c3.7,1.6,7.7,2.1,11.5,1.8l3.7,12.1c0.1,0.3,0.3,0.6,0.7,0.8c0.7,0.4,1.5,0.1,1.8-0.6l13.4-25.2
						C138.8,169.8,134.2,155,122.3,148.7z M75.6,193.2c-4.5-2.4-7.8-6.2-9.7-10.5l-11.1,3.4l11.8-22.3c5.6-10.6,18.8-14.7,29.4-9
						c10.6,5.6,14.7,18.8,9,29.4C99.4,194.8,86.2,198.8,75.6,193.2z M130,180.5l-5.3,9.9l-6.6,12.4l-3.4-11.1
						c-3.7,0.7-7.5,0.4-11.2-0.9c1.5-1.6,2.8-3.4,3.9-5.4c6.2-11.7,2-26.1-9.4-32.7c6.5-4.8,15.4-5.7,23-1.7
						C131.6,156.7,135.7,169.9,130,180.5z"/>
				</g>
			</g>
		</g>
		<g id="XMLID_2499_">
			<g id="White_Base_37_">
				<g id="XMLID_2165_">
					<path id="XMLID_2172_" class="st0" d="M56.3,149.7c-5.7,0-10.4,4.6-10.4,10.4v15c0,5.7,4.6,10.4,10.4,10.4s10.4-4.6,10.4-10.4
						v-15C66.7,154.4,62,149.7,56.3,149.7z"/>
				</g>
			</g>
			<g id="Blue_25_">
				<g id="XMLID_2162_">
					<rect id="XMLID_2163_" x="45.9" y="169.9" class="st7" width="20.8" height="4.6"/>
				</g>
			</g>
			<g id="Texture_1_37_" class="st2">
				<g id="XMLID_3395_">
					<path id="XMLID_3396_" class="st3" d="M48.2,175.7v1.2h1.2v-1.2H48.2z M47.1,178h1.2v-1.2h-1.2V178z M45.9,175.7v1.2h1.2v-1.2
						H45.9z M48.2,174.5h-1.2v1.2h1.2V174.5z M66.7,178v-1.2h-1.2v1.2H66.7z M62.1,175.7v1.2h1.2v-1.2H62.1z M64.4,175.7v1.2h1.2
						v-1.2H64.4z M63.2,178h1.2v-1.2h-1.2V178z M66.7,174.5h-1.2v1.2h1.2V174.5z M64.4,174.5h-1.2v1.2h1.2V174.5z M59.7,175.7v1.2
						h1.2v-1.2H59.7z M58.6,178h1.2v-1.2h-1.2V178z M57.4,175.7v1.2h1.2v-1.2H57.4z M56.3,178h1.2v-1.2h-1.2V178z M60.9,178h1.2
						v-1.2h-1.2V178z M55.1,175.7v1.2h1.2v-1.2H55.1z M54,178h1.2v-1.2H54V178z M50.5,175.7v1.2h1.2v-1.2H50.5z M52.8,175.7v1.2H54
						v-1.2H52.8z M51.7,178h1.2v-1.2h-1.2V178z M59.7,174.5h-1.2v1.2h1.2V174.5z M57.4,174.5h-1.2v1.2h1.2V174.5z M62.1,174.5h-1.2
						v1.2h1.2V174.5z M55.1,174.5H54v1.2h1.2V174.5z M52.8,174.5h-1.2v1.2h1.2V174.5z M49.4,178h1.2v-1.2h-1.2V178z M50.5,174.5
						h-1.2v1.2h1.2V174.5z"/>
				</g>
			</g>
			<g id="Outline_37_">
				<g id="XMLID_2857_">
					<path id="XMLID_2872_" class="st3" d="M56.3,187.8c7,0,12.7-5.7,12.7-12.7v-15c0-7-5.7-12.7-12.7-12.7s-12.7,5.7-12.7,12.7v15
						C43.6,182.1,49.3,187.8,56.3,187.8z M45.9,160.1c0-5.7,4.6-10.4,10.4-10.4s10.4,4.6,10.4,10.4v15c0,5.7-4.6,10.4-10.4,10.4
						s-10.4-4.6-10.4-10.4V160.1z M73.6,175.1v-4.6c0-0.6-0.5-1.2-1.2-1.2c-0.6,0-1.2,0.5-1.2,1.2v4.6c0,8.3-6.7,15-15,15
						s-15-6.7-15-15v-4.6c0-0.6-0.5-1.2-1.2-1.2c-0.6,0-1.2,0.5-1.2,1.2v4.6c0,9.2,7.1,16.7,16.2,17.2v11.6H42.4
						c-0.6,0-1.2,0.5-1.2,1.2c0,0.6,0.5,1.2,1.2,1.2h27.7c0.6,0,1.2-0.5,1.2-1.2c0-0.6-0.5-1.2-1.2-1.2H57.4v-11.6
						C66.5,191.8,73.6,184.3,73.6,175.1z"/>
				</g>
			</g>
		</g>
		<g id="XMLID_2495_">
			<g id="XMLID_2496_">
				<path id="XMLID_475_" class="st8" d="M98.7,188.5c-0.8,0-1.7-0.2-2.5-0.5c-1.6-0.7-2.7-1.9-3.4-3.5c-0.6-1.6-0.6-3.2,0-4.8
					c0.7-1.7,1.9-2.8,3.5-3.5c0.8-0.3,1.6-0.5,2.4-0.5c0.8,0,1.7,0.2,2.5,0.5c1.7,0.7,2.8,1.9,3.5,3.5c0.6,1.6,0.6,3.3-0.1,4.9
					c-0.7,1.5-1.8,2.7-3.4,3.3C100.3,188.3,99.5,188.5,98.7,188.5L98.7,188.5z M106,170.4c-0.7,0-1.4-0.2-2.2-0.5
					c-1.2-0.5-2-1.3-2.6-2.4c-0.6-1.2-0.6-2.6,0.1-4.3c1-2.4,2.8-4.8,5.5-7.1c2.6-2.4,5.9-4.3,9.8-5.7c1.7-0.7,3.2-1.2,4.3-1.7
					c1.1-0.5,2-1,2.8-1.5c0.7-0.5,1.4-1.2,1.9-1.9c0.6-0.8,1.1-1.7,1.6-2.9c1.1-2.5,1.2-4.7,0.2-6.5c-1-1.9-2.7-3.4-5.3-4.5
					c-1.2-0.5-2.5-0.8-3.7-1c-0.3,0-0.7,0-1,0c-0.8,0-1.6,0.1-2.3,0.3c-1,0.3-1.9,0.7-2.7,1.4c-0.8,0.7-1.4,1.5-1.9,2.5
					c-0.9,1.7-2.1,2.4-3,2.6c-0.4,0.1-0.9,0.2-1.3,0.2c-0.8,0-1.5-0.2-2.3-0.5c-2.7-1.2-3.6-3.4-2.5-6c1-2.3,2.4-4.2,4.2-5.7
					c1.8-1.5,3.8-2.6,6-3.2c1.8-0.5,3.6-0.8,5.6-0.8c0.5,0,1,0,1.5,0.1c2.5,0.2,4.9,0.8,7.4,1.8c5.1,2.1,8.6,5.3,10.5,9.4
					c1.9,4.2,1.7,9-0.5,14.2c-1.1,2.4-2.7,4.5-4.6,6.2c-1.9,1.6-4.7,3.2-8.2,4.5c-2.2,0.9-4.1,1.6-5.6,2.3c-1.4,0.6-2.6,1.3-3.5,2
					c-0.9,0.7-1.6,1.4-2.1,2.2c-0.6,0.8-1.1,1.9-1.6,3.1C109.1,169.8,107.3,170.4,106,170.4z"/>
				<path id="XMLID_443_" class="st9" d="M117.1,122.7c0.5,0,0.9,0,1.4,0c2.3,0.2,4.6,0.7,6.9,1.7c4.8,2,8,4.8,9.7,8.7
					c1.7,3.8,1.5,8.1-0.5,13c-1,2.2-2.4,4.1-4.2,5.6s-4.4,3-7.8,4.3c-2.3,0.9-4.2,1.7-5.7,2.4c-1.5,0.7-2.8,1.4-3.8,2.2
					c-1,0.8-1.8,1.6-2.4,2.5c-0.6,0.9-1.2,2-1.8,3.4c-0.7,1.6-1.6,2.4-2.9,2.4c-0.5,0-1-0.1-1.6-0.4c-0.8-0.4-1.5-0.9-1.9-1.7
					c-0.4-0.8-0.3-1.8,0.2-3c0.9-2.2,2.6-4.4,5.1-6.6c2.5-2.2,5.6-4,9.3-5.4c1.7-0.6,3.2-1.2,4.4-1.7c1.2-0.5,2.2-1.1,3.1-1.7
					c0.9-0.6,1.6-1.4,2.2-2.2c0.6-0.9,1.2-1.9,1.8-3.2c1.3-3,1.3-5.5,0.2-7.8c-1.1-2.2-3.1-4-6-5.2c-1.4-0.6-2.8-0.9-4.1-1.1
					c-0.4,0-0.7,0-1.1,0c-1,0-1.9,0.1-2.7,0.3c-1.2,0.3-2.3,0.9-3.2,1.7c-1,0.8-1.7,1.8-2.3,3c-0.5,1-1.2,1.6-2,1.8
					c-0.3,0.1-0.6,0.1-1,0.1c-0.6,0-1.1-0.1-1.7-0.4c-1.9-0.9-2.5-2.2-1.8-4c0.9-2.1,2.1-3.8,3.8-5.1c1.6-1.3,3.5-2.3,5.5-2.9
					C113.6,122.9,115.3,122.7,117.1,122.7 M98.7,177.2c0.6,0,1.3,0.1,1.9,0.4c1.3,0.5,2.2,1.4,2.7,2.7c0.5,1.2,0.5,2.5-0.1,3.8
					c-0.5,1.2-1.4,2-2.6,2.5c-0.6,0.3-1.2,0.4-1.8,0.4c-0.6,0-1.3-0.1-1.9-0.4c-1.2-0.5-2.1-1.4-2.6-2.7c-0.5-1.3-0.5-2.5,0-3.6
					c0.5-1.3,1.4-2.2,2.7-2.7C97.5,177.3,98.1,177.2,98.7,177.2 M117.1,119.7L117.1,119.7c-2.1,0-4.1,0.3-6,0.9
					c-2.4,0.7-4.6,1.9-6.5,3.5c-2,1.6-3.5,3.7-4.6,6.2c-1.4,3.3-0.2,6.3,3.3,7.9l0,0l0,0c0.9,0.4,1.9,0.6,2.9,0.6
					c0.6,0,1.1-0.1,1.7-0.2c1.2-0.3,2.9-1.1,4-3.4c0.4-0.8,0.9-1.5,1.5-2c0.6-0.5,1.3-0.9,2.1-1.1c0.6-0.2,1.3-0.2,2-0.2
					c0.3,0,0.6,0,0.8,0c1,0.1,2.1,0.4,3.2,0.8c2.2,1,3.7,2.2,4.5,3.8c0.7,1.4,0.6,3.1-0.3,5.2c-0.5,1.1-0.9,1.9-1.4,2.6
					c-0.4,0.6-1,1.1-1.6,1.6c-0.7,0.5-1.5,0.9-2.5,1.4c-1.1,0.5-2.5,1-4.3,1.7c-4.1,1.5-7.5,3.5-10.3,6c-2.8,2.5-4.7,5.1-5.8,7.7
					c-0.9,2.1-0.9,4-0.1,5.5c0.7,1.4,1.9,2.4,3.3,3c1,0.4,1.9,0.6,2.8,0.6c1.4,0,4.1-0.5,5.7-4.2c0.5-1.2,1-2.1,1.5-2.9
					c0.4-0.7,1-1.3,1.8-1.8c0.8-0.6,1.9-1.2,3.2-1.8c1.4-0.7,3.3-1.4,5.5-2.3c3.8-1.5,6.6-3,8.7-4.8c2.1-1.8,3.8-4,5-6.6l0,0l0,0
					c2.4-5.6,2.6-10.8,0.5-15.4c-2-4.5-5.8-8-11.3-10.2c-2.5-1.1-5.2-1.7-7.8-1.9C118.2,119.7,117.6,119.7,117.1,119.7L117.1,119.7z
					 M98.7,174.2c-1,0-2,0.2-2.9,0.6c-2,0.8-3.4,2.3-4.3,4.3c-0.8,1.9-0.8,3.9-0.1,5.9c0.8,2,2.2,3.5,4.2,4.4c1,0.4,2.1,0.7,3.1,0.7
					c1,0,2-0.2,3-0.6c1.9-0.8,3.4-2.2,4.2-4.1c0.9-2,0.9-4.1,0.1-6.1c-0.8-2-2.3-3.4-4.3-4.3C100.7,174.4,99.7,174.2,98.7,174.2
					L98.7,174.2z"/>
			</g>
		</g>
		<g id="XMLID_2144_">
			<g id="XMLID_2365_">
				<path id="XMLID_2032_" class="st0" d="M25,218.4c-1.9,0-3.5-1.6-3.5-3.5v-30c0-1.9,1.6-3.5,3.5-3.5h110c1.9,0,3.5,1.6,3.5,3.5
					v30c0,1.9-1.6,3.5-3.5,3.5H25z"/>
				<path id="XMLID_2025_" class="st3" d="M135,182.9c1.1,0,2,0.9,2,2v30c0,1.1-0.9,2-2,2H25c-1.1,0-2-0.9-2-2v-30c0-1.1,0.9-2,2-2
					H135 M135,179.9H25c-2.8,0-5,2.2-5,5v30c0,2.8,2.2,5,5,5h110c2.8,0,5-2.2,5-5v-30C140,182.1,137.7,179.9,135,179.9L135,179.9z"
					/>
			</g>
			<g id="XMLID_2279_">
				<g id="XMLID_2359_">
					<g id="XMLID_2360_">
						<rect id="XMLID_2364_" x="23" y="182" class="st10" width="2" height="2"/>
						<rect id="XMLID_2363_" x="27" y="182" class="st10" width="2" height="2"/>
						<rect id="XMLID_2362_" x="21" y="184" class="st10" width="2" height="2"/>
						<rect id="XMLID_2361_" x="25" y="184" class="st10" width="2" height="2"/>
					</g>
				</g>
				<g id="XMLID_2343_">
					<g id="XMLID_2348_">
						<rect id="XMLID_2357_" x="23" y="186" class="st10" width="2" height="2"/>
						<rect id="XMLID_2356_" x="27" y="186" class="st10" width="2" height="2"/>
						<rect id="XMLID_2355_" x="21" y="188" class="st10" width="2" height="2"/>
						<rect id="XMLID_2354_" x="25" y="188" class="st10" width="2" height="2"/>
					</g>
				</g>
				<g id="XMLID_2332_">
					<g id="XMLID_2333_">
						<rect id="XMLID_2337_" x="23" y="190" class="st10" width="2" height="2"/>
						<rect id="XMLID_2336_" x="27" y="190" class="st10" width="2" height="2"/>
						<rect id="XMLID_2335_" x="21" y="192" class="st10" width="2" height="2"/>
						<rect id="XMLID_2334_" x="25" y="192" class="st10" width="2" height="2"/>
					</g>
				</g>
				<g id="XMLID_2326_">
					<g id="XMLID_2327_">
						<rect id="XMLID_2331_" x="23" y="194" class="st10" width="2" height="2"/>
						<rect id="XMLID_2330_" x="27" y="194" class="st10" width="2" height="2"/>
						<rect id="XMLID_2329_" x="21" y="196" class="st10" width="2" height="2"/>
						<rect id="XMLID_2328_" x="25" y="196" class="st10" width="2" height="2"/>
					</g>
				</g>
				<g id="XMLID_2319_">
					<g id="XMLID_2320_">
						<rect id="XMLID_2325_" x="23" y="198" class="st10" width="2" height="2"/>
						<rect id="XMLID_2324_" x="27" y="198" class="st10" width="2" height="2"/>
						<rect id="XMLID_2323_" x="21" y="200" class="st10" width="2" height="2"/>
						<rect id="XMLID_2322_" x="25" y="200" class="st10" width="2" height="2"/>
					</g>
				</g>
				<g id="XMLID_2313_">
					<g id="XMLID_2314_">
						<rect id="XMLID_2318_" x="23" y="202" class="st10" width="2" height="2"/>
						<rect id="XMLID_2317_" x="27" y="202" class="st10" width="2" height="2"/>
						<rect id="XMLID_2316_" x="21" y="204" class="st10" width="2" height="2"/>
						<rect id="XMLID_2315_" x="25" y="204" class="st10" width="2" height="2"/>
					</g>
				</g>
				<g id="XMLID_2307_">
					<g id="XMLID_2308_">
						<rect id="XMLID_2312_" x="23" y="206" class="st10" width="2" height="2"/>
						<rect id="XMLID_2311_" x="27" y="206" class="st10" width="2" height="2"/>
						<rect id="XMLID_2310_" x="21" y="208" class="st10" width="2" height="2"/>
						<rect id="XMLID_2309_" x="25" y="208" class="st10" width="2" height="2"/>
					</g>
				</g>
				<g id="XMLID_2288_">
					<g id="XMLID_2289_">
						<rect id="XMLID_2306_" x="23" y="210" class="st10" width="2" height="2"/>
						<rect id="XMLID_2292_" x="27" y="210" class="st10" width="2" height="2"/>
						<rect id="XMLID_2291_" x="21" y="212" class="st10" width="2" height="2"/>
						<rect id="XMLID_2290_" x="25" y="212" class="st10" width="2" height="2"/>
					</g>
				</g>
				<g id="XMLID_2280_">
					<g id="XMLID_2281_">
						<rect id="XMLID_2287_" x="23" y="214" class="st10" width="2" height="2"/>
						<rect id="XMLID_2286_" x="27" y="214" class="st10" width="2" height="2"/>
						<rect id="XMLID_2283_" x="21" y="216" class="st10" width="2" height="2"/>
						<rect id="XMLID_2282_" x="25" y="216" class="st10" width="2" height="2"/>
					</g>
				</g>
			</g>
			<g id="XMLID_2145_">
				<g id="XMLID_2273_">
					<g id="XMLID_2274_">
						<rect id="XMLID_2278_" x="133.1" y="182" class="st10" width="2" height="2"/>
						<rect id="XMLID_2277_" x="137.1" y="182" class="st10" width="2" height="2"/>
						<rect id="XMLID_2276_" x="131.1" y="184" class="st10" width="2" height="2"/>
						<rect id="XMLID_2275_" x="135.1" y="184" class="st10" width="2" height="2"/>
					</g>
				</g>
				<g id="XMLID_2267_">
					<g id="XMLID_2268_">
						<rect id="XMLID_2272_" x="133.1" y="186" class="st10" width="2" height="2"/>
						<rect id="XMLID_2271_" x="137.1" y="186" class="st10" width="2" height="2"/>
						<rect id="XMLID_2270_" x="131.1" y="188" class="st10" width="2" height="2"/>
						<rect id="XMLID_2269_" x="135.1" y="188" class="st10" width="2" height="2"/>
					</g>
				</g>
				<g id="XMLID_2201_">
					<g id="XMLID_2202_">
						<rect id="XMLID_2266_" x="133.1" y="190" class="st10" width="2" height="2"/>
						<rect id="XMLID_2265_" x="137.1" y="190" class="st10" width="2" height="2"/>
						<rect id="XMLID_2264_" x="131.1" y="192" class="st10" width="2" height="2"/>
						<rect id="XMLID_2263_" x="135.1" y="192" class="st10" width="2" height="2"/>
					</g>
				</g>
				<g id="XMLID_2195_">
					<g id="XMLID_2196_">
						<rect id="XMLID_2200_" x="133.1" y="194" class="st10" width="2" height="2"/>
						<rect id="XMLID_2199_" x="137.1" y="194" class="st10" width="2" height="2"/>
						<rect id="XMLID_2198_" x="131.1" y="196" class="st10" width="2" height="2"/>
						<rect id="XMLID_2197_" x="135.1" y="196" class="st10" width="2" height="2"/>
					</g>
				</g>
				<g id="XMLID_2189_">
					<g id="XMLID_2190_">
						<rect id="XMLID_2194_" x="133.1" y="198" class="st10" width="2" height="2"/>
						<rect id="XMLID_2193_" x="137.1" y="198" class="st10" width="2" height="2"/>
						<rect id="XMLID_2192_" x="131.1" y="200" class="st10" width="2" height="2"/>
						<rect id="XMLID_2191_" x="135.1" y="200" class="st10" width="2" height="2"/>
					</g>
				</g>
				<g id="XMLID_2178_">
					<g id="XMLID_2184_">
						<rect id="XMLID_2188_" x="133.1" y="202" class="st10" width="2" height="2"/>
						<rect id="XMLID_2187_" x="137.1" y="202" class="st10" width="2" height="2"/>
						<rect id="XMLID_2186_" x="131.1" y="204" class="st10" width="2" height="2"/>
						<rect id="XMLID_2185_" x="135.1" y="204" class="st10" width="2" height="2"/>
					</g>
				</g>
				<g id="XMLID_2158_">
					<g id="XMLID_2159_">
						<rect id="XMLID_2173_" x="133.1" y="206" class="st10" width="2" height="2"/>
						<rect id="XMLID_2167_" x="137.1" y="206" class="st10" width="2" height="2"/>
						<rect id="XMLID_2166_" x="131.1" y="208" class="st10" width="2" height="2"/>
						<rect id="XMLID_2164_" x="135.1" y="208" class="st10" width="2" height="2"/>
					</g>
				</g>
				<g id="XMLID_2152_">
					<g id="XMLID_2153_">
						<rect id="XMLID_2157_" x="133.1" y="210" class="st10" width="2" height="2"/>
						<rect id="XMLID_2156_" x="137.1" y="210" class="st10" width="2" height="2"/>
						<rect id="XMLID_2155_" x="131.1" y="212" class="st10" width="2" height="2"/>
						<rect id="XMLID_2154_" x="135.1" y="212" class="st10" width="2" height="2"/>
					</g>
				</g>
				<g id="XMLID_2146_">
					<g id="XMLID_2147_">
						<rect id="XMLID_2151_" x="133.1" y="214" class="st10" width="2" height="2"/>
						<rect id="XMLID_2150_" x="137.1" y="214" class="st10" width="2" height="2"/>
						<rect id="XMLID_2149_" x="131.1" y="216" class="st10" width="2" height="2"/>
						<rect id="XMLID_2148_" x="135.1" y="216" class="st10" width="2" height="2"/>
					</g>
				</g>
			</g>
		</g>
		<g id="XMLID_25_">
			<path id="XMLID_26_" class="st11" d="M51,196.8c0.5,0,0.7,0.2,0.7,0.6c0,0.4-0.2,0.7-0.7,0.7h-1.8c0.5,0.6,0.8,1,1.1,1.3
				s0.5,0.7,0.7,1c0.2,0.3,0.3,0.6,0.3,0.8c0,0.2-0.1,0.3-0.3,0.5c-0.2,0.1-0.4,0.2-0.5,0.1s-0.3-0.2-0.5-0.5
				c-0.2-0.3-0.4-0.6-0.5-0.8c-0.2-0.2-0.3-0.5-0.5-0.7v8.5c0,0.4-0.2,0.7-0.6,0.7c-0.2,0-0.4-0.1-0.5-0.2s-0.2-0.3-0.2-0.5v-7.1
				c-0.2,0.5-0.4,1-0.7,1.4c-0.2,0.5-0.5,0.9-0.8,1.4c-0.2,0.4-0.4,0.6-0.6,0.7s-0.4,0.1-0.6-0.1s-0.3-0.3-0.3-0.5s0.1-0.4,0.3-0.8
				c0.5-0.7,0.9-1.5,1.4-2.3c0.4-0.9,0.8-1.9,1.2-3h-2c-0.3,0-0.4-0.1-0.5-0.2c-0.1-0.1-0.2-0.3-0.2-0.5c0-0.2,0.1-0.4,0.2-0.5
				c0.1-0.1,0.3-0.2,0.5-0.2h2.1v-2.1c-0.2,0.1-0.5,0.1-0.7,0.2c-0.3,0.1-0.5,0.1-0.8,0.2c-0.4,0.1-0.6,0.1-0.8,0
				c-0.2-0.1-0.3-0.2-0.3-0.5c0-0.2,0-0.4,0.1-0.5s0.4-0.2,0.7-0.3c0.8-0.2,1.6-0.3,2.2-0.5c0.6-0.2,1.2-0.4,1.8-0.7
				c0.3-0.1,0.6-0.2,0.8-0.2s0.3,0.1,0.4,0.3c0.1,0.3,0.1,0.5,0.1,0.6c-0.1,0.2-0.3,0.3-0.7,0.5c-0.3,0.1-0.5,0.2-0.8,0.3
				s-0.5,0.2-0.8,0.3v2.4H51z M62,207.8c0,0.2-0.1,0.4-0.2,0.5c-0.1,0.1-0.3,0.2-0.5,0.2H51c-0.3,0-0.4-0.1-0.5-0.2
				s-0.2-0.3-0.2-0.5s0.1-0.4,0.2-0.5s0.3-0.2,0.5-0.2h1v-12.8c0-0.3,0-0.6,0.1-0.8c0-0.2,0.1-0.4,0.2-0.5c0.1-0.1,0.3-0.2,0.4-0.2
				c0.2,0,0.4-0.1,0.7-0.1h5.3c0.3,0,0.5,0,0.7,0.1c0.2,0,0.3,0.1,0.5,0.2s0.2,0.3,0.2,0.5s0.1,0.5,0.1,0.8v12.8h1
				c0.3,0,0.4,0.1,0.5,0.2C61.9,207.4,62,207.6,62,207.8z M53.5,197.6h5.3v-3.3c0-0.1,0-0.2-0.1-0.2c0,0-0.1-0.1-0.3-0.1h-4.8
				c-0.1,0-0.2,0-0.2,0.1c0,0,0,0.1,0,0.3V197.6z M53.5,202.4h5.3v-3.5h-5.3V202.4z M53.5,207.1h5.3v-3.3h-5.3V207.1z"/>
			<path id="XMLID_35_" class="st11" d="M77.3,193.1c0.3,0,0.6,0,0.8,0.1c0.2,0.1,0.4,0.1,0.5,0.3s0.2,0.3,0.3,0.5s0.1,0.5,0.1,0.8
				v1.5c0,0.3,0,0.6-0.1,0.8s-0.1,0.4-0.3,0.5s-0.3,0.2-0.5,0.3c-0.2,0.1-0.5,0.1-0.8,0.1h-4.9c0,0,0.1,0.1,0.1,0.1
				c0,0,0.1,0.1,0.1,0.1c0.2,0.4,0.4,0.8,0.6,1.2h5.8c0.3,0,0.5,0.1,0.5,0.2c0.1,0.1,0.1,0.3,0.1,0.5s-0.1,0.4-0.2,0.5
				c-0.1,0.1-0.3,0.2-0.5,0.2h-8.4c0,0.3,0,0.5,0,0.7c0,0.2,0,0.5-0.1,0.7h6c0.5,0,0.8,0,1.1,0.1s0.5,0.2,0.7,0.3
				c0.2,0.1,0.2,0.3,0.3,0.6c0,0.2,0,0.5,0,0.9c-0.1,0.5-0.2,1.1-0.3,1.7s-0.3,1.1-0.5,1.6c-0.2,0.5-0.4,0.8-0.7,1.1
				s-0.7,0.3-1.4,0.3c-0.4,0-0.9-0.1-1.5-0.2c-0.6-0.1-1.3-0.3-2.1-0.5c-0.3-0.1-0.6-0.2-0.7-0.4s-0.1-0.4,0-0.6
				c0.1-0.3,0.2-0.4,0.4-0.5c0.2,0,0.4,0,0.7,0.1c0.8,0.3,1.5,0.5,2,0.6s0.8,0.2,1.1,0.2c0.2,0,0.4-0.1,0.5-0.2s0.2-0.3,0.3-0.5
				c0.2-0.4,0.3-0.8,0.4-1.3c0.1-0.5,0.2-0.9,0.3-1.3c0-0.3,0-0.4-0.1-0.5c-0.1-0.1-0.3-0.1-0.5-0.1h-6.2c-0.2,1-0.6,1.9-1.1,2.7
				c-0.5,0.8-1.2,1.5-2.1,2.2c-0.3,0.3-0.6,0.4-0.9,0.4c-0.2,0-0.4-0.2-0.5-0.4c-0.2-0.3,0-0.8,0.6-1.2c0.5-0.3,0.9-0.7,1.2-1.2
				c0.4-0.4,0.6-0.9,0.9-1.4c0.2-0.5,0.4-1.1,0.5-1.8c0.1-0.6,0.2-1.4,0.3-2.2H67c-0.3,0-0.4-0.1-0.5-0.2c-0.1-0.1-0.1-0.3-0.1-0.5
				s0-0.4,0.1-0.5s0.3-0.2,0.5-0.2h4.7c0-0.1-0.1-0.1-0.1-0.2c0-0.1-0.1-0.2-0.2-0.2c-0.3-0.4-0.3-0.8-0.1-1h-5.2v3.5
				c0,1.3-0.2,2.5-0.5,3.6c-0.3,1.1-0.8,2.2-1.4,3.2c-0.2,0.3-0.4,0.6-0.6,0.6c-0.2,0.1-0.4,0-0.6-0.1c-0.4-0.3-0.4-0.7,0-1.3
				c0.3-0.5,0.6-0.9,0.8-1.4c0.2-0.5,0.4-0.9,0.5-1.4s0.2-1,0.3-1.6c0.1-0.6,0.1-1.2,0.1-1.8v-6.5c0-0.5,0.1-0.9,0.3-1.1
				c0.2-0.2,0.6-0.3,1.1-0.3h4.8c0,0-0.1-0.1-0.1-0.1c0,0-0.1-0.1-0.1-0.1c-0.3-0.4-0.3-0.8,0.1-1c0.2-0.1,0.4-0.2,0.6-0.2
				c0.2,0,0.3,0.2,0.5,0.5c0.1,0.1,0.2,0.3,0.3,0.5c0.1,0.2,0.2,0.3,0.3,0.5H77.3z M77.5,194.8c0-0.2-0.1-0.3-0.3-0.3H66.4
				c-0.1,0-0.2,0-0.2,0.1c0,0-0.1,0.1-0.1,0.3v1.8h11.1c0.1,0,0.2,0,0.2-0.1c0-0.1,0.1-0.2,0.1-0.3V194.8z"/>
			<path id="XMLID_39_" class="st11" d="M83.2,208.4c0,0.3-0.1,0.4-0.2,0.5c-0.1,0.1-0.3,0.1-0.5,0.1c-0.2,0-0.4,0-0.5-0.1
				c-0.1-0.1-0.2-0.3-0.2-0.5v-13.6c0-0.3,0.1-0.4,0.2-0.5s0.3-0.1,0.5-0.1c0.2,0,0.4,0,0.5,0.1s0.2,0.2,0.2,0.5V208.4z M86.2,194.9
				c-0.2,0.2-0.4,0.2-0.5,0.2c-0.2,0-0.4-0.2-0.7-0.4c-0.3-0.3-0.6-0.6-1-0.9s-0.7-0.6-1-0.8c-0.2-0.2-0.4-0.3-0.4-0.5
				s0-0.3,0.2-0.5c0.3-0.4,0.7-0.4,1.1-0.1c0.1,0.1,0.3,0.2,0.5,0.3c0.2,0.1,0.4,0.3,0.6,0.5c0.2,0.2,0.4,0.3,0.6,0.5
				s0.4,0.3,0.5,0.5c0.3,0.2,0.4,0.5,0.4,0.6S86.4,194.8,86.2,194.9z M93.7,203.4c0,0.3,0,0.6-0.1,0.8c0,0.2-0.1,0.4-0.3,0.5
				s-0.3,0.2-0.5,0.3c-0.2,0-0.5,0.1-0.9,0.1h-5.2c-0.3,0-0.6,0-0.8-0.1c-0.2-0.1-0.4-0.2-0.5-0.3s-0.2-0.3-0.3-0.5
				c-0.1-0.2-0.1-0.5-0.1-0.8v-5.6c0-0.3,0-0.6,0.1-0.8c0.1-0.2,0.1-0.4,0.3-0.5c0.1-0.1,0.3-0.2,0.5-0.3c0.2,0,0.5-0.1,0.8-0.1h5.1
				c0.4,0,0.7,0,0.9,0.1c0.2,0,0.4,0.1,0.5,0.3c0.1,0.1,0.2,0.3,0.3,0.5c0.1,0.2,0.1,0.5,0.1,0.8V203.4z M92.3,197.7
				c0-0.2-0.1-0.3-0.3-0.3h-5.3c-0.2,0-0.3,0.1-0.3,0.3v5.7c0,0.2,0.1,0.2,0.3,0.2H92c0.2,0,0.3-0.1,0.3-0.2V197.7z M96.9,206.6
				c0,0.7-0.1,1.2-0.4,1.5c-0.3,0.3-0.6,0.5-1.1,0.6c-0.4,0.1-0.8,0.1-1.2,0c-0.4-0.1-0.8-0.2-1.3-0.4c-0.3-0.1-0.5-0.3-0.5-0.4
				c-0.1-0.1,0-0.3,0.1-0.5c0.1-0.2,0.2-0.4,0.4-0.4c0.1-0.1,0.3,0,0.6,0.1c0.4,0.1,0.7,0.2,0.9,0.3c0.2,0.1,0.4,0.1,0.6,0.1
				c0.2,0,0.4-0.1,0.5-0.2c0.1-0.2,0.1-0.4,0.1-0.7v-12c0-0.1,0-0.2-0.1-0.3s-0.1-0.1-0.2-0.1h-7.5c-0.2,0-0.4-0.1-0.5-0.2
				c-0.1-0.1-0.2-0.3-0.2-0.5c0-0.2,0.1-0.3,0.2-0.5c0.1-0.1,0.3-0.2,0.5-0.2h7.7c0.5,0,0.9,0.1,1.1,0.4c0.2,0.2,0.3,0.6,0.3,1.2
				V206.6z"/>
			<path id="XMLID_46_" class="st11" d="M102.2,191.7c0.2,0.1,0.4,0.2,0.4,0.4s0,0.4-0.1,0.7c0,0.1-0.1,0.2-0.1,0.2
				c0,0.1-0.1,0.1-0.1,0.2h4.4c0.5,0,0.8,0.2,0.8,0.6s-0.3,0.6-0.8,0.6h-2.1c0,0.2,0.1,0.3,0.1,0.5c0,0.2,0.1,0.4,0.1,0.6
				c0.1,0.4,0.1,0.7,0,0.8c-0.1,0.2-0.2,0.3-0.4,0.3c-0.3,0.1-0.5,0.1-0.6-0.1c-0.1-0.1-0.2-0.4-0.3-0.8c-0.1-0.5-0.2-0.9-0.3-1.4
				h-1.7c-0.2,0.4-0.4,0.7-0.6,1c-0.2,0.3-0.5,0.6-0.7,0.9c-0.3,0.3-0.5,0.5-0.7,0.6c-0.2,0.1-0.4,0-0.6-0.2
				c-0.2-0.2-0.2-0.3-0.2-0.5c0-0.2,0.2-0.4,0.4-0.7c0.4-0.4,0.7-0.8,1.1-1.4c0.3-0.5,0.6-1.1,1-1.9c0.1-0.3,0.3-0.5,0.4-0.6
				C101.8,191.6,102,191.6,102.2,191.7z M116,193.9c0,0.2-0.1,0.4-0.2,0.5c-0.1,0.1-0.3,0.1-0.6,0.1h-2.8c0.1,0.2,0.1,0.4,0.2,0.6
				c0,0.2,0.1,0.4,0.1,0.6c0.1,0.4,0.1,0.6,0,0.8c-0.1,0.1-0.2,0.2-0.5,0.3c-0.3,0.1-0.5,0-0.6-0.1c-0.1-0.1-0.2-0.3-0.3-0.7
				c-0.1-0.3-0.1-0.5-0.2-0.7c0-0.2-0.1-0.5-0.2-0.8h-2c-0.1,0.2-0.2,0.3-0.4,0.5c-0.1,0.2-0.3,0.3-0.4,0.5
				c-0.1,0.1-0.1,0.1-0.2,0.2s-0.1,0.1-0.1,0.1c0,0,0.1,0.1,0.1,0.1s0.1,0.1,0.1,0.1c0.4,0.4,0.9,0.7,1.5,1.1
				c0.5,0.4,1.1,0.7,1.6,1.1c0.6,0.3,1.1,0.7,1.7,0.9s1.1,0.5,1.7,0.7c0.4,0.1,0.7,0.3,0.8,0.4c0.1,0.1,0.1,0.3,0,0.6
				c-0.1,0.3-0.2,0.4-0.5,0.5c-0.2,0-0.5,0-1-0.2c-0.5-0.2-1.1-0.4-1.7-0.7c-0.6-0.3-1.2-0.6-1.8-1c-0.6-0.4-1.1-0.7-1.7-1.1
				c-0.5-0.4-1-0.7-1.4-1.1c-0.2-0.2-0.4-0.2-0.5-0.2c-0.1,0-0.2,0.1-0.4,0.2c-0.6,0.5-1.2,0.9-1.7,1.3c-0.5,0.4-1,0.7-1.5,1
				c-0.5,0.3-1,0.6-1.5,0.8c-0.5,0.2-1,0.5-1.6,0.7c-0.5,0.2-0.9,0.3-1.1,0.3s-0.3-0.2-0.4-0.4c-0.1-0.2,0-0.4,0.1-0.6
				c0.1-0.2,0.4-0.3,0.9-0.5c0.6-0.2,1.2-0.5,1.8-0.8c0.6-0.3,1.2-0.6,1.7-1c0.6-0.3,1.1-0.7,1.6-1.1c0.5-0.4,0.9-0.7,1.3-1.1
				c0.2-0.2,0.4-0.3,0.6-0.4c-0.1-0.1-0.1-0.3,0-0.5c0.1-0.2,0.2-0.4,0.4-0.6c0.2-0.2,0.3-0.4,0.4-0.5c0.1-0.2,0.3-0.3,0.4-0.5
				c0.1-0.1,0.2-0.3,0.3-0.5c0.1-0.2,0.2-0.4,0.4-0.6c0.2-0.3,0.3-0.5,0.5-0.6c0.2-0.1,0.4-0.1,0.6,0c0.2,0.1,0.3,0.3,0.4,0.4
				c0,0.2-0.1,0.4-0.2,0.7c0,0,0,0.1-0.1,0.1c0,0,0,0.1-0.1,0.1h5.3c0.3,0,0.4,0,0.6,0.1C115.9,193.4,116,193.6,116,193.9z
				 M113.5,207c0,0.5-0.1,0.9-0.3,1.2c-0.2,0.3-0.6,0.4-1.1,0.4h-9.5c-0.6,0-0.9-0.1-1.2-0.4c-0.2-0.3-0.3-0.6-0.3-1.2v-3
				c0-0.5,0.1-0.9,0.3-1.1c0.2-0.2,0.6-0.4,1.2-0.4h9.5c0.6,0,0.9,0.1,1.1,0.4c0.2,0.2,0.3,0.6,0.3,1.2V207z M112.1,204
				c0-0.1,0-0.1-0.1-0.2c0-0.1-0.1-0.1-0.1-0.1h-9.2c-0.1,0-0.2,0.1-0.2,0.3v3c0,0.2,0.1,0.3,0.2,0.3h9.2c0.1,0,0.2-0.1,0.2-0.3V204
				z M112.1,200.6c0,0.4-0.3,0.6-0.8,0.6h-7.8c-0.5,0-0.8-0.2-0.8-0.6c0-0.4,0.3-0.7,0.8-0.7h7.8C111.8,200,112.1,200.2,112.1,200.6
				z"/>
		</g>
	</g>
	<rect id="_x3C_切片_x3E__3_" y="110.1" class="st12" width="160" height="109.7"/>
</g>
<g id="XMLID_4689_">
	<g id="White_Base_5_">
		<g id="XMLID_2175_">
			<polygon id="XMLID_2177_" class="st0" points="88.3,10.9 88,13 93.6,13.8 93.2,16.5 87.7,15.8 87.3,18.6 95.6,19.7 95.3,22.5 
				86.9,21.4 86.5,24.1 92.1,24.9 91.7,27.7 86.2,26.9 85.8,29.7 91.4,30.4 91,33.2 85.4,32.5 85,35.2 93.4,36.4 93,39.1 84.7,38 
				84.3,40.8 89.9,41.5 89.5,44.3 83.9,43.6 83.5,46.4 89.1,47.1 88.7,49.9 83.2,49.1 82.8,51.9 91.1,53 90.8,55.8 82.4,54.7 
				82,57.5 87.6,58.2 87.2,61 81.7,60.2 81.3,63 86.9,63.8 86.5,66.5 80.9,65.8 80.6,67.9 97.3,70.1 105,13.2 			"/>
		</g>
	</g>
	<g id="Red_3_">
		<g id="XMLID_2344_">
			
				<rect id="XMLID_2345_" x="70.3" y="39.3" transform="matrix(0.1338 -0.991 0.991 0.1338 44.8055 134.0135)" class="st13" width="57.5" height="4.2"/>
		</g>
	</g>
	<g id="Texture_1_9_" class="st2">
		<g id="XMLID_3705_">
			<path id="XMLID_3748_" class="st3" d="M100.8,12.6l-0.2,1.4l1.4,0.2l0.2-1.4L100.8,12.6z M102,14.2l-0.2,1.4l1.4,0.2l0.2-1.4
				L102,14.2z M104.4,17.4l0.2-1.4l-1.4-0.2l-0.2,1.4L104.4,17.4z M100.5,15.4l-0.2,1.4l1.4,0.2l0.2-1.4L100.5,15.4z M101.5,18.4
				l1.4,0.2l0.2-1.4l-1.4-0.2L101.5,18.4z M104.1,20.1l0.2-1.4l-1.4-0.2l-0.2,1.4L104.1,20.1z M100.1,18.2l-0.2,1.4l1.4,0.2l0.2-1.4
				L100.1,18.2z M101.1,21.1l1.4,0.2l0.2-1.4l-1.4-0.2L101.1,21.1z M105,13.2l-1.4-0.2l-0.2,1.4l1.4,0.2L105,13.2z M99.7,21
				l-0.2,1.4l1.4,0.2l0.2-1.4L99.7,21z M100.7,23.9l1.4,0.2l0.2-1.4l-1.4-0.2L100.7,23.9z M103.3,25.7l0.2-1.4l-1.4-0.2l-0.2,1.4
				L103.3,25.7z M99.3,23.7l-0.2,1.4l1.4,0.2l0.2-1.4L99.3,23.7z M100.3,26.7l1.4,0.2l0.2-1.4l-1.4-0.2L100.3,26.7z M102.9,28.5
				l0.2-1.4l-1.4-0.2l-0.2,1.4L102.9,28.5z M99,26.5l-0.2,1.4l1.4,0.2l0.2-1.4L99,26.5z M100,29.5l1.4,0.2l0.2-1.4l-1.4-0.2
				L100,29.5z M103.7,22.9l0.2-1.4l-1.4-0.2l-0.2,1.4L103.7,22.9z M98.6,29.3l-0.2,1.4l1.4,0.2l0.2-1.4L98.6,29.3z M99.6,32.3
				l1.4,0.2l0.2-1.4l-1.4-0.2L99.6,32.3z M102.2,34l0.2-1.4l-1.4-0.2l-0.2,1.4L102.2,34z M98.2,32.1L98,33.5l1.4,0.2l0.2-1.4
				L98.2,32.1z M99.2,35l1.4,0.2l0.2-1.4l-1.4-0.2L99.2,35z M101.8,36.8l0.2-1.4l-1.4-0.2l-0.2,1.4L101.8,36.8z M97.8,34.8l-0.2,1.4
				l1.4,0.2l0.2-1.4L97.8,34.8z M98.8,37.8l1.4,0.2l0.2-1.4L99,36.4L98.8,37.8z M102.6,31.2l0.2-1.4l-1.4-0.2l-0.2,1.4L102.6,31.2z
				 M97.5,37.6L97.3,39l1.4,0.2l0.2-1.4L97.5,37.6z M98.5,40.6l1.4,0.2l0.2-1.4l-1.4-0.2L98.5,40.6z M101.1,42.4l0.2-1.4l-1.4-0.2
				l-0.2,1.4L101.1,42.4z M97.1,40.4l-0.2,1.4l1.4,0.2l0.2-1.4L97.1,40.4z M98.1,43.4l1.4,0.2l0.2-1.4L98.3,42L98.1,43.4z
				 M100.7,45.1l0.2-1.4l-1.4-0.2l-0.2,1.4L100.7,45.1z M96.7,43.2l-0.2,1.4l1.4,0.2l0.2-1.4L96.7,43.2z M97.7,46.1l1.4,0.2l0.2-1.4
				l-1.4-0.2L97.7,46.1z M101.4,39.6l0.2-1.4l-1.4-0.2l-0.2,1.4L101.4,39.6z M96.3,46l-0.2,1.4l1.4,0.2l0.2-1.4L96.3,46z M97.3,48.9
				l1.4,0.2l0.2-1.4l-1.4-0.2L97.3,48.9z M99.9,50.7l0.2-1.4l-1.4-0.2l-0.2,1.4L99.9,50.7z M96,48.7l-0.2,1.4l1.4,0.2l0.2-1.4
				L96,48.7z M97,51.7l1.4,0.2l0.2-1.4l-1.4-0.2L97,51.7z M99.6,53.5l0.2-1.4l-1.4-0.2l-0.2,1.4L99.6,53.5z M95.6,51.5l-0.2,1.4
				l1.4,0.2l0.2-1.4L95.6,51.5z M96.6,54.5l1.4,0.2l0.2-1.4l-1.4-0.2L96.6,54.5z M100.3,47.9l0.2-1.4l-1.4-0.2l-0.2,1.4L100.3,47.9z
				 M95.2,54.3L95,55.7l1.4,0.2l0.2-1.4L95.2,54.3z M96.2,57.3l1.4,0.2l0.2-1.4l-1.4-0.2L96.2,57.3z M98.8,59l0.2-1.4l-1.4-0.2
				l-0.2,1.4L98.8,59z M94.8,57.1l-0.2,1.4l1.4,0.2l0.2-1.4L94.8,57.1z M95.8,60l1.4,0.2l0.2-1.4L96,58.6L95.8,60z M98.4,61.8
				l0.2-1.4l-1.4-0.2L97,61.6L98.4,61.8z M94.5,59.8l-0.2,1.4l1.4,0.2l0.2-1.4L94.5,59.8z M95.5,62.8l1.4,0.2l0.2-1.4l-1.4-0.2
				L95.5,62.8z M99.2,56.2l0.2-1.4L98,54.7l-0.2,1.4L99.2,56.2z M94.1,62.6L93.9,64l1.4,0.2l0.2-1.4L94.1,62.6z M95.1,65.6l1.4,0.2
				l0.2-1.4l-1.4-0.2L95.1,65.6z M97.7,67.4l0.2-1.4l-1.4-0.2l-0.2,1.4L97.7,67.4z M93.7,65.4l-0.2,1.4l1.4,0.2l0.2-1.4L93.7,65.4z
				 M94.7,68.4l1.4,0.2l0.2-1.4L94.9,67L94.7,68.4z M97.3,70.1l0.2-1.4l-1.4-0.2l-0.2,1.4L97.3,70.1z M93.1,69.6l1.4,0.2l0.2-1.4
				l-1.4-0.2L93.1,69.6z M98.1,64.6l0.2-1.4L96.9,63l-0.2,1.4L98.1,64.6z"/>
		</g>
	</g>
	<g id="Outline_10_" class="st4">
		<g id="XMLID_2597_">
			<path id="XMLID_2598_" class="st3" d="M105.4,10.4L88.7,8.2c-1.5-0.2-2.9,0.9-3.2,2.4l-0.4,3.2l-0.2,1.6l-0.6,4.3L84.1,21
				l-0.7,5.5l0,0.1l-0.6,4.8l-0.1,0.8L82,37.2l-0.1,0.4l-0.7,5.2l0,0.3l-2.9,21.3l-0.1,0.9l-0.3,2.1c-0.2,1.5,0.9,2.9,2.4,3.2
				l16.7,2.3c1.5,0.2,2.9-0.9,3.2-2.4l7.7-56.9C108,12,106.9,10.6,105.4,10.4z M97.3,70.1l-16.7-2.3l0.3-2.1l5.6,0.8l0.4-2.8
				L81.3,63l0.4-2.8l5.6,0.8l0.4-2.8L82,57.5l0.4-2.8l8.3,1.1l0.4-2.8l-8.3-1.1l0.4-2.8l5.6,0.8l0.4-2.8l-5.6-0.8l0.4-2.8l5.6,0.8
				l0.4-2.8l-5.6-0.8l0.4-2.8l8.3,1.1l0.4-2.8L85,35.2l0.4-2.8l5.6,0.8l0.4-2.8l-5.6-0.8l0.4-2.8l5.6,0.8l0.4-2.8l-5.6-0.8l0.4-2.8
				l8.3,1.1l0.4-2.8l-8.3-1.1l0.4-2.8l5.6,0.8l0.4-2.8L88,13l0.3-2.1l16.7,2.3L97.3,70.1z"/>
		</g>
	</g>
	<g id="Texture_1_7_" class="st2">
		<g id="XMLID_4319_">
			<path id="XMLID_4320_" class="st3" d="M65.2,76l-1.5,0.4l0.4,1.5l1.5-0.4L65.2,76z M65.7,30.7l0.4,1.5l1.5-0.4l-0.4-1.5
				L65.7,30.7z M69,42.7l0.4,1.5l1.5-0.4l-0.4-1.5L69,42.7z M69.8,45.7l0.4,1.5l1.5-0.4l-0.4-1.5L69.8,45.7z M68.2,39.7l0.4,1.5
				l1.5-0.4l-0.4-1.5L68.2,39.7z M66.6,33.7l0.4,1.5l1.5-0.4l-0.4-1.5L66.6,33.7z M67.4,36.7l0.4,1.5l1.5-0.4l-0.4-1.5L67.4,36.7z
				 M71.6,75.9l0.4,1.5l1.5-0.4l-0.4-1.5L71.6,75.9z M73.5,76.9l0.4,1.5l1.5-0.4L75,76.5L73.5,76.9z M70.6,48.7l0.4,1.5l1.5-0.4
				l-0.4-1.5L70.6,48.7z M68.6,76.7l0.4,1.5l1.5-0.4l-0.4-1.5L68.6,76.7z M71.2,74.4l-1.5,0.4l0.4,1.5l1.5-0.4L71.2,74.4z
				 M74.2,73.5l-1.5,0.4l0.4,1.5l1.5-0.4L74.2,73.5z M65.6,77.5L66,79l1.5-0.4l-0.4-1.5L65.6,77.5z M68.2,75.2l-1.5,0.4l0.4,1.5
				l1.5-0.4L68.2,75.2z M71.5,51.7l0.4,1.5l1.5-0.4L73,51.3L71.5,51.7z M73.8,54.3l1.5-0.4l-0.4-1.5l-1.5,0.4L73.8,54.3z M43.9,86.6
				l1.5-0.4L45,84.7l-1.5,0.4L43.9,86.6z M44.2,81.7l-1.5,0.4l0.4,1.5l1.5-0.4L44.2,81.7z M44.6,83.2l0.4,1.5l1.5-0.4l-0.4-1.5
				L44.6,83.2z M62.6,78.3l0.4,1.5l1.5-0.4l-0.4-1.5L62.6,78.3z M70.9,79.3l1.5-0.4L72,77.4l-1.5,0.4L70.9,79.3z M47.7,82.9l0.3,0.9
				l0.5-0.1L47.7,82.9z M46,81.2l-0.3,0.1l0.4,1.5l1.2-0.3L46,81.2z M41.6,84l0.4,1.5l1.5-0.4l-0.4-1.5L41.6,84z M40.9,87.4l1.5-0.4
				L42,85.5l-1.5,0.4L40.9,87.4z M64.9,27.7l0.4,1.5l1.5-0.4l-0.4-1.5L64.9,27.7z M38.6,84.8l0.4,1.5l1.5-0.4l-0.4-1.5L38.6,84.8z
				 M46.9,85.8l1.5-0.4L48,83.9l-1.5,0.4L46.9,85.8z M36.7,83.7l0.4,1.5l1.5-0.4l-0.4-1.5L36.7,83.7z M37.9,88.2l1.5-0.4L39,86.3
				l-1.5,0.4L37.9,88.2z M41.2,82.5l-1.5,0.4l0.4,1.5l1.5-0.4L41.2,82.5z M53.6,80.7l0.4,1.5l1.5-0.4l-0.4-1.5L53.6,80.7z
				 M56.6,79.9l0.4,1.5l1.5-0.4l-0.4-1.5L56.6,79.9z M56.2,78.4l-1.5,0.4l0.4,1.5l1.5-0.4L56.2,78.4z M59.2,77.6L57.7,78l0.4,1.5
				l1.5-0.4L59.2,77.6z M59.6,79.1l0.4,1.5l1.5-0.4l-0.4-1.5L59.6,79.1z M62.2,76.8l-1.5,0.4l0.4,1.5l1.5-0.4L62.2,76.8z M58.9,82.5
				l1.5-0.4L60,80.6L58.5,81L58.9,82.5z M51.7,79.6l0.1,0.5l0.9,0.9l0.9-0.2l-0.4-1.5L51.7,79.6z M67.9,80.1l1.5-0.4L69,78.2
				l-1.5,0.4L67.9,80.1z M64.9,80.9l1.5-0.4L66,79l-1.5,0.4L64.9,80.9z M61.9,81.7l1.5-0.4L63,79.8l-1.5,0.4L61.9,81.7z M54,82.3
				L54,82.3L54,82.3L54,82.3z M55.9,83.3l1.5-0.4L57,81.4l-1.5,0.4L55.9,83.3z M68.2,22l-0.4-1.5l-1.5,0.4l0.4,1.5L68.2,22z
				 M68.3,28.4l-1.5,0.4l0.4,1.5l1.5-0.4L68.3,28.4z M66.7,22.4l-1.5,0.4l0.4,1.5l1.5-0.4L66.7,22.4z M67.5,25.4L66,25.8l0.4,1.5
				l1.5-0.4L67.5,25.4z M69.2,31.4l-1.5,0.4l0.4,1.5l1.5-0.4L69.2,31.4z M70,34.4l-1.5,0.4l0.4,1.5l1.5-0.4L70,34.4z M70.8,37.4
				l-1.5,0.4l0.4,1.5l1.5-0.4L70.8,37.4z M70.2,29.5l1.5-0.4l-0.4-1.5L69.8,28L70.2,29.5z M68.6,23.5l1.5-0.4l-0.4-1.5L68.2,22
				L68.6,23.5z M71.1,32.5l1.5-0.4l-0.4-1.5L70.7,31L71.1,32.5z M72.7,38.5l1.5-0.4l-0.4-1.5L72.3,37L72.7,38.5z M71.9,35.5l1.5-0.4
				L73,33.6L71.5,34L71.9,35.5z M71.6,40.4l-1.5,0.4l0.4,1.5l1.5-0.4L71.6,40.4z M69.4,26.5l1.5-0.4l-0.4-1.5L69,25L69.4,26.5z
				 M83.2,71.1l-1.5,0.4l0.4,1.5l1.5-0.4L83.2,71.1z M80.6,73.4l0.4,1.5l1.5-0.4L82.1,73L80.6,73.4z M72.4,43.4l-1.5,0.4l0.4,1.5
				l1.5-0.4L72.4,43.4z M77.6,74.2l0.4,1.5l1.5-0.4l-0.4-1.5L77.6,74.2z M73.5,41.5l1.5-0.4l-0.4-1.5L73.1,40L73.5,41.5z M85.5,73.7
				l-0.4-1.5l-1.5,0.4l0.4,1.5L85.5,73.7z M82.5,74.5l0.4,1.5l1.5-0.4L84,74.1L82.5,74.5z M80.2,71.9l-1.5,0.4l0.4,1.5l1.5-0.4
				L80.2,71.9z M74,49.4l-1.5,0.4l0.4,1.5l1.5-0.4L74,49.4z M73.2,46.4l-1.5,0.4l0.4,1.5l1.5-0.4L73.2,46.4z M77.9,51.6L76.4,52
				l0.4,1.5l1.5-0.4L77.9,51.6z M79.9,76.8l1.5-0.4L81,74.9l-1.5,0.4L79.9,76.8z M74.4,50.9l0.4,1.5l1.5-0.4l-0.4-1.5L74.4,50.9z
				 M75.1,47.5l-1.5,0.4l0.4,1.5l1.5-0.4L75.1,47.5z M75.3,36.2l-0.4-1.5l-1.5,0.4l0.4,1.5L75.3,36.2z M76.1,39.2l-0.4-1.5l-1.5,0.4
				l0.4,1.5L76.1,39.2z M74.5,33.2l-0.4-1.5l-1.5,0.4l0.4,1.5L74.5,33.2z M76.9,42.2l-0.4-1.5L75,41.1l0.4,1.5L76.9,42.2z
				 M73.7,30.2l-0.4-1.5l-1.5,0.4l0.4,1.5L73.7,30.2z M77.7,45.2l-0.4-1.5l-1.5,0.4l0.4,1.5L77.7,45.2z M74.3,44.5l1.5-0.4l-0.4-1.5
				L73.9,43L74.3,44.5z M65.9,19.4l-1.5,0.4l0.4,1.5l1.5-0.4L65.9,19.4z M69,19c-0.5-0.1-1.1-0.2-1.6,0l0.4,1.5l1.5-0.4L69,19z
				 M78.5,48.2l-0.4-1.5l-1.5,0.4l0.4,1.5L78.5,48.2z M71.2,21.2c-0.1-0.5-0.4-1-0.8-1.4l-1.1,0.3l0.4,1.5L71.2,21.2z M72.8,27.2
				l-0.4-1.5l-1.5,0.4l0.4,1.5L72.8,27.2z M72,24.2l-0.4-1.5l-1.5,0.4l0.4,1.5L72,24.2z M63.3,21.7l0.4,1.5l1.5-0.4l-0.4-1.5
				L63.3,21.7z M74.3,44.5l-1.5,0.4l0.4,1.5l1.5-0.4L74.3,44.5z M73.5,41.5L72,41.9l0.4,1.5l1.5-0.4L73.5,41.5z M64.1,24.7l0.4,1.5
				l1.5-0.4l-0.4-1.5L64.1,24.7z M75.9,50.5l1.5-0.4L77,48.6L75.5,49L75.9,50.5z M75.1,47.5l1.5-0.4l-0.4-1.5L74.7,46L75.1,47.5z
				 M72.7,38.5l-1.5,0.4l0.4,1.5l1.5-0.4L72.7,38.5z M68.6,23.5l-1.5,0.4l0.4,1.5L69,25L68.6,23.5z M79.4,51.2l-0.4-1.5l-1.5,0.4
				l0.4,1.5L79.4,51.2z M69.4,26.5l-1.5,0.4l0.4,1.5l1.5-0.4L69.4,26.5z M71.1,32.5l-1.5,0.4l0.4,1.5l1.5-0.4L71.1,32.5z M71.9,35.5
				l-1.5,0.4l0.4,1.5l1.5-0.4L71.9,35.5z M70.2,29.5l-1.5,0.4l0.4,1.5l1.5-0.4L70.2,29.5z"/>
		</g>
	</g>
	<g id="Red_2_">
		<g id="XMLID_2350_">
			
				<rect id="XMLID_2352_" x="33.4" y="62" transform="matrix(0.965 -0.2621 0.2621 0.965 -15.8425 17.6438)" class="st13" width="49.7" height="12.4"/>
		</g>
	</g>
	<g id="Inner_Lines_1_" class="st5">
		<g id="XMLID_2670_">
			<path id="XMLID_2673_" class="st3" d="M47.1,39l-13.5,3.7l0.4,1.5l13.5-3.7L47.1,39z M56.9,39.6l-22.5,6.1l0.4,1.5l22.5-6.1
				L56.9,39.6z M35.2,48.7l0.4,1.5l19.5-5.3l-0.4-1.5L35.2,48.7z"/>
		</g>
	</g>
	<g id="Outline_7_">
		<g id="XMLID_2889_">
			<path id="XMLID_2903_" class="st3" d="M91.7,84.9L74.2,20.4c-0.9-3.3-4.3-5.3-7.6-4.4l-4.5,1.2l0,0l-3,0.8l0,0l-39,10.6
				c-0.8,0.2-1.3,1.1-1.1,1.9L39,104c0.2,0.8,1.1,1.3,1.9,1.1l46.5-12.6C90.7,91.6,92.6,88.2,91.7,84.9z M67.4,19
				c1.7-0.4,3.4,0.5,3.8,2.2l12.6,46.5l-7.5,2l-3.3-12l7.5-2l-0.8-3l-7.5,2l-9.4-34.5L67.4,19z M22.4,31.2l37.5-10.2l9.4,34.5
				L31.8,65.7l0.8,3l37.5-10.2l3.3,12L35.9,80.7l0.4,1.4L22.4,31.2z M36.7,83.7l37.5-10.2l4.9,18l-37.5,10.2L36.7,83.7z M86.5,89.5
				L82,90.7l-4.9-18l7.5-2l4.1,15C89.2,87.3,88.2,89,86.5,89.5z"/>
		</g>
	</g>
	<g id="White_Base_4_">
		<g id="XMLID_2607_">
			<path id="XMLID_2611_" class="st0" d="M96,44.7c-10.6-5.6-23.8-1.6-29.4,9L54.7,76.1l11.1-3.4c1.9,4.3,5.2,8.1,9.7,10.5
				c10.6,5.6,23.8,1.6,29.4-9C110.6,63.5,106.6,50.4,96,44.7z M121,41.1c-7.6-4-16.5-3.1-23.1,1.6c11.4,6.5,15.7,21,9.5,32.7
				c-1,2-2.3,3.7-3.8,5.3c3.7,1.3,7.5,1.6,11.2,0.9l3.4,11.1L130,70.4C135.7,59.8,131.6,46.7,121,41.1z"/>
		</g>
	</g>
	<g id="Green_1_">
		<g id="XMLID_2681_">
			<path id="XMLID_2682_" class="st13" d="M83.2,57.2l-0.6,1.2l15.6,8.3l0.6-1.2L83.2,57.2z M80.7,62l15.6,8.3l0.6-1.2l-15.6-8.3
				L80.7,62z M78.7,65.6l10.8,5.7l0.6-1.2l-10.8-5.7L78.7,65.6z"/>
		</g>
	</g>
	<g id="Blue_2_">
		<g id="XMLID_2686_">
			<path id="XMLID_2692_" class="st13" d="M112.9,62.2l8.4,4.4l0.6-1.2l-9.2-4.9C112.8,61.1,112.9,61.6,112.9,62.2z M112.8,66.7
				l4.2,2.2l0.6-1.2l-4.7-2.5C112.9,65.8,112.9,66.3,112.8,66.7z M111.6,55.3c0.2,0.6,0.4,1.2,0.5,1.8l11.1,5.9l0.6-1.2L111.6,55.3z
				"/>
		</g>
	</g>
	<g id="Texture_1_4_" class="st2">
		<g id="XMLID_2997_">
			<path id="XMLID_2998_" class="st3" d="M80.8,55.9l-1.2-0.6L79,56.5l1.2,0.6L80.8,55.9z M77.8,55.8L77.1,57l1.2,0.6l0.6-1.2
				L77.8,55.8z M78.9,59.5l0.6-1.2l-1.2-0.6l-0.6,1.2L78.9,59.5z M74.6,61.8l1.2,0.6l0.6-1.2l-1.2-0.6L74.6,61.8z M75.8,59.4
				l1.2,0.6l0.6-1.2l-1.2-0.6L75.8,59.4z M77.6,61.9l0.6-1.2L77,60.1l-0.6,1.2L77.6,61.9z M77.2,54l-0.6,1.2l1.2,0.6l0.6-1.2
				L77.2,54z M75.9,56.4l-0.6,1.2l1.2,0.6l0.6-1.2L75.9,56.4z M74.6,58.8L74,60l1.2,0.6l0.6-1.2L74.6,58.8z M76.3,64.3l0.6-1.2
				l-1.2-0.6l-0.6,1.2L76.3,64.3z M72.7,62.4l1.2,0.6l0.6-1.2l-1.2-0.6L72.7,62.4z"/>
		</g>
	</g>
	<g id="Outline_4_">
		<g id="XMLID_2709_">
			<path id="XMLID_2710_" class="st3" d="M122.3,38.7c-9-4.8-19.6-3.4-27,2.7c-11.6-4.9-25.1-0.2-31.1,11.1L50.8,77.7
				c-0.4,0.7-0.1,1.5,0.6,1.8c0.3,0.2,0.7,0.2,1,0.1l12.1-3.7c2.2,4,5.5,7.4,9.9,9.6c9,4.8,19.6,3.4,27-2.7
				c3.7,1.6,7.7,2.1,11.5,1.8l3.7,12.1c0.1,0.3,0.3,0.6,0.7,0.8c0.7,0.4,1.5,0.1,1.8-0.6l13.4-25.2C138.8,59.8,134.2,45,122.3,38.7z
				 M75.6,83.2c-4.5-2.4-7.8-6.2-9.7-10.5l-11.1,3.4l11.8-22.3c5.6-10.6,18.8-14.7,29.4-9c10.6,5.6,14.7,18.8,9,29.4
				C99.4,84.8,86.2,88.8,75.6,83.2z M130,70.5l-5.3,9.9l-6.6,12.4l-3.4-11.1c-3.7,0.7-7.5,0.4-11.2-0.9c1.5-1.6,2.8-3.4,3.9-5.4
				c6.2-11.7,2-26.1-9.4-32.7c6.5-4.8,15.4-5.7,23-1.7C131.6,46.7,135.7,59.9,130,70.5z"/>
		</g>
	</g>
	<g id="White_Base_3_">
		<g id="XMLID_2349_">
			<path id="XMLID_2351_" class="st0" d="M56.3,39.7c-5.7,0-10.4,4.6-10.4,10.4v15c0,5.7,4.6,10.4,10.4,10.4s10.4-4.6,10.4-10.4v-15
				C66.7,44.4,62,39.7,56.3,39.7z"/>
		</g>
	</g>
	<g id="Blue_1_">
		<g id="XMLID_2346_">
			<rect id="XMLID_2347_" x="45.9" y="59.9" class="st13" width="20.8" height="4.6"/>
		</g>
	</g>
	<g id="Texture_1_3_" class="st2">
		<g id="XMLID_3368_">
			<path id="XMLID_3369_" class="st3" d="M48.2,65.7v1.2h1.2v-1.2H48.2z M47.1,68h1.2v-1.2h-1.2V68z M45.9,65.7v1.2h1.2v-1.2H45.9z
				 M48.2,64.5h-1.2v1.2h1.2V64.5z M66.7,68v-1.2h-1.2V68H66.7z M62.1,65.7v1.2h1.2v-1.2H62.1z M64.4,65.7v1.2h1.2v-1.2H64.4z
				 M63.2,68h1.2v-1.2h-1.2V68z M66.7,64.5h-1.2v1.2h1.2V64.5z M64.4,64.5h-1.2v1.2h1.2V64.5z M59.7,65.7v1.2h1.2v-1.2H59.7z
				 M58.6,68h1.2v-1.2h-1.2V68z M57.4,65.7v1.2h1.2v-1.2H57.4z M56.3,68h1.2v-1.2h-1.2V68z M60.9,68h1.2v-1.2h-1.2V68z M55.1,65.7
				v1.2h1.2v-1.2H55.1z M54,68h1.2v-1.2H54V68z M50.5,65.7v1.2h1.2v-1.2H50.5z M52.8,65.7v1.2H54v-1.2H52.8z M51.7,68h1.2v-1.2h-1.2
				V68z M59.7,64.5h-1.2v1.2h1.2V64.5z M57.4,64.5h-1.2v1.2h1.2V64.5z M62.1,64.5h-1.2v1.2h1.2V64.5z M55.1,64.5H54v1.2h1.2V64.5z
				 M52.8,64.5h-1.2v1.2h1.2V64.5z M49.4,68h1.2v-1.2h-1.2V68z M50.5,64.5h-1.2v1.2h1.2V64.5z"/>
		</g>
	</g>
	<g id="Outline_3_">
		<g id="XMLID_2876_">
			<path id="XMLID_2877_" class="st3" d="M56.3,77.8c7,0,12.7-5.7,12.7-12.7v-15c0-7-5.7-12.7-12.7-12.7s-12.7,5.7-12.7,12.7v15
				C43.6,72.1,49.3,77.8,56.3,77.8z M45.9,50.1c0-5.7,4.6-10.4,10.4-10.4s10.4,4.6,10.4,10.4v15c0,5.7-4.6,10.4-10.4,10.4
				s-10.4-4.6-10.4-10.4V50.1z M73.6,65.1v-4.6c0-0.6-0.5-1.2-1.2-1.2c-0.6,0-1.2,0.5-1.2,1.2v4.6c0,8.3-6.7,15-15,15s-15-6.7-15-15
				v-4.6c0-0.6-0.5-1.2-1.2-1.2c-0.6,0-1.2,0.5-1.2,1.2v4.6c0,9.2,7.1,16.7,16.2,17.2v11.6H42.4c-0.6,0-1.2,0.5-1.2,1.2
				c0,0.6,0.5,1.2,1.2,1.2h27.7c0.6,0,1.2-0.5,1.2-1.2c0-0.6-0.5-1.2-1.2-1.2H57.4V82.4C66.5,81.8,73.6,74.3,73.6,65.1z"/>
		</g>
	</g>
	<path id="XMLID_4826_" class="st13" d="M104.3,58.5c-0.8-0.4-1.5-0.9-1.9-1.7c-0.4-0.8-0.3-1.8,0.2-3c0.9-2.2,2.6-4.4,5.1-6.6
		c2.5-2.2,5.6-4,9.3-5.4c1.7-0.6,3.2-1.2,4.4-1.7c1.2-0.5,2.2-1.1,3.1-1.7c0.9-0.6,1.6-1.4,2.2-2.2c0.6-0.9,1.2-1.9,1.8-3.2
		c1.3-3,1.3-5.5,0.2-7.8s-3.1-4-6-5.2c-1.4-0.6-2.8-0.9-4.1-1.1c-1.4-0.1-2.6,0-3.8,0.3c-1.2,0.3-2.3,0.9-3.2,1.7
		c-1,0.8-1.7,1.8-2.3,3c-0.5,1-1.2,1.6-2,1.8c-0.9,0.2-1.8,0.1-2.7-0.2c-1.9-0.9-2.5-2.2-1.8-4c0.9-2.1,2.1-3.8,3.8-5.1
		c1.6-1.3,3.5-2.3,5.5-2.9c2-0.6,4.2-0.8,6.5-0.7c2.3,0.2,4.6,0.7,6.9,1.7c4.8,2,8,4.8,9.7,8.7c1.7,3.8,1.5,8.1-0.5,13
		c-1,2.2-2.4,4.1-4.2,5.6c-1.8,1.5-4.4,3-7.8,4.3c-2.3,0.9-4.2,1.7-5.7,2.4c-1.5,0.7-2.8,1.4-3.8,2.2c-1,0.8-1.8,1.6-2.4,2.5
		c-0.6,0.9-1.2,2-1.8,3.4C107.9,58.7,106.4,59.4,104.3,58.5z M96.8,76.6c1.3,0.5,2.5,0.6,3.8,0c1.2-0.5,2.1-1.4,2.6-2.5
		c0.5-1.3,0.6-2.5,0.1-3.8c-0.5-1.2-1.4-2.1-2.7-2.7c-1.2-0.5-2.5-0.5-3.7,0c-1.2,0.5-2.1,1.4-2.7,2.7c-0.5,1.2-0.5,2.4,0,3.6
		C94.7,75.2,95.5,76,96.8,76.6z"/>
	<path id="XMLID_4820_" class="st9" d="M117.1,12.7c0.5,0,0.9,0,1.4,0c2.3,0.2,4.6,0.7,6.9,1.7c4.8,2,8,4.8,9.7,8.7
		c1.7,3.8,1.5,8.1-0.5,13c-1,2.2-2.4,4.1-4.2,5.6c-1.8,1.5-4.4,3-7.8,4.3c-2.3,0.9-4.2,1.7-5.7,2.4c-1.5,0.7-2.8,1.4-3.8,2.2
		c-1,0.8-1.8,1.6-2.4,2.5c-0.6,0.9-1.2,2-1.8,3.4c-0.7,1.6-1.6,2.4-2.9,2.4c-0.5,0-1-0.1-1.6-0.4c-0.8-0.4-1.5-0.9-1.9-1.7
		c-0.4-0.8-0.3-1.8,0.2-3c0.9-2.2,2.6-4.4,5.1-6.6c2.5-2.2,5.6-4,9.3-5.4c1.7-0.6,3.2-1.2,4.4-1.7c1.2-0.5,2.2-1.1,3.1-1.7
		c0.9-0.6,1.6-1.4,2.2-2.2c0.6-0.9,1.2-1.9,1.8-3.2c1.3-3,1.3-5.5,0.2-7.8c-1.1-2.2-3.1-4-6-5.2c-1.4-0.6-2.8-0.9-4.1-1.1
		c-0.4,0-0.7,0-1.1,0c-1,0-1.9,0.1-2.7,0.3c-1.2,0.3-2.3,0.9-3.2,1.7c-1,0.8-1.7,1.8-2.3,3c-0.5,1-1.2,1.6-2,1.8
		c-0.3,0.1-0.6,0.1-1,0.1c-0.6,0-1.1-0.1-1.7-0.4c-1.9-0.9-2.5-2.2-1.8-4c0.9-2.1,2.1-3.8,3.8-5.1c1.6-1.3,3.5-2.3,5.5-2.9
		C113.6,12.9,115.3,12.7,117.1,12.7 M98.7,67.2c0.6,0,1.3,0.1,1.9,0.4c1.3,0.5,2.2,1.4,2.7,2.7c0.5,1.2,0.5,2.5-0.1,3.8
		c-0.5,1.2-1.4,2-2.6,2.5c-0.6,0.3-1.2,0.4-1.8,0.4c-0.6,0-1.3-0.1-1.9-0.4c-1.2-0.5-2.1-1.4-2.6-2.7c-0.5-1.3-0.5-2.5,0-3.6
		c0.5-1.3,1.4-2.2,2.7-2.7C97.5,67.3,98.1,67.2,98.7,67.2 M117.1,9.7L117.1,9.7c-2.1,0-4.1,0.3-6,0.9c-2.4,0.7-4.6,1.9-6.5,3.5
		c-2,1.6-3.5,3.7-4.6,6.2c-1.4,3.3-0.2,6.3,3.3,7.9l0,0l0,0c0.9,0.4,1.9,0.6,2.9,0.6c0.6,0,1.1-0.1,1.7-0.2c1.2-0.3,2.9-1.1,4-3.4
		c0.4-0.8,0.9-1.5,1.5-2c0.6-0.5,1.3-0.9,2.1-1.1c0.6-0.2,1.3-0.2,2-0.2c0.3,0,0.6,0,0.8,0c1,0.1,2.1,0.4,3.2,0.8
		c2.2,1,3.7,2.2,4.5,3.8c0.7,1.4,0.6,3.1-0.3,5.2c-0.5,1.1-0.9,1.9-1.4,2.6c-0.4,0.6-1,1.1-1.6,1.6c-0.7,0.5-1.5,0.9-2.5,1.4
		c-1.1,0.5-2.5,1-4.3,1.7c-4.1,1.5-7.5,3.5-10.3,6c-2.8,2.5-4.7,5.1-5.8,7.7c-0.9,2.1-0.9,4-0.1,5.5c0.7,1.4,1.9,2.4,3.3,3
		c1,0.4,1.9,0.6,2.8,0.6c1.4,0,4.1-0.5,5.7-4.2c0.5-1.2,1-2.1,1.5-2.9c0.4-0.7,1-1.3,1.8-1.8c0.8-0.6,1.9-1.2,3.2-1.8
		c1.4-0.7,3.3-1.4,5.5-2.3c3.8-1.5,6.6-3,8.7-4.8c2.1-1.8,3.8-4,5-6.6l0,0l0,0c2.4-5.6,2.6-10.8,0.5-15.4c-2-4.5-5.8-8-11.3-10.2
		c-2.5-1.1-5.2-1.7-7.8-1.9C118.2,9.7,117.6,9.7,117.1,9.7L117.1,9.7z M98.7,64.2c-1,0-2,0.2-2.9,0.6c-2,0.8-3.4,2.3-4.3,4.3
		C90.6,71,90.6,73,91.4,75c0.8,2,2.2,3.5,4.2,4.4c1,0.4,2.1,0.7,3.1,0.7c1,0,2-0.2,3-0.6c1.9-0.8,3.4-2.2,4.2-4.1
		c0.9-2,0.9-4.1,0.1-6.1c-0.8-2-2.3-3.4-4.3-4.3C100.7,64.4,99.7,64.2,98.7,64.2L98.7,64.2z"/>
	<g id="XMLID_1067_">
		<g id="XMLID_2143_">
			<path id="XMLID_2036_" class="st0" d="M25,108.4c-1.9,0-3.5-1.6-3.5-3.5v-30c0-1.9,1.6-3.5,3.5-3.5h110c1.9,0,3.5,1.6,3.5,3.5v30
				c0,1.9-1.6,3.5-3.5,3.5H25z"/>
			<path id="XMLID_2033_" class="st3" d="M135,72.9c1.1,0,2,0.9,2,2v30c0,1.1-0.9,2-2,2H25c-1.1,0-2-0.9-2-2v-30c0-1.1,0.9-2,2-2
				H135 M135,69.9H25c-2.8,0-5,2.2-5,5v30c0,2.8,2.2,5,5,5h110c2.8,0,5-2.2,5-5v-30C140,72.1,137.7,69.9,135,69.9L135,69.9z"/>
		</g>
		<g id="XMLID_2015_">
			<g id="XMLID_2133_">
				<g id="XMLID_2134_">
					<rect id="XMLID_2142_" x="23" y="72" class="st10" width="2" height="2"/>
					<rect id="XMLID_2141_" x="27" y="72" class="st10" width="2" height="2"/>
					<rect id="XMLID_2140_" x="21" y="74" class="st10" width="2" height="2"/>
					<rect id="XMLID_2139_" x="25" y="74" class="st10" width="2" height="2"/>
				</g>
			</g>
			<g id="XMLID_2126_">
				<g id="XMLID_2127_">
					<rect id="XMLID_2132_" x="23" y="76" class="st10" width="2" height="2"/>
					<rect id="XMLID_2131_" x="27" y="76" class="st10" width="2" height="2"/>
					<rect id="XMLID_2130_" x="21" y="78" class="st10" width="2" height="2"/>
					<rect id="XMLID_2128_" x="25" y="78" class="st10" width="2" height="2"/>
				</g>
			</g>
			<g id="XMLID_2115_">
				<g id="XMLID_2116_">
					<rect id="XMLID_2125_" x="23" y="80" class="st10" width="2" height="2"/>
					<rect id="XMLID_2124_" x="27" y="80" class="st10" width="2" height="2"/>
					<rect id="XMLID_2121_" x="21" y="82" class="st10" width="2" height="2"/>
					<rect id="XMLID_2120_" x="25" y="82" class="st10" width="2" height="2"/>
				</g>
			</g>
			<g id="XMLID_1874_">
				<g id="XMLID_1875_">
					<rect id="XMLID_2114_" x="23" y="84" class="st10" width="2" height="2"/>
					<rect id="XMLID_2113_" x="27" y="84" class="st10" width="2" height="2"/>
					<rect id="XMLID_2112_" x="21" y="86" class="st10" width="2" height="2"/>
					<rect id="XMLID_1886_" x="25" y="86" class="st10" width="2" height="2"/>
				</g>
			</g>
			<g id="XMLID_1866_">
				<g id="XMLID_1867_">
					<rect id="XMLID_1873_" x="23" y="88" class="st10" width="2" height="2"/>
					<rect id="XMLID_1870_" x="27" y="88" class="st10" width="2" height="2"/>
					<rect id="XMLID_1869_" x="21" y="90" class="st10" width="2" height="2"/>
					<rect id="XMLID_1868_" x="25" y="90" class="st10" width="2" height="2"/>
				</g>
			</g>
			<g id="XMLID_1852_">
				<g id="XMLID_1853_">
					<rect id="XMLID_1865_" x="23" y="92" class="st10" width="2" height="2"/>
					<rect id="XMLID_1864_" x="27" y="92" class="st10" width="2" height="2"/>
					<rect id="XMLID_1863_" x="21" y="94" class="st10" width="2" height="2"/>
					<rect id="XMLID_1862_" x="25" y="94" class="st10" width="2" height="2"/>
				</g>
			</g>
			<g id="XMLID_1818_">
				<g id="XMLID_1819_">
					<rect id="XMLID_1851_" x="23" y="96" class="st10" width="2" height="2"/>
					<rect id="XMLID_1850_" x="27" y="96" class="st10" width="2" height="2"/>
					<rect id="XMLID_1821_" x="21" y="98" class="st10" width="2" height="2"/>
					<rect id="XMLID_1820_" x="25" y="98" class="st10" width="2" height="2"/>
				</g>
			</g>
			<g id="XMLID_1810_">
				<g id="XMLID_1811_">
					<rect id="XMLID_1815_" x="23" y="100" class="st10" width="2" height="2"/>
					<rect id="XMLID_1814_" x="27" y="100" class="st10" width="2" height="2"/>
					<rect id="XMLID_1813_" x="21" y="102" class="st10" width="2" height="2"/>
					<rect id="XMLID_1812_" x="25" y="102" class="st10" width="2" height="2"/>
				</g>
			</g>
			<g id="XMLID_2038_">
				<g id="XMLID_1751_">
					<rect id="XMLID_1807_" x="23" y="104" class="st10" width="2" height="2"/>
					<rect id="XMLID_1804_" x="27" y="104" class="st10" width="2" height="2"/>
					<rect id="XMLID_1753_" x="21" y="106" class="st10" width="2" height="2"/>
					<rect id="XMLID_1752_" x="25" y="106" class="st10" width="2" height="2"/>
				</g>
			</g>
		</g>
		<g id="XMLID_1068_">
			<g id="XMLID_1708_">
				<g id="XMLID_1709_">
					<rect id="XMLID_1750_" x="133.1" y="72" class="st10" width="2" height="2"/>
					<rect id="XMLID_1749_" x="137.1" y="72" class="st10" width="2" height="2"/>
					<rect id="XMLID_1748_" x="131.1" y="74" class="st10" width="2" height="2"/>
					<rect id="XMLID_1714_" x="135.1" y="74" class="st10" width="2" height="2"/>
				</g>
			</g>
			<g id="XMLID_1993_">
				<g id="XMLID_1994_">
					<rect id="XMLID_1706_" x="133.1" y="76" class="st10" width="2" height="2"/>
					<rect id="XMLID_1694_" x="137.1" y="76" class="st10" width="2" height="2"/>
					<rect id="XMLID_1693_" x="131.1" y="78" class="st10" width="2" height="2"/>
					<rect id="XMLID_1995_" x="135.1" y="78" class="st10" width="2" height="2"/>
				</g>
			</g>
			<g id="XMLID_1976_">
				<g id="XMLID_1983_">
					<rect id="XMLID_1992_" x="133.1" y="80" class="st10" width="2" height="2"/>
					<rect id="XMLID_1991_" x="137.1" y="80" class="st10" width="2" height="2"/>
					<rect id="XMLID_1692_" x="131.1" y="82" class="st10" width="2" height="2"/>
					<rect id="XMLID_1691_" x="135.1" y="82" class="st10" width="2" height="2"/>
				</g>
			</g>
			<g id="XMLID_1913_">
				<g id="XMLID_1914_">
					<rect id="XMLID_1974_" x="133.1" y="84" class="st10" width="2" height="2"/>
					<rect id="XMLID_1972_" x="137.1" y="84" class="st10" width="2" height="2"/>
					<rect id="XMLID_1971_" x="131.1" y="86" class="st10" width="2" height="2"/>
					<rect id="XMLID_1970_" x="135.1" y="86" class="st10" width="2" height="2"/>
				</g>
			</g>
			<g id="XMLID_1688_">
				<g id="XMLID_1902_">
					<rect id="XMLID_1912_" x="133.1" y="88" class="st10" width="2" height="2"/>
					<rect id="XMLID_1911_" x="137.1" y="88" class="st10" width="2" height="2"/>
					<rect id="XMLID_1910_" x="131.1" y="90" class="st10" width="2" height="2"/>
					<rect id="XMLID_1909_" x="135.1" y="90" class="st10" width="2" height="2"/>
				</g>
			</g>
			<g id="XMLID_1613_">
				<g id="XMLID_1614_">
					<rect id="XMLID_1685_" x="133.1" y="92" class="st10" width="2" height="2"/>
					<rect id="XMLID_1684_" x="137.1" y="92" class="st10" width="2" height="2"/>
					<rect id="XMLID_1681_" x="131.1" y="94" class="st10" width="2" height="2"/>
					<rect id="XMLID_1615_" x="135.1" y="94" class="st10" width="2" height="2"/>
				</g>
			</g>
			<g id="XMLID_1585_">
				<g id="XMLID_1586_">
					<rect id="XMLID_1612_" x="133.1" y="96" class="st10" width="2" height="2"/>
					<rect id="XMLID_1602_" x="137.1" y="96" class="st10" width="2" height="2"/>
					<rect id="XMLID_1601_" x="131.1" y="98" class="st10" width="2" height="2"/>
					<rect id="XMLID_1587_" x="135.1" y="98" class="st10" width="2" height="2"/>
				</g>
			</g>
			<g id="XMLID_1435_">
				<g id="XMLID_1437_">
					<rect id="XMLID_1580_" x="133.1" y="100" class="st10" width="2" height="2"/>
					<rect id="XMLID_1502_" x="137.1" y="100" class="st10" width="2" height="2"/>
					<rect id="XMLID_1501_" x="131.1" y="102" class="st10" width="2" height="2"/>
					<rect id="XMLID_1438_" x="135.1" y="102" class="st10" width="2" height="2"/>
				</g>
			</g>
			<g id="XMLID_1069_">
				<g id="XMLID_1365_">
					<rect id="XMLID_1427_" x="133.1" y="104" class="st10" width="2" height="2"/>
					<rect id="XMLID_1411_" x="137.1" y="104" class="st10" width="2" height="2"/>
					<rect id="XMLID_1403_" x="131.1" y="106" class="st10" width="2" height="2"/>
					<rect id="XMLID_1396_" x="135.1" y="106" class="st10" width="2" height="2"/>
				</g>
			</g>
		</g>
	</g>
	<g id="XMLID_3_">
		<path id="XMLID_4_" class="st11" d="M51,86.8c0.5,0,0.7,0.2,0.7,0.6c0,0.4-0.2,0.7-0.7,0.7h-1.8c0.5,0.6,0.8,1,1.1,1.3
			s0.5,0.7,0.7,1c0.2,0.3,0.3,0.6,0.3,0.8c0,0.2-0.1,0.3-0.3,0.5c-0.2,0.1-0.4,0.2-0.5,0.1s-0.3-0.2-0.5-0.5
			c-0.2-0.3-0.4-0.6-0.5-0.8c-0.2-0.2-0.3-0.5-0.5-0.7v8.5c0,0.4-0.2,0.7-0.6,0.7c-0.2,0-0.4-0.1-0.5-0.2s-0.2-0.3-0.2-0.5v-7.1
			c-0.2,0.5-0.4,1-0.7,1.4c-0.2,0.5-0.5,0.9-0.8,1.4c-0.2,0.4-0.4,0.6-0.6,0.7s-0.4,0.1-0.6-0.1s-0.3-0.3-0.3-0.5s0.1-0.4,0.3-0.8
			c0.5-0.7,0.9-1.5,1.4-2.3c0.4-0.9,0.8-1.9,1.2-3h-2c-0.3,0-0.4-0.1-0.5-0.2c-0.1-0.1-0.2-0.3-0.2-0.5c0-0.2,0.1-0.4,0.2-0.5
			c0.1-0.1,0.3-0.2,0.5-0.2h2.1v-2.1c-0.2,0.1-0.5,0.1-0.7,0.2c-0.3,0.1-0.5,0.1-0.8,0.2c-0.4,0.1-0.6,0.1-0.8,0
			c-0.2-0.1-0.3-0.2-0.3-0.5c0-0.2,0-0.4,0.1-0.5s0.4-0.2,0.7-0.3c0.8-0.2,1.6-0.3,2.2-0.5c0.6-0.2,1.2-0.4,1.8-0.7
			c0.3-0.1,0.6-0.2,0.8-0.2s0.3,0.1,0.4,0.3c0.1,0.3,0.1,0.5,0.1,0.6c-0.1,0.2-0.3,0.3-0.7,0.5c-0.3,0.1-0.5,0.2-0.8,0.3
			s-0.5,0.2-0.8,0.3v2.4H51z M62,97.8c0,0.2-0.1,0.4-0.2,0.5c-0.1,0.1-0.3,0.2-0.5,0.2H51c-0.3,0-0.4-0.1-0.5-0.2s-0.2-0.3-0.2-0.5
			s0.1-0.4,0.2-0.5s0.3-0.2,0.5-0.2h1V84.2c0-0.3,0-0.6,0.1-0.8c0-0.2,0.1-0.4,0.2-0.5c0.1-0.1,0.3-0.2,0.4-0.2
			c0.2,0,0.4-0.1,0.7-0.1h5.3c0.3,0,0.5,0,0.7,0.1c0.2,0,0.3,0.1,0.5,0.2s0.2,0.3,0.2,0.5s0.1,0.5,0.1,0.8v12.8h1
			c0.3,0,0.4,0.1,0.5,0.2C61.9,97.4,62,97.6,62,97.8z M53.5,87.6h5.3v-3.3c0-0.1,0-0.2-0.1-0.2c0,0-0.1-0.1-0.3-0.1h-4.8
			c-0.1,0-0.2,0-0.2,0.1c0,0,0,0.1,0,0.3V87.6z M53.5,92.4h5.3v-3.5h-5.3V92.4z M53.5,97.1h5.3v-3.3h-5.3V97.1z"/>
		<path id="XMLID_10_" class="st11" d="M77.3,83.1c0.3,0,0.6,0,0.8,0.1c0.2,0.1,0.4,0.1,0.5,0.3s0.2,0.3,0.3,0.5s0.1,0.5,0.1,0.8
			v1.5c0,0.3,0,0.6-0.1,0.8s-0.1,0.4-0.3,0.5s-0.3,0.2-0.5,0.3c-0.2,0.1-0.5,0.1-0.8,0.1h-4.9c0,0,0.1,0.1,0.1,0.1
			c0,0,0.1,0.1,0.1,0.1c0.2,0.4,0.4,0.8,0.6,1.2h5.8c0.3,0,0.5,0.1,0.5,0.2c0.1,0.1,0.1,0.3,0.1,0.5s-0.1,0.4-0.2,0.5
			c-0.1,0.1-0.3,0.2-0.5,0.2h-8.4c0,0.3,0,0.5,0,0.7c0,0.2,0,0.5-0.1,0.7h6c0.5,0,0.8,0,1.1,0.1s0.5,0.2,0.7,0.3
			c0.2,0.1,0.2,0.3,0.3,0.6c0,0.2,0,0.5,0,0.9c-0.1,0.5-0.2,1.1-0.3,1.7s-0.3,1.1-0.5,1.6c-0.2,0.5-0.4,0.8-0.7,1.1
			s-0.7,0.3-1.4,0.3c-0.4,0-0.9-0.1-1.5-0.2c-0.6-0.1-1.3-0.3-2.1-0.5c-0.3-0.1-0.6-0.2-0.7-0.4s-0.1-0.4,0-0.6
			c0.1-0.3,0.2-0.4,0.4-0.5c0.2,0,0.4,0,0.7,0.1c0.8,0.3,1.5,0.5,2,0.6s0.8,0.2,1.1,0.2c0.2,0,0.4-0.1,0.5-0.2s0.2-0.3,0.3-0.5
			c0.2-0.4,0.3-0.8,0.4-1.3c0.1-0.5,0.2-0.9,0.3-1.3c0-0.3,0-0.4-0.1-0.5c-0.1-0.1-0.3-0.1-0.5-0.1h-6.2c-0.2,1-0.6,1.9-1.1,2.7
			c-0.5,0.8-1.2,1.5-2.1,2.2c-0.3,0.3-0.6,0.4-0.9,0.4c-0.2,0-0.4-0.2-0.5-0.4c-0.2-0.3,0-0.8,0.6-1.2c0.5-0.3,0.9-0.7,1.2-1.2
			c0.4-0.4,0.6-0.9,0.9-1.4c0.2-0.5,0.4-1.1,0.5-1.8c0.1-0.6,0.2-1.4,0.3-2.2H67c-0.3,0-0.4-0.1-0.5-0.2c-0.1-0.1-0.1-0.3-0.1-0.5
			s0-0.4,0.1-0.5s0.3-0.2,0.5-0.2h4.7c0-0.1-0.1-0.1-0.1-0.2c0-0.1-0.1-0.2-0.2-0.2c-0.3-0.4-0.3-0.8-0.1-1h-5.2v3.5
			c0,1.3-0.2,2.5-0.5,3.6c-0.3,1.1-0.8,2.2-1.4,3.2c-0.2,0.3-0.4,0.6-0.6,0.6c-0.2,0.1-0.4,0-0.6-0.1c-0.4-0.3-0.4-0.7,0-1.3
			c0.3-0.5,0.6-0.9,0.8-1.4c0.2-0.5,0.4-0.9,0.5-1.4s0.2-1,0.3-1.6c0.1-0.6,0.1-1.2,0.1-1.8v-6.5c0-0.5,0.1-0.9,0.3-1.1
			c0.2-0.2,0.6-0.3,1.1-0.3h4.8c0,0-0.1-0.1-0.1-0.1c0,0-0.1-0.1-0.1-0.1c-0.3-0.4-0.3-0.8,0.1-1c0.2-0.1,0.4-0.2,0.6-0.2
			c0.2,0,0.3,0.2,0.5,0.5c0.1,0.1,0.2,0.3,0.3,0.5c0.1,0.2,0.2,0.3,0.3,0.5H77.3z M77.5,84.8c0-0.2-0.1-0.3-0.3-0.3H66.4
			c-0.1,0-0.2,0-0.2,0.1c0,0-0.1,0.1-0.1,0.3v1.8h11.1c0.1,0,0.2,0,0.2-0.1c0-0.1,0.1-0.2,0.1-0.3V84.8z"/>
		<path id="XMLID_13_" class="st11" d="M83.2,98.4c0,0.3-0.1,0.4-0.2,0.5C82.9,99,82.7,99,82.5,99c-0.2,0-0.4,0-0.5-0.1
			c-0.1-0.1-0.2-0.3-0.2-0.5V84.7c0-0.3,0.1-0.4,0.2-0.5s0.3-0.1,0.5-0.1c0.2,0,0.4,0,0.5,0.1s0.2,0.2,0.2,0.5V98.4z M86.2,84.9
			c-0.2,0.2-0.4,0.2-0.5,0.2c-0.2,0-0.4-0.2-0.7-0.4c-0.3-0.3-0.6-0.6-1-0.9s-0.7-0.6-1-0.8c-0.2-0.2-0.4-0.3-0.4-0.5s0-0.3,0.2-0.5
			c0.3-0.4,0.7-0.4,1.1-0.1c0.1,0.1,0.3,0.2,0.5,0.3c0.2,0.1,0.4,0.3,0.6,0.5c0.2,0.2,0.4,0.3,0.6,0.5s0.4,0.3,0.5,0.5
			c0.3,0.2,0.4,0.5,0.4,0.6S86.4,84.8,86.2,84.9z M93.7,93.4c0,0.3,0,0.6-0.1,0.8c0,0.2-0.1,0.4-0.3,0.5s-0.3,0.2-0.5,0.3
			c-0.2,0-0.5,0.1-0.9,0.1h-5.2c-0.3,0-0.6,0-0.8-0.1c-0.2-0.1-0.4-0.2-0.5-0.3s-0.2-0.3-0.3-0.5C85,93.9,85,93.7,85,93.4v-5.6
			c0-0.3,0-0.6,0.1-0.8c0.1-0.2,0.1-0.4,0.3-0.5c0.1-0.1,0.3-0.2,0.5-0.3c0.2,0,0.5-0.1,0.8-0.1h5.1c0.4,0,0.7,0,0.9,0.1
			c0.2,0,0.4,0.1,0.5,0.3c0.1,0.1,0.2,0.3,0.3,0.5c0.1,0.2,0.1,0.5,0.1,0.8V93.4z M92.3,87.7c0-0.2-0.1-0.3-0.3-0.3h-5.3
			c-0.2,0-0.3,0.1-0.3,0.3v5.7c0,0.2,0.1,0.2,0.3,0.2H92c0.2,0,0.3-0.1,0.3-0.2V87.7z M96.9,96.6c0,0.7-0.1,1.2-0.4,1.5
			c-0.3,0.3-0.6,0.5-1.1,0.6c-0.4,0.1-0.8,0.1-1.2,0c-0.4-0.1-0.8-0.2-1.3-0.4c-0.3-0.1-0.5-0.3-0.5-0.4c-0.1-0.1,0-0.3,0.1-0.5
			c0.1-0.2,0.2-0.4,0.4-0.4c0.1-0.1,0.3,0,0.6,0.1c0.4,0.1,0.7,0.2,0.9,0.3c0.2,0.1,0.4,0.1,0.6,0.1c0.2,0,0.4-0.1,0.5-0.2
			c0.1-0.2,0.1-0.4,0.1-0.7v-12c0-0.1,0-0.2-0.1-0.3s-0.1-0.1-0.2-0.1h-7.5c-0.2,0-0.4-0.1-0.5-0.2c-0.1-0.1-0.2-0.3-0.2-0.5
			c0-0.2,0.1-0.3,0.2-0.5c0.1-0.1,0.3-0.2,0.5-0.2h7.7c0.5,0,0.9,0.1,1.1,0.4c0.2,0.2,0.3,0.6,0.3,1.2V96.6z"/>
		<path id="XMLID_19_" class="st11" d="M102.2,81.7c0.2,0.1,0.4,0.2,0.4,0.4s0,0.4-0.1,0.7c0,0.1-0.1,0.2-0.1,0.2
			c0,0.1-0.1,0.1-0.1,0.2h4.4c0.5,0,0.8,0.2,0.8,0.6s-0.3,0.6-0.8,0.6h-2.1c0,0.2,0.1,0.3,0.1,0.5c0,0.2,0.1,0.4,0.1,0.6
			c0.1,0.4,0.1,0.7,0,0.8c-0.1,0.2-0.2,0.3-0.4,0.3c-0.3,0.1-0.5,0.1-0.6-0.1c-0.1-0.1-0.2-0.4-0.3-0.8c-0.1-0.5-0.2-0.9-0.3-1.4
			h-1.7c-0.2,0.4-0.4,0.7-0.6,1c-0.2,0.3-0.5,0.6-0.7,0.9c-0.3,0.3-0.5,0.5-0.7,0.6c-0.2,0.1-0.4,0-0.6-0.2
			c-0.2-0.2-0.2-0.3-0.2-0.5c0-0.2,0.2-0.4,0.4-0.7c0.4-0.4,0.7-0.8,1.1-1.4c0.3-0.5,0.6-1.1,1-1.9c0.1-0.3,0.3-0.5,0.4-0.6
			C101.8,81.6,102,81.6,102.2,81.7z M116,83.9c0,0.2-0.1,0.4-0.2,0.5c-0.1,0.1-0.3,0.1-0.6,0.1h-2.8c0.1,0.2,0.1,0.4,0.2,0.6
			c0,0.2,0.1,0.4,0.1,0.6c0.1,0.4,0.1,0.6,0,0.8c-0.1,0.1-0.2,0.2-0.5,0.3c-0.3,0.1-0.5,0-0.6-0.1c-0.1-0.1-0.2-0.3-0.3-0.7
			c-0.1-0.3-0.1-0.5-0.2-0.7c0-0.2-0.1-0.5-0.2-0.8h-2c-0.1,0.2-0.2,0.3-0.4,0.5c-0.1,0.2-0.3,0.3-0.4,0.5c-0.1,0.1-0.1,0.1-0.2,0.2
			s-0.1,0.1-0.1,0.1c0,0,0.1,0.1,0.1,0.1s0.1,0.1,0.1,0.1c0.4,0.4,0.9,0.7,1.5,1.1c0.5,0.4,1.1,0.7,1.6,1.1c0.6,0.3,1.1,0.7,1.7,0.9
			s1.1,0.5,1.7,0.7c0.4,0.1,0.7,0.3,0.8,0.4c0.1,0.1,0.1,0.3,0,0.6c-0.1,0.3-0.2,0.4-0.5,0.5c-0.2,0-0.5,0-1-0.2
			c-0.5-0.2-1.1-0.4-1.7-0.7c-0.6-0.3-1.2-0.6-1.8-1c-0.6-0.4-1.1-0.7-1.7-1.1c-0.5-0.4-1-0.7-1.4-1.1c-0.2-0.2-0.4-0.2-0.5-0.2
			c-0.1,0-0.2,0.1-0.4,0.2c-0.6,0.5-1.2,0.9-1.7,1.3c-0.5,0.4-1,0.7-1.5,1c-0.5,0.3-1,0.6-1.5,0.8c-0.5,0.2-1,0.5-1.6,0.7
			c-0.5,0.2-0.9,0.3-1.1,0.3s-0.3-0.2-0.4-0.4c-0.1-0.2,0-0.4,0.1-0.6c0.1-0.2,0.4-0.3,0.9-0.5c0.6-0.2,1.2-0.5,1.8-0.8
			c0.6-0.3,1.2-0.6,1.7-1c0.6-0.3,1.1-0.7,1.6-1.1c0.5-0.4,0.9-0.7,1.3-1.1c0.2-0.2,0.4-0.3,0.6-0.4c-0.1-0.1-0.1-0.3,0-0.5
			c0.1-0.2,0.2-0.4,0.4-0.6c0.2-0.2,0.3-0.4,0.4-0.5c0.1-0.2,0.3-0.3,0.4-0.5c0.1-0.1,0.2-0.3,0.3-0.5c0.1-0.2,0.2-0.4,0.4-0.6
			c0.2-0.3,0.3-0.5,0.5-0.6c0.2-0.1,0.4-0.1,0.6,0c0.2,0.1,0.3,0.3,0.4,0.4c0,0.2-0.1,0.4-0.2,0.7c0,0,0,0.1-0.1,0.1
			c0,0,0,0.1-0.1,0.1h5.3c0.3,0,0.4,0,0.6,0.1C115.9,83.4,116,83.6,116,83.9z M113.5,97c0,0.5-0.1,0.9-0.3,1.2
			c-0.2,0.3-0.6,0.4-1.1,0.4h-9.5c-0.6,0-0.9-0.1-1.2-0.4c-0.2-0.3-0.3-0.6-0.3-1.2v-3c0-0.5,0.1-0.9,0.3-1.1
			c0.2-0.2,0.6-0.4,1.2-0.4h9.5c0.6,0,0.9,0.1,1.1,0.4c0.2,0.2,0.3,0.6,0.3,1.2V97z M112.1,94c0-0.1,0-0.1-0.1-0.2
			c0-0.1-0.1-0.1-0.1-0.1h-9.2c-0.1,0-0.2,0.1-0.2,0.3v3c0,0.2,0.1,0.3,0.2,0.3h9.2c0.1,0,0.2-0.1,0.2-0.3V94z M112.1,90.6
			c0,0.4-0.3,0.6-0.8,0.6h-7.8c-0.5,0-0.8-0.2-0.8-0.6c0-0.4,0.3-0.7,0.8-0.7h7.8C111.8,90,112.1,90.2,112.1,90.6z"/>
	</g>
	<rect id="_x3C_切片_x3E__4_" y="0.1" class="st12" width="160" height="109.7"/>
</g>
</svg>
